<?xml version="1.0" encoding="utf-8"?>
<!-- Generator: Adobe Illustrator 26.0.3, SVG Export Plug-In . SVG Version: 6.00 Build 0)  -->
<svg version="1.1" id="Layer_1" xmlns="http://www.w3.org/2000/svg" xmlns:xlink="http://www.w3.org/1999/xlink" x="0px" y="0px"
	 viewBox="0 0 48 48" style="enable-background:new 0 0 48 48;" xml:space="preserve">
<style type="text/css">
	.st0{fill:#7C0C77;}
</style>
<path class="st0" d="M24,44c2.5,0,4.8-1.6,5.7-4H18.3C19.2,42.4,21.5,44,24,44z"/>
<path class="st0" d="M39.4,35.3L38,31.8V22c0-6.7-4.7-12.4-11.3-13.7c0.7-1.5,0.1-3.3-1.4-4c-1.5-0.7-3.3-0.1-4,1.4
	c-0.4,0.8-0.4,1.8,0,2.6C14.7,9.6,10,15.3,10,22v9.8l-1.4,3.4c-0.4,1,0.1,2.2,1.1,2.6C10,38,10.2,38,10.5,38h27c1.1,0,2-0.9,2-2
	C39.5,35.7,39.4,35.5,39.4,35.3L39.4,35.3z"/>
</svg>
