<svg version="1.1" id="圖層_1" xmlns="http://www.w3.org/2000/svg" xmlns:xlink="http://www.w3.org/1999/xlink" x="0px" y="0px"
	 viewBox="0 0 448 512" style="enable-background:new 0 0 448 512;" xml:space="preserve">
<style type="text/css">.st0{fill:#55679F;}</style><path class="st0" d="M224,365.8c-0.6,0-0.9-0.3-1-0.4L15.1,157.5c-0.1-0.1-0.4-0.4-0.4-1c0-0.6,0.3-0.9,0.4-1l24.2-24.2
	c0.1-0.1,0.4-0.4,1-0.4c0.6,0,0.9,0.3,1,0.4L224,313.1l182.6-181.8c0.1-0.1,0.4-0.4,1-0.4c0.6,0,0.9,0.3,1,0.4l24.2,24.2
	c0.1,0.1,0.4,0.4,0.4,1c0,0.6-0.3,0.9-0.4,1L225,365.4C224.9,365.5,224.6,365.8,224,365.8z"/></svg>
