<?xml version="1.0" encoding="UTF-8"?>
<svg xmlns="http://www.w3.org/2000/svg" version="1.1" viewBox="0 0 24 24">
  <!-- Generator: Adobe Illustrator 28.7.1, SVG Export Plug-In . SVG Version: 1.2.0 Build 142)  -->
  <g>
    <g id="Layer_1">
      <g>
        <polygon points="12.2 10.7 8.1 5 5.9 5 11 12.1 11.6 13 15.9 19 18.1 19 12.8 11.6 12.2 10.7"/>
        <path d="M21.2,1H2.8c-1,0-1.8.8-1.8,1.8v18.3c0,1,.8,1.8,1.8,1.8h18.3c1,0,1.8-.8,1.8-1.8V2.8c0-1-.8-1.8-1.8-1.8ZM15.2,20l-4.4-6.2-5.5,6.2h-1.4l6.2-7.1L4,4h4.8l4.1,5.9,5.2-5.9h1.4l-6,6.8,6.5,9.2h-4.8Z"/>
      </g>
    </g>
  </g>
</svg>