<?xml version="1.0" encoding="utf-8"?>
<!-- Generator: Adobe Illustrator 28.1.0, SVG Export Plug-In . SVG Version: 6.00 Build 0)  -->
<svg version="1.1" id="Layer_1" xmlns="http://www.w3.org/2000/svg" xmlns:xlink="http://www.w3.org/1999/xlink" x="0px" y="0px"
	 viewBox="0 0 11.1 11.1" style="enable-background:new 0 0 11.1 11.1;" xml:space="preserve">
<style type="text/css">
	.st0{fill:#7D0277;}
</style>
<g>
	<path class="st0" d="M2.9,4.7C2.4,4.7,2,5.1,2,5.6C2,6,2.4,6.5,2.9,6.5c0.5,0,0.9-0.4,0.9-0.9C3.8,5.1,3.4,4.7,2.9,4.7z"/>
	<path class="st0" d="M5.6,4.7c-0.5,0-0.9,0.4-0.9,0.9c0,0.5,0.4,0.9,0.9,0.9S6.5,6,6.5,5.6C6.5,5.1,6,4.7,5.6,4.7z"/>
	<path class="st0" d="M8.2,4.7c-0.5,0-0.9,0.4-0.9,0.9c0,0.5,0.4,0.9,0.9,0.9c0.5,0,0.9-0.4,0.9-0.9C9.1,5.1,8.7,4.7,8.2,4.7z"/>
	<path class="st0" d="M5.6,0C2.5,0,0,2.5,0,5.6s2.5,5.6,5.6,5.6s5.6-2.5,5.6-5.6S8.6,0,5.6,0z M5.6,10.4c-2.6,0-4.8-2.2-4.8-4.8
		s2.2-4.8,4.8-4.8s4.8,2.2,4.8,4.8S8.2,10.4,5.6,10.4z"/>
</g>
</svg>
