<?xml version="1.0" encoding="utf-8"?>
<!-- Generator: Adobe Illustrator 26.5.0, SVG Export Plug-In . SVG Version: 6.00 Build 0)  -->
<svg version="1.1" id="_圖層_1" xmlns="http://www.w3.org/2000/svg" xmlns:xlink="http://www.w3.org/1999/xlink" x="0px" y="0px"
	 viewBox="0 0 352 402.4" style="enable-background:new 0 0 352 402.4;" xml:space="preserve">
<style type="text/css">
	.st0{enable-background:new    ;}
</style>
<path d="M48.7,218.1c0,6.6,5.4,11.8,12.1,11.8h24c6.6,0,12.1-5.3,12.1-11.8V99.8H48.7V218.1z M266.4,147.1
	c6.7-6.4,10.8-13.8,10.8-21.8c0-19.5-15.7-34.7-33-45.4c-15.7-9.8-30.3-21.4-42.1-35.6l-3-3.7l-3,3.7
	c-11.8,14.2-26.3,25.8-42.1,35.6c-17.3,10.7-33,25.9-33,45.4c0,8,4.1,15.3,10.8,21.8H266.4L266.4,147.1z M277.2,158.9H120.9
	c-6.6,0-12.1,5.3-12.1,11.8v47.4c0,6.6,5.4,11.8,12.1,11.8h12.1v-23.7c0-6.6,5.4-11.8,12.1-11.8s12.1,5.3,12.1,11.8v23.7h24v-26.6
	c0-17.8,18-26.6,18-26.6s18,8.9,18,26.6v26.6h24v-23.7c0-6.6,5.4-11.8,12.1-11.8c6.6,0,12.1,5.3,12.1,11.8v23.7h12
	c6.6,0,12.1-5.3,12.1-11.8v-47.4C289.3,164.2,283.9,158.9,277.2,158.9z M72.8,40.6c0,0-24,11.8-24,35.5v11.8h48V76.1
	C96.9,52.4,72.8,40.6,72.8,40.6z"/>
<g class="st0">
	<path d="M15,247.9h42.9l16.5,64.9l16.4-64.9h42.7v106.8h-26.6v-81.4l-20.5,81.4H62.2l-20.5-81.4v81.4H15V247.9z"/>
	<path d="M146.7,247.9h80.4v22.9h-47.8v18.6h40.8V311h-40.8v43.6h-32.6V247.9z"/>
	<path d="M241.5,354.6V247.9h54.2c10.1,0,17.7,0.9,23.1,2.7c5.3,1.8,9.6,5.1,12.8,9.7c3.3,4.8,4.9,10.6,4.9,17.3
		c0,6-1.2,11-3.7,15.3c-2.5,4.3-5.9,7.7-10.2,10.4c-2.7,1.6-6.6,3.1-11.5,4.2c3.8,1.3,6.7,2.7,8.5,3.9c1.2,0.9,2.9,2.7,5.2,5.7
		c2.3,2.8,3.8,5.1,4.5,6.7l15.7,31h-36.7L290.9,322c-2.2-4.2-4.2-7-5.9-8.2c-2.3-1.6-5.1-2.5-7.9-2.5h-2.9v43.3L241.5,354.6
		L241.5,354.6z M274.2,291.2h13.7c1.5,0,4.4-0.4,8.6-1.5c2.2-0.4,4-1.5,5.3-3.4c1.4-1.8,2-3.9,2-6.3c0-3.4-1.1-6.1-3.3-7.9
		c-2.2-1.8-6.1-2.8-12.1-2.8H274v21.9H274.2z"/>
</g>
</svg>
