<?xml version="1.0" encoding="utf-8"?>
<!-- Generator: Adobe Illustrator 26.5.0, SVG Export Plug-In . SVG Version: 6.00 Build 0)  -->
<svg version="1.1" id="_圖層_1" xmlns="http://www.w3.org/2000/svg" xmlns:xlink="http://www.w3.org/1999/xlink" x="0px" y="0px"
	 viewBox="0 0 352 402.4" style="enable-background:new 0 0 352 402.4;" xml:space="preserve">
<g>
	<path d="M320.1,201.9c-1.5,0-3.1-0.5-4.3-1.6c-5.3-4.7-10.5-8.8-15.6-12.2c-3-2-3.8-6-1.8-9c2-3,6-3.8,9-1.8
		c5.6,3.7,11.3,8.2,17.1,13.3c2.7,2.4,2.9,6.5,0.5,9.2C323.7,201.2,321.9,201.9,320.1,201.9z M284.4,178.8c-0.8,0-1.6-0.2-2.4-0.5
		c-6.3-2.5-12.8-4.3-19.7-5.3c-3.6-0.5-6-3.8-5.5-7.4c0.5-3.6,3.8-6,7.4-5.5c8,1.2,15.4,3.2,22.7,6.1c3.3,1.3,5,5.1,3.6,8.5
		C289.4,177.3,287,178.8,284.4,178.8z M219.3,173.4c-3.3,0-6.2-2.5-6.5-5.9c-0.3-3.6,2.3-6.7,5.9-7.1c7.1-0.7,14.8-1.3,22.4-1.5
		c3.6-0.1,6.6,2.8,6.7,6.3c0.1,3.6-2.8,6.6-6.3,6.7c-7.2,0.2-14.6,0.8-21.5,1.4C219.7,173.4,219.5,173.4,219.3,173.4z"/>
</g>
<g>
	<path d="M191.6,113.9c-2,0-4-0.9-5.3-2.7c-2.1-2.9-1.4-7,1.5-9.1c7.1-5.1,12.8-9.2,17.7-12.9c2.9-2.1,7-1.5,9.1,1.4
		c2.1,2.9,1.5,7-1.4,9.1c-5,3.7-10.7,7.8-17.9,12.9C194.2,113.5,192.9,113.9,191.6,113.9z M227,87.8c-1.9,0-3.8-0.9-5.1-2.5
		c-2.2-2.8-1.7-6.9,1.1-9.1c6.6-5.2,12-9.7,16.5-13.8c2.6-2.4,6.8-2.3,9.2,0.4c2.4,2.6,2.3,6.8-0.4,9.2c-4.7,4.3-10.4,9.1-17.2,14.4
		C229.8,87.3,228.4,87.8,227,87.8z M258.7,57.5c-1.4,0-2.7-0.4-3.9-1.3c-2.9-2.2-3.4-6.2-1.3-9.1c4-5.3,7.3-10.9,10.3-17.7
		c1.5-3.3,5.3-4.7,8.6-3.3c3.3,1.5,4.7,5.3,3.3,8.6c-3.5,7.7-7.2,14.1-11.8,20.2C262.6,56.6,260.7,57.5,258.7,57.5z"/>
</g>
<g>
	<rect x="70.7" y="203.2" width="90.1" height="126.8"/>
</g>
<g>
	<path d="M155.7,370.3H76c-2.9,0-5.2-2.3-5.2-5.2v-21.4h90.1v21.4C160.9,368,158.6,370.3,155.7,370.3z"/>
</g>
<g>
	<path d="M207.9,141.8c-2.6,0-5.1-1.6-6.1-4.2c-1.3-3.4,0.4-7.1,3.8-8.4l20.6-7.8c3.4-1.3,7.1,0.4,8.4,3.8c1.3,3.4-0.4,7.1-3.8,8.4
		l-20.6,7.8C209.5,141.7,208.7,141.8,207.9,141.8z M249.1,126.2c-2.6,0-5.1-1.6-6.1-4.2c-1.3-3.4,0.4-7.1,3.8-8.4l20.6-7.8
		c3.4-1.3,7.1,0.4,8.4,3.8c1.3,3.4-0.4,7.1-3.8,8.4l-20.6,7.8C250.6,126.1,249.8,126.2,249.1,126.2z M290.2,110.6
		c-2.6,0-5.1-1.6-6.1-4.2c-1.3-3.4,0.4-7.1,3.8-8.4l20.6-7.8c3.4-1.3,7.1,0.4,8.4,3.8c1.3,3.4-0.4,7.1-3.8,8.4l-20.6,7.8
		C291.8,110.4,291,110.6,290.2,110.6z"/>
</g>
<g>
	<path d="M226.7,177.2l-32.8-73.4c-11.4-31.7-27.3-26.3-42.1-18.2l-5.7,3.2l55.8,118.7l15.9-5.9
		C226.5,198.3,230.4,187.4,226.7,177.2z"/>
</g>
<g>
	<path d="M27.5,158c-8.7,3.2-12.7,14.1-8.9,24.3l23.5,63.2c3.8,10.2,13.9,15.9,22.6,12.6l122.4-45.5L133.8,99.3L27.5,158z"/>
</g>
</svg>
