<?xml version="1.0" encoding="utf-8"?>
<!-- Generator: Adobe Illustrator 26.0.2, SVG Export Plug-In . SVG Version: 6.00 Build 0)  -->
<svg version="1.1"
	 id="svg2060" xmlns:cc="http://creativecommons.org/ns#" xmlns:dc="http://purl.org/dc/elements/1.1/" xmlns:inkscape="http://www.inkscape.org/namespaces/inkscape" xmlns:rdf="http://www.w3.org/1999/02/22-rdf-syntax-ns#" xmlns:sodipodi="http://sodipodi.sourceforge.net/DTD/sodipodi-0.dtd" xmlns:svg="http://www.w3.org/2000/svg"
	 xmlns="http://www.w3.org/2000/svg" xmlns:xlink="http://www.w3.org/1999/xlink" x="0px" y="0px" viewBox="0 0 388 355.3"
	 style="enable-background:new 0 0 388 355.3;" xml:space="preserve">
<style type="text/css">
	.st0{fill:#FFFFFF;}
</style>
<path id="path2072" d="M194,276.3L194,276.3h-90.5v28.6c0,34.8-50.3,35.2-50.3,0v-28.6H26.5v-89.4c0-24,19.3-36.7,30.2-38.1
	l27.5-70.3c5.2-13.4,16.4-24.8,37.6-24.8h39.3V35.3c0-7.3,4-11.1,10.5-11.1H194h0.1H194h0.1h22.8c6.5,0,10.5,3.7,10.5,11.1v18.3
	h38.9c21.2,0,32.4,11.4,37.6,24.8l27.5,70.3c10.9,1.4,30.2,14.1,30.2,38.1v89.4h-26.8v28.6c0,35.2-50.3,34.8-50.3,0v-28.6H194
	L194,276.3L194,276.3z"/>
<g id="g2074">
	<path id="path2076" class="st0" d="M194,147.1L194,147.1H85.2l20.7-54.4c2.6-7.8,6.5-13.4,15.5-13.5h72.5h0.1h0.1h72.5
		c9.1,0.1,13,5.7,15.5,13.5l20.7,54.4H194L194,147.1z"/>
	<g id="g2078">
		<g id="g2080">
			<path id="path2082" class="st0" d="M79.2,221.6C66.4,221.6,56,211,56,197.9s10.4-23.7,23.2-23.7s23.2,10.6,23.2,23.7
				S92,221.6,79.2,221.6z"/>
			<path id="path2084" class="st0" d="M26.5,24.3"/>
		</g>
		<g id="g2086">
			<path id="path2088" class="st0" d="M308.8,221.6c12.8,0,23.2-10.6,23.2-23.7s-10.4-23.7-23.2-23.7s-23.2,10.6-23.2,23.7
				S295.9,221.6,308.8,221.6z"/>
			<path id="path2090" class="st0" d="M26.5,24.3"/>
		</g>
	</g>
</g>
</svg>
