<?xml version="1.0" encoding="utf-8"?>
<!-- Generator: Adobe Illustrator 26.0.2, SVG Export Plug-In . SVG Version: 6.00 Build 0)  -->
<svg version="1.1" id="圖層_1" xmlns="http://www.w3.org/2000/svg" xmlns:xlink="http://www.w3.org/1999/xlink" x="0px" y="0px"
	 viewBox="0 0 448 512" style="enable-background:new 0 0 448 512;" xml:space="preserve">
<path d="M387.4,100.4c6.9,0,12.6-5.7,12.6-12.6V75.3c0-6.9-5.7-12.6-12.6-12.6H60.6c-6.9,0-12.6,5.7-12.6,12.6v12.6
	c0,6.9,5.7,12.6,12.6,12.6h12.6v124.7C57.3,236.5,48,249,48,263.9c0,47.9,26.1,90.5,66.1,118.2l-15.4,50.6
	c-4.2,16.1,7.9,32.4,24.8,32.4h201.1c16.9,0,29-16.3,24.1-32.4L333.2,382c40.6-27.7,66.8-70.9,66.8-118.2c0-14.2-9.3-27.4-25.1-38.7
	V100.4H387.4z M123.4,119.3c0-3.4,2.9-6.3,6.3-6.3h37.7c3.5,0,6.3,2.9,6.3,6.3v12.6c0,3.4-2.8,6.3-6.3,6.3h-37.7
	c-3.4,0-6.3-2.8-6.3-6.3V119.3z M224,289c-69.5,0-125.7-11.2-125.7-25.1c0-13.9,56.3-25.1,125.7-25.1s125.7,11.3,125.7,25.1
	C349.7,277.8,293.5,289,224,289z"/>
</svg>
