<?xml version="1.0" ?><svg id="svg874" style="enable-background:new 0 0 32 32;" version="1.1" viewBox="0 0 32 32" xml:space="preserve" xmlns="http://www.w3.org/2000/svg" xmlns:cc="http://creativecommons.org/ns#" xmlns:dc="http://purl.org/dc/elements/1.1/" xmlns:inkscape="http://www.inkscape.org/namespaces/inkscape" xmlns:rdf="http://www.w3.org/1999/02/22-rdf-syntax-ns#" xmlns:sodipodi="http://sodipodi.sourceforge.net/DTD/sodipodi-0.dtd" xmlns:svg="http://www.w3.org/2000/svg" xmlns:xlink="http://www.w3.org/1999/xlink"><defs/><path d="M16,3.5L4.1,9L16,14.4L27.9,9L16,3.5z M16,6.3c0.1,0,0.1,0,0.2,0l5,2.1  c0.3,0.1,0.4,0.4,0.3,0.7c-0.1,0.1-0.1,0.2-0.3,0.3l-5,2.1c-0.1,0.1-0.3,0.1-0.4,0l-5-2.1c-0.3-0.1-0.4-0.4-0.3-0.7  c0.1-0.1,0.1-0.2,0.3-0.3l5-2.1C15.9,6.3,15.9,6.3,16,6.3L16,6.3z M16,7.3l-3.7,1.5l3.7,1.5l3.7-1.5L16,7.3z" id="path2046"/><path d="M3.5,9.8l12,5.5v2.6l-12-5.5V9.8z" id="path2040"/><path d="M28.5,9.8v2.6l-12,5.5v-2.6L28.5,9.8z" id="path2038"/><path d="M3.5,13.5l12,5.5v2.3l-12-5.5V13.5z" id="path2036"/><path d="M28.5,13.5v2.3l-3.4,1.6c-0.3,0.1-0.4,0.4-0.2,0.7c0.1,0.3,0.4,0.4,0.7,0.2  l3-1.4v5.8l-5,2.3v-6c0-0.3-0.2-0.5-0.5-0.5c0,0,0,0,0,0c-0.1,0-0.1,0-0.2,0.1l-4,2c-0.2,0.1-0.3,0.3-0.3,0.4v6c0,0.1,0,0.2,0.1,0.3  l-2.1,1v-5.9c0-0.1,0-0.2,0-0.3V19L28.5,13.5z" id="path2034"/><path d="M3.5,16.9l12,5.5v5.8l-12-5.5V16.9z" id="path2032"/><path d="M22.5,19.8v5.4c0,0.1,0,0.1,0,0.2l-3,1.4v-5.5L22.5,19.8z" id="rect46"/></svg>