<?xml version="1.0" encoding="utf-8"?>
<!-- Generator: Adobe Illustrator 26.5.0, SVG Export Plug-In . SVG Version: 6.00 Build 0)  -->
<svg version="1.1" id="_圖層_1" xmlns="http://www.w3.org/2000/svg" xmlns:xlink="http://www.w3.org/1999/xlink" x="0px" y="0px"
	 viewBox="0 0 352 402.4" style="enable-background:new 0 0 352 402.4;" xml:space="preserve">
<style type="text/css">
	.st0{enable-background:new    ;}
</style>
<g>
	<path d="M240.7,247.9h97.1v26.4h-32.6v80.4h-31.9v-80.4h-32.6L240.7,247.9L240.7,247.9z"/>
</g>
<path d="M48.7,218.1c0,6.6,5.4,11.8,12.1,11.8h24c6.6,0,12.1-5.3,12.1-11.8V99.8H48.7V218.1z M266.4,147.1
	c6.7-6.4,10.8-13.8,10.8-21.8c0-19.5-15.7-34.7-33-45.4c-15.7-9.8-30.3-21.4-42.1-35.6l-3-3.7l-3,3.7
	c-11.8,14.2-26.3,25.8-42.1,35.6c-17.3,10.7-33,25.9-33,45.4c0,8,4.1,15.3,10.8,21.8H266.4L266.4,147.1z M277.2,158.9H120.9
	c-6.6,0-12.1,5.3-12.1,11.8v47.4c0,6.6,5.4,11.8,12.1,11.8h12.1v-23.7c0-6.6,5.4-11.8,12.1-11.8s12.1,5.3,12.1,11.8v23.7h24v-26.6
	c0-17.8,18-26.6,18-26.6s18,8.9,18,26.6v26.6h24v-23.7c0-6.6,5.4-11.8,12.1-11.8c6.6,0,12.1,5.3,12.1,11.8v23.7h12
	c6.6,0,12.1-5.3,12.1-11.8v-47.4C289.3,164.2,283.9,158.9,277.2,158.9z M72.8,40.6c0,0-24,11.8-24,35.5v11.8h48V76.1
	C96.9,52.4,72.8,40.6,72.8,40.6z"/>
<g class="st0">
	<path d="M15,247.9h42.9l16.5,64.9l16.4-64.9h42.7v106.8h-26.6v-81.4l-20.5,81.4H62.2l-20.5-81.4v81.4H15V247.9z"/>
	<path d="M146.7,247.9h80.4v22.9h-47.8v18.6h40.8V311h-40.8v43.6h-32.6V247.9z"/>
</g>
</svg>
