<?xml version="1.0" encoding="utf-8"?>
<!-- Generator: Adobe Illustrator 26.5.0, SVG Export Plug-In . SVG Version: 6.00 Build 0)  -->
<svg version="1.1" id="_圖層_1" xmlns="http://www.w3.org/2000/svg" xmlns:xlink="http://www.w3.org/1999/xlink" x="0px" y="0px"
	 viewBox="0 0 352 402.4" style="enable-background:new 0 0 352 402.4;" xml:space="preserve">
<style type="text/css">
	.st0{fill:none;}
	.st1{fill:none;stroke:#000000;stroke-width:13;stroke-linecap:round;stroke-miterlimit:10;stroke-dasharray:22;}
</style>
<path class="st0" d="M-282.7,346.8c-40.6,0-81.5,0-121.3,0c0,0,0,0.1,0.1,0.1h121.3C-282.7,346.9-282.7,346.8-282.7,346.8z"/>
<path d="M32.7,180.8h208.8c-0.3,7.8-0.8,15.3-1.7,22.4H36.7C35.3,196,34,188.5,32.7,180.8z"/>
<path d="M260.9,209h43V16.2h-21.7c-11.8,0-21.3,9.5-21.3,21.3V209z"/>
<path d="M303.5,326.2H124.4c-50.6,0-91.7-41-91.7-91.7v-9.7c0-0.2,0.1-0.3,0.3-0.3h270.5c0.2,0,0.3,0.1,0.3,0.3v101
	C303.9,326.1,303.7,326.2,303.5,326.2z"/>
<path class="st1" d="M43.7,67.9c38.4,3,69,22.9,85.1,46.1s20.1,49.6,24,75.5"/>
<path class="st1" d="M145.7,142.6c9.8-22.1,13.1-55.1,86.2-66.8"/>
<polygon points="303.9,365.7 134.7,365.7 152.8,311.7 303.9,311.7 "/>
</svg>
