<?xml version="1.0" encoding="utf-8"?>
<!-- Generator: Adobe Illustrator 26.0.2, SVG Export Plug-In . SVG Version: 6.00 Build 0)  -->
<svg version="1.1" id="圖層_1" xmlns="http://www.w3.org/2000/svg" xmlns:xlink="http://www.w3.org/1999/xlink" x="0px" y="0px"
	 viewBox="0 0 512 512" style="enable-background:new 0 0 512 512;" xml:space="preserve">
<style type="text/css">
	.st0{fill:#FFFFFF;}
	.st1{fill:none;stroke:#FFFFFF;stroke-width:17;stroke-linecap:round;stroke-miterlimit:10;}
</style>
<g>
	<g>
		<path class="st0" d="M209.2,437.5c-5.9,0-10.6-4.8-10.6-10.6v-1L155.5,84.4c0.4-5.5,5-9.9,10.6-9.9h227.6
			c5.9,0,10.6,4.8,10.6,10.6v1l43.1,341.5c-0.4,5.5-5,9.9-10.6,9.9H209.2z"/>
		<path d="M388.8,90.5l41.8,331H214.2l-41.8-331H388.8 M393.8,58.5H166.1c-14.7,0-26.6,11.9-26.6,26.6l43.1,341.7
			c0,14.7,11.9,26.6,26.6,26.6h227.6c14.7,0,26.6-11.9,26.6-26.6L420.4,85.1C420.4,70.4,408.5,58.5,393.8,58.5L393.8,58.5z"/>
	</g>
	<path d="M337.3,453.5H70.1c-12,0-21.7-10.5-21.7-23.4l55.4-348.1c0-12.9,9.7-23.4,21.7-23.4h267.2c12,0,21.7,10.5,21.7,23.4
		L359,430.1C359,443,349.3,453.5,337.3,453.5z"/>
	<line class="st1" x1="145.8" y1="113.3" x2="351.1" y2="113.3"/>
	<line class="st1" x1="135.2" y1="173.7" x2="340.4" y2="173.7"/>
</g>
</svg>
