<?xml version="1.0" encoding="utf-8"?>
<!-- Generator: Adobe Illustrator 26.0.2, SVG Export Plug-In . SVG Version: 6.00 Build 0)  -->
<svg version="1.1" id="Layer_1" xmlns="http://www.w3.org/2000/svg" xmlns:xlink="http://www.w3.org/1999/xlink" x="0px" y="0px"
	 viewBox="0 0 512 512" style="enable-background:new 0 0 512 512;" xml:space="preserve">
<style type="text/css">
	.st0{fill:#020202;}
</style>
<g>
	<path class="st0" d="M306.9,122.6c0.1-1.4,0.4-2.8,0.4-4.2c0-24.5-19.9-44.4-44.4-44.4s-44.4,19.9-44.4,44.4c0,1.5,0.3,2.8,0.4,4.2
		H306.9z"/>
	<path class="st0" d="M457.6-0.8h-64.9c-7.9,0-15.1,4.7-18.3,12L320.1,136H52.4c-16,0-24,19.3-12.7,30.7l170.9,170.9v144.2h-68.8
		c-8.5,0-15.5,7-15.5,15.5s7,15.5,15.5,15.5h168c8.5,0,15.5-7,15.5-15.5s-7-15.5-15.5-15.5H241V337.5l171-170.9
		c11.3-11.3,3.3-30.7-12.7-30.7h-35.7l42.2-96.8h51.8c11,0,20-8.9,20-20C477.6,8.2,468.7-0.8,457.6-0.8z"/>
</g>
</svg>
