<?xml version="1.0" encoding="utf-8"?>
<!-- Generator: Adobe Illustrator 26.0.2, SVG Export Plug-In . SVG Version: 6.00 Build 0)  -->
<svg version="1.1" id="圖層_1" xmlns="http://www.w3.org/2000/svg" xmlns:xlink="http://www.w3.org/1999/xlink" x="0px" y="0px"
	 viewBox="0 0 32 32" style="enable-background:new 0 0 32 32;" xml:space="preserve">
<style type="text/css">
	.st0{fill:#FFFFFF;}
</style>
<path d="M30.4,14.9c-0.5-0.6-1.2-0.9-1.9-0.9H28V4.1C28,2.4,26.6,1,24.9,1h-2.5C21.1,1,20,2.1,20,3.4c0,0,0,0,0,0v0.7
	c-1.8,0.5-3,2-3,3.9v1c0,0.6,0.4,1,1,1h6c0.6,0,1-0.4,1-1V8c0-1.8-1.2-3.4-3-3.9V3.4C22,3.2,22.2,3,22.4,3h2.5C25.5,3,26,3.5,26,4.1
	V14H3.5C2.1,14,1,15.1,1,16.5c0,0.8,0.4,1.5,1,2v3c0,2.8,1.8,5.3,4.4,6.2l-1.2,1.8c-0.3,0.5-0.2,1.1,0.3,1.4C5.6,30.9,5.8,31,6,31
	c0.3,0,0.6-0.2,0.8-0.5L8.5,28h14.9l1.7,2.5c0.2,0.3,0.5,0.4,0.8,0.5c0.2,0,0.4-0.1,0.5-0.2c0.5-0.3,0.6-0.9,0.3-1.4l-1.2-1.8
	c2.6-0.9,4.4-3.4,4.4-6.2v-3C31.1,17.6,31.3,16,30.4,14.9z M23,8h-4c0-1.1,0.9-2,2-2S23,6.9,23,8z M29,16.7l0-0.2
	C29,16.6,29,16.6,29,16.7z"/>
<rect x="4.3" y="18.5" class="st0" width="23.6" height="1.5"/>
</svg>
