<?xml version="1.0" encoding="utf-8"?>
<!-- Generator: Adobe Illustrator 26.0.2, SVG Export Plug-In . SVG Version: 6.00 Build 0)  -->
<svg version="1.1" id="圖層_1" xmlns="http://www.w3.org/2000/svg" xmlns:xlink="http://www.w3.org/1999/xlink" x="0px" y="0px"
	 viewBox="0 0 40 40" style="enable-background:new 0 0 40 40;" xml:space="preserve">
<g id="Intercom">
	<path id="Path" d="M31.7,3.7h-24c-2.2,0-4,1.8-4,4v24c0,2.2,1.8,4,4,4l0,0h24c2.2,0,4-1.8,4-4l0,0v-24C35.7,5.5,33.9,3.7,31.7,3.7z
		 M24,9.6c0-0.6,0.5-1.1,1.1-1.1c0.6,0,1.1,0.5,1.1,1.1l0,0v14.3c0,0.6-0.5,1.1-1.1,1.1c-0.6,0-1.1-0.5-1.1-1.1V9.6z M18.7,9.1
		c0-0.6,0.5-1.1,1.1-1.1c0.6,0,1.1,0.5,1.1,1.1v15.5c0,0.6-0.5,1.1-1.1,1.1c-0.6,0-1.1-0.5-1.1-1.1V9.1z M13.3,9.6
		c0-0.6,0.5-1.1,1.1-1.1c0.6,0,1.1,0.5,1.1,1.1l0,0v14.3c0,0.6-0.5,1.1-1.1,1.1c-0.6,0-1.1-0.5-1.1-1.1V9.6z M8,11.7
		c0-0.6,0.5-1.1,1.1-1.1s1.1,0.5,1.1,1.1l0,0v9.6c0,0.6-0.5,1.1-1.1,1.1S8,21.9,8,21.3V11.7z M31.1,28c-3.3,2.4-7.3,3.6-11.4,3.5
		c-4.1,0.2-8.1-1.1-11.4-3.5c-0.4-0.4-0.5-1.1-0.1-1.5c0,0,0,0,0,0c0.4-0.4,1.1-0.5,1.5-0.1c0,0,0,0,0,0c2.9,2,6.4,3.1,10,2.9
		c3.6,0.1,7.1-0.9,10-2.9c0.4-0.5,1-0.5,1.5-0.2c0.5,0.4,0.5,1,0.2,1.5C31.3,27.9,31.2,28,31.1,28L31.1,28z M31.5,21.3
		c0,0.6-0.5,1.1-1.1,1.1c-0.6,0-1.1-0.5-1.1-1.1v-9.6c0-0.6,0.5-1.1,1.1-1.1c0.6,0,1.1,0.5,1.1,1.1l0,0V21.3z"/>
</g>
</svg>
