<?xml version="1.0" encoding="utf-8"?>
<!-- Generator: Adobe Illustrator 26.0.2, SVG Export Plug-In . SVG Version: 6.00 Build 0)  -->
<svg version="1.1" id="Layer_1" xmlns="http://www.w3.org/2000/svg" xmlns:xlink="http://www.w3.org/1999/xlink" x="0px" y="0px"
	 viewBox="0 0 30 30" style="enable-background:new 0 0 30 30;" xml:space="preserve">
<style type="text/css">
	.st0{fill:#FFFFFF;}
</style>
<g id="DlXcbD.tif">
	<g>
		<path class="st0" d="M28.4,28.6c-9,0-18.1,0-27.1,0c0-9,0-18.1,0-27.1c9,0,18.1,0,27.1,0C28.4,10.5,28.4,19.5,28.4,28.6z
			 M8.2,16.8c0,0,0.1,0.1,0.1,0.2c0.6,1.1,1.2,2.2,1.8,3.3c0.2,0.3,0.3,0.7,0.2,1c0,0.2,0,0.3,0.1,0.4c1.2,1.3,2.6,2,4.4,2
			c1.8,0,3.4-0.7,4.6-2.1c0.1-0.1,0.1-0.2,0.1-0.3c-0.1-0.5,0-0.9,0.2-1.3c0.6-1,1.1-2.1,1.7-3.1c0-0.1,0.1-0.2,0.1-0.3
			c-0.1,0-0.1,0-0.1,0c-1.1,0-1.9-0.8-1.7-1.9c0.1-0.5,0.2-0.9,0.3-1.3c-0.9,0-1.8-0.1-2.7-0.1c0.1-0.3,0.1-0.6,0.2-0.9
			c0.1,0,0.2,0,0.3,0c0.7,0,1.5,0.1,2.2,0.1c0.1,0,0.2,0,0.2-0.2c0.1-0.4,0.1-0.9,0.2-1.3c0-0.2,0-0.3-0.2-0.3
			c-0.2-0.1-0.5-0.2-0.7-0.2c-0.8-0.2-1.6-0.2-2.4,0C17,10.2,17,10,16.9,9.7c0.6-0.2,1.2-0.2,1.8-0.2c0.6,0.1,1.1,0.2,1.7,0.3
			c0-0.2,0.1-0.5,0.1-0.7c0-0.3,0.1-0.5,0.2-0.7c0.1-0.2,0-0.4-0.1-0.6c-1.7-2.1-4-3-6.7-2.7c-1.9,0.3-3.5,1.2-4.7,2.8
			C9.1,8,9.1,8.1,9.1,8.2c0.1,0.4,0.1,0.7,0.2,1.1c0,0.2,0.1,0.4,0.1,0.6c1.2-0.4,2.3-0.5,3.5-0.2c-0.1,0.3-0.1,0.5-0.2,0.8
			c-1.1-0.3-2.1-0.2-3.1,0.2c-0.1,0.1-0.2,0.1-0.2,0.3c0.1,0.4,0.1,0.9,0.2,1.3c0,0.1,0.1,0.2,0.2,0.2c0.7,0,1.5,0,2.2,0
			c0.2,0,0.5,0,0.7-0.1c0,0.3,0.1,0.5,0.1,0.8c-0.5,0-1,0.1-1.5,0.1c-0.5,0-1,0-1.5,0c0.1,0.5,0.2,1,0.3,1.5
			c0.1,0.7-0.2,1.3-0.8,1.6C8.9,16.6,8.6,16.7,8.2,16.8z M24.1,11.3c0,0.1-0.1,0.2-0.1,0.3c-0.5,1.7-1,3.4-1.6,5.1
			c0,0.1-0.1,0.2-0.1,0.3c-0.6,1.2-1.3,2.3-1.9,3.5c-0.1,0.1-0.1,0.2-0.1,0.3c-0.2,0.5,0.2,1,0.7,0.9c0.3,0,0.4-0.2,0.5-0.4
			c1-1.6,2-3.1,3-4.7c0.1-0.1,0.1-0.2,0.1-0.3c0.6-1.9,1.3-3.9,1.9-5.8c0.1-0.2,0.1-0.4,0.1-0.6c0-2.2,0-4.3,0-6.5
			c0-0.1,0-0.2,0-0.3c-1.1,0-2.3,0-3.4,0c0,0.6,0,1.3,0,1.9c0,0.3-0.1,0.5-0.3,0.7c-0.4,0.5-0.8,1-1.1,1.5c-0.6,1-0.8,2.2-0.8,3.4
			c0,0.4,0,0.8,0,1.2c-0.2,0.9-0.4,1.8-0.5,2.7c0,0.1-0.1,0.3-0.1,0.4c-0.1,0.4,0.1,0.8,0.5,0.9c0.4,0.1,0.8-0.1,0.9-0.5
			c0.4-1.3,0.8-2.6,1.2-3.9c0-0.1,0.1-0.2,0.1-0.4C23.6,11.2,23.9,11.2,24.1,11.3z M3,3.2c0,0.1,0,0.1,0,0.2c0,2.2,0,4.5,0,6.7
			c0,0.2,0,0.3,0.1,0.5c0.4,1.2,0.8,2.3,1.2,3.5c0.4,1.3,0.8,2.7,1.7,3.8c0.3,0.4,0.6,0.9,0.9,1.4c0.5,0.7,0.9,1.4,1.4,2.1
			c0.2,0.4,0.7,0.5,1,0.2c0.3-0.2,0.3-0.6,0.1-0.9c-0.6-1.2-1.3-2.4-1.9-3.6c-0.1-0.1-0.1-0.3-0.2-0.4c-0.4-1.2-0.7-2.4-1.1-3.5
			c-0.2-0.6-0.4-1.2-0.6-1.8c0.3-0.1,0.5-0.2,0.8-0.3c0.2,0.7,0.4,1.4,0.7,2.1c0.2,0.7,0.5,1.5,0.7,2.2c0.1,0.4,0.5,0.6,0.9,0.5
			C9,15.7,9.3,15.4,9.2,15c0-0.1,0-0.2-0.1-0.3c-0.3-1.5-0.7-2.9-0.6-4.4c0-1.8-0.6-3.3-1.8-4.6C6.5,5.5,6.4,5.3,6.4,5.1
			c0-0.6,0-1.3,0-1.9C5.3,3.2,4.2,3.2,3,3.2z M18.2,23.7c-2.2,1.2-4.4,1.2-6.6,0c-0.1,1.1-0.2,2.1-0.3,3.1c2.4,0,4.8,0,7.1,0
			C18.4,25.8,18.3,24.7,18.2,23.7z M15.3,4.2c0.3,0,0.6,0.1,0.9,0.1c0,0,0.1-0.1,0.2-0.1c0.1-0.2,0.3-0.5,0.4-0.8
			c-0.5-0.1-1-0.2-1.5-0.2C15.3,3.5,15.3,3.8,15.3,4.2z M12.9,3.4c0.2,0.3,0.3,0.6,0.4,0.8c0,0,0.1,0.1,0.1,0.1c0.3,0,0.6-0.1,1-0.1
			c0-0.3,0-0.6,0-1C13.9,3.2,13.5,3.3,12.9,3.4z M10.8,4.4c0.2,0.2,0.3,0.4,0.5,0.5c0,0,0.1,0.1,0.2,0c0.3-0.1,0.7-0.3,1-0.4
			c-0.1-0.3-0.3-0.5-0.4-0.8C11.7,3.9,11.3,4.1,10.8,4.4z M17.2,4.5c0.4,0.1,0.7,0.3,1.1,0.4c0,0,0.1,0,0.2,0
			c0.2-0.1,0.3-0.3,0.5-0.5c-0.5-0.3-0.9-0.5-1.4-0.7C17.5,4,17.3,4.2,17.2,4.5z M20.5,5.8c-0.3-0.3-0.6-0.6-0.9-0.8
			c-0.2,0.2-0.3,0.3-0.5,0.4c0.3,0.2,0.6,0.5,0.9,0.7C20.3,6,20.4,5.9,20.5,5.8z M9.6,6.1c0.4-0.3,0.7-0.5,1-0.7
			c-0.1-0.1-0.3-0.3-0.5-0.5C9.8,5.2,9.6,5.5,9.3,5.8C9.4,6,9.5,6,9.6,6.1z M8.7,7.1C8.8,7,8.9,6.9,9,6.8c0-0.1-0.1-0.1-0.1-0.1
			c0,0-0.1,0-0.1-0.1C8.6,6.9,8.6,6.9,8.7,7.1z M21,6.5c-0.1,0.1-0.1,0.1-0.2,0.2C20.9,6.9,21,7,21.1,7.1C21.3,6.9,21,6.7,21,6.5z"
			/>
		<path d="M8.2,16.8c0.3-0.1,0.7-0.1,1-0.3c0.6-0.3,0.9-1,0.8-1.6c-0.1-0.5-0.2-1-0.3-1.5c0.5,0,1,0,1.5,0c0.5,0,1-0.1,1.5-0.1
			c0-0.3-0.1-0.6-0.1-0.8c-0.2,0-0.5,0.1-0.7,0.1c-0.7,0-1.5,0-2.2,0c-0.1,0-0.2-0.1-0.2-0.2c0-0.4-0.1-0.9-0.2-1.3
			c0-0.2,0.1-0.2,0.2-0.3c1-0.4,2-0.5,3.1-0.2c0.1-0.3,0.1-0.5,0.2-0.8c-1.2-0.3-2.3-0.2-3.5,0.2c0-0.2,0-0.4-0.1-0.6
			C9.2,8.9,9.1,8.6,9.1,8.2c0-0.1,0-0.3,0.1-0.4c1.2-1.6,2.8-2.5,4.7-2.8c2.7-0.3,4.9,0.6,6.7,2.7c0.1,0.2,0.2,0.3,0.1,0.6
			c-0.1,0.2-0.1,0.5-0.2,0.7c0,0.2-0.1,0.5-0.1,0.7c-0.6-0.1-1.2-0.3-1.7-0.3c-0.6-0.1-1.2,0-1.8,0.2c0.1,0.3,0.1,0.5,0.2,0.8
			c0.8-0.2,1.6-0.2,2.4,0c0.2,0.1,0.5,0.2,0.7,0.2c0.2,0.1,0.2,0.2,0.2,0.3c-0.1,0.4-0.1,0.9-0.2,1.3c0,0.2-0.1,0.2-0.2,0.2
			c-0.7,0-1.5-0.1-2.2-0.1c-0.1,0-0.2,0-0.3,0c0,0.3-0.1,0.5-0.2,0.9c0.9,0,1.8,0.1,2.7,0.1c-0.1,0.4-0.2,0.9-0.3,1.3
			c-0.2,1.1,0.6,1.9,1.7,1.9c0,0,0.1,0,0.1,0c-0.1,0.1-0.1,0.2-0.1,0.3c-0.6,1.1-1.1,2.1-1.7,3.1c-0.2,0.4-0.4,0.8-0.2,1.3
			c0,0.1,0,0.2-0.1,0.3c-1.2,1.4-2.7,2.1-4.6,2.1c-1.7,0-3.2-0.7-4.4-2c-0.1-0.1-0.1-0.2-0.1-0.4c0.1-0.4,0-0.7-0.2-1
			c-0.6-1.1-1.2-2.2-1.8-3.3C8.3,16.9,8.2,16.8,8.2,16.8z M15.3,10.8c-0.3,0-0.6,0-0.8,0c0,1.5,0,3.1,0,4.6c0.3,0,0.6,0,0.8,0
			C15.3,13.9,15.3,12.3,15.3,10.8z M12.9,17.9c1.3-0.5,2.6-0.5,3.9,0c0.1-0.3,0.2-0.5,0.3-0.8c-1.5-0.6-3-0.6-4.5,0
			C12.7,17.4,12.8,17.6,12.9,17.9z"/>
		<path d="M24.1,11.3c-0.3-0.1-0.5-0.2-0.8-0.3c0,0.1-0.1,0.3-0.1,0.4c-0.4,1.3-0.8,2.6-1.2,3.9c-0.1,0.4-0.5,0.6-0.9,0.5
			c-0.4-0.1-0.6-0.5-0.5-0.9c0-0.1,0.1-0.3,0.1-0.4c0.2-0.9,0.4-1.8,0.5-2.7c0.1-0.4,0-0.8,0-1.2c0-1.2,0.2-2.3,0.8-3.4
			c0.3-0.5,0.7-1,1.1-1.5c0.2-0.2,0.3-0.4,0.3-0.7c0-0.6,0-1.2,0-1.9c1.1,0,2.2,0,3.4,0c0,0.1,0,0.2,0,0.3c0,2.2,0,4.3,0,6.5
			c0,0.2,0,0.4-0.1,0.6c-0.6,1.9-1.3,3.9-1.9,5.8c0,0.1-0.1,0.2-0.1,0.3c-1,1.6-2,3.1-3,4.7c-0.1,0.2-0.3,0.4-0.5,0.4
			c-0.5,0.1-0.9-0.4-0.7-0.9c0-0.1,0.1-0.2,0.1-0.3c0.6-1.2,1.3-2.3,1.9-3.5c0.1-0.1,0.1-0.2,0.1-0.3c0.5-1.7,1.1-3.4,1.6-5.1
			C24.1,11.5,24.1,11.4,24.1,11.3z"/>
		<path d="M3,3.2c1.1,0,2.2,0,3.4,0c0,0.6,0,1.3,0,1.9c0,0.3,0.1,0.4,0.3,0.6C7.9,7,8.6,8.5,8.5,10.3c0,1.5,0.4,3,0.6,4.4
			c0,0.1,0,0.2,0.1,0.3c0.1,0.4-0.2,0.8-0.5,0.9c-0.4,0.1-0.8-0.1-0.9-0.5c-0.2-0.7-0.5-1.5-0.7-2.2c-0.2-0.7-0.4-1.4-0.7-2.1
			c-0.3,0.1-0.5,0.2-0.8,0.3c0.2,0.6,0.4,1.2,0.6,1.8c0.4,1.2,0.7,2.4,1.1,3.5c0,0.1,0.1,0.3,0.2,0.4c0.6,1.2,1.3,2.4,1.9,3.6
			c0.2,0.4,0.1,0.7-0.1,0.9c-0.3,0.3-0.8,0.2-1-0.2c-0.5-0.7-0.9-1.4-1.4-2.1c-0.3-0.5-0.6-1-0.9-1.4c-0.9-1.1-1.2-2.5-1.7-3.8
			c-0.4-1.2-0.8-2.3-1.2-3.5C3.1,10.4,3,10.2,3,10.1c0-2.2,0-4.5,0-6.7C3,3.3,3,3.2,3,3.2z"/>
		<path d="M18.2,23.7c0.1,1,0.2,2.1,0.2,3.1c-2.4,0-4.8,0-7.1,0c0.1-1,0.2-2.1,0.3-3.1C13.8,24.8,16,24.8,18.2,23.7z"/>
		<path d="M15.3,4.2c0-0.3,0-0.6,0-1c0.5,0.1,1,0.2,1.5,0.2c-0.2,0.3-0.3,0.6-0.4,0.8c0,0-0.1,0.1-0.2,0.1
			C15.9,4.3,15.6,4.2,15.3,4.2z"/>
		<path d="M12.9,3.4c0.5-0.1,1-0.2,1.5-0.2c0,0.4,0,0.7,0,1c-0.3,0-0.6,0.1-1,0.1c0,0-0.1,0-0.1-0.1C13.2,4,13.1,3.7,12.9,3.4z"/>
		<path d="M10.8,4.4c0.5-0.3,0.9-0.5,1.3-0.7c0.2,0.3,0.3,0.6,0.4,0.8c-0.4,0.1-0.7,0.3-1,0.4c-0.1,0-0.2,0-0.2,0
			C11.1,4.8,11,4.6,10.8,4.4z"/>
		<path d="M17.2,4.5c0.1-0.3,0.3-0.5,0.4-0.8c0.4,0.2,0.9,0.5,1.4,0.7c-0.2,0.2-0.4,0.4-0.5,0.5c0,0-0.1,0-0.2,0
			C17.9,4.8,17.6,4.6,17.2,4.5z"/>
		<path d="M20.5,5.8c-0.2,0.1-0.3,0.2-0.4,0.3c-0.3-0.2-0.6-0.5-0.9-0.7c0.1-0.1,0.3-0.3,0.5-0.4C19.9,5.2,20.2,5.5,20.5,5.8z"/>
		<path d="M9.6,6.1C9.5,6,9.4,6,9.3,5.8C9.6,5.5,9.8,5.2,10.1,5c0.2,0.2,0.3,0.3,0.5,0.5C10.3,5.6,9.9,5.9,9.6,6.1z"/>
		<path d="M8.7,7.1C8.6,6.9,8.6,6.9,8.8,6.6c0,0,0.1,0,0.1,0.1c0,0,0.1,0.1,0.1,0.1C8.9,6.9,8.8,7,8.7,7.1z"/>
		<path d="M21,6.5c0.1,0.2,0.3,0.3,0.1,0.6C21,7,20.9,6.9,20.8,6.8C20.8,6.7,20.9,6.6,21,6.5z"/>
		<path class="st0" d="M15.3,10.8c0,1.5,0,3.1,0,4.6c-0.3,0-0.5,0-0.8,0c0-1.5,0-3.1,0-4.6C14.7,10.8,15,10.8,15.3,10.8z"/>
		<path class="st0" d="M12.9,17.9c-0.1-0.3-0.2-0.5-0.3-0.8c1.5-0.6,3-0.6,4.5,0c-0.1,0.3-0.2,0.5-0.3,0.8
			C15.5,17.4,14.2,17.4,12.9,17.9z"/>
	</g>
</g>
</svg>
