<svg xmlns="http://www.w3.org/2000/svg" viewBox="0 0 404.09 362.15"><g style="isolation:isolate"><g id="圖層_3" data-name="圖層 3"><polygon points="364.45 71.91 352.94 71.91 351.85 79.98 365.55 79.98 364.45 71.91" style="fill:#8d4aad"/><rect x="352.94" y="65.7" width="11.51" height="6.21" style="fill:#8d4aad"/><rect x="351.49" y="48.77" width="14.42" height="16.93" style="fill:#8d4aad"/><path d="M320.25,31.05l-.06-.56-.95-10.12-.06-.59-1-10.71H309.4L308.84,15v0l-1,10.42,0,.29-1.18,12.54,0,.18-1.06,11.24H322ZM307.58,47.86l.79-8.36.23-2.45,1-10.47.2-2.21.79-8.34.22-2.34.26-2.79h5.45l0,.28.71,7.47.12,1.34,0,.16.11,1.2.78,8.21.12,1.27v.08l.12,1.22,1.23,13,.12,1.36.13,1.35Z" style="fill:#8d4aad"/><path d="M366.46,276.91V259.42l.09-.05-.09-.06v-16l.09-.06-.09-.06v-16l.09-.06-.09-.06v-16l.09-.06-.09-.06v-16l.09-.05-.09-.06V179l.09-.06-.09-.06v-16l.09-.06-.09-.06v-16l.09-.06-.09-.06v-16l.09-.06-.09-.06v-16l.09-.06-.09-.06v-16l.09-.06-.09-.06V79.07H350.94V90.38l-.17.11.17.11v15.86l-.17.11.17.11v15.86l-.17.11.17.11v15.87l-.17.1.17.11v15.87l-.17.11.17.11v15.86l-.17.11.17.11v15.87l-.17.1.17.11V203l-.17.11.17.1V219l-.17.11.17.11v15.87l-.17.11.17.1v15.87l-.17.11.17.11v25.48H342.6v14.43h32.2V276.91Zm-1.82-18.79-10.51-6.8,10.51-6.8Zm0-16.08-10.51-6.8,10.51-6.81Zm0-16.09-10.51-6.8,10.51-6.8Zm0-16.08-10.51-6.8,10.51-6.8Zm0-16.09L354.13,187l10.51-6.8Zm0-16.08-10.51-6.8,10.51-6.8Zm0-16.08-10.51-6.8,10.51-6.8Zm0-16.09-10.51-6.8,10.51-6.8Zm0-16.08-10.51-6.8,10.51-6.8Zm0-16.08-10.51-6.8,10.51-6.8Zm0-16.08-10.51-6.8,10.51-6.8ZM352.76,80.9h11.88v1.18l-.26-.4L352.76,89.2Zm0,10.88,10.43,6.75-10.43,6.75Zm0,16.08,10.43,6.75-10.43,6.75Zm0,16.08,10.43,6.75-10.43,6.75Zm0,16.08,10.43,6.76-10.43,6.75Zm0,16.09,10.43,6.75-10.43,6.75Zm0,16.08,10.43,6.75-10.43,6.75Zm0,16.08L363.19,195l-10.43,6.75Zm0,16.09,10.43,6.75-10.43,6.75Zm0,16.08,10.43,6.75L352.76,234Zm0,16.09,10.43,6.75L352.76,250Zm10.43,22.84-10.43,6.75V252.61Zm-10.43,8.52.19.29,11.69-7.57v16.3H352.76Z" style="fill:#8d4aad"/><path d="M297.37,35.22H44.63L37.17,50.75H307.72Zm6.94,13.7h-7.76l.42-.32-9-11.55h8.46Zm-242.71,0H44.84l8.38-10.7Zm-7-11.87H71.27L63,47.68Zm18,1.17,8.38,10.7H64.29Zm1.4-1.17H90.71L82.39,47.68Zm18,1.17,8.38,10.7H83.74Zm1.41-1.17h16.63l-8.31,10.63Zm18,1.17,8.37,10.7H103.18Zm1.4-1.17h16.63l-8.31,10.63Zm18,1.17,8.37,10.7H122.62Zm1.4-1.17H149l-8.32,10.63Zm18,1.17,8.38,10.7H142.06Zm1.4-1.17h16.64l-8.32,10.63Zm18,1.17,8.38,10.7H161.51Zm1.41-1.17h16.63L179.6,47.68Zm18,1.17,8.38,10.7H181Zm1.41-1.17h16.63l-8.31,10.63Zm18,1.17,8.37,10.7H200.39Zm1.4-1.17H226.8l-8.31,10.63Zm18,1.17,8.37,10.7H219.83Zm1.4-1.17h16.63l-8.31,10.63Zm18,1.17L256,48.92H239.27Zm1.4-1.17h16.64l-8.32,10.63Zm18,1.17,8.37,10.7H258.71Zm1.4-1.17h16.63l-8.31,10.63Zm18,1.17,8.37,10.7H278.15ZM45.78,37.05h6l-9,11.55.41.32H40.08Z" style="fill:#8d4aad"/><path d="M316.34,9.68h-5.11V2.61A2.55,2.55,0,0,1,313.79.06h0a2.55,2.55,0,0,1,2.55,2.55Z" style="fill:#8d4aad"/><rect x="306.75" y="46.34" width="97.01" height="4.2" style="fill:#8d4aad"/><rect x="373.79" y="39.58" width="20.83" height="21.19" style="fill:#8d4aad"/><rect x="351.14" y="39.27" width="14.43" height="7.49" style="fill:#8d4aad"/><rect x="163.73" y="18.54" width="149.3" height="0.73" transform="translate(1.6 52.34) rotate(-12.57)" style="fill:#8d4aad"/><rect x="229.72" y="19.48" width="84.27" height="0.73" transform="translate(12.22 102.84) rotate(-21.9)" style="fill:#8d4aad"/><polygon points="386.45 40.77 316.17 2.94 316.52 2.29 386.8 40.12 386.45 40.77" style="fill:#8d4aad"/><polygon points="362.12 39.98 315.84 4.79 316.29 4.21 362.56 39.39 362.12 39.98" style="fill:#8d4aad"/><path d="M128.63,67.71c-31.84,0-89.53-17.35-90.11-17.52l.21-.7C39.31,49.66,96.9,67,128.63,67c32.17,0,78.91-5.88,102.15-16.77l.31.66C207.75,61.81,160.88,67.71,128.63,67.71Z" style="fill:#8d4aad"/><rect x="233.03" y="49.72" width="11.51" height="4.2" style="fill:#8d4aad"/><path d="M241.52,108.39h-5.47l-.08-5.87L235.31,53h6.95Zm-4.75-.73h4l.72-53.95h-5.47Z" style="fill:#8d4aad"/><polygon points="241.24 102.51 241.16 108.02 236.41 108.02 236.34 102.51 241.24 102.51" style="fill:#8d4aad"/><path d="M238.49,112.43a2.3,2.3,0,0,1-2.3-2.3.34.34,0,1,1,.67,0,1.63,1.63,0,1,0,1.63-1.63.34.34,0,1,1,0-.68,2.31,2.31,0,0,1,0,4.61Z" style="fill:#8d4aad"/><polygon points="319.18 19.79 317.24 18.65 310.89 14.94 316.54 11.18 317.65 10.44 317.04 9.53 314.99 10.89 310.8 13.69 308.84 14.99 308.82 15.01 308.84 15.02 310.58 16.03 317.36 19.99 317.51 20.08 317.38 20.15 309.79 24.37 307.86 25.45 307.56 25.61 307.83 25.73 309.59 26.58 318.39 30.83 318.46 30.87 318.39 30.91 308.6 37.05 306.65 38.27 306.5 38.36 306.63 38.45 308.37 39.5 319.86 46.51 320.65 46.99 321.22 46.05 319.74 45.15 308.58 38.35 318.51 32.13 320.25 31.05 320.19 30.49 318.27 29.56 309.95 25.54 317.49 21.34 319.24 20.37 319.18 19.79" style="fill:#8d4aad"/><rect x="65.92" y="126.25" width="270.47" height="168.55" rx="7.17" style="fill:#65288c"/><path d="M326.16,295.51h-250a11,11,0,0,1-11-10.95V136.49a11,11,0,0,1,11-11h250a11,11,0,0,1,10.95,11V284.56A11,11,0,0,1,326.16,295.51ZM76.16,127a9.53,9.53,0,0,0-9.52,9.53V284.56a9.53,9.53,0,0,0,9.52,9.52h250a9.53,9.53,0,0,0,9.52-9.52V136.49a9.53,9.53,0,0,0-9.52-9.53Z" style="fill:#562377"/><rect x="73.31" y="146.76" width="255.7" height="140.64" style="fill:#f9fbfc"/><rect x="84.25" y="156.73" width="60.22" height="119.78" style="fill:#e4dcea"/><rect x="90.78" y="247.52" width="23.58" height="23.58" style="fill:#f9fbfc"/><rect x="229.59" y="156.73" width="71.34" height="8.88" style="fill:#e4dcea"/><rect x="156.92" y="156.73" width="60.22" height="50.13" style="fill:#e4dcea"/><circle cx="165.42" cy="165.09" r="2.94" style="fill:#f9fbfc"/><circle cx="176.22" cy="165.09" r="2.94" style="fill:#f9fbfc"/><circle cx="187.03" cy="165.09" r="2.94" style="fill:#f9fbfc"/><circle cx="197.84" cy="165.09" r="2.94" style="fill:#f9fbfc"/><circle cx="208.64" cy="165.09" r="2.94" style="fill:#f9fbfc"/><circle cx="165.42" cy="187.36" r="2.94" style="fill:#f9fbfc"/><circle cx="176.22" cy="187.36" r="2.94" style="fill:#f9fbfc"/><circle cx="187.03" cy="187.36" r="2.94" style="fill:#f9fbfc"/><circle cx="197.84" cy="187.36" r="2.94" style="fill:#f9fbfc"/><circle cx="208.64" cy="187.36" r="2.94" style="fill:#f9fbfc"/><circle cx="165.42" cy="176.23" r="2.94" style="fill:#f9fbfc"/><circle cx="176.22" cy="176.23" r="2.94" style="fill:#f9fbfc"/><circle cx="187.03" cy="176.23" r="2.94" style="fill:#f9fbfc"/><circle cx="197.84" cy="176.23" r="2.94" style="fill:#f9fbfc"/><circle cx="208.64" cy="176.23" r="2.94" style="fill:#f9fbfc"/><circle cx="165.42" cy="198.5" r="2.94" style="fill:#f9fbfc"/><circle cx="176.22" cy="198.5" r="2.94" style="fill:#f9fbfc"/><circle cx="187.03" cy="198.5" r="2.94" style="fill:#f9fbfc"/><circle cx="197.84" cy="198.5" r="2.94" style="fill:#f9fbfc"/><circle cx="208.64" cy="198.5" r="2.94" style="fill:#f9fbfc"/><rect x="229.59" y="175.28" width="88.49" height="3.86" style="fill:#e4dcea"/><rect x="229.59" y="193.76" width="88.49" height="3.86" style="fill:#e4dcea"/><rect x="229.59" y="184.52" width="88.49" height="3.86" style="fill:#e4dcea"/><rect x="229.59" y="203.01" width="88.49" height="3.86" style="fill:#e4dcea"/><rect x="229.59" y="226.38" width="71.34" height="8.88" style="fill:#e4dcea"/><rect x="156.92" y="226.38" width="60.22" height="50.13" style="fill:#e4dcea"/><rect x="229.59" y="244.92" width="88.49" height="3.86" style="fill:#e4dcea"/><rect x="229.59" y="263.41" width="88.49" height="3.86" style="fill:#e4dcea"/><rect x="229.59" y="254.17" width="88.49" height="3.86" style="fill:#e4dcea"/><rect x="229.59" y="272.65" width="88.49" height="3.86" style="fill:#e4dcea"/><circle cx="165.42" cy="234.74" r="2.94" style="fill:#f9fbfc"/><circle cx="176.22" cy="234.74" r="2.94" style="fill:#f9fbfc"/><circle cx="187.03" cy="234.74" r="2.94" style="fill:#f9fbfc"/><circle cx="197.84" cy="234.74" r="2.94" style="fill:#f9fbfc"/><circle cx="208.64" cy="234.74" r="2.94" style="fill:#f9fbfc"/><path d="M168.36,257a2.95,2.95,0,1,1-2.94-2.95A2.94,2.94,0,0,1,168.36,257Z" style="fill:#f9fbfc"/><path d="M179.17,257a2.95,2.95,0,1,1-2.95-2.95A2.95,2.95,0,0,1,179.17,257Z" style="fill:#f9fbfc"/><path d="M190,257a2.94,2.94,0,1,1-2.94-2.95A2.94,2.94,0,0,1,190,257Z" style="fill:#f9fbfc"/><path d="M200.78,257a2.95,2.95,0,1,1-2.94-2.95A2.94,2.94,0,0,1,200.78,257Z" style="fill:#f9fbfc"/><path d="M211.59,257a2.95,2.95,0,1,1-3-2.95A2.95,2.95,0,0,1,211.59,257Z" style="fill:#f9fbfc"/><circle cx="165.42" cy="245.87" r="2.94" style="fill:#f9fbfc"/><circle cx="176.22" cy="245.87" r="2.94" style="fill:#f9fbfc"/><circle cx="187.03" cy="245.87" r="2.94" style="fill:#f9fbfc"/><circle cx="197.84" cy="245.87" r="2.94" style="fill:#f9fbfc"/><circle cx="208.64" cy="245.87" r="2.94" style="fill:#f9fbfc"/><circle cx="165.42" cy="268.14" r="2.94" style="fill:#f9fbfc"/><circle cx="176.22" cy="268.14" r="2.94" style="fill:#f9fbfc"/><circle cx="187.03" cy="268.14" r="2.94" style="fill:#f9fbfc"/><circle cx="197.84" cy="268.14" r="2.94" style="fill:#f9fbfc"/><circle cx="208.64" cy="268.14" r="2.94" style="fill:#f9fbfc"/><path d="M297.9,136.31a3.26,3.26,0,1,1-3.26-3.26A3.26,3.26,0,0,1,297.9,136.31Z" style="fill:#f8a971"/><path d="M313.42,136.31a3.26,3.26,0,1,1-3.26-3.26A3.26,3.26,0,0,1,313.42,136.31Z" style="fill:#bc4991"/><path d="M328.93,136.31a3.26,3.26,0,1,1-3.26-3.26A3.26,3.26,0,0,1,328.93,136.31Z" style="fill:#f08879"/><circle cx="103.59" cy="180.64" r="15.03" transform="translate(-93.07 249.1) rotate(-79.36)" style="fill:#f9fbfc"/><polygon points="119.55 196.48 99.77 230.74 139.33 230.74 119.55 196.48" style="fill:#f9fbfc"/><path d="M78.33,294.8c-.54-2.27-1.16-4.74-1.91-7.47a10,10,0,0,1,1.22-.85l-2.8-11.77a22,22,0,0,1-5.3,1.29,35.1,35.1,0,0,0,5.3-1.29c-.61-6,1.24-15.4,1.24-15.4v0c-1.21.16-2.13-.12-2.54-1.2a2.14,2.14,0,0,0,2.54,1.2,26.48,26.48,0,0,0,5.88-2.1c3.57-1.51,11.46-7.53,11.46-7.53,5.7-2.41,4.41-6.42,4-6.86-.81-.8-3,3-3,3s.64-2.14-.08-2.28S93.81,245,92.09,247s-12.64,4.66-15.59,4.91a5.18,5.18,0,0,1-1.92-.22,6.09,6.09,0,0,1-1.91-1,6.78,6.78,0,0,1-1-.84s0-.07,0-.1l.48-1.4a6,6,0,0,0,1.24-.11c.29-.1.62-.48,1-2.14a11.9,11.9,0,0,0,.15-3.75h.23a.73.73,0,0,0,.4-.13c.64-.4.1-1.6.1-1.6s-1.19-5.39-6.34-4.81c-2.31.27-2.7,2.24-3.07,4v44.65a10.19,10.19,0,0,0,2.15,6.25c0-.47,0-.92,0-1.41l.52,0,.42,0a43.68,43.68,0,0,1,2.09,4.14,10.24,10.24,0,0,0,5,1.33Z" style="fill:#e0e1e2;mix-blend-mode:multiply"/><g style="mix-blend-mode:multiply"><path d="M28.87,318.74H352.31a3.23,3.23,0,0,0,3.22-3.23h0a3.23,3.23,0,0,0-3.22-3.22H28.87a3.23,3.23,0,0,0-3.22,3.22h0A3.23,3.23,0,0,0,28.87,318.74Z" style="fill:#d1d3d4"/><rect x="211.57" y="316.34" width="79.65" height="4.79" rx="1.47" style="fill:#d1d3d4"/></g><path d="M336.4,284.56V271.79c-2-6.32-5.12-14.14-5.12-14.14a37.44,37.44,0,0,0,5.12-12.38V233.76c-.55-.45-1.09,1.23-1.09,1.23s-.52-2-.93-1.94c-.84.32-.13,4.51-.07,4.71a25.86,25.86,0,0,1-10.79,14.77c-.06-.15-1.11-1.66-1.11-1.79,0-1.65.24-7-2.2-8.47-2.64-1.65-7.71-.44-9.45-.19s.9,2.52,2.74,3.2a15.78,15.78,0,0,0,0,4.3c.16.84.66,2.48,1.52,3a3.9,3.9,0,0,0,2.92.09s.62.14,1.56,2.16c-8.06,4.11-23.85,7.59-24.1,7.68,0,0-2.69-1.62-3.27-1.19s.18.87,1,1.43c0,0-4.06.76-4.23,1.86s.44,1.95,2.42,1.88a9.14,9.14,0,0,0,5.19-1.66l19.42,1.32,3.8,18.15s-1.8,3.62-2.3,10.45H326a33.94,33.94,0,0,1,3.11-7.17s-.16,3.13,0,6.72A10.25,10.25,0,0,0,336.4,284.56Z" style="fill:#e0e1e2;mix-blend-mode:multiply"/><path d="M337.46,235.05c.21,1.3.3,9.5-5.65,18.88,0,0,6.91,17.42,6.8,21.26l-.6.43c-2.13,1.51-9.73,6.3-17.75,5l-3.8-18.15-19.95,1.91-1.11-2.33c.25-.08,16.57-6.8,24.63-10.91a37,37,0,0,0,3.51-2l.51-.36A25.85,25.85,0,0,0,334.83,234S337.25,233.74,337.46,235.05Z" style="fill:#ef5f7a"/><path d="M292.13,260.89c.58-.43,3.27,1.18,3.27,1.18l1.11,2.33a9.14,9.14,0,0,1-5.19,1.66c-2,.07-2.6-.77-2.42-1.88s4.23-1.87,4.23-1.87C292.31,261.76,291.55,261.32,292.13,260.89Z" style="fill:#eed7ba"/><path d="M334.91,229.33c.41-.06.93,1.94.93,1.94s.57-1.78,1.12-1.21,2.09,3.37.5,5c-.21-1.31-2.63-1-2.63-1C334.77,233.84,334.06,229.65,334.91,229.33Z" style="fill:#eed7ba"/><path d="M318.92,243.69c1.14.4.94,1.91,1.22,2.38s.07,1.51,2.8,1c0,.13,1.05,1.64,1.11,1.79l-.51.36a37,37,0,0,1-3.51,2c-.94-2-1.56-2.15-1.56-2.15s-1.82.63-2.92-.1a5.26,5.26,0,0,1-1.52-3,15.8,15.8,0,0,1,0-4.3,2.79,2.79,0,0,0,.35.11c1.85.48,2.47,2.86,2.48,3.79h.55S316.55,242.45,318.92,243.69Z" style="fill:#eed7ba"/><path d="M322.32,312.2v4c-.57.12-9.38,0-9.38,0l5.39-4.08Z" style="fill:#39263d"/><path d="M341.68,311.49s-4.34,5-8,4.75c-.12.09,3.07-5.09,3.22-5.87l3.17-2Z" style="fill:#39263d"/><path d="M320.26,280.64c8,1.28,15.62-3.51,17.75-5,1.78,4.57.28,10.77-.46,15.53-1.16,7.53,2.78,17.66,2.78,17.66l-3.44,1.56c0-.13,0-.21,0-.21s-4.84-7.34-6.28-12.41-1-13.83-1-13.83c-5.3,8.61-7.34,28.28-7.34,28.28l-4-.1s-.65-9.88-.49-18.41S320.26,280.64,320.26,280.64Z" style="fill:#4a4157"/><path d="M319.36,246.1c-.27-.47.25-2.3-.66-2.49-1.51-.69-1.29,1.85-1.29,1.85h-.55a8,8,0,0,0-.31-1.5,4,4,0,0,0-1.13-1.74c-.54-.46-1.44-.51-1.7-1.26a2.3,2.3,0,0,1,.77-2.1,3.69,3.69,0,0,1,2.33-1,5.67,5.67,0,0,1,3.91.66c2.45,1.51,2.23,6.82,2.21,8.47C320.21,247.58,319.64,246.58,319.36,246.1Z" style="fill:#4a4157"/><path d="M313.2,242a5.06,5.06,0,0,1,10.11-.27v0L313.2,242Z" style="fill:#fbd15b"/><polygon points="313.2 241.99 323.31 241.71 324.44 241.68 324.46 242.54 323.26 242.57 322.51 242.59 318.67 242.69 318.28 242.71 313.42 242.84 313.3 242.84 312.1 242.87 312.08 242.02 313.2 241.99" style="fill:#fbd15b"/><path d="M71.09,241.17a10.9,10.9,0,0,1-.16,3.9c-.48,1.66-.86,2-1.19,2.15a8.73,8.73,0,0,1-1.43.1l-1,2.65-3.44-3.26L66.39,240Z" style="fill:#eed7ba"/><path d="M75,312.67c.34,1.91.48,3.23.48,3.23H83.9l-3.4-2.68s-2.11,1.21-5.49-.55Z" style="fill:#f8a971"/><path d="M58.84,313.48s-2.16,1-5-.81c-.15.28-.92,2.38-1,2.57s.08.29.26.36l.11,0c.59.19,6.38.38,7.66.44l.6,0h.3a.57.57,0,0,0,.26,0c.07,0,0-.08,0-.15a1.19,1.19,0,0,0-.28-.32,10.56,10.56,0,0,0-.93-.68l-.95-.66Z" style="fill:#f8a971"/><path d="M72.8,258.18c-1.39.16-2.45-.12-2.91-1.2-1.08-2.56-1.07-5,1.19-6.35h0a7.32,7.32,0,0,1-2.19-1,6.81,6.81,0,0,1-1.27-1,14.72,14.72,0,0,1,.57,2.59c-.09.87-1.34.78-1.57,1.54s.66,1.73.33,2.79-1.15,1.92-5.09,2.21a6.54,6.54,0,0,1-6-3.67c-1.25,1.86-1.92,5.14-2.31,8.39-.48,4-.53,7.86-.63,9.15,2.95,6.66,18.5,1.95,18.5,1.95-.71-6,1.42-15.4,1.42-15.4Z" style="fill:#f8a971"/><path d="M64.6,288.1s2.17,2.88,5.72,11.06c2.12,4.9,4.1,10.15,4.67,13.51h0c3.38,1.76,5.5.56,5.49.55l-1.71-1.35s.09-7.79-5.66-25.83A24.83,24.83,0,0,1,64.6,288.1Z" style="fill:#eed7ba"/><path d="M53.86,312.67h0c2.81,1.85,5,.81,5,.81l-1.19-.84s5.88-5.31,6-24.54v0a20.15,20.15,0,0,1-8.33-1.7C55.43,286.44,59.22,302.87,53.86,312.67Z" style="fill:#eed7ba"/><path d="M73.29,250.84a6.52,6.52,0,0,1-2.21-.22h0c-2.26,1.31-2.66,3.57-1.19,6.35.55,1,1.52,1.36,2.91,1.2a33.58,33.58,0,0,0,6.77-2.1c4.11-1.51,13.18-7.52,13.18-7.52,6.57-2.42,5.08-6.43,4.55-6.87-.94-.8-3.44,3-3.44,3s.74-2.14-.09-2.28-.57,1.51-2.54,3.56S76.69,250.6,73.29,250.84Z" style="fill:#eed7ba"/><path d="M71.36,241.33a.88.88,0,0,0,.47-.13c.73-.4.11-1.6.11-1.6a6.63,6.63,0,0,0-7.29-4.8c-4.42.43-2.75,5.62-5,6.77s-3.36,2.69-2.12,5.66a11.46,11.46,0,0,0-1.67,1.88,3.94,3.94,0,0,0-.92,3,7.1,7.1,0,0,0,.83,2,6.54,6.54,0,0,0,6,3.67c3.94-.29,4.76-1.15,5.09-2.21s-.58-2-.33-2.79,1.48-.67,1.57-1.54c.15-1.39-.92-2.75-.34-4.16a4.9,4.9,0,0,1,.68-1c.67-.9.32-1.73.51-2.74a3.66,3.66,0,0,1,.74-1.61C70.25,241.16,70.7,241.33,71.36,241.33Z" style="fill:#4a4157"/><path d="M71.38,273.62s-11.69,4.25-18.5-1.95c-.2,2.35,1.23,15.14,1.23,15.14a20.68,20.68,0,0,0,10.11,1.47c8.35-.57,9-2.35,10.38-2.89Z" style="fill:#903292"/><path d="M61.24,237.93a5.06,5.06,0,0,1,10.11,0v0H61.24Z" style="fill:#fbd15b"/><polygon points="61.24 237.95 71.35 237.95 72.47 237.95 72.47 238.8 71.27 238.8 70.52 238.8 66.69 238.81 66.29 238.81 61.43 238.81 61.31 238.81 60.11 238.81 60.11 237.95 61.24 237.95" style="fill:#fbd15b"/><path d="M277.69,219.15l-3.36-2.85h.05S278.9,208,279,204s-9.44-5.66-9.44-5.66c.12-5.29.49-13.27.49-13.27,1.27.3,3,.79,4.68,1.18.09-.1.15-.19.23-.29a16.63,16.63,0,0,0,6.28.24,3.84,3.84,0,0,0,1.63-.87l5.56,1,1.84-10.28c2.17-.65,3.3-2.09,3.13-2.5s-1.51.07-2.74.35L297.33,137l-59.28-10.64-8.86,49.34,14.19,2.55a11.93,11.93,0,0,1-1.52-.28s-.15,6.45,9.16,5l-.06-.08.23.24a26.94,26.94,0,0,0,2.82-.28s-2.5,10.63-2.43,18.46l.64,0c0,.13,0,.25,0,.38A8.39,8.39,0,0,0,253.6,206a6.9,6.9,0,0,1,1.39,4.25c-.3,2.32-1.74,3.71-6.94.83v.1a7.78,7.78,0,0,0-2.54-.2,44.67,44.67,0,0,0-.11,5.8,2.48,2.48,0,0,0,1.72,2.37H245.4L233.67,294.8h56.85l-11.73-75.65Zm-2.31,2.31-2.53,16.35H251.34l-2.53-16.35Zm-21.14,35-2.54-16.35h20.79L270,256.47Zm15.36,2.32-2.54,16.34h-9.93l-2.53-16.34Zm-21.41-43.16v.14s7.19,4.45,10.68,2.5c3.33-1.85,3.47-5.22,3.39-11.45h0c3.73.83,10.24,0,10.24,0a42.58,42.58,0,0,0-2.65,9.73l.27,0c-.2,1.08-.38,2-.49,2.58H248.08a.44.44,0,0,0,0-.43A3.17,3.17,0,0,1,248.19,215.63Zm-1.26,8.8L249,237.81h-4.15Zm-2.44,15.69h4.87l2.53,16.35H242Zm-2.89,18.67h10.65l2.54,16.34H239.06Zm-5.43,35,2.53-16.34h16.45l2.53,16.34Zm23.85,0-2.53-16.34h9.21l-2.53,16.34Zm28,0H266.51l2.54-16.34h16.44Zm-2.89-18.66H269.41l2.53-16.34H282.6Zm-2.89-18.66H272.3l2.53-16.35h4.87Zm-7.05-18.66,2.08-13.38,2.07,13.38Z" style="fill:#e0e1e2;mix-blend-mode:multiply"/><rect x="223.65" y="131.28" width="60.22" height="50.13" transform="translate(31.63 -42.39) rotate(10.18)" style="fill:#d0dadd"/><path d="M238.34,136.6a2.95,2.95,0,1,1-2.38-3.42A3,3,0,0,1,238.34,136.6Z" style="fill:#f9fbfc"/><path d="M249,138.51a2.95,2.95,0,1,1-2.38-3.42A2.95,2.95,0,0,1,249,138.51Z" style="fill:#f9fbfc"/><path d="M259.61,140.42a2.94,2.94,0,1,1-2.37-3.42A2.94,2.94,0,0,1,259.61,140.42Z" style="fill:#f9fbfc"/><path d="M270.25,142.33a2.95,2.95,0,1,1-2.38-3.42A2.95,2.95,0,0,1,270.25,142.33Z" style="fill:#f9fbfc"/><path d="M280.89,144.24a2.95,2.95,0,1,1-2.38-3.42A2.95,2.95,0,0,1,280.89,144.24Z" style="fill:#f9fbfc"/><path d="M234.4,158.52A2.94,2.94,0,1,1,232,155.1,2.95,2.95,0,0,1,234.4,158.52Z" style="fill:#f9fbfc"/><path d="M245,160.43a2.95,2.95,0,1,1-2.38-3.42A2.95,2.95,0,0,1,245,160.43Z" style="fill:#f9fbfc"/><path d="M255.68,162.34a2.95,2.95,0,1,1-2.38-3.42A2.95,2.95,0,0,1,255.68,162.34Z" style="fill:#f9fbfc"/><path d="M266.31,164.25a2.94,2.94,0,1,1-2.37-3.42A2.94,2.94,0,0,1,266.31,164.25Z" style="fill:#f9fbfc"/><path d="M277,166.16a2.95,2.95,0,1,1-2.38-3.42A2.95,2.95,0,0,1,277,166.16Z" style="fill:#f9fbfc"/><path d="M236.37,147.56a2.94,2.94,0,1,1-2.38-3.42A2.95,2.95,0,0,1,236.37,147.56Z" style="fill:#f9fbfc"/><path d="M247,149.47a2.95,2.95,0,1,1-2.38-3.42A2.95,2.95,0,0,1,247,149.47Z" style="fill:#f9fbfc"/><path d="M257.64,151.38a2.94,2.94,0,1,1-2.37-3.42A2.93,2.93,0,0,1,257.64,151.38Z" style="fill:#f9fbfc"/><path d="M268.28,153.29a2.94,2.94,0,1,1-2.38-3.42A2.95,2.95,0,0,1,268.28,153.29Z" style="fill:#f9fbfc"/><path d="M278.92,155.2a2.95,2.95,0,1,1-2.38-3.42A2.95,2.95,0,0,1,278.92,155.2Z" style="fill:#f9fbfc"/><path d="M232.43,169.48a2.94,2.94,0,1,1-2.37-3.42A2.93,2.93,0,0,1,232.43,169.48Z" style="fill:#f9fbfc"/><path d="M243.07,171.39a2.94,2.94,0,1,1-2.38-3.42A2.95,2.95,0,0,1,243.07,171.39Z" style="fill:#f9fbfc"/><path d="M253.71,173.3a2.95,2.95,0,1,1-2.38-3.42A2.95,2.95,0,0,1,253.71,173.3Z" style="fill:#f9fbfc"/><path d="M264.34,175.21a2.94,2.94,0,1,1-2.37-3.42A2.93,2.93,0,0,1,264.34,175.21Z" style="fill:#f9fbfc"/><path d="M275,177.12a2.94,2.94,0,1,1-2.38-3.42A2.95,2.95,0,0,1,275,177.12Z" style="fill:#f9fbfc"/><path d="M268.76,219.63H260s.3-1.49.61-3.25h0c.17-.44,4.05-.19,4.05-.19Z" style="fill:#39263d"/><path d="M250.29,200.93a37,37,0,0,1-7.57,0c0,.24,0,.49,0,.74A8.39,8.39,0,0,0,244.1,206a6.78,6.78,0,0,1,1.39,4.25c-.29,2.32-1.74,3.71-6.93.83l.13,4.69s7.2,4.45,10.68,2.5,3.48-5.39,3.38-12Z" style="fill:#4a4157"/><path d="M240.86,177.78a4.48,4.48,0,0,0,.67,5.14c-9.32,1.49-9.17-5-9.17-5a18.52,18.52,0,0,0,8.14-.1Z" style="fill:#eed7ba"/><path d="M283.94,173.55c.21.5-1.46,2.53-4.62,2.8,0,0-4.17,9.25-7.54,9.86a16.87,16.87,0,0,1-6.51-.28,6.18,6.18,0,0,0,1.88-5.26,6,6,0,0,0,3.21.41c2.24-.54,5.38-5.16,6.26-6.15s3.37-3.4,4-3.05-1.65,2-1.33,2.28S283.72,173.07,283.94,173.55Z" style="fill:#eed7ba"/><path d="M266,169.25c-.4,1.79-1.48,6.27-3.81,6.4a8.4,8.4,0,0,1-2.71-.42,14.77,14.77,0,0,0-.92,1.29c-1.68-.78-4-1.79-4.79-2a1.67,1.67,0,0,0-.26-.06,23.64,23.64,0,0,0,1.89-3,5.28,5.28,0,0,0,3,1.66c1.31.11,2.33-.77,2.33-1.12,0-.69.5-2,1.61-2s.45,2,.45,2.12.77,0,.77,0C264.16,170.22,265,169.56,266,169.25Z" style="fill:#eed7ba"/><path d="M248.75,201.06s-.05,4.86,4,5.76c3.74.83,10.24,0,10.24,0a42.58,42.58,0,0,0-2.65,9.73,16.46,16.46,0,0,0,4.53-.26s4.53-8.26,4.67-12.28-9.45-5.66-9.45-5.66Z" style="fill:#4a4157"/><path d="M257.9,176.21c1.71.79,3.48,1.66,4.45,2.19a35.87,35.87,0,0,0,4.86,2.1,7.24,7.24,0,0,1-1.94,5.76c-1.71-.39-3.41-.88-4.68-1.18,0,0-.36,8-.49,13.27-7.86,3.81-18,2.91-18,2.91-.07-7.83,2.44-18.46,2.44-18.46a27.46,27.46,0,0,1-2.82.28,4.23,4.23,0,0,1-.84-5.3c4.56-2,5.84-3.44,7.89-3.68a16.06,16.06,0,0,1,4.78.32,1.67,1.67,0,0,1,.26.06A41.19,41.19,0,0,1,257.9,176.21Z" style="fill:#795cb3"/><path d="M238.65,211.2A7.7,7.7,0,0,0,236,211a48.65,48.65,0,0,0-.11,5.8,2.57,2.57,0,0,0,2.27,2.53.41.41,0,0,0,.44-.59,3.19,3.19,0,0,1,.07-3.1Z" style="fill:#39263d"/><path d="M265.27,165.72a1.71,1.71,0,0,1,.8.67,2.84,2.84,0,0,1,.34,2.42c-.26.66-1.24.7-1.75,1.23a4.9,4.9,0,0,0-1.06,2s-.77.11-.77,0,.64-2.1-.45-2.12-1.28,1.4-1.28,2.09c0,.36-1.35,1.15-2.66,1a6.6,6.6,0,0,1-3.27-1.21c.13-.26.51-1,.63-1.26.83-2,1.39-5.66,4-6.05a5.11,5.11,0,0,1,1.7.09,16.87,16.87,0,0,1,2.81.75C264.65,165.49,265,165.58,265.27,165.72Z" style="fill:#ef5f7a"/><path d="M256.69,166.62a5.06,5.06,0,1,1,9.75,2.69v0l-9.75-2.69Z" style="fill:#fbd15b"/><polygon points="256.69 166.64 266.43 169.33 267.52 169.63 267.29 170.45 266.13 170.13 265.41 169.93 261.71 168.91 261.33 168.81 256.64 167.52 256.53 167.49 255.38 167.17 255.6 166.34 256.69 166.64" style="fill:#fbd15b"/><path d="M267.31,221.46h-1.42l-2.54,16.35h2.35l2.07-13.38Zm-43.53,91,2.53-16.34h22.23l-.36-2.32H226.67l2.54-16.34h16.44l-.36-2.32H229.57l2.53-16.34h10.66l-.36-2.32h-9.94L235,240.12h4.87l-.36-2.31h-4.15l2.08-13.38-.82-5.28h-.7l-15.45,99.59h2.35l.61-4h28l-.61,4h1.24l-1-6.29Zm36.68-56h2.34l2.54-16.35H263Zm-5.79,37.32H257l2.53-16.34h-2.34Zm2.9-18.66h2.34l2.53-16.34H260.1Zm-5,32,.82,5.29h.7l2.54-16.34h-2.35Z" style="fill:#572f7c"/><path d="M269.29,219.15H236.61l.82,5.28,2.07,13.38.36,2.31,2.54,16.35.36,2.32,2.53,16.34.36,2.32,2.53,16.34.36,2.32,2.54,16.34,1,6.29h2.34l-.61-4h28l.61,4h2.35Zm-30,2.31h28l.46,3,2.08,13.38h-28Zm2.9,18.66h28l2.53,16.35h-28Zm2.89,18.67h28l2.53,16.34h-28ZM248,277.45h28l2.54,16.34h-28Zm5.43,35-.82-5.29-1.71-11.05h28l2.53,16.34Z" style="fill:#903292"/><rect x="350.08" y="325.78" width="31.61" height="3.67" rx="0.81" style="fill:#d1d3d4;mix-blend-mode:multiply"/><path d="M376.2,324.79H355.32l1.94-6.26,1.8-5.78,1.64-5.28,1.79-5.78.29-.94a3.12,3.12,0,0,1,6,0l.29.94,1.8,5.78,1.64,5.28,1.79,5.78Z" style="fill:#f79663"/><path d="M376.75,327.62h-22a1.54,1.54,0,0,1-1.1-2.61h0a1.53,1.53,0,0,1,1.1-.46h22a1.53,1.53,0,0,1,1.1.46h0A1.54,1.54,0,0,1,376.75,327.62Z" style="fill:#f79663"/><polygon points="370.83 307.47 360.69 307.47 362.49 301.69 369.04 301.69 370.83 307.47" style="fill:#f9fbfc"/><polygon points="374.26 318.52 357.26 318.52 359.06 312.75 372.47 312.75 374.26 318.52" style="fill:#f9fbfc"/><rect x="-0.34" y="325.78" width="31.61" height="3.67" rx="0.81" style="fill:#d1d3d4;mix-blend-mode:multiply"/><path d="M25.78,324.79H4.9l1.94-6.26,1.8-5.78,1.64-5.28,1.79-5.78.29-.94a3.12,3.12,0,0,1,6,0l.29.94,1.8,5.78,1.64,5.28,1.79,5.78Z" style="fill:#f79663"/><path d="M26.33,327.62h-22A1.54,1.54,0,0,1,3.25,325h0a1.53,1.53,0,0,1,1.11-.46h22a1.53,1.53,0,0,1,1.1.46h0A1.54,1.54,0,0,1,26.33,327.62Z" style="fill:#f79663"/><polygon points="20.41 307.47 10.28 307.47 12.07 301.69 18.61 301.69 20.41 307.47" style="fill:#f9fbfc"/><polygon points="23.84 318.52 6.84 318.52 8.64 312.75 22.05 312.75 23.84 318.52" style="fill:#f9fbfc"/><path d="M192.38,342.11H93.17a2.4,2.4,0,0,1-2.39-2.39h0a2.4,2.4,0,0,1,2.39-2.39h99.21a2.4,2.4,0,0,1,2.39,2.39h0A2.4,2.4,0,0,1,192.38,342.11Z" style="fill:#d1d3d4;mix-blend-mode:multiply"/><rect x="204.41" y="357.43" width="41.23" height="4.79" rx="1.06" style="fill:#d1d3d4;mix-blend-mode:multiply"/><rect x="109.34" y="277.57" width="3.74" height="61.07" style="fill:#c9bad3"/><rect x="170.73" y="277.57" width="3.74" height="61.07" style="fill:#c9bad3"/><rect x="98.31" y="282.15" width="86.64" height="17.57" rx="1.89" style="fill:#f79663"/><path d="M117.31,282.15l-12.77,17.58H100.2a1.89,1.89,0,0,1-1.89-1.89v-1.16l10.55-14.53Z" style="fill:#dfe7ea"/><polygon points="134.56 282.15 121.8 299.73 113.35 299.73 126.11 282.15 134.56 282.15" style="fill:#dfe7ea"/><polygon points="151.81 282.15 139.04 299.73 130.6 299.73 143.37 282.15 151.81 282.15" style="fill:#dfe7ea"/><polygon points="169.06 282.15 156.3 299.73 147.85 299.73 160.62 282.15 169.06 282.15" style="fill:#dfe7ea"/><path d="M185,284h0l-11.4,15.69h-8.44l12.76-17.58h5.19A1.89,1.89,0,0,1,185,284Z" style="fill:#dfe7ea"/><rect x="98.31" y="302.75" width="86.64" height="17.57" rx="1.89" style="fill:#f79663"/><path d="M117.31,302.75l-12.77,17.57H100.2a1.89,1.89,0,0,1-1.89-1.89v-1.16l10.55-14.52Z" style="fill:#dfe7ea"/><polygon points="134.56 302.75 121.8 320.32 113.35 320.32 126.11 302.75 134.56 302.75" style="fill:#dfe7ea"/><polygon points="151.81 302.75 139.04 320.32 130.6 320.32 143.37 302.75 151.81 302.75" style="fill:#dfe7ea"/><polygon points="169.06 302.75 156.3 320.32 147.85 320.32 160.62 302.75 169.06 302.75" style="fill:#dfe7ea"/><path d="M185,304.63h0l-11.4,15.69h-8.44l12.76-17.57h5.19A1.89,1.89,0,0,1,185,304.63Z" style="fill:#dfe7ea"/><path d="M238.49,356.13H211.25l2.53-8.17,2.34-7.53,2.14-6.89L220.6,326l.38-1.23a4.07,4.07,0,0,1,7.78,0l.38,1.23,2.34,7.54,2.14,6.89L236,348Z" style="fill:#f79663"/><path d="M239.2,359.82H210.54a2,2,0,0,1-1.44-3.4h0a2,2,0,0,1,1.44-.61H239.2a2,2,0,0,1,1.44.61h0A2,2,0,0,1,239.2,359.82Z" style="fill:#f79663"/><polygon points="231.48 333.54 218.26 333.54 220.6 326 229.14 326 231.48 333.54" style="fill:#f9fbfc"/><polygon points="235.96 347.96 213.78 347.96 216.12 340.43 233.62 340.43 235.96 347.96" style="fill:#f9fbfc"/></g></g></svg>