<?xml version="1.0" encoding="utf-8"?>
<!-- Generator: Adobe Illustrator 26.0.1, SVG Export Plug-In . SVG Version: 6.00 Build 0)  -->
<svg version="1.1" id="圖層_1" xmlns="http://www.w3.org/2000/svg" xmlns:xlink="http://www.w3.org/1999/xlink" x="0px" y="0px"
	 viewBox="0 0 64 64" style="enable-background:new 0 0 64 64;" xml:space="preserve">
<style type="text/css">
	.st0{fill:#212529;}
	.st1{fill:#111315;}
	.st2{fill:#DD051D;}
	.st3{fill:#A60416;}
	.st4{fill:#FCCD1D;}
	.st5{fill:#F9A215;}
</style>
<g id="Flat">
	<g id="Color">
		<polygon class="st0" points="22.9,30.4 35.1,37.4 21.1,61.6 18,52.9 8.9,54.6 		"/>
		<path class="st1" d="M22.9,30.4l-5.6,9.7c1.1,2.2,4,2.8,6.2,2.8c0.7,0,1.4,0,2.1,0.2c1.5,0.6,2.9,2.1,4.6,2.6l4.8-8.3L22.9,30.4z"
			/>
		<polygon class="st0" points="41.1,30.4 28.9,37.4 42.9,61.6 46,52.9 55.1,54.6 		"/>
		<path class="st1" d="M41.1,30.4l-12.1,7l4.8,8.3c1.7-0.5,3.1-2,4.6-2.6c0.7-0.2,1.4-0.2,2.2-0.2c2.2,0.1,5-0.5,6.2-2.8L41.1,30.4z
			"/>
		<polygon class="st2" points="31.6,35.4 19.3,56.7 18,52.9 14.1,53.7 26.4,32.4 		"/>
		<polygon class="st2" points="49.9,53.7 46,52.9 44.7,56.7 32.4,35.4 37.6,32.4 		"/>
		<path class="st3" d="M37.6,32.4l-5.2,3l4.8,8.3c1.8-1.4,4.1-0.5,6.2-1.1L37.6,32.4z"/>
		<path class="st3" d="M26.4,32.4l-5.9,10.1c2.1,0.7,4.5-0.2,6.2,1.1l4.8-8.3L26.4,32.4z"/>
		<path class="st4" d="M50.5,23.5c0-2.1,1.6-4.4,1-6.3s-3.3-2.9-4.5-4.6s-1.3-4.5-3-5.7s-4.3-0.4-6.3-1S34.1,3,32,3
			s-3.8,2.2-5.7,2.9s-4.7-0.1-6.3,1s-1.8,4-3,5.7s-3.9,2.6-4.5,4.6s0.9,4.2,0.9,6.3s-1.6,4.4-0.9,6.3s3.3,3,4.5,4.6s1.3,4.5,3,5.7
			s4.4,0.4,6.3,1S29.9,44,32,44s3.8-2.2,5.7-2.9s4.7,0.1,6.3-1s1.8-4,3-5.7s3.8-2.6,4.5-4.6S50.5,25.6,50.5,23.5z"/>
		<circle class="st5" cx="32" cy="23.5" r="14.5"/>
		<path class="st4" d="M33.4,16l1.5,2.6c0.2,0.4,0.6,0.7,1.1,0.8l3,0.6c0.8,0.1,1.4,0.9,1.2,1.8c-0.1,0.3-0.2,0.6-0.4,0.8l-2.1,2.2
			c-0.3,0.3-0.5,0.8-0.4,1.2l0.4,3c0.1,0.9-0.5,1.6-1.4,1.7c-0.3,0-0.6,0-0.8-0.1l-2.8-1.3c-0.4-0.2-0.9-0.2-1.3,0l-2.8,1.3
			c-0.8,0.4-1.7,0-2.1-0.7c-0.1-0.3-0.2-0.6-0.1-0.8l0.4-3c0.1-0.4-0.1-0.9-0.4-1.2l-2.1-2.2c-0.6-0.6-0.6-1.6,0.1-2.2
			c0.2-0.2,0.5-0.3,0.8-0.4l3-0.6c0.4-0.1,0.8-0.4,1.1-0.8l1.6-2.6c0.4-0.8,1.4-1,2.2-0.6C33,15.6,33.2,15.8,33.4,16z"/>
	</g>
</g>
</svg>
