<?xml version="1.0" encoding="utf-8"?>
<!-- Generator: Adobe Illustrator 26.0.1, SVG Export Plug-In . SVG Version: 6.00 Build 0)  -->
<svg version="1.1" id="圖層_1" xmlns="http://www.w3.org/2000/svg" xmlns:xlink="http://www.w3.org/1999/xlink" x="0px" y="0px"
	 viewBox="0 0 512 512" style="enable-background:new 0 0 512 512;" xml:space="preserve">
<path d="M451.4,432.4V113.6c14.7,0,26.6-11.9,26.6-26.6s-11.9-26.6-26.6-26.6H79.6C64.9,60.5,53,72.4,53,87s11.9,26.6,26.6,26.6
	v318.8c-14.7,0-26.6,11.9-26.6,26.6s11.9,26.6,26.6,26.6h146.1v-79.7h79.7v79.7h146.1c14.7,0,26.6-11.9,26.6-26.6
	C478,444.2,466.1,432.4,451.4,432.4z M238.9,150.8c0-5.3,5.3-10.6,10.6-10.6h32c5.3,0,10.6,5.3,10.6,10.6v32
	c0,5.3-5.3,10.6-10.6,10.6h-32c-5.3,0-10.6-5.4-10.6-10.6V150.8z M238.9,230.5c0-5.3,5.3-10.6,10.6-10.6h32
	c5.3,0,10.6,5.3,10.6,10.6v32c0,5.3-5.3,10.6-10.6,10.6h-32c-5.3,0-10.6-5.4-10.6-10.6V230.5z M132.7,150.8
	c0-5.3,5.3-10.6,10.6-10.6h32c5.3,0,10.6,5.3,10.6,10.6v32c0,5.3-5.3,10.6-10.6,10.6h-32c-5.3,0-10.6-5.4-10.6-10.6V150.8z
	 M175.3,273h-32c-5.3,0-10.6-5.3-10.6-10.5v-32c0-5.3,5.3-10.6,10.6-10.6h32c5.3,0,10.6,5.3,10.6,10.6v32
	C185.8,267.7,180.5,273,175.3,273z M185.8,379.2c0-44,35.7-79.7,79.7-79.7s79.7,35.7,79.7,79.7H185.8z M398.3,262.4
	c0,5.3-5.3,10.6-10.6,10.6h-32c-5.3,0-10.6-5.4-10.6-10.6v-32c0-5.3,5.3-10.6,10.6-10.6h32c5.3,0,10.6,5.3,10.6,10.6V262.4z
	 M398.3,182.7c0,5.3-5.3,10.6-10.6,10.6h-32c-5.3,0-10.6-5.4-10.6-10.6v-32c0-5.3,5.3-10.6,10.6-10.6h32c5.3,0,10.6,5.3,10.6,10.6
	V182.7z"/>
</svg>
