<?xml version="1.0" encoding="utf-8"?>
<!-- Generator: Adobe Illustrator 26.0.1, SVG Export Plug-In . SVG Version: 6.00 Build 0)  -->
<svg version="1.1"
	 id="svg2" xmlns:cc="http://web.resource.org/cc/" xmlns:dc="http://purl.org/dc/elements/1.1/" xmlns:inkscape="http://www.inkscape.org/namespaces/inkscape" xmlns:rdf="http://www.w3.org/1999/02/22-rdf-syntax-ns#" xmlns:sodipodi="http://inkscape.sourceforge.net/DTD/sodipodi-0.dtd" xmlns:svg="http://www.w3.org/2000/svg"
	 xmlns="http://www.w3.org/2000/svg" xmlns:xlink="http://www.w3.org/1999/xlink" x="0px" y="0px" viewBox="0 0 361 439"
	 style="enable-background:new 0 0 361 439;" xml:space="preserve">
<style type="text/css">
	.st0{fill:#FFFFFF;}
</style>
<g id="g2189" transform="translate(-153.434,-18.51789)">
	<path id="path1312" class="st0" d="M196.3,169.1l16-62.4l35.5-35.8l176.9,0.7l28.1,34.8l20,67.5l2.9,176.2l-279.2-9.6L196.3,169.1z
		"/>
	<path id="path1310" d="M214.4,437.4c-4.1-1.8-8.7-6.2-11.1-10.7c-1.7-3.2-2-5.4-2.3-19.8c-0.2-10.9-0.7-16.5-1.4-16.9
		c-0.6-0.4-6.6-0.7-13.5-0.7l-12.4,0l0.3-84.6l0.3-84.6l7.8-58.6c4.3-32.3,8.5-60.7,9.2-63.2c2-6.7,7.8-15,13.7-19.8
		c6.1-4.9,21.9-12.8,32.3-16.1c9.6-3.1,26.9-7.2,41.9-10c40.7-7.4,73.9-7,116.9,1.3c49.2,9.6,73.7,22.9,80.6,43.6
		c1.2,3.7,4.4,25.2,9.5,64.6l7.7,59v84.2v84.2l-12,0c-6.6,0-12.4,0.3-13,0.7c-0.7,0.4-1.2,5.9-1.4,16.5c-0.4,18.3-1.3,21.4-7.5,26.9
		c-12,10.5-33,5.6-37.3-8.8c-0.6-2-1-9.7-1-17.9c0-12-0.2-14.7-1.4-15.9c-1.3-1.3-10.3-1.4-86.1-1.4s-84.8,0.1-86.1,1.4
		c-1.2,1.2-1.4,4-1.4,16.5c0,13.9-0.2,15.4-2.1,19.6c-2.5,5.4-5,7.8-10.5,10.3C229.3,439.2,219.1,439.5,214.4,437.4z M231.6,336.6
		c8.5-3.1,14.5-11.5,14.5-20.7c0-12.7-9.5-22.3-22-22.3c-6.2,0-10,1.4-14.6,5.4c-5.3,4.6-7.3,9.2-7.3,16.7c0,7,1.9,11.7,6.4,16
		C214.5,337.2,224.2,339.3,231.6,336.6z M454.5,335.3c16.3-8.3,16.3-31,0-39.2c-11.6-5.9-25.6-0.8-30.5,11.1
		c-2,4.8-1.7,13.5,0.7,18.4C429.9,336.5,443.4,341,454.5,335.3z M456.3,236.8c2.6-0.5,5.7-1.8,6.8-2.8c2.2-2.1,4-8.8,3.4-13
		c-0.2-1.5-3.2-22.9-6.6-47.5c-6.4-46.1-7.1-49.3-11.6-53.4c-4.6-4.2-2.4-4.1-113.2-4.2c-74.9,0-105.6,0.2-108.5,1
		c-5.3,1.3-9,5.2-10.7,11c-2.2,7.8-14.2,95.9-13.5,99.6c0.9,4.8,4.7,8.6,9.5,9.3C218.3,237.9,450.7,237.8,456.3,236.8z M402.5,96.1
		c4.2-1,6.5-3.4,7.3-7.7c0.7-3.8-1.6-8.9-4.7-10.3c-1.6-0.7-21.6-1-71.5-1c-64.2,0-69.3,0.1-71.1,1.6c-4.2,3.4-5.1,8.7-2.2,13.5
		c1.1,1.7,2.8,3.1,4.3,3.5c1.4,0.3,2.9,0.7,3.4,0.9C270.3,97.2,399.3,96.8,402.5,96.1z"/>
</g>
</svg>
