<?xml version="1.0" encoding="utf-8"?>
<!-- Generator: Adobe Illustrator 26.0.1, SVG Export Plug-In . SVG Version: 6.00 Build 0)  -->
<svg version="1.1" id="圖層_1" xmlns="http://www.w3.org/2000/svg" xmlns:xlink="http://www.w3.org/1999/xlink" x="0px" y="0px"
	 viewBox="0 0 24 24" style="enable-background:new 0 0 24 24;" xml:space="preserve">
<style type="text/css">
	.st0{fill-rule:evenodd;clip-rule:evenodd;fill:#55679F;}
</style>
<g id="Train">
	<path id="Rectangle_42__x28_Stroke_x29_" class="st0" d="M0.2,8C0.2,7,1,6.2,2,6.2h16.5c1.8,0,3.4,1,4.2,2.6l0.5,0.9
		c0.3,0.7,0.5,1.4,0.5,2.1V14c0,1-0.8,1.8-1.8,1.8H2c-1,0-1.8-0.8-1.8-1.8V8z M2,7.8C1.9,7.8,1.8,7.9,1.8,8v6c0,0.1,0.1,0.2,0.2,0.2
		h20c0.1,0,0.2-0.1,0.2-0.2v-2.1c0-0.5-0.1-1-0.3-1.5l-0.5-0.9c-0.6-1.1-1.7-1.8-2.9-1.8H2z"/>
	<path id="Rectangle_43__x28_Stroke_x29_" class="st0" d="M3.2,9c0-0.4,0.3-0.8,0.8-0.8h4c0.4,0,0.8,0.3,0.8,0.8v6
		c0,0.4-0.3,0.8-0.8,0.8H4c-0.4,0-0.8-0.3-0.8-0.8V9z M4.8,9.8v4.5h2.5V9.8H4.8z"/>
	<path id="Rectangle_44__x28_Stroke_x29_" class="st0" d="M10.2,9c0-0.4,0.3-0.8,0.8-0.8h4c0.4,0,0.8,0.3,0.8,0.8v3
		c0,0.4-0.3,0.8-0.8,0.8h-4c-0.4,0-0.8-0.3-0.8-0.8V9z M11.8,9.8v1.5h2.5V9.8H11.8z"/>
	<path id="Vector_57__x28_Stroke_x29_" class="st0" d="M18.5,6.2c0.4,0,0.8,0.3,0.8,0.8v2.5c0,0.1,0.1,0.2,0.2,0.2h3
		c0.4,0,0.8,0.3,0.8,0.8s-0.3,0.8-0.8,0.8h-3c-1,0-1.8-0.8-1.8-1.8V7C17.8,6.6,18.1,6.2,18.5,6.2z"/>
	<path id="Vector_57__x28_Stroke_x29__x5F_2" class="st0" d="M0.2,17c0-0.4,0.3-0.8,0.8-0.8h22c0.4,0,0.8,0.3,0.8,0.8
		s-0.3,0.8-0.8,0.8H1C0.6,17.8,0.2,17.4,0.2,17z"/>
	<path id="Vector_58__x28_Stroke_x29_" class="st0" d="M4,14.2c0.4,0,0.8,0.3,0.8,0.8v2c0,0.4-0.3,0.8-0.8,0.8S3.2,17.4,3.2,17v-2
		C3.2,14.6,3.6,14.2,4,14.2z"/>
	<path id="Vector_59__x28_Stroke_x29_" class="st0" d="M10,14.2c0.4,0,0.8,0.3,0.8,0.8v2c0,0.4-0.3,0.8-0.8,0.8
		c-0.4,0-0.8-0.3-0.8-0.8v-2C9.2,14.6,9.6,14.2,10,14.2z"/>
	<path id="Vector_60__x28_Stroke_x29_" class="st0" d="M16,14.2c0.4,0,0.8,0.3,0.8,0.8v2c0,0.4-0.3,0.8-0.8,0.8s-0.8-0.3-0.8-0.8v-2
		C15.2,14.6,15.6,14.2,16,14.2z"/>
	<path id="Vector_61__x28_Stroke_x29_" class="st0" d="M22,14.2c0.4,0,0.8,0.3,0.8,0.8v2c0,0.4-0.3,0.8-0.8,0.8s-0.8-0.3-0.8-0.8v-2
		C21.2,14.6,21.6,14.2,22,14.2z"/>
</g>
</svg>
