<?xml version="1.0" encoding="utf-8"?>
<!-- Generator: Adobe Illustrator 26.0.1, SVG Export Plug-In . SVG Version: 6.00 Build 0)  -->
<svg version="1.1" id="圖層_1" xmlns="http://www.w3.org/2000/svg" xmlns:xlink="http://www.w3.org/1999/xlink" x="0px" y="0px"
	 viewBox="0 0 24 24" style="enable-background:new 0 0 24 24;" xml:space="preserve">
<style type="text/css">
	.st0{fill:#55679F;}
</style>
<g id="Guides">
</g>
<g id="_x32_0">
</g>
<g id="_x31_9">
</g>
<g id="_x31_8">
</g>
<g id="_x31_7">
</g>
<g id="_x31_6">
</g>
<g id="_x31_5">
</g>
<g id="_x31_4">
</g>
<g id="_x31_3">
</g>
<g id="_x31_2">
</g>
<g id="_x31_1">
</g>
<g id="_x31_0">
</g>
<g id="_x30_9">
</g>
<g id="_x30_8">
</g>
<g id="_x30_7">
</g>
<g id="_x30_6">
</g>
<g id="_x30_5">
</g>
<g id="_x30_4">
</g>
<g id="_x30_3">
</g>
<g id="_x30_2">
</g>
<g id="_x30_1">
	<g>
		<path class="st0" d="M18,10.5c-0.6,0-1.1,0.1-1.6,0.4l-1.1-1.4l1.3-1.9H18c0.6,0,1-0.4,1-1s-0.4-1-1-1h-3c-0.6,0-1,0.4-1,1
			c0,0.3,0.1,0.5,0.3,0.7l-0.9,1.3H9C8.6,8.5,8.3,8.7,8.1,9l-1,1.7c-0.4-0.1-0.7-0.2-1.1-0.2c-2.2,0-4,1.8-4,4s1.8,4,4,4
			c1.9,0,3.4-1.3,3.9-3H12c0.4,0,0.8-0.2,0.9-0.6l1.4-3.4l0.5,0.6c-0.5,0.7-0.8,1.5-0.8,2.4c0,2.2,1.8,4,4,4s4-1.8,4-4
			S20.2,10.5,18,10.5z M6,16.5c-1.1,0-2-0.9-2-2s0.9-2,2-2s2,0.9,2,2S7.1,16.5,6,16.5z M11.3,13.5H9.9c-0.2-0.7-0.5-1.3-1-1.8
			l0.7-1.2h3L11.3,13.5z M18,16.5c-1.1,0-2-0.9-2-2s0.9-2,2-2s2,0.9,2,2S19.1,16.5,18,16.5z"/>
		<path class="st0" d="M8,7.5h2c0.6,0,1-0.4,1-1s-0.4-1-1-1H8c-0.6,0-1,0.4-1,1S7.4,7.5,8,7.5z"/>
	</g>
</g>
</svg>
