<?xml version="1.0" encoding="utf-8"?>
<!-- Generator: Adobe Illustrator 26.0.1, SVG Export Plug-In . SVG Version: 6.00 Build 0)  -->
<svg version="1.1" id="圖層_1" xmlns="http://www.w3.org/2000/svg" xmlns:xlink="http://www.w3.org/1999/xlink" x="0px" y="0px"
	 viewBox="0 0 512 512" style="enable-background:new 0 0 512 512;" xml:space="preserve">
<style type="text/css">
	.st0{fill:#55679F;}
</style>
<g id="Plane">
	<path class="st0" d="M400.8,117.9c-8.9-12.6-26.4-15.5-39-6.6c-1.3,0.9-2.5,1.9-3.6,3L302.6,170L157,127.2
		c-4.4-1.3-9.2-0.1-12.4,3.2l-16.1,16.1c-4.9,4.9-4.9,12.8,0,17.7c0.6,0.6,1.3,1.2,2.1,1.7l107.2,68.8l-9.8,9.8
		c-8.6,8.7-16.5,18.1-23.5,28.2l-74.1-7.9c-3.8-0.4-7.6,0.9-10.2,3.6L110,278.6c-4.9,4.9-4.9,12.9,0,17.8c0.6,0.6,1.3,1.2,2.1,1.7
		l62,39.8l39.9,62.1c3.7,5.8,11.5,7.5,17.3,3.8c0.8-0.5,1.5-1,2.1-1.7l10.4-10.4c2.7-2.7,4-6.4,3.6-10.2l-7.9-74.2
		c10.1-7,19.5-14.8,28.2-23.5l9.8-9.8l68.8,107.1c3.8,5.9,11.6,7.6,17.5,3.8c0.8-0.5,1.5-1.1,2.1-1.7l15.9-15.9
		c3.3-3.3,4.5-8.1,3.2-12.5l-42.8-145.5l54.6-54.6C406.5,145.1,408.9,129.2,400.8,117.9z"/>
</g>
</svg>
