<?xml version="1.0" encoding="UTF-8"?>
<svg id="svg1869" xmlns="http://www.w3.org/2000/svg" xmlns:svg="http://www.w3.org/2000/svg" version="1.1" viewBox="0 0 682.7 682.7">
  <!-- Generator: Adobe Illustrator 29.0.1, SVG Export Plug-In . SVG Version: 2.1.0 Build 192)  -->
  <defs>
    <style>
      .st0 {
        fill: #fff;
      }
    </style>
  </defs>
  <g id="g1879">
    <g id="g1885">
      <g id="path1887">
        <path class="st0" d="M341.3,520.1c-15.1,0-30.2-5.4-42.3-16.3l-14.9-13.5c-2.3-2.1-5.5-2.9-8.5-2.3l-19.6,4.2c-31.8,6.8-63.2-11.3-73.2-42.3l-6.2-19.1c-1-2.9-3.3-5.3-6.2-6.2l-19.1-6.2c-30.9-10-49.1-41.4-42.3-73.2l4.2-19.6c.7-3-.2-6.2-2.3-8.5l-13.5-14.9c-21.8-24.1-21.8-60.4,0-84.5l13.5-14.9c2.1-2.3,2.9-5.5,2.3-8.5l-4.2-19.6c-6.8-31.8,11.3-63.2,42.3-73.2l19.1-6.2c2.9-1,5.3-3.3,6.2-6.2l6.2-19.1c10-30.9,41.4-49.1,73.2-42.3l19.6,4.2c3,.7,6.2-.2,8.5-2.3l14.9-13.5c24.1-21.8,60.4-21.8,84.5,0,0,0,0,0,0,0l14.9,13.5c2.3,2.1,5.5,2.9,8.5,2.3l19.6-4.2c31.8-6.8,63.2,11.3,73.2,42.3l6.2,19.1c1,2.9,3.3,5.3,6.2,6.2l19.1,6.2c30.9,10,49.1,41.4,42.3,73.2l-4.2,19.6c-.7,3,.2,6.2,2.3,8.5l13.5,14.9c21.8,24.1,21.8,60.4,0,84.5l-13.5,14.9c-2.1,2.3-2.9,5.5-2.3,8.5l4.2,19.6c6.8,31.8-11.3,63.2-42.3,73.2l-19.1,6.2c-3,1-5.3,3.3-6.2,6.2l-6.2,19.1c-8.6,26.5-33,43.7-59.8,43.7-4.4,0-8.9-.5-13.4-1.4l-19.6-4.2c-3-.7-6.2.2-8.5,2.3l-14.9,13.5c-12,10.9-27.2,16.3-42.3,16.3ZM277.6,434.4c15.5,0,30.6,5.7,42.3,16.3l14.9,13.5c3.7,3.3,9.3,3.3,13,0l14.9-13.5c15-13.6,35.7-19.1,55.5-14.9l19.6,4.2c4.9,1,9.7-1.7,11.2-6.5l6.2-19.1c6.2-19.2,21.4-34.4,40.6-40.6l19.1-6.2c4.7-1.5,7.5-6.4,6.5-11.2l-4.2-19.6c-4.2-19.8,1.3-40.5,14.9-55.5l13.5-14.9c3.3-3.7,3.3-9.3,0-13l-13.5-14.9c-13.6-15-19.1-35.7-14.9-55.5l4.2-19.6c1-4.9-1.7-9.7-6.5-11.2l-19.1-6.2c-19.2-6.2-34.4-21.4-40.6-40.6l-6.2-19.1c-1.5-4.7-6.4-7.5-11.2-6.5l-19.6,4.2c-19.8,4.2-40.5-1.3-55.5-14.9l-14.9-13.5c-3.7-3.3-9.3-3.3-13,0l-14.9,13.5c-15,13.6-35.7,19.1-55.5,14.9l-19.6-4.2c-4.9-1-9.7,1.7-11.2,6.5l-6.2,19.1c-6.2,19.2-21.4,34.4-40.6,40.6l-19.1,6.2c-4.7,1.5-7.5,6.4-6.5,11.2l4.2,19.6c4.2,19.8-1.3,40.5-14.9,55.5l-13.5,14.9c-3.3,3.7-3.3,9.3,0,13l13.5,14.9c13.6,15,19.1,35.7,14.9,55.5l-4.2,19.6c-1,4.9,1.7,9.7,6.5,11.2l19.1,6.2c19.2,6.2,34.4,21.4,40.6,40.6l6.2,19.1c1.5,4.7,6.4,7.5,11.2,6.5l19.6-4.2c4.4-.9,8.8-1.4,13.2-1.4Z"/>
      </g>
    </g>
    <g id="g1889">
      <g id="path1891">
        <path class="st0" d="M436.6,682.7c-15.9,0-31.4-6-43.7-17.5l-39.7-36.7c-6.6-6.1-16.9-6.1-23.5,0l-39.7,36.7c-19,17.8-45.7,22.5-69.6,12.1-24-10.4-38.9-33-38.9-59.2v-51.5c0-14.7,11.9-26.7,26.7-26.7s26.7,11.9,26.7,26.7v51.5c0,6.4,4.2,9.1,6.7,10.2,2.5,1.1,7.4,2.2,12-2.1,0,0,.1-.1.2-.2l39.8-36.8c13.1-12.1,30.1-18.8,47.9-18.8s34.8,6.7,47.9,18.8l39.8,36.8.2.2c4.6,4.4,9.5,3.2,12,2.1,2.5-1.1,6.7-3.8,6.7-10.2v-51.5c0-14.7,11.9-26.7,26.7-26.7s26.7,11.9,26.7,26.7v51.5c0,26.1-14.9,48.8-38.9,59.2-8.4,3.7-17.2,5.4-25.9,5.4Z"/>
      </g>
    </g>
    <g id="g1893">
      <g id="path1895">
        <path class="st0" d="M341.3,394.7c-74.3,0-134.7-60.4-134.7-134.7s60.4-134.7,134.7-134.7,26.7,11.9,26.7,26.7-11.9,26.7-26.7,26.7c-44.8,0-81.3,36.5-81.3,81.3s36.5,81.3,81.3,81.3,81.3-36.5,81.3-81.3,11.9-26.7,26.7-26.7,26.7,11.9,26.7,26.7c0,74.3-60.4,134.7-134.7,134.7Z"/>
      </g>
    </g>
  </g>
</svg>