<?xml version="1.0" encoding="UTF-8"?>
<svg id="svg792" xmlns="http://www.w3.org/2000/svg" xmlns:svg="http://www.w3.org/2000/svg" version="1.1" viewBox="0 0 682.7 682.7">
  <!-- Generator: Adobe Illustrator 29.0.1, SVG Export Plug-In . SVG Version: 2.1.0 Build 192)  -->
  <defs>
    <style>
      .st0 {
        fill: #fff;
        stroke: #fff;
        stroke-miterlimit: 10;
        stroke-width: 6px;
      }
    </style>
  </defs>
  <g id="g802">
    <g id="g808">
      <g id="path810">
        <path class="st0" d="M550.2,680.7H229.5c-5.5,0-9.9-4.4-9.9-9.9s4.4-9.9,9.9-9.9h320.7c.4,0,.7-.3.7-.7v-22.7c0-.4-.3-.7-.7-.7H132.5c-.4,0-.7.3-.7.7v22.7c0,.4.3.7.7.7h57.3c5.5,0,9.9,4.4,9.9,9.9s-4.4,9.9-9.9,9.9h-57.3c-11.3,0-20.5-9.2-20.5-20.5v-22.7c0-11.3,9.2-20.5,20.5-20.5h417.7c11.3,0,20.5,9.2,20.5,20.5v22.7c0,11.3-9.2,20.5-20.5,20.5Z"/>
      </g>
    </g>
    <g id="g812">
      <g id="path814">
        <path class="st0" d="M516.9,636.8H165.8c-5.5,0-9.9-4.4-9.9-9.9v-33.3c0-11.3,9.2-20.5,20.5-20.5h329.9c11.3,0,20.5,9.2,20.5,20.5v33.3c0,5.5-4.4,9.9-9.9,9.9ZM175.7,616.9h331.3v-23.4c0-.4-.3-.7-.7-.7H176.4c-.4,0-.7.3-.7.7v23.4Z"/>
      </g>
    </g>
    <g id="g816">
      <g id="path818">
        <path class="st0" d="M560.8,175.9H121.9c-5.5,0-9.9-4.4-9.9-9.9v-33.3c0-11.3,9.2-20.5,20.5-20.5h417.7c11.3,0,20.5,9.2,20.5,20.5v33.3c0,5.5-4.4,9.9-9.9,9.9ZM131.8,156h419v-23.4c0-.4-.3-.7-.7-.7H132.5c-.4,0-.7.3-.7.7v23.4Z"/>
      </g>
    </g>
    <g id="g820">
      <g id="path822">
        <path class="st0" d="M473,592.9H209.7c-5.5,0-9.9-4.4-9.9-9.9v-89.9c0-5.5,4.4-9.9,9.9-9.9s9.9,4.4,9.9,9.9v79.9h243.5V220.5c0-.4-.3-.7-.7-.7h-242.2c-.4,0-.7.3-.7.7v232.9c0,5.5-4.4,9.9-9.9,9.9s-9.9-4.4-9.9-9.9v-232.9c0-11.3,9.2-20.5,20.5-20.5h242.2c11.3,0,20.5,9.2,20.5,20.5v362.5c0,5.5-4.4,9.9-9.9,9.9Z"/>
      </g>
    </g>
    <g id="g824">
      <g id="path826">
        <path class="st0" d="M209.7,263.7h-37.1c-8,0-15.1-4.4-18.7-11.6l-40.9-81.7c-2.5-4.9-.5-10.9,4.4-13.3,4.9-2.5,10.9-.5,13.3,4.4l40.9,81.7c.2.4.5.6.9.6h37.1c5.5,0,9.9,4.4,9.9,9.9s-4.4,9.9-9.9,9.9Z"/>
      </g>
    </g>
    <g id="g828">
      <g id="path830">
        <path class="st0" d="M510.1,263.7h-37.1c-5.5,0-9.9-4.4-9.9-9.9s4.4-9.9,9.9-9.9h37.1c.4,0,.7-.2.9-.6l40.9-81.7c2.5-4.9,8.4-6.9,13.3-4.4,4.9,2.5,6.9,8.4,4.4,13.3l-40.9,81.7c-3.6,7.1-10.7,11.6-18.7,11.6Z"/>
      </g>
    </g>
    <g id="g832">
      <g id="path834">
        <path class="st0" d="M473,549H209.7c-5.5,0-9.9-4.4-9.9-9.9s4.4-9.9,9.9-9.9h263.4c5.5,0,9.9,4.4,9.9,9.9s-4.4,9.9-9.9,9.9Z"/>
      </g>
    </g>
    <g id="g836">
      <g id="path838">
        <path class="st0" d="M418.5,483.2h-154.4c-11.3,0-20.5-9.2-20.5-20.5v-66.6c0-11.3,9.2-20.5,20.5-20.5h154.4c11.3,0,20.5,9.2,20.5,20.5v66.6c0,11.3-9.2,20.5-20.5,20.5ZM264.1,395.4c-.4,0-.7.3-.7.7v66.6c0,.4.3.7.7.7h154.4c.4,0,.7-.3.7-.7v-66.6c0-.4-.3-.7-.7-.7h-154.4Z"/>
      </g>
    </g>
    <g id="g840">
      <g id="path842">
        <path class="st0" d="M407.2,66.2h-21.9c-17.6,0-31.9-14.3-31.9-31.9s14.3-31.9,31.9-31.9h21.9c17.6,0,31.9,14.3,31.9,31.9s-14.3,31.9-31.9,31.9ZM385.2,22.3c-6.6,0-12,5.4-12,12s5.4,12,12,12h21.9c6.6,0,12-5.4,12-12s-5.4-12-12-12h-21.9Z"/>
      </g>
    </g>
    <g id="g844">
      <g id="path846">
        <path class="st0" d="M473,132c-5.5,0-9.9-4.4-9.9-9.9v-52.3c0-4.6-2.5-8.7-6.6-10.7l-31.8-15.9c-4.9-2.5-6.9-8.4-4.4-13.3,2.5-4.9,8.4-6.9,13.3-4.4l31.8,15.9c10.9,5.4,17.6,16.4,17.6,28.5v52.3c0,5.5-4.4,9.9-9.9,9.9Z"/>
      </g>
    </g>
  </g>
</svg>