<?xml version="1.0" encoding="utf-8"?>
<!-- Generator: Adobe Illustrator 26.0.1, SVG Export Plug-In . SVG Version: 6.00 Build 0)  -->
<svg version="1.1"
	 id="svg2" xmlns:cc="http://creativecommons.org/ns#" xmlns:dc="http://purl.org/dc/elements/1.1/" xmlns:inkscape="http://www.inkscape.org/namespaces/inkscape" xmlns:rdf="http://www.w3.org/1999/02/22-rdf-syntax-ns#" xmlns:sodipodi="http://sodipodi.sourceforge.net/DTD/sodipodi-0.dtd" xmlns:svg="http://www.w3.org/2000/svg"
	 xmlns="http://www.w3.org/2000/svg" xmlns:xlink="http://www.w3.org/1999/xlink" x="0px" y="0px" viewBox="0 0 32 32"
	 style="enable-background:new 0 0 32 32;" xml:space="preserve">
<style type="text/css">
	.st0{fill:none;}
</style>
<g id="background">
	<rect x="2.3" y="2" class="st0" width="28" height="28"/>
</g>
<g id="clock">
	<path d="M2.3,16c0-7.7,6.3-14,14-14l0,0c7.7,0,14,6.3,14,14l0,0c0,7.7-6.3,14-14,14l0,0C8.5,30,2.3,23.7,2.3,16L2.3,16z M5.8,16
		c0,5.8,4.7,10.5,10.5,10.5l0,0c5.8,0,10.5-4.7,10.5-10.5l0,0c0-5.8-4.7-10.5-10.5-10.5l0,0C10.5,5.5,5.8,10.2,5.8,16L5.8,16z"/>
	<polygon points="18,14.3 18,7.3 14.5,7.3 14.5,17.8 21.5,17.8 21.5,14.3 	"/>
</g>
</svg>
