<?xml version="1.0" encoding="utf-8"?>
<!-- Generator: Adobe Illustrator 26.0.1, SVG Export Plug-In . SVG Version: 6.00 Build 0)  -->
<svg version="1.1" id="圖層_1" xmlns="http://www.w3.org/2000/svg" xmlns:xlink="http://www.w3.org/1999/xlink" x="0px" y="0px"
	 viewBox="0 0 900 772" style="enable-background:new 0 0 900 772;" xml:space="preserve">
<style type="text/css">
	.st0{fill:#C1C1C1;}
	.st1{fill:#C1C1C1;stroke:#FFFFFF;stroke-width:2;}
</style>
<g>
	<path class="st0" d="M716.6,64.4c0.7-1.1,1.4-2,2.1-2.7C717.9,62.4,717.1,63.2,716.6,64.4z"/>
	<path class="st0" d="M725.6,59.6c0,0-3.6-1-6.9,2.1C721.6,59.3,725.6,59.6,725.6,59.6z"/>
	<path class="st0" d="M734.5,57c-1-0.3-2.5-0.4-4.4,0.1l-0.1,0C731.6,56.9,733.2,56.9,734.5,57z"/>
	<path class="st0" d="M754.7,169.2c0.1,0,0.2,0.1,0.3,0.1C754.9,169.2,754.8,169.2,754.7,169.2z"/>
	<path class="st0" d="M755,169.3c0.1,0,0.2,0.1,0.3,0.1C755.3,169.3,755.2,169.3,755,169.3z"/>
	<path class="st0" d="M754.1,169L754.1,169c0.1,0,0.2,0.1,0.3,0.1C754.3,169.1,754.2,169,754.1,169z"/>
	<path class="st0" d="M754.4,169.1c0.1,0,0.2,0.1,0.3,0.1C754.6,169.2,754.5,169.1,754.4,169.1z"/>
	<path class="st0" d="M755,169.3C755,169.3,755,169.3,755,169.3c-0.1,0-0.2-0.1-0.3-0.1c0,0,0,0,0,0c-0.1,0-0.2-0.1-0.3-0.1
		c0,0,0,0,0,0c-0.1,0-0.2-0.1-0.3-0.1l0.1,0.2l1.2,0.1c0,0,0,0,0,0C755.3,169.3,755.2,169.3,755,169.3z"/>
	<path class="st0" d="M742,156.9c0.1-0.3,0.1-0.6,0.2-0.8C742.1,156.4,742.1,156.6,742,156.9z"/>
	<polygon class="st0" points="742.3,154.4 742.3,154.5 742.3,154.5 	"/>
	<path class="st0" d="M742.2,155.4c0,0.1,0,0.3,0,0.4C742.2,155.6,742.2,155.5,742.2,155.4z"/>
	<path class="st0" d="M742.2,155.8c0-0.1,0-0.3,0-0.4c0-0.3,0-0.6,0-0.9c0,0,0,0,0,0l-0.3,2.5c0.1-0.3,0.1-0.6,0.2-0.8
		C742.2,156,742.2,155.9,742.2,155.8z"/>
	<path class="st0" d="M742.9,144.2l-3.5,3.1C741.6,147.2,742.9,144.2,742.9,144.2z"/>
	<path class="st0" d="M713.1,115.8C713.1,115.9,713.1,115.9,713.1,115.8C713.1,115.9,713.1,115.9,713.1,115.8z"/>
	<polygon class="st0" points="713.2,114.9 713.2,114.9 713.2,114.9 	"/>
	<path class="st0" d="M713.1,115.8c0-0.3,0-0.6,0-0.9c0,0,0,0,0,0l-0.2,2C713.1,116.6,713.1,116.2,713.1,115.8
		C713.1,115.9,713.1,115.9,713.1,115.8z"/>
	<path class="st0" d="M740.2,132.5C740.2,132.6,740.2,132.6,740.2,132.5C740.2,132.6,740.2,132.6,740.2,132.5z"/>
	<path class="st0" d="M739.5,131.8C739.5,131.8,739.5,131.8,739.5,131.8C739.5,131.8,739.5,131.8,739.5,131.8z"/>
	<path class="st0" d="M739.8,132.1C739.8,132.2,739.9,132.2,739.8,132.1C739.9,132.2,739.8,132.2,739.8,132.1z"/>
	<path class="st0" d="M740.5,133C740.5,133,740.5,133,740.5,133C740.5,133,740.5,133,740.5,133z"/>
	<path class="st0" d="M740.5,133c-0.1-0.1-0.2-0.3-0.3-0.4c0,0,0,0,0,0c-0.1-0.1-0.2-0.2-0.3-0.4c0,0,0,0,0,0
		c-0.1-0.1-0.2-0.2-0.4-0.4c0,0,0,0,0,0c-0.3-0.2-0.5-0.5-0.8-0.7l2.6,3.5C741.1,134,740.8,133.5,740.5,133
		C740.5,133,740.5,133,740.5,133z"/>
	<path class="st0" d="M742,152.7c0,0,0,0.1,0,0.1C742.1,152.7,742.1,152.7,742,152.7z"/>
	<path class="st0" d="M739.6,147.5C739.6,147.5,739.6,147.5,739.6,147.5C739.6,147.5,739.6,147.5,739.6,147.5z"/>
	<path class="st0" d="M739.4,147.2C739.4,147.2,739.4,147.3,739.4,147.2C739.4,147.3,739.4,147.2,739.4,147.2z"/>
	<path class="st0" d="M739.4,147.3C739.4,147.3,739.5,147.4,739.4,147.3C739.5,147.4,739.5,147.3,739.4,147.3z"/>
	<path class="st0" d="M742,152.7c-0.5-2.5-1.9-4.4-2.4-5.1c0,0,0,0,0,0c0,0-0.1-0.1-0.1-0.1c0,0,0,0,0-0.1c0,0,0,0,0-0.1
		c0,0,0,0,0,0l2.8,6.1c0-0.2-0.1-0.4-0.1-0.6C742.1,152.7,742.1,152.7,742,152.7z"/>
	<path class="st0" d="M750.4,162.3C750.4,162.3,750.4,162.3,750.4,162.3C750.4,162.3,750.4,162.3,750.4,162.3z"/>
	<path class="st0" d="M750.4,162.3C750.4,162.2,750.4,162.2,750.4,162.3l-3.6-3.2l-4.8-2.2l3,1.4l3.6,3l4,4.9
		C751.8,164.6,750.7,162.7,750.4,162.3C750.4,162.3,750.4,162.3,750.4,162.3z"/>
	<path class="st0" d="M739.4,147.3C739.4,147.3,739.4,147.3,739.4,147.3C739.4,147.3,739.4,147.3,739.4,147.3z"/>
	<path class="st0" d="M740.5,133c0.3,0.5,0.6,1,0.7,1.6l0,0C741.1,134,740.8,133.5,740.5,133z"/>
	<path class="st0" d="M713.2,114.9c0,0.3,0,0.6,0,0.9C713.2,115.5,713.2,115.2,713.2,114.9z"/>
	<path class="st0" d="M740.2,132.6c0.1,0.1,0.2,0.3,0.3,0.4C740.4,132.9,740.3,132.7,740.2,132.6z"/>
	<path class="st0" d="M733.5,128.5c0,0,0,0.1,0,0.1C733.5,128.6,733.5,128.5,733.5,128.5L733.5,128.5L733.5,128.5z"/>
	<path class="st0" d="M754.4,169.1C754.4,169.1,754.4,169.1,754.4,169.1C754.4,169.1,754.4,169.1,754.4,169.1z"/>
	<path class="st0" d="M713,116.9c0.1-0.3,0.1-0.7,0.1-1C713.1,116.2,713.1,116.6,713,116.9z"/>
	<path class="st0" d="M739.9,132.2c0.1,0.1,0.2,0.2,0.3,0.4C740.1,132.4,740,132.3,739.9,132.2z"/>
	<path class="st0" d="M739.5,131.8c0.1,0.1,0.2,0.2,0.4,0.4C739.7,132,739.6,131.9,739.5,131.8z"/>
	<path class="st0" d="M733.6,128.6c0,0.1,0.1,0.2,0.1,0.3l0,0C733.6,128.8,733.6,128.7,733.6,128.6z"/>
	<path class="st0" d="M738.6,131.1L738.6,131.1c0.3,0.2,0.6,0.4,0.8,0.7C739.2,131.5,738.9,131.3,738.6,131.1z"/>
	<path class="st0" d="M742.3,154.5c0,0.3,0,0.6,0,0.9C742.3,155.1,742.3,154.8,742.3,154.5z"/>
	<path class="st0" d="M755.4,169.4C755.4,169.4,755.4,169.4,755.4,169.4L755.4,169.4C755.4,169.4,755.4,169.4,755.4,169.4z"/>
	<path class="st0" d="M755,169.3C755,169.3,755,169.3,755,169.3C755,169.3,755,169.3,755,169.3z"/>
	<path class="st0" d="M742.2,155.8c0,0.1,0,0.2,0,0.3C742.2,156,742.2,155.9,742.2,155.8z"/>
	<path class="st0" d="M750.4,162.3c0.3,0.5,1.4,2.3,2.2,4v0C751.8,164.6,750.7,162.7,750.4,162.3z"/>
	<path class="st0" d="M750.4,162.2C750.4,162.2,750.4,162.2,750.4,162.2C750.4,162.2,750.4,162.2,750.4,162.2z"/>
	<path class="st0" d="M742.1,152.8c0,0.2,0.1,0.4,0.1,0.6v0C742.1,153.2,742.1,153,742.1,152.8z"/>
	<path class="st0" d="M739.5,147.4c0,0,0.1,0.1,0.1,0.1C739.5,147.4,739.5,147.4,739.5,147.4z"/>
	<path class="st0" d="M739.6,147.5c0.5,0.7,1.9,2.6,2.4,5.1C741.5,150.1,740.1,148.2,739.6,147.5z"/>
	<path class="st0" d="M754.7,169.2C754.7,169.2,754.7,169.2,754.7,169.2C754.7,169.2,754.7,169.2,754.7,169.2z"/>
	<path class="st0" d="M733.6,128.6C733.6,128.6,733.6,128.6,733.6,128.6C733.6,128.6,733.6,128.6,733.6,128.6z"/>
	<path class="st0" d="M733.6,128.6c0,0,0-0.1,0-0.1l0.1,0.4C733.6,128.8,733.6,128.7,733.6,128.6
		C733.6,128.6,733.6,128.6,733.6,128.6z"/>
	<path class="st0" d="M708.4,108.6C708.4,108.6,708.4,108.6,708.4,108.6C708.4,108.6,708.4,108.6,708.4,108.6z"/>
	<path class="st0" d="M753.2,167.7c0,0,0-0.1,0-0.1C753.2,167.7,753.2,167.7,753.2,167.7z"/>
	<path class="st0" d="M741.5,135.7c0,0,0-0.1,0-0.1C741.5,135.6,741.5,135.7,741.5,135.7z"/>
	<path class="st0" d="M741.6,136.7c0-0.2,0-0.4,0-0.6C741.6,136.3,741.6,136.5,741.6,136.7z"/>
	<path class="st0" d="M708.6,108.7C708.6,108.7,708.6,108.7,708.6,108.7C708.6,108.7,708.6,108.7,708.6,108.7z"/>
	<path class="st0" d="M735.7,129.7C735.7,129.7,735.7,129.7,735.7,129.7C735.7,129.7,735.7,129.7,735.7,129.7z"/>
	<path class="st0" d="M757.8,169.7c-0.2,0-0.4,0-0.6,0C757.4,169.7,757.6,169.7,757.8,169.7z"/>
	<path class="st0" d="M708.2,108.6C708.2,108.6,708.2,108.6,708.2,108.6C708.2,108.6,708.2,108.6,708.2,108.6z"/>
	<path class="st0" d="M753.4,168.8c0,0,0.3,0.1,0.7,0.2l0,0C753.7,168.9,753.4,168.8,753.4,168.8z"/>
	<path class="st0" d="M735.3,129.6C735.3,129.6,735.3,129.6,735.3,129.6C735.3,129.6,735.3,129.6,735.3,129.6z"/>
	<path class="st0" d="M753.4,168.3c0,0,0-0.1,0-0.1C753.4,168.2,753.4,168.3,753.4,168.3z"/>
	<polygon class="st0" points="713.2,114.9 713.2,114.9 713.2,114.9 	"/>
	<path class="st0" d="M733.7,129.2C733.7,129.2,733.7,129.2,733.7,129.2C733.7,129.2,733.7,129.2,733.7,129.2z"/>
	<path class="st0" d="M757.1,169.6c-0.2,0-0.4,0-0.6-0.1C756.8,169.6,756.9,169.6,757.1,169.6z"/>
	<path class="st0" d="M734.1,129.3C734.1,129.3,734.1,129.3,734.1,129.3C734.1,129.3,734.1,129.3,734.1,129.3z"/>
	<path class="st0" d="M737.4,130.4C737.4,130.4,737.3,130.4,737.4,130.4C737.3,130.4,737.4,130.4,737.4,130.4z"/>
	<path class="st0" d="M738.2,130.8C738.2,130.8,738.2,130.8,738.2,130.8C738.2,130.8,738.2,130.8,738.2,130.8z"/>
	<path class="st0" d="M737.8,130.6C737.8,130.6,737.8,130.6,737.8,130.6C737.8,130.6,737.8,130.6,737.8,130.6z"/>
	<path class="st0" d="M755.9,169.5c-0.2,0-0.4-0.1-0.5-0.1C755.6,169.4,755.8,169.4,755.9,169.5z"/>
	<polygon class="st0" points="742.3,154.4 742.3,154.5 742.3,154.4 	"/>
	<path class="st0" d="M741.4,135.1C741.4,135.1,741.4,135.1,741.4,135.1C741.4,135.1,741.4,135.1,741.4,135.1z"/>
	<path class="st0" d="M724,124.4C724,124.4,724,124.4,724,124.4C724,124.4,724,124.4,724,124.4z"/>
	<path class="st0" d="M756.5,169.6c-0.2,0-0.4-0.1-0.5-0.1C756.2,169.5,756.4,169.5,756.5,169.6z"/>
	<path class="st0" d="M733.8,129.2C733.8,129.2,733.8,129.2,733.8,129.2C733.8,129.2,733.8,129.2,733.8,129.2z"/>
	<path class="st0" d="M733.9,129.3C733.9,129.3,733.9,129.3,733.9,129.3C733.9,129.3,733.9,129.3,733.9,129.3z"/>
	<polygon class="st0" points="733.5,128.5 733.5,128.5 733.5,128.5 	"/>
	<path class="st0" d="M724.3,124.4C724.3,124.4,724.3,124.4,724.3,124.4C724.3,124.4,724.3,124.4,724.3,124.4z"/>
	<path class="st0" d="M724,124.4C724,124.4,724,124.4,724,124.4C724,124.4,724,124.4,724,124.4C724,124.4,724,124.4,724,124.4z"/>
	<path class="st0" d="M733.5,128.5c-1-2.6-7.5-3.8-9.2-4.1c0,0,0,0,0,0c-0.1,0-0.2,0-0.3,0c-0.1,0-0.1,0-0.1,0l8.8,4.3l0.9,0.3
		L733.5,128.5C733.5,128.5,733.5,128.5,733.5,128.5z"/>
	<path class="st0" d="M713,116.9l3.6,2.2l7.4,5.3C721.3,120,713,116.9,713,116.9z"/>
	<path class="st0" d="M725.4,124.6c0.1,0,0.2,0,0.3,0.1C725.6,124.7,725.5,124.7,725.4,124.6z"/>
	<path class="st0" d="M726.1,124.8c0.1,0,0.2,0.1,0.4,0.1C726.4,124.8,726.2,124.8,726.1,124.8z"/>
	<path class="st0" d="M727.3,125.1c0.1,0,0.3,0.1,0.4,0.1C727.6,125.1,727.5,125.1,727.3,125.1z"/>
	<path class="st0" d="M726.5,124.9c0.1,0,0.2,0.1,0.4,0.1C726.8,124.9,726.6,124.9,726.5,124.9z"/>
	<path class="st0" d="M726.9,125c0.1,0,0.2,0.1,0.4,0.1C727.2,125,727,125,726.9,125z"/>
	<path class="st0" d="M725.1,124.6c0.1,0,0.2,0,0.3,0.1C725.3,124.6,725.2,124.6,725.1,124.6z"/>
	<path class="st0" d="M724,124.4C724,124.4,724,124.4,724,124.4c0.1,0,0.2,0,0.3,0.1c0,0,0,0,0,0c0,0,0,0,0,0
		C724.2,124.4,724.1,124.4,724,124.4z"/>
	<path class="st0" d="M727.8,125.2c0.1,0,0.3,0.1,0.4,0.1C728,125.2,727.9,125.2,727.8,125.2z"/>
	<path class="st0" d="M724.8,124.5c0.1,0,0.2,0,0.3,0C725,124.6,724.9,124.5,724.8,124.5z"/>
	<path class="st0" d="M724.4,124.4c0.1,0,0.1,0,0.2,0C724.5,124.5,724.4,124.5,724.4,124.4z"/>
	<path class="st0" d="M724.6,124.5c0.1,0,0.1,0,0.2,0C724.7,124.5,724.7,124.5,724.6,124.5z"/>
	<path class="st0" d="M725.8,124.7c0.1,0,0.2,0,0.3,0.1C726,124.7,725.9,124.7,725.8,124.7z"/>
	<path class="st0" d="M729.5,125.7c0.1,0,0.3,0.1,0.4,0.1C729.8,125.8,729.6,125.8,729.5,125.7z"/>
	<path class="st0" d="M732.3,127.1c0.1,0.1,0.2,0.1,0.3,0.2C732.5,127.2,732.4,127.1,732.3,127.1z"/>
	<path class="st0" d="M730,125.9c0.1,0,0.2,0.1,0.4,0.1C730.2,126,730.1,125.9,730,125.9z"/>
	<path class="st0" d="M732.6,127.3c0.1,0.1,0.2,0.1,0.2,0.2C732.7,127.5,732.7,127.4,732.6,127.3z"/>
	<path class="st0" d="M731.2,126.4c0.1,0.1,0.2,0.1,0.3,0.2C731.4,126.5,731.3,126.5,731.2,126.4z"/>
	<path class="st0" d="M731.9,126.9c0.1,0.1,0.2,0.1,0.3,0.2C732.1,127,732,126.9,731.9,126.9z"/>
	<path class="st0" d="M732.8,127.6c0.1,0.1,0.1,0.1,0.2,0.2C733,127.7,732.9,127.6,732.8,127.6z"/>
	<path class="st0" d="M730.4,126.1c0.1,0.1,0.2,0.1,0.4,0.2C730.6,126.2,730.5,126.1,730.4,126.1z"/>
	<path class="st0" d="M731.6,126.6c0.1,0.1,0.2,0.1,0.3,0.2C731.8,126.8,731.7,126.7,731.6,126.6z"/>
	<path class="st0" d="M728.2,125.3c0.1,0,0.3,0.1,0.4,0.1C728.5,125.4,728.3,125.3,728.2,125.3z"/>
	<path class="st0" d="M733.5,128.5L733.5,128.5L733.5,128.5c0-0.1,0-0.1-0.1-0.2C733.5,128.4,733.5,128.5,733.5,128.5z"/>
	<path class="st0" d="M733.3,128.1c0.1,0.1,0.1,0.2,0.1,0.3C733.4,128.3,733.3,128.2,733.3,128.1z"/>
	<path class="st0" d="M728.6,125.4c0.1,0,0.3,0.1,0.4,0.1C728.9,125.5,728.8,125.5,728.6,125.4z"/>
	<path class="st0" d="M730.8,126.2c0.1,0.1,0.2,0.1,0.3,0.2C731,126.3,730.9,126.3,730.8,126.2z"/>
	<path class="st0" d="M729.1,125.6c0.1,0,0.3,0.1,0.4,0.1C729.3,125.7,729.2,125.6,729.1,125.6z"/>
	<path class="st0" d="M733.1,127.8c0.1,0.1,0.1,0.2,0.2,0.2C733.2,128,733.2,127.9,733.1,127.8z"/>
	<path class="st0" d="M733.1,127.8C733.1,127.8,733.1,127.8,733.1,127.8C733.1,127.8,733.1,127.8,733.1,127.8z"/>
	<path class="st0" d="M728.1,125.3C728.2,125.3,728.2,125.3,728.1,125.3C728.2,125.3,728.2,125.3,728.1,125.3z"/>
	<path class="st0" d="M731.5,126.6C731.5,126.6,731.6,126.6,731.5,126.6C731.6,126.6,731.5,126.6,731.5,126.6z"/>
	<path class="st0" d="M731.1,126.4C731.2,126.4,731.2,126.4,731.1,126.4C731.2,126.4,731.2,126.4,731.1,126.4z"/>
	<path class="st0" d="M732.5,127.3C732.6,127.3,732.6,127.3,732.5,127.3C732.6,127.3,732.6,127.3,732.5,127.3z"/>
	<path class="st0" d="M733.3,128.1C733.3,128.1,733.3,128.1,733.3,128.1C733.3,128.1,733.3,128.1,733.3,128.1z"/>
	<path class="st0" d="M731.9,126.8C731.9,126.8,731.9,126.8,731.9,126.8C731.9,126.8,731.9,126.8,731.9,126.8z"/>
	<path class="st0" d="M732.2,127C732.2,127.1,732.3,127.1,732.2,127C732.3,127.1,732.2,127.1,732.2,127z"/>
	<path class="st0" d="M733.4,128.3C733.4,128.3,733.4,128.4,733.4,128.3C733.4,128.4,733.4,128.3,733.4,128.3z"/>
	<path class="st0" d="M732.8,127.5C732.8,127.5,732.8,127.5,732.8,127.5C732.8,127.5,732.8,127.5,732.8,127.5z"/>
	<path class="st0" d="M729.5,125.7C729.5,125.7,729.5,125.7,729.5,125.7C729.5,125.7,729.5,125.7,729.5,125.7z"/>
	<path class="st0" d="M726.1,124.8C726.1,124.8,726.1,124.8,726.1,124.8C726.1,124.8,726.1,124.8,726.1,124.8z"/>
	<path class="st0" d="M727.7,125.2C727.7,125.2,727.7,125.2,727.7,125.2C727.7,125.2,727.7,125.2,727.7,125.2z"/>
	<path class="st0" d="M726.5,124.9C726.5,124.9,726.5,124.9,726.5,124.9C726.5,124.9,726.5,124.9,726.5,124.9z"/>
	<path class="st0" d="M726.9,124.9C726.9,125,726.9,125,726.9,124.9C726.9,125,726.9,125,726.9,124.9z"/>
	<path class="st0" d="M727.3,125C727.3,125.1,727.3,125.1,727.3,125C727.3,125.1,727.3,125.1,727.3,125z"/>
	<path class="st0" d="M729,125.6C729,125.6,729.1,125.6,729,125.6C729.1,125.6,729,125.6,729,125.6z"/>
	<path class="st0" d="M725.7,124.7C725.7,124.7,725.8,124.7,725.7,124.7C725.8,124.7,725.7,124.7,725.7,124.7z"/>
	<path class="st0" d="M724.6,124.5C724.6,124.5,724.6,124.5,724.6,124.5C724.6,124.5,724.6,124.5,724.6,124.5z"/>
	<path class="st0" d="M728.6,125.4C728.6,125.4,728.6,125.4,728.6,125.4C728.6,125.4,728.6,125.4,728.6,125.4z"/>
	<path class="st0" d="M724.4,124.4C724.4,124.4,724.4,124.4,724.4,124.4C724.4,124.4,724.4,124.4,724.4,124.4z"/>
	<path class="st0" d="M730.3,126C730.3,126,730.4,126,730.3,126C730.4,126,730.3,126,730.3,126z"/>
	<path class="st0" d="M730.7,126.2C730.8,126.2,730.8,126.2,730.7,126.2C730.8,126.2,730.8,126.2,730.7,126.2z"/>
	<path class="st0" d="M729.9,125.9C729.9,125.9,729.9,125.9,729.9,125.9C729.9,125.9,729.9,125.9,729.9,125.9z"/>
	<path class="st0" d="M725.4,124.6C725.4,124.6,725.4,124.6,725.4,124.6C725.4,124.6,725.4,124.6,725.4,124.6z"/>
	<path class="st0" d="M724.8,124.5C724.8,124.5,724.8,124.5,724.8,124.5C724.8,124.5,724.8,124.5,724.8,124.5z"/>
	<path class="st0" d="M725.1,124.6C725.1,124.6,725.1,124.6,725.1,124.6C725.1,124.6,725.1,124.6,725.1,124.6z"/>
	<path class="st0" d="M724.3,124.4c-0.1,0-0.2,0-0.3,0C724.1,124.4,724.2,124.4,724.3,124.4z"/>
	<path class="st0" d="M733.4,128.3c0-0.1-0.1-0.2-0.1-0.3c0,0,0,0,0,0c-0.1-0.1-0.1-0.2-0.2-0.2c0,0,0,0,0,0
		c-0.1-0.1-0.1-0.2-0.2-0.2c0,0,0,0,0,0c-0.1-0.1-0.2-0.1-0.2-0.2c0,0,0,0,0,0c-0.1-0.1-0.2-0.1-0.3-0.2c0,0,0,0,0,0
		c-0.1-0.1-0.2-0.1-0.3-0.2c0,0,0,0,0,0c-0.1-0.1-0.2-0.1-0.3-0.2c0,0,0,0-0.1,0c-0.1-0.1-0.2-0.1-0.3-0.2c0,0,0,0-0.1,0
		c-0.1-0.1-0.2-0.1-0.3-0.2c0,0,0,0-0.1,0c-0.1-0.1-0.2-0.1-0.4-0.2c0,0,0,0-0.1,0c-0.1-0.1-0.2-0.1-0.4-0.1c0,0,0,0-0.1,0
		c-0.1,0-0.3-0.1-0.4-0.1c0,0,0,0-0.1,0c-0.1,0-0.3-0.1-0.4-0.1c0,0,0,0-0.1,0c-0.1,0-0.3-0.1-0.4-0.1c0,0,0,0-0.1,0
		c-0.1,0-0.3-0.1-0.4-0.1c0,0,0,0-0.1,0c-0.1,0-0.3-0.1-0.4-0.1c0,0,0,0-0.1,0c-0.1,0-0.3-0.1-0.4-0.1c0,0,0,0,0,0
		c-0.1,0-0.3-0.1-0.4-0.1c0,0,0,0,0,0c-0.1,0-0.2-0.1-0.4-0.1c0,0,0,0,0,0c-0.1,0-0.2-0.1-0.4-0.1c0,0,0,0,0,0c-0.1,0-0.2,0-0.3-0.1
		c0,0,0,0,0,0c-0.1,0-0.2,0-0.3-0.1c0,0,0,0,0,0c-0.1,0-0.2,0-0.3-0.1c0,0,0,0,0,0c-0.1,0-0.2,0-0.3,0c0,0,0,0,0,0
		c-0.1,0-0.2,0-0.2,0c0,0,0,0,0,0c-0.1,0-0.1,0-0.2,0c0,0,0,0,0,0c0,0,0,0,0,0c1.6,0.3,8.2,1.5,9.2,4.1
		C733.5,128.5,733.5,128.4,733.4,128.3C733.4,128.4,733.4,128.3,733.4,128.3z"/>
	<path class="st0" d="M755.4,169.4c0.2,0,0.3,0.1,0.5,0.1c0,0,0,0,0.1,0c0.2,0,0.4,0.1,0.5,0.1c0,0,0,0,0,0c0.2,0,0.4,0,0.6,0.1
		c0,0,0.1,0,0.1,0c0.2,0,0.4,0,0.6,0L755.4,169.4C755.4,169.4,755.4,169.4,755.4,169.4z"/>
	<polygon class="st0" points="755.4,169.4 755.4,169.4 755.4,169.4 	"/>
	<path class="st0" d="M757.3,169.6c0,0-0.1,0-0.1,0C757.2,169.6,757.2,169.6,757.3,169.6z"/>
	<path class="st0" d="M756,169.5C756,169.5,756,169.5,756,169.5C756,169.5,756,169.5,756,169.5z"/>
	<path class="st0" d="M756.6,169.6C756.6,169.6,756.6,169.6,756.6,169.6C756.6,169.6,756.6,169.6,756.6,169.6z"/>
	<path class="st0" d="M752.9,166.6l-0.3-0.3c0.2,0.5,0.4,0.9,0.6,1.4c0,0,0,0.1,0,0.1c0.1,0.2,0.1,0.3,0.1,0.5c0,0,0,0.1,0,0.1
		c0,0.2,0.1,0.3,0.1,0.5c0,0,0.3,0.1,0.7,0.2L752.9,166.6z"/>
	<path class="st0" d="M753.4,168.8c0-0.1,0-0.3-0.1-0.5C753.4,168.5,753.4,168.6,753.4,168.8z"/>
	<path class="st0" d="M753.3,168.2c0-0.1-0.1-0.3-0.1-0.5C753.3,167.9,753.3,168,753.3,168.2z"/>
	<path class="st0" d="M752.6,166.3c0.2,0.5,0.4,0.9,0.6,1.4C753,167.2,752.8,166.7,752.6,166.3L752.6,166.3z"/>
	<path class="st0" d="M742.3,153.7l-0.2-0.4c0,0.3,0.1,0.7,0.1,1.1c0,0,0,0,0,0L742.3,153.7z"/>
	<path class="st0" d="M742.2,153.4c0,0.3,0.1,0.7,0.1,1.1C742.2,154.1,742.2,153.7,742.2,153.4L742.2,153.4z"/>
	<path class="st0" d="M742,135.6l-0.7-1c0,0.2,0.1,0.3,0.1,0.5c0,0,0,0,0,0c0,0.2,0.1,0.3,0.1,0.5c0,0,0,0.1,0,0.1
		c0,0.1,0,0.3,0,0.4c0,0.2,0,0.4,0,0.6c0,0-0.9,4,1.3,7.5l-0.9-3.6V135.6z"/>
	<path class="st0" d="M741.5,135.6c0-0.2-0.1-0.3-0.1-0.5C741.4,135.3,741.5,135.4,741.5,135.6z"/>
	<path class="st0" d="M741.5,136.1c0-0.1,0-0.3,0-0.4C741.5,135.9,741.5,136,741.5,136.1z"/>
	<path class="st0" d="M741.3,134.6c0,0.2,0.1,0.3,0.1,0.5C741.4,134.9,741.3,134.8,741.3,134.6L741.3,134.6z"/>
	<path class="st0" d="M738,130.3l-4.4-1.4c0,0.1,0,0.2,0,0.3c0,0,0,0,0,0c0,0,0,0,0,0c0,0,0,0,0.1,0c0,0,0,0,0,0c0,0,0.1,0,0.1,0
		c0,0,0,0,0,0c0,0,0.1,0,0.2,0c0,0,0,0,0,0c0.3,0.1,0.7,0.1,1.2,0.3c0,0,0,0,0,0c0.1,0,0.2,0.1,0.4,0.1c0,0,0,0,0,0
		c0.5,0.2,1.1,0.4,1.7,0.7c0,0,0,0,0,0c0.1,0.1,0.3,0.1,0.4,0.2c0,0,0,0,0,0c0.1,0.1,0.3,0.1,0.4,0.2c0,0,0,0,0,0
		c0.1,0.1,0.3,0.2,0.4,0.3L738,130.3z"/>
	<path class="st0" d="M733.8,129.2C733.7,129.2,733.7,129.2,733.8,129.2C733.7,129.2,733.7,129.2,733.8,129.2z"/>
	<path class="st0" d="M738.2,130.8c0.1,0.1,0.3,0.2,0.4,0.3l0,0C738.5,131,738.4,130.9,738.2,130.8z"/>
	<path class="st0" d="M733.6,128.9c0,0.1,0,0.2,0,0.3C733.7,129.1,733.6,129,733.6,128.9L733.6,128.9z"/>
	<path class="st0" d="M735.7,129.7c-0.1,0-0.2-0.1-0.4-0.1C735.4,129.6,735.5,129.6,735.7,129.7z"/>
	<path class="st0" d="M738.2,130.8c-0.1-0.1-0.3-0.2-0.4-0.2C737.9,130.7,738.1,130.7,738.2,130.8z"/>
	<path class="st0" d="M734.1,129.3c-0.1,0-0.1,0-0.2,0C734,129.3,734,129.3,734.1,129.3z"/>
	<path class="st0" d="M735.3,129.6c-0.5-0.1-0.9-0.2-1.2-0.3C734.4,129.3,734.8,129.4,735.3,129.6z"/>
	<path class="st0" d="M737.8,130.6c-0.1-0.1-0.3-0.1-0.4-0.2C737.5,130.4,737.6,130.5,737.8,130.6z"/>
	<path class="st0" d="M733.7,129.2C733.7,129.2,733.7,129.2,733.7,129.2C733.7,129.2,733.7,129.2,733.7,129.2z"/>
	<path class="st0" d="M733.9,129.3c0,0-0.1,0-0.1,0C733.8,129.2,733.9,129.2,733.9,129.3z"/>
	<path class="st0" d="M737.3,130.4c-0.6-0.3-1.1-0.5-1.7-0.7C736.2,129.9,736.8,130.1,737.3,130.4z"/>
	<path class="st0" d="M708.6,108.7c1.2,0.4,4.5,1.9,4.6,6.2C713.1,110.6,709.8,109.1,708.6,108.7z"/>
	<path class="st0" d="M708.6,108.7c-0.1,0-0.2-0.1-0.2-0.1C708.4,108.6,708.5,108.7,708.6,108.7z"/>
	<path class="st0" d="M708.4,108.6c-0.1,0-0.1,0-0.1,0C708.2,108.6,708.3,108.6,708.4,108.6z"/>
	<path class="st0" d="M708.2,108.6C708.2,108.6,708.2,108.6,708.2,108.6C708.2,108.6,708.2,108.6,708.2,108.6z"/>
</g>
<path class="st1" d="M669.8,143.8l1,0.3l0,0.4l0.3-4l3.3-2.3l4.9-1.3c0-4.6,2.6-3.6,2.6-3.6c4.9,2.6,2-7.9,2-7.9
	c0.3-4-3.6-5.3-3.6-5.3c-2.6,0-6.9-4-6.9-4c-3-2-4.3,0.7-4.3,0.7l-1,3.3c-0.6,0.2-1.3-0.7-2-1.7c-0.5,1.2-0.8,2.6-0.8,4.3
	c0,0,1.5,1.3-0.9,4.2c0,0,1.3,4.4-1.8,8.6l-1.5,5.3l4.9,1.2L669.8,143.8z"/>
<path class="st1" d="M874.2,75.4c0,0-8.1,2.4-10.6-2.6c0,0,1.3-4.2-2-7.5l-1.5-7c0,0-0.4-4.6-8.4-3.5c0,0-10.1-0.7-13.6-1.8
	c0,0-5.1-3.7-6.4-4.2l-3.7,0.4l-0.4-1.5l-2.2-1.1c0,0-4-1.8-5.1-1.8c0,0-2.9-2.9-4.8-4.4c0,0,0.2-3.1,2.4-5.5c0,0,0.9-1.3-2.9,0.4
	c0,0-2.4,2-5.3,0.4c0,0-4.8-3.7-5.3-9c0,0-3.3-4.6-7-5.9l-3.3-2.4c0,0-5.5-1.5-11.7,3.1l-2.6-2.2l-2.6,2.2c0,0-0.4,2.2-4.4,5.7
	l-2.4,2.4c0,0-4.4,6.2-11.7,11.9c0,0-0.7,1.3,0.4,2c0,0,9.5,3.1,10.8,7c0,0-1.3,1.8-3.1-0.9l-4-2.6c0,0-1.8-1.8-3.3,0.2
	c0,0-1.8,0.4-1.5,3.3c0,0-5.7,5.7-15.6,4.8c0,0-2.9,0.7-4.6,2.2c0,0-1.5-0.4-3.4-0.6c1.6,0.5,2.2,1.4,2.2,1.4l2.6,2.2l2.6,0.4
	l3.5,2.6h4.8l4.4,4.8l4.4,1.8l1.3,4.8v5.3l-2.6,3.1l-4.8,1.3l-4.4,3.5l-3.5,4l-0.9,4.4l0.4,3.1l1.3,3.5l3.5,4.8v3.5v4.8l3.5,1.8
	l5.7-3.5l3.5,0.4l1.8,3.5l2.6,2.6l1.8,2.6l1.8,2.6l-3.5,3.5l0.4,4.4c0,4.8,5.7,10.1,5.7,10.1c4.4,1.8,2.6,5.3,2.6,5.3
	c0.7,0.9,0.8,1.7,0.8,2.3c0,0,0,0,0,0l0.5-0.5c3,0,7.3-4.3,7.3-4.3c4.3,4.3,5.6-4.3,5.6-4.3c2.6,0,9.9-4,9.9-4l-0.7-12.5l5.6-2.3
	l2.3-3.3l11.2-2.3c3.6-4.3,7.9-7.9,7.9-7.9h4.9c0.3-3,9.2-10.9,9.2-10.9c9.9-1,7.9-4,7.9-4c1-2.6-3-7.9-3-7.9
	c1.6,1.3,6.3-0.7,6.3-0.7c6.3-5.3,14.5-5.6,14.5-5.6l4-1.3l3.7,2.1c0,0,5.5-1.5,5.5-4.8l0.4-2.9C879.3,75,876.8,75.4,874.2,75.4z"/>
<path class="st1" d="M865.6,81.9c0,0-8.2,0.3-14.5,5.6c0,0-4.6,2-6.3,0.7c0,0,4,5.3,3,7.9c0,0,2,3-7.9,4c0,0-8.9,7.9-9.2,10.9h-4.9
	c0,0-4.3,3.6-7.9,7.9l-11.2,2.3l-2.3,3.3l-5.6,2.3l0.7,12.5c0,0-7.3,4-9.9,4c0,0-1.3,8.6-5.6,4.3c0,0-4.3,4.3-7.3,4.3l-0.5,0.5
	c0,0,0,0,0,0c-0.1,0.9-0.6,1.5-0.7,1.6c0,0,0,0,0,0c0,0,0,0,0,0c-2.6,0.4-0.4,3.5-0.4,3.5c1.8,4.4-2.6,10.1-2.6,10.1l-8.8,0.4
	l-1.8,0.6l-0.5,0.7l1.8-0.3v1.3l-1.3,3l-1,4.9l1,4.6l-2.6,2l-4.9,3.3l-2,3.6l-2,2.6l-2,2.3l-2,5.3c0,0,2.6,5.6,2,8.2
	c0,0,0.7,3,5.3,3c0,0,3.3,4.3,7.9,4.3c0,0,4.3-2.6,6.6-2.6c0,0,4,1,4,4.3c0,0,3.6,1.6,6.9,0.3c0,0,4,3,10.6,3c0,0,9.2,6.9,12.9,6.3
	c0,0,1.3-0.7-1-4.3c0,0,5.9,0,5.6-6.9c0,0,4.9,0,13.2,5.6c0,0,4.3,3.3,11.5,2l6.3-3.3c0.7-1.5,2.5-5.8,1.9-11.3
	c0,0-0.4-6.6,6.2-11.9c0,0,4-5.9,7.9-5.3c0,0-0.9-4.2-4.4-4.8c0,0-2.6-2.4,0.9-3.5c0,0,8.6-0.9,4.6-9.5c0,0-0.4-4.8,1.8-5.9
	c0,0-6.2,1.8-3.1-2.2l2.4-2c0,0-4.8-2.2-6.6-6.6l-1.8-3.7v-2.6l-0.2-4.4l-0.4-3.1l-1.5-2.6l0.9-1.5c0,0-5.1-9.7-2.9-15.8l0.4-8.4
	l0.9-2.9c0,0,4-7.5,4-9.7c0,0,6.2,0.4,5.5-6.2c0,0,4.2-5.3,7-7.3c0,0,1.3-1.5,1.3-2.6l10.6-5.3l-3.7-2.1L865.6,81.9z"/>
<path class="st1" d="M775.9,56.4c0,0,0.7,5.7,5.9,10.1l-0.4,4.4l-0.4,6.6l3.5,5.3l4,1.3l2.2,5.3l7.5,1.8l5.3-0.9l1.8-2.2l-1.3-4.4
	l4.8-4l5.3-3.1l-3.5-4.8l-0.4-4.8l-1.3-1.8l-6.2-3.1l-2.6-4.8l-0.4-7l-1.3-4.8l-3.1-1.3l-2.6-0.4l-4.4,3.1l-6.2,2.6l-3.5,1.3
	L775.9,56.4z"/>
<polygon class="st1" points="806.6,50.2 808.4,54.2 809.3,58.6 811.9,62.5 817.6,62.5 821.1,66 826.4,69.1 832.6,66.9 833.4,64.3 
	830.4,62.1 830.4,59 831.7,56.4 834.8,53.3 833,50.2 829,48 824.7,47.1 821.6,44.9 818.9,43.6 808.8,47.1 "/>
<path class="st1" d="M733.6,128.6C733.6,128.6,733.6,128.6,733.6,128.6c0-0.1,0-0.1-0.1-0.2c0,0,0,0,0,0l0.1,0.4
	C733.6,128.8,733.6,128.7,733.6,128.6z"/>
<path class="st1" d="M741.4,135.1c0,0.2,0.1,0.3,0.1,0.5c0,0,0,0.1,0,0.1c0,0.1,0,0.3,0,0.4c0,0.2,0,0.4,0,0.6c0,0-0.9,4,1.3,7.5
	l-0.9-3.6v-4.9l-0.7-1C741.3,134.8,741.3,134.9,741.4,135.1C741.4,135.1,741.4,135.1,741.4,135.1z"/>
<path class="st1" d="M733.7,129.2C733.7,129.2,733.7,129.2,733.7,129.2C733.7,129.2,733.7,129.2,733.7,129.2c0.1,0,0.1,0,0.1,0
	c0,0,0.1,0,0.1,0c0,0,0,0,0,0c0,0,0.1,0,0.2,0c0,0,0,0,0,0c0.3,0.1,0.7,0.1,1.2,0.3c0,0,0,0,0,0c0.1,0,0.2,0.1,0.4,0.1c0,0,0,0,0,0
	c0.5,0.2,1.1,0.4,1.7,0.7c0,0,0,0,0,0c0.1,0.1,0.3,0.1,0.4,0.2c0,0,0,0,0,0c0.1,0.1,0.3,0.1,0.4,0.2c0,0,0,0,0,0
	c0.1,0.1,0.3,0.2,0.4,0.3l2.6,3.5c-0.2-0.6-0.4-1.1-0.7-1.6c0,0,0,0,0,0c-0.1-0.1-0.2-0.3-0.3-0.4c0,0,0,0,0,0
	c-0.1-0.1-0.2-0.2-0.3-0.4c0,0,0,0,0,0c-0.1-0.1-0.2-0.2-0.4-0.4c0,0,0,0,0,0c-0.3-0.2-0.5-0.5-0.8-0.7l-0.6-0.8l-4.4-1.4
	C733.6,129,733.7,129.1,733.7,129.2C733.7,129.2,733.7,129.2,733.7,129.2z"/>
<path class="st1" d="M713.1,115.9C713.1,115.9,713.1,115.9,713.1,115.9c0-0.4,0-0.7,0-1c0,0,0,0,0,0l-0.2,2
	C713.1,116.6,713.1,116.2,713.1,115.9z"/>
<path class="st1" d="M713.2,114.9c-0.1-4.3-3.3-5.8-4.6-6.2C709.8,109.1,713.1,110.6,713.2,114.9z"/>
<path class="st1" d="M757.1,169.6c-0.2,0-0.4,0-0.6-0.1c0,0,0,0,0,0c-0.2,0-0.4-0.1-0.5-0.1c0,0,0,0-0.1,0c-0.2,0-0.4-0.1-0.5-0.1
	c0,0,0,0,0,0l-1.2-0.1l-0.1-0.2c-0.4-0.1-0.7-0.2-0.7-0.2c0-0.1,0-0.3-0.1-0.5c0,0,0-0.1,0-0.1c0-0.1-0.1-0.3-0.1-0.5
	c0,0,0-0.1,0-0.1c-0.1-0.4-0.3-0.9-0.6-1.4l-4-4.9l-3.6-3l-3-1.4l0.3-2.5c0,0,0,0,0,0c0,0,0,0,0,0c0-0.4,0-0.7-0.1-1.1l0,0v0
	l-2.8-6.1l3.5-3.1c-2.2-3.5-1.3-7.5-1.3-7.5c0-0.2,0-0.4,0-0.6c0-0.1,0-0.3,0-0.4c0,0,0-0.1,0-0.1c0-0.2-0.1-0.3-0.1-0.5
	c0,0,0,0,0,0c0-0.2-0.1-0.3-0.1-0.5l-2.6-3.5c-0.1-0.1-0.3-0.2-0.4-0.3c0,0,0,0,0,0c-0.1-0.1-0.3-0.2-0.4-0.2c0,0,0,0,0,0
	c-0.1-0.1-0.3-0.1-0.4-0.2c0,0,0,0,0,0c-0.6-0.3-1.1-0.5-1.7-0.7c0,0,0,0,0,0c-0.1,0-0.2-0.1-0.4-0.1c0,0,0,0,0,0
	c-0.5-0.1-0.9-0.2-1.2-0.3c0,0,0,0,0,0c-0.1,0-0.1,0-0.2,0c0,0,0,0,0,0c0,0-0.1,0-0.1,0c0,0,0,0,0,0c0,0-0.1,0-0.1,0c0,0,0,0,0,0
	c0,0,0,0,0,0c0-0.1,0-0.2,0-0.3l-0.1-0.4c0,0,0-0.1-0.1-0.1c0,0,0,0,0,0c0-0.1-0.1-0.2-0.1-0.3c0,0,0,0,0,0
	c-0.1-0.1-0.1-0.2-0.2-0.2c0,0,0,0,0,0c-0.1-0.1-0.1-0.2-0.2-0.2c0,0,0,0,0,0c-0.1-0.1-0.2-0.1-0.2-0.2c0,0,0,0,0,0
	c-0.1-0.1-0.2-0.1-0.3-0.2c0,0,0,0,0,0c-0.1-0.1-0.2-0.1-0.3-0.2c0,0,0,0,0,0c-0.1-0.1-0.2-0.1-0.3-0.2c0,0,0,0-0.1,0
	c-0.1-0.1-0.2-0.1-0.3-0.2c0,0,0,0-0.1,0c-0.1-0.1-0.2-0.1-0.3-0.2c0,0,0,0-0.1,0c-0.1-0.1-0.2-0.1-0.4-0.2c0,0,0,0-0.1,0
	c-0.1-0.1-0.2-0.1-0.4-0.1c0,0,0,0-0.1,0c-0.1,0-0.3-0.1-0.4-0.1c0,0,0,0-0.1,0c-0.1,0-0.3-0.1-0.4-0.1c0,0,0,0-0.1,0
	c-0.1,0-0.3-0.1-0.4-0.1c0,0,0,0-0.1,0c-0.1,0-0.3-0.1-0.4-0.1c0,0,0,0-0.1,0c-0.1,0-0.3-0.1-0.4-0.1c0,0,0,0-0.1,0
	c-0.1,0-0.3-0.1-0.4-0.1c0,0,0,0,0,0c-0.1,0-0.3-0.1-0.4-0.1c0,0,0,0,0,0c-0.1,0-0.2-0.1-0.4-0.1c0,0,0,0,0,0
	c-0.1,0-0.2-0.1-0.4-0.1c0,0,0,0,0,0c-0.1,0-0.2,0-0.3-0.1c0,0,0,0,0,0c-0.1,0-0.2,0-0.3-0.1c0,0,0,0,0,0c-0.1,0-0.2,0-0.3-0.1
	c0,0,0,0,0,0c-0.1,0-0.2,0-0.3,0c0,0,0,0,0,0c-0.1,0-0.2,0-0.2,0c0,0,0,0,0,0c-0.1,0-0.1,0-0.2,0c0,0,0,0,0,0c-0.2,0-0.3,0-0.4-0.1
	c0,0,0,0,0,0c-2.6-4.4-11-7.5-11-7.5l0.2-2v0c0,0,0,0,0,0c-0.1-4.3-3.3-5.8-4.6-6.2c0,0,0,0,0,0c-0.1,0-0.2-0.1-0.2-0.1c0,0,0,0,0,0
	c-0.1,0-0.1,0-0.1,0c0,0,0,0,0,0c0,0-0.1,0-0.1,0c-3.1,0.4-4.4-1.3-4.4-1.3c-7,0-9.7-7.9-9.7-7.9c0-3.5-7.5-3.5-7.5-3.5
	c-1.8,0.3-4.6-0.8-6.2-1.6c-1.3,1.7-2.8,3.5-4.5,5.1l-1.3,2.2l-0.7,2l2.2,0.2c0,0-1.1,1.3-2.9,1.3l-1.3,2.4l-1.1,5.9
	c0,0-3.2,1.2-4.7,4.9c0.6,1,1.4,1.9,2,1.7l1-3.3c0,0,1.3-2.6,4.3-0.7c0,0,4.3,4,6.9,4c0,0,4,1.3,3.6,5.3c0,0,3,10.6-2,7.9
	c0,0-2.6-1-2.6,3.6l-4.9,1.3l-3.3,2.3l-0.3,3.6l0,0.4l5.9,2.3c0,0-3,2,0.3,4.6c0,0-1,4.3,1,6.6l9.6,2.6c0,0,2.6,5.3,6.3,6.9
	c0,0,6.3,3.3,4.9,5.3l-3,5.6c0,0,6.6,3.3,2,5.9c0,0-3-0.3-3,4l4.9,4l3.3-2l4.3-2l6.9,0.7l5.6-0.7l6.6-0.3c0,0,1.6,3.3,4.6,5.6
	c0,0,3,3,3.7,5.8c0.3,1,0.2,2-0.4,2.8l-1.3,2.6l5.6-0.3l5.3-1.3l2.3-1.3l2-5.3l2-2.3l2-2.6l2-3.6l4.9-3.3l2.6-2l-1-4.6l1-4.9l1.3-3
	v-1.3l-1.8,0.3l-3.4,0.5c-0.2,0-0.4,0-0.6,0C757.2,169.6,757.2,169.6,757.1,169.6z"/>
<path class="st1" d="M775.4,149.9c0,0,1.8-3.5-2.6-5.3c0,0-5.7-5.3-5.7-10.1l-0.4-4.4l3.5-3.5l-1.8-2.6l-1.8-2.6l-2.6-2.6l-1.8-3.5
	l-3.5-0.4l-5.7,3.5l-3.5-1.8v-4.8v-3.5l-3.5-4.8l-1.3-3.5l-0.4-3.1l0.9-4.4l3.5-4l4.4-3.5l4.8-1.3l2.6-3.1v-5.3l-1.3-4.8l-4.4-1.8
	l-4.4-4.8h-4.8l-3.5-2.6l-2.6-0.4l-2.6-2.2c0,0-0.7-1-2.2-1.4c-1.3-0.1-2.9-0.1-4.4,0.1l-4.4,2.4c0,0-4-0.3-6.9,2.1
	c-0.7,0.7-1.4,1.6-2.1,2.7c0,0-0.7,1.1-4.8,1.1c0,0-3.1,0.4-5.7,2.4c0,0-5.5,3.1-7.9,3.1l-0.2,1.5l-1.8,0.4l-1.3,1.5
	c0,0-8.8,3.5-10.1,13c0,0-1.1,2.1-3,4.9c-0.4,0.6-0.9,1.2-1.3,1.9c1.6,0.7,4.4,1.9,6.2,1.6c0,0,7.5,0,7.5,3.5c0,0,2.6,7.9,9.7,7.9
	c0,0,1.3,1.8,4.4,1.3c0,0,0,0,0.1,0c0,0,0,0,0,0c0,0,0.1,0,0.1,0c0,0,0,0,0,0c0.1,0,0.1,0,0.2,0.1c0,0,0,0,0,0
	c1.2,0.4,4.5,1.9,4.6,6.2c0,0,0,0,0,0v0c0,0,0,0,0,0c0,0.3,0,0.6,0,0.9c0,0,0,0.1,0,0.1c0,0.3-0.1,0.6-0.1,1c0,0,8.4,3.1,11,7.5
	c0,0,0,0,0,0c0,0,0.2,0,0.4,0.1c0,0,0,0,0,0c0.1,0,0.1,0,0.2,0c0,0,0,0,0,0c0.1,0,0.1,0,0.2,0c0,0,0,0,0,0c0.1,0,0.2,0,0.3,0
	c0,0,0,0,0,0c0.1,0,0.2,0,0.3,0.1c0,0,0,0,0,0c0.1,0,0.2,0,0.3,0.1c0,0,0,0,0,0c0.1,0,0.2,0,0.3,0.1c0,0,0,0,0,0
	c0.1,0,0.2,0.1,0.4,0.1c0,0,0,0,0,0c0.1,0,0.2,0.1,0.4,0.1c0,0,0,0,0,0c0.1,0,0.2,0.1,0.4,0.1c0,0,0,0,0,0c0.1,0,0.2,0.1,0.4,0.1
	c0,0,0,0,0.1,0c0.1,0,0.3,0.1,0.4,0.1c0,0,0,0,0.1,0c0.1,0,0.3,0.1,0.4,0.1c0,0,0,0,0.1,0c0.1,0,0.3,0.1,0.4,0.1c0,0,0,0,0.1,0
	c0.1,0,0.3,0.1,0.4,0.1c0,0,0,0,0.1,0c0.1,0,0.3,0.1,0.4,0.1c0,0,0,0,0.1,0c0.1,0,0.2,0.1,0.4,0.1c0,0,0,0,0.1,0
	c0.1,0.1,0.2,0.1,0.4,0.2c0,0,0,0,0.1,0c0.1,0.1,0.2,0.1,0.3,0.2c0,0,0,0,0.1,0c0.1,0.1,0.2,0.1,0.3,0.2c0,0,0,0,0.1,0
	c0.1,0.1,0.2,0.1,0.3,0.2c0,0,0,0,0,0c0.1,0.1,0.2,0.1,0.3,0.2c0,0,0,0,0,0c0.1,0.1,0.2,0.1,0.3,0.2c0,0,0,0,0,0
	c0.1,0.1,0.2,0.1,0.2,0.2c0,0,0,0,0,0c0.1,0.1,0.1,0.1,0.2,0.2c0,0,0,0,0,0c0.1,0.1,0.1,0.2,0.2,0.2c0,0,0,0,0,0
	c0.1,0.1,0.1,0.2,0.1,0.3c0,0,0,0,0,0c0,0,0,0.1,0.1,0.1c0,0,0,0,0,0c0,0,0,0.1,0.1,0.1c0,0,0,0,0,0c0,0.1,0.1,0.2,0.1,0.3l4.4,1.4
	l0.6,0.8c0.3,0.2,0.6,0.4,0.8,0.7c0,0,0,0,0,0c0.1,0.1,0.2,0.2,0.4,0.4c0,0,0,0,0,0c0.1,0.1,0.2,0.2,0.3,0.4c0,0,0,0,0,0
	c0.1,0.1,0.2,0.3,0.3,0.4c0,0,0,0,0,0c0.3,0.5,0.6,1,0.7,1.6l0.7,1v4.9l0.9,3.6c0,0-1.3,3.1-3.5,3.1c0,0,0,0,0,0c0,0,0,0,0,0.1
	c0,0,0,0,0,0.1c0,0,0.1,0.1,0.1,0.1c0,0,0,0,0,0c0.5,0.7,1.9,2.6,2.4,5.1c0,0,0,0.1,0,0.1c0,0.2,0.1,0.4,0.1,0.6v0v0l0.2,0.4
	l-0.1,0.7c0,0,0,0,0,0c0,0,0,0,0,0c0,0.3,0,0.6,0,0.9c0,0.1,0,0.3,0,0.4c0,0.1,0,0.2,0,0.3c0,0.3-0.1,0.5-0.2,0.8l4.8,2.2l3.5,3.1
	c0,0,0,0,0.1,0.1c0,0,0,0,0,0c0.3,0.4,1.4,2.3,2.2,4l0.3,0.3l1.2,2.4c0.1,0,0.2,0.1,0.3,0.1c0,0,0,0,0,0c0.1,0,0.2,0.1,0.3,0.1
	c0,0,0,0,0,0c0.1,0,0.2,0.1,0.3,0.1c0,0,0,0,0,0c0.1,0,0.2,0.1,0.3,0.1c0,0,0,0,0,0l2.4,0.3l3.9-1.2l1.8-0.6l8.8-0.4
	c0,0,4.4-5.7,2.6-10.1c0,0-2.2-3.1,0.4-3.5c0,0,0.6-0.6,0.8-1.6C776.3,151.6,776.1,150.8,775.4,149.9z"/>
<path class="st1" d="M783.5,418.1l-7.3-1l-6.3,3l-0.7,2.6l-1.3,2.3l-1.6,3.6l2.3,4l1.3,2.6l-4.3,4.6c-3,1.6-2.3,5.9-2.3,5.9
	c-3,2-1.6,8.6-1.6,8.6c-2.6,1.6-3.3,4.3-3.3,4.3v3.3c-2.3,0.7-3,4.9-3,4.9c0,5.3-2.3,5.9-2.3,5.9c-2.6,2-2.3,5.6-2.3,5.6l1.3,5.9
	c0,3-5.9,2.6-5.9,2.6c-0.7,2.6-5.9,3.6-5.9,3.6c0.7-2.3-1.3-4.3-1.3-4.3c0.3-2.3-1.6-2.3-1.6-2.3l-4-2.3l-3.6-2c0.7-2.3-3-5.3-3-5.3
	c0-4.6-4-7.6-4-7.6c-3.3,0-6.6,1.6-6.6,1.6l-1.6-2c-1.6-2.6-9.2-4.6-9.2-4.6c-6.6-0.7-5.6-5.3-5.6-5.3c0-6.9-4.3-11.2-4.3-11.2
	s-3.6,2.6-5.6,4.3l-4.6,0.3c0,0-4.3,3-5.9,6.6l-8.6,5.3c0,0-2,2.3-2,4.6l-1,3.3c0,0,3.6,2.3-2,4.6l-0.7,3.6l-3.3,1.6c0,0,2,1,2,4
	v6.3l-0.7,4.6c0,0-2.3,1.3-1.6,6.6c0,0,1.3,2.6,0,4.6l-0.3,5.6h-3c0,0-3.3,4.9-5.6,7.3c0,0-3,2-0.7,5.6c0,0-2.3,4.3,1,7.6
	c0,0-1.3,2.3,2.6,5.6c0,0,3.6,2.6,3,6.6c0,0,0,0,0,0.1c0,0.1,0,0.3-0.1,0.5c0,0,0,0,0,0c0,0.1,0,0.1,0,0.2l0,0c0,0.1,0,0.2,0,0.3
	c0,0.1,0,0.1,0,0.2c0,0,0,0.1,0,0.1c0,0,0,0,0,0c0,0,0,0,0,0c0,0,0,0,0,0c0,0.1,0,0.3,0,0.4c0,0,0,0,0,0.1c0,0.1,0,0.3,0,0.5
	c0,0,0,0,0,0c0,0,0,0,0,0c0,0.1,0,0.2,0,0.4c0,0,0,0.1,0,0.1c0,0,0,0,0,0c0.3,1.7,1,4,3,6.4c0,0,6.9,1.6,6.9,6.3l-1.6,4.3l0.3,4.3
	c0,0-1.6,1.6-1.3,5.3l-7.3,1.6l-2.6,2.6c0,0-3.6,0.7-4.6,3l-5.6-0.7c0,0,1.3,3,0,5.6c0,0-3.3,5.6-6.9,9.6c0,0,0.7,4.3-1,7.3
	c0,0-4.3,5.6-0.7,11.2c0,0,2.6,7.9,2.6,11.2c0,0-2,4.3,1.3,7.6c0,0,4.3,4.9,4,8.2c0,0-5.3,2-6.9,2c0,0,0.7,5.3-0.3,6.9
	c0,0-1,2.3,1.3,3.6c0,0,2,2.3,4.9,2.3c0,0,4.6,0,2,5.6c0,0-5.3,2.6,1.6,6.9c0,0,1.6,0,0.3,3c0,0,1,2,1,3.6c0,0,1.6,0.7,2.3-1
	c0,0,3,3,4.9,3c0,0,4.6-1,4.6,3.3c0,0,2.3,0.7,4.3-0.7l4.2-1.1c-0.1-1.2-0.3-2.5-0.5-3.8c-0.1-0.7-0.3-1.4-0.4-2.2
	c0,0-0.9-2.6,0.9-8.1c0,0-0.2-7.7,1.5-10.1c0,0,3.5-7.5,4.8-11.2c0,0,1.8-6.8,2.6-8.6c0,0,2.2-8.6,3.1-11.2c0,0,4.4-14.7,9-20.7
	c0,0,2-3.1,2.9-9c0,0,2.9-11.4,19.1-17.8c0,0,10.5-7,12.7-12.5l-0.2-3.1c0,0,4.6-2.2,3.1-7.3c0,0-3.7-7,7-12.1c0,0,5.5-4.8,8.1-11.6
	c0,0,3.7-7.3,7-8.6c0,0,0.7-2.4,0.9-4.6c0,0,5.7-25.1,15.4-23.1c0,0,5.9-4.8,4.4-7c0,0-3.1-1.3-3.3-4.8c0,0,3.5-3.7,0.9-8.6
	c0,0-1.3-2,0-5.5c0,0,3.1,0.4,2.4-8.1c0,0,1.3-8.4,7.7-12.7c0,0,2,0,2.6-8.4c0,0,1.3-2.2,1.8-12.3c0,0,1.4-2.2,2.7-5.5L783.5,418.1z
	"/>
<path class="st1" d="M831.7,224.9c-7.3,1.3-11.5-2-11.5-2c-8.2-5.6-13.2-5.6-13.2-5.6c0.3,6.9-5.6,6.9-5.6,6.9c2.3,3.6,1,4.3,1,4.3
	c-3.6,0.7-12.9-6.3-12.9-6.3c-6.6,0-10.6-3-10.6-3c-3.3,1.3-6.9-0.3-6.9-0.3s-1.3,2.6-1.3,5.9l-2,3.6l-5.6,4.6l-2.6,2.6v6.6l-4,1.6
	l-3,4.6l0.5,1.6l0.9,3l-1,5.3l-3.3-1.3l-2.3-3.6V251l-3.3,5.3l-4.6,3l-1.6,5.6l6.9,6.3l5.3,3.3l-1,4.9l-2.3,3.3l-5.3,3.3l-0.3,5.3
	l-2.6-1.3c0,0,0.7,2.3,0.3,4.3c0,0-2,2.3-2,5.3c0,0,1.6,0.7,1.6,3.6l0.7,11.5l-3.3,2.6l0.7,4.6l-1.6,3.6l-1.3,8.9l-3,3.6
	c0,0,0.7,4.3-0.7,5.3c0,0-6.6,4,0.3,7.9c0,0,1.6,3.6,1.3,6.9c0,0,5.9,1.3,2,6.3c0,0-3,3.6-2.6,8.9c0,0,0.3,5.6-1.3,7.6
	c0,0-7.6,3.6-9.2,5.9c0,0-4-2.3-5.3,1l1.3,2.3l-1.3,4c0,0,2,3-3,5.6l-4,1.3h-8.9l-0.7,2c0,0,1,2.3-2,4.3c0,0-4.6,1.6,0.3,4.9
	l-2.3,3.3l-3,1.6l-3.2,1l-0.1,0l2.6,4l-0.1,0.7l-0.6,4.6c0,0-7.3,0.7-7.3,6.6c0,0,1.6,3.6,8.2,3.6l3,4.3l2,1l-1.6,2.6
	c0,0,0.5,0.5,1.2,1.5c1.3,1.8,3.1,5.2,3.1,9.7c0,0-1,4.6,5.6,5.3c0,0,7.6,2,9.2,4.6l1.6,2c0,0,3.3-1.6,6.6-1.6c0,0,4,3,4,7.6
	c0,0,3.6,3,3,5.3l3.6,2l4,2.3c0,0,2,0,1.6,2.3c0,0,2,2,1.3,4.3c0,0,5.3-1,5.9-3.6c0,0,5.9,0.3,5.9-2.6l-1.3-5.9c0,0-0.3-3.6,2.3-5.6
	c0,0,2.3-0.7,2.3-5.9c0,0,0.7-4.3,3-4.9v-3.3c0,0,0.7-2.6,3.3-4.3c0,0-1.3-6.6,1.6-8.6c0,0-0.7-4.3,2.3-5.9l4.3-4.6l-1.3-2.6l-2.3-4
	l1.6-3.6l1.3-2.3l0.7-2.6l6.3-3l7.3,1l2.2,1.4c0.2-0.5,0.4-1.1,0.7-1.7c1-2.8,1.9-6.2,1.9-9.5c0,0-0.9-7.7-0.2-12.1
	c0,0,3.5-6.4,3.7-16.7c0,0,0-3.7,3.5-12.7c0,0,1.1-3.3-0.4-8.8c0,0,6.2-6.4,4.2-14.9c0,0,0-7.9,3.7-14.9c0,0,4.2-5.5,4-17.6
	l-1.3-0.7c0,0-0.2-8.4,5.5-11.9l0.7,2.2c0,0,3.5-4,0.2-8.8c0,0-9-7.3-2.2-14.9c0,0,8.4-6.2,5.9-17.1c0,0-2-6.2,6.2-9
	c0,0,2-1.3,3.7-5.5c0,0,6.6-0.9,7.5-8.8c0,0-0.2-4,3.7-5.9l1.1-7.9c0,0,0.1-0.2,0.3-0.6L831.7,224.9z"/>
<path class="st1" d="M669.1,703.6c0,0-0.9-4.6-0.2-14.7c0,0,1.1-4.2,0.5-10.7l-4.2,1.1c-2,1.3-4.3,0.7-4.3,0.7
	c0-4.3-4.6-3.3-4.6-3.3c-2,0-4.9-3-4.9-3c-0.7,1.6-2.3,1-2.3,1c0-1.6-1-3.6-1-3.6c1.3-3-0.3-3-0.3-3c-6.9-4.3-1.6-6.9-1.6-6.9
	c2.6-5.6-2-5.6-2-5.6c-3,0-4.9-2.3-4.9-2.3c-2.3-1.3-1.3-3.6-1.3-3.6c1-1.6,0.3-6.9,0.3-6.9c1.6,0,6.9-2,6.9-2c0.3-3.3-4-8.2-4-8.2
	c-3.3-3.3-1.3-7.6-1.3-7.6c0-3.3-2.6-11.2-2.6-11.2c-3.6-5.6,0.7-11.2,0.7-11.2c1.6-3,1-7.3,1-7.3c3.6-4,6.9-9.6,6.9-9.6
	c1.3-2.6,0-5.6,0-5.6l5.6,0.7c1-2.3,4.6-3,4.6-3l2.6-2.6l7.3-1.6c-0.3-3.6,1.3-5.3,1.3-5.3l-0.3-4.3l1.6-4.3c0-4.6-6.9-6.3-6.9-6.3
	c-0.2-0.3-0.4-0.5-0.6-0.8c0-0.1-0.1-0.1-0.1-0.2c-0.2-0.3-0.4-0.5-0.5-0.8c0,0,0,0,0,0c-0.1-0.3-0.3-0.5-0.4-0.7
	c0-0.1-0.1-0.1-0.1-0.2c-0.1-0.3-0.2-0.5-0.3-0.7c0,0,0-0.1,0-0.1c-0.1-0.2-0.2-0.4-0.2-0.7c0-0.1,0-0.1-0.1-0.2
	c-0.1-0.2-0.1-0.4-0.2-0.7c0,0,0-0.1,0-0.1c0-0.1,0-0.1,0-0.2c0-0.1-0.1-0.2-0.1-0.3c0-0.1,0-0.1,0-0.2c0-0.2-0.1-0.4-0.1-0.5
	c0-0.1,0-0.2,0-0.2c0-0.1,0-0.2,0-0.3c0-0.3-0.1-0.7-0.1-0.9c0,0,0,0,0,0l-5.5-3.4c-4.3-0.7-4.9,4.6-4.9,4.6c-2.3,5.3-5.6,1-5.6,1
	c-0.3-3.6-8.6-5.6-8.6-5.6c-4-4.6-5.3-0.7-5.3-0.7c-3,4.6-7.9,2-7.9,2c-1.6-4.6-10.9-0.7-10.9-0.7c-8.9,0.3-8.9,6.9-8.9,6.9
	c-4,3-15.5,2.3-15.5,2.3c-5.3-1-4.9,6.6-4.9,6.6l-2,9.9c2,4.9-0.3,8.6-0.3,8.6l-1.3,5.3c-3.6,3-1,9.2-1,9.2
	c-3,3.6,0.7,13.2,0.7,13.2c1.3,2.6-2,8.9-2,8.9l-4.3,3.6l-0.7,3.6l4,5.8l3.1,1l2-0.2l1.5,1.1c0,0,3.7,3.5-2.2,2.9
	c0,0,0.4,1.5,2.6,1.8c0,0-2.6,2.4,2.4,4.2c0,0,5.9,2.2,9.2,4.8c0,0,1.8,2.4,7,3.1c0,0,9.9,10.6,13.6,15.2c0,0,5.3,5.5,5.3,12.5
	c0,0-1.1,3.7,5.7,9.9c0,0,2.2,6.2,2.4,9.7c0,0,0.9,5.9,4.4,13c0,0,0.9,3.5-1.1,6.2c0,0-1.1,1.3,2.6,4.6c0,0,0,1.8-3.3,1.3l-0.9,3.5
	c0,0-2.9,1.1-0.2,5.3l0.4,3.1c0,0,3.5,2.6,3.5,7c0,0-4.8,6.4,1.8,10.1c0,0,5.9,2.9,4.4-3.1c0,0,0.4-4.2,5.1-2c0,0,11.4,0.7,17.1,8.6
	c0,0,0.9,3.3,4.2,1.5c0,0,0-2.2-2.9-5.3c0,0-5.3-8.8-0.9-15.4c0,0,5.3-0.7,8.4-5.7c0,0,3.7-3.1,0.9-9.7
	C669.8,715.7,672.9,711.5,669.1,703.6z"/>
<g>
	<path class="st1" d="M609.2,464.2c-1.8-3.1-4.8-0.4-4.8-0.4c0,4.4-5.7,3.5-5.7,3.5l-4.4-1.8c-2.2-2.6-0.4-6.2-0.4-6.2l-2.6-5.7
		c0.9-2.6,0.4-4,0.4-4c0-4.4,2.6-4.4,2.6-4.4c1.3-5.7-3.5-4.8-3.5-4.8c-1.8-1.8-5.3-9.2-5.3-9.2c0-2.2-8.8-4-8.8-4l-13.6,0.4
		c-3.5-0.4-12.7,2.6-12.7,2.6l0.4,1.8l-4,1.8l-7.5,8.4l-5.3,0.4c0,2.6-4.8,8.4-4.8,8.4c-3.1,0.4-7-0.9-7-0.9l-5.3-2.6l-3.8-1.8
		c-0.4,0.7-2,2.8-4,2.7c0,0-1.3,2.6,3.3,2.6c0,0,0.4,3.1-1.8,3.5c0,0-4.4,1.5-2.9,7.7l-2.2,0.7c0,0,0.2,7.5-1.1,8.6l-0.9,1.3
		c0,0-0.2,2.4,1.1,3.5c0,0-2.4-0.4-3.7,2.6c0,0-1.3,5.9,3.7,2.9c0,0-0.7,6.6,4.4,6.6c0,0-3.1,1.5-7,1.1c0,0-3.5,0.7-5.5,11.2
		l2.8,0.5l7-4l9.7-2.2h5.3l4.8,2.2c0,0,6.6-2.6,8.4,0c0,0,1.3,4.4-4,7c0,0-0.4,8.8,4.4,10.1c0,0,4,7-1.3,7.9c0,0-4-0.9-6.2,1.8
		c0,0,2,5.5,1.4,9.5l1.7-0.3l6.6,3.1l4,2.2l4-2.6l6.2,2.2l7-0.4l3.5-3.5l4.4-2.6l3.5-0.4c0,0,5.7-6.6,4.8-11.9l2.6-1.3
		c0,0,8.8-11,14.1-11c0,0-1.8-3.1,6.2-7c0,0,8.4-12.7,10.6-19.8l9.2-7.5l-2.6-2.2l3.1-4.4l-0.4-2.1
		C613.4,469.1,609.2,464.2,609.2,464.2z"/>
	<path class="st1" d="M527.5,524c2.2-2.6,6.2-1.8,6.2-1.8c5.3-0.9,1.3-7.9,1.3-7.9c-4.8-1.3-4.4-10.1-4.4-10.1c5.3-2.6,4-7,4-7
		c-1.8-2.6-8.4,0-8.4,0l-4.8-2.2H516l-9.7,2.2l-7,4l0.9,0.2c0,0-0.7,2.4,3.1,3.7c0,0,2.4,1.5,6.4,1.5c0,0-0.4,5.5,2.6,8.1
		c0,0,7.3,5.1,8.6,12.1c0,0,1.1,3.7,1.1,5.7c0,0,0.1,0.5,0.3,1.2l2.5,0.3l4.1-0.6C529.5,529.5,527.5,524,527.5,524z"/>
</g>
<path class="st1" d="M695.2,441.9l-3-4.3c-6.6,0-8.2-3.6-8.2-3.6c0-5.9,7.3-6.6,7.3-6.6l0.6-4.6l0.1-0.7l-2.6-4l0.1,0l-4.9-4.5
	c-3.1-1.2-6.4-1.2-9.6-0.6c-0.3,0.1-0.6,0.1-0.9,0.2c-0.1,0-0.2,0.1-0.3,0.1c-0.2,0.1-0.4,0.1-0.7,0.2c-0.1,0-0.2,0.1-0.3,0.1
	c-0.3,0.1-0.6,0.2-0.9,0.3c-0.1,0-0.2,0.1-0.2,0.1c-0.2,0.1-0.4,0.2-0.7,0.2c-0.1,0-0.2,0.1-0.3,0.1c-0.2,0.1-0.4,0.2-0.7,0.3
	c-0.1,0-0.2,0.1-0.2,0.1c-0.3,0.1-0.5,0.2-0.8,0.3c-0.1,0-0.1,0.1-0.2,0.1c0,0-0.1,0-0.1,0.1c-0.2,0.1-0.4,0.2-0.5,0.3
	c-0.1,0-0.2,0.1-0.3,0.1c-0.3,0.1-0.5,0.2-0.8,0.4c-0.1,0-0.1,0.1-0.2,0.1c-0.2,0.1-0.4,0.2-0.6,0.3c-0.1,0.1-0.2,0.1-0.3,0.2
	c-0.2,0.1-0.4,0.2-0.5,0.3c-0.1,0-0.1,0.1-0.2,0.1c0,0,0,0,0,0c-0.2,0.1-0.4,0.3-0.7,0.4c-0.1,0-0.2,0.1-0.2,0.1
	c-0.2,0.1-0.3,0.2-0.5,0.3c0,0,0,0,0,0c-0.1,0-0.1,0.1-0.2,0.1c-0.2,0.1-0.4,0.2-0.6,0.4c-0.1,0-0.1,0.1-0.2,0.1
	c-0.1,0.1-0.2,0.2-0.4,0.2c0,0-0.1,0-0.1,0.1c0,0-0.1,0.1-0.1,0.1c-0.1,0.1-0.3,0.2-0.4,0.2c0,0,0,0,0,0c0,0-0.1,0.1-0.1,0.1
	c-0.1,0.1-0.3,0.2-0.4,0.3c-0.1,0-0.1,0.1-0.2,0.1c-0.1,0.1-0.2,0.1-0.2,0.2c0,0-0.1,0.1-0.1,0.1c0,0,0,0,0,0
	c-0.1,0.1-0.2,0.2-0.3,0.3c0,0,0,0,0,0c0,0-0.1,0-0.1,0.1c-0.1,0-0.1,0.1-0.2,0.1c0,0,0,0,0,0c0,0,0,0-0.1,0
	c-0.1,0.1-0.1,0.1-0.2,0.1c0,0,0,0,0,0c-0.1,0-0.1,0.1-0.2,0.1c0,0,0,0,0,0c0,0,0,0,0,0c0,0-0.1,0-0.1,0.1c0,0,0,0,0,0c0,0,0,0,0,0
	c-0.1,0-0.3,0-0.4,0.1c-0.1,0-0.1,0-0.2,0.1c-0.1,0-0.1,0-0.2,0c-0.1,0-0.2,0.1-0.3,0.1c0,0-0.1,0-0.1,0c-0.1,0-0.2,0.1-0.3,0.1
	c0,0,0,0-0.1,0c-0.1,0.1-0.2,0.1-0.3,0.2c0,0,0,0,0,0c-0.1,0.1-0.2,0.1-0.3,0.2c0,0,0,0,0,0c-0.1,0.1-0.2,0.2-0.3,0.3c0,0,0,0,0,0
	c-0.1,0.1-0.2,0.2-0.3,0.3c0,0,0,0,0,0c-2.7,2.4-4,6.9-4,6.9c-2.2,4.8-8.4,7.9-8.4,7.9l-5.7,3.1l-4.8,4.8l-3.5,3.5
	c-3.1,0-4,4.4-4,4.4c-0.4-2.6-7-2.2-7-2.2c-1.8,0-4,2.6-4,2.6l1.3,4.4l0.4,3.5l0.5,2.8l0.4,2.1l-3.1,4.4l2.6,2.2l-9.2,7.5
	c-2.2,7-10.6,19.8-10.6,19.8c-7.9,4-6.2,7-6.2,7c-5.3,0-14.1,11-14.1,11l-2.6,1.3c0.9,5.3-4.8,11.9-4.8,11.9l-3.5,0.4l-4.4,2.6
	l-3.5,3.5l-7,0.4l-6.2-2.2l-4,2.6l-4-2.2l-6.6-3.1l-5.7,0.9l-2.5-0.3c0.4,1.7,1,4.8,1.5,6.5c0,0,0.9,4.6,3.5,5.9
	c0,0,0.2,5.3,2.4,8.8c0,0,1.3,6.4,0.7,7.5c0,0,7,10.8,8.6,17.1l1.1,1.1l0.2-4.4l2,6.2l-2.2-0.2c0,0-0.7,4.8-2,6.4
	c0,0,0.2,5.1,3.3,7.9c0,0,5.7,5.9,7.3,8.1c0,0,11.9,12.5,4.6,7c0,0-9.9-11.2-10.6-11.2c0,0-0.9,2.2,4.4,8.1l11,12.5l9.2,6.2
	c0,0,3.1,2.9,4-1.3l1.3,0.4l0.2-0.7l-3.3-4.8l0.7-3.6l4.3-3.6c0,0,3.3-6.3,2-8.9c0,0-3.6-9.6-0.7-13.2c0,0-2.6-6.3,1-9.2l1.3-5.3
	c0,0,2.3-3.6,0.3-8.6l2-9.9c0,0-0.3-7.6,4.9-6.6c0,0,11.5,0.7,15.5-2.3c0,0,0-6.6,8.9-6.9c0,0,9.2-4,10.9,0.7c0,0,4.9,2.6,7.9-2
	c0,0,1.3-4,5.3,0.7c0,0,8.2,2,8.6,5.6c0,0,3.3,4.3,5.6-1c0,0,0.7-5.3,4.9-4.6l5.5,3.4v0c0-0.9,0.1-1.4,0.1-1.4c0.7-4-3-6.6-3-6.6
	c-4-3.3-2.6-5.6-2.6-5.6c-3.3-3.3-1-7.6-1-7.6c-2.3-3.6,0.7-5.6,0.7-5.6c2.3-2.3,5.6-7.3,5.6-7.3h3l0.3-5.6c1.3-2,0-4.6,0-4.6
	c-0.7-5.3,1.6-6.6,1.6-6.6l0.7-4.6v-6.3c0-3-2-4-2-4l3.3-1.6l0.7-3.6c5.6-2.3,2-4.6,2-4.6l1-3.3c0-2.3,2-4.6,2-4.6l8.6-5.3
	c1.6-3.6,5.9-6.6,5.9-6.6l4.6-0.3c2-1.6,5.6-4.3,5.6-4.3l1.6-2.6L695.2,441.9z"/>
<path class="st1" d="M674.7,412.3c0,0-7.5-2.2-14.9-0.9c0,0-8.4,0.9-8.4-6.2c0,0,0.4-5.7-2.6-7l-0.4-4.8c0,0,2.2-2.6,2.2-4.8
	c0,0,3.1-2.2-3.5-4.4l-6.2-0.9l-2.6-1.8h-4.4l-3.1,9.7l-4-1.3H618l-4-1.3c0,0,1.8-3.1-0.9-3.1L607,389l-5.7-1.3l-5.3-2.2
	c0,0-7.5,0-7.5-5.7c0,0-1.8-4-11.9,0.4c0,0-6.2-1.3-19.3,6.2l-5.3,0.9l-1.3,6.6l-4-0.9l-1.8,4.4l-3.5,4h-4l-3.5,4h-8.8L516,405
	c-0.1,0.2-0.3,0.4-0.5,0.6c0,0-1.8,2,1.8,2.6c0,0,1.2,3.1-0.9,4.6c-0.3,0.2-0.6,0.4-1,0.5c0,0-3.5,3.7,1.5,4.8c0,0-2,1.8-1.5,4.4
	c0,0,2,2.4,1.3,4c0,0,1.5,0.7,1.5,4.6c0,0-4,8.8,2.2,9.5c0,0,0.4,1.3-3.1,0.9c0,0-5.1,0.2-2.4-9.2c0,0-1.5,2.4-2,4.2
	c0,0-2.2,0.2-0.4,3.1c0,0-2.6,2.9,3.1,5.3c0,0,1.3,2-2.2,0.9c0,0,0,0.1-0.1,0.2l3.8,1.8l5.3,2.6c0,0,4,1.3,7,0.9
	c0,0,4.8-5.7,4.8-8.4l5.3-0.4l7.5-8.4l4-1.8l-0.4-1.8c0,0,9.2-3.1,12.7-2.6l13.6-0.4c0,0,8.8,1.8,8.8,4c0,0,3.5,7.5,5.3,9.2
	c0,0,4.8-0.9,3.5,4.8c0,0-2.6,0-2.6,4.4c0,0,0.4,1.3-0.4,4l2.6,5.7c0,0-1.8,3.5,0.4,6.2l4.4,1.8c0,0,5.7,0.9,5.7-3.5
	c0,0,3.1-2.6,4.8,0.4c0,0,4.1,4.9,8-0.3l-0.5-2.8l-0.4-3.5l-1.3-4.4c0,0,2.2-2.6,4-2.6c0,0,6.6-0.4,7,2.2c0,0,0.9-4.4,4-4.4l3.5-3.5
	l4.8-4.8l5.7-3.1c0,0,6.2-3.1,8.4-7.9c0,0,1.3-4.5,4-6.9c0.9-0.8,1.9-1.3,3.1-1.4c0,0,7.3-5.9,15.4-7.6L674.7,412.3z"/>
<path class="st1" d="M630.3,377.2l-1.3,3.1h-4.4l-6.2,1.3c-4.8-2.6-4.4-7.9-4.4-7.9c4.8-8.4,0-9.2,0-9.2l0.4-4.8c2.2,0,4-1.3,4-1.3
	c1.8-4-2.6-9.2-2.6-9.2c-1-1-1.9-2.2-2.5-3.4c-0.1-0.2-0.2-0.3-0.3-0.5c0,0,0-0.1-0.1-0.1c-0.1-0.1-0.1-0.3-0.2-0.4
	c0,0,0-0.1-0.1-0.1c-0.1-0.1-0.1-0.3-0.2-0.4c0,0,0-0.1-0.1-0.1c-0.1-0.1-0.1-0.3-0.2-0.4c0,0,0,0,0-0.1c-0.7-1.7-1.1-3.1-1.2-3.5
	c0,0,0,0,0,0c0-0.1,0-0.1,0-0.1c-4-2.6-9.2-0.9-9.2-0.9l-1.4-0.2l-9.1-1.5l-13.6-2.6c-8-2.8-12.6-0.4-14.6,1.3
	c1.7,0.5,4.9,1.6,1.9,3.4c-0.1,0-0.1,0.1-0.2,0.1c0,0-5.9,0.4-9.7,0.2c0,0-6.2,2.4-11.4,0c0,0-8.6-1.1-13.4,4c0,0-3.7,2.4-5.3,8.1
	l2,1.3c0,0-2,1.1-2.6,3.1l-0.4,7.9c0,0-5.5-1.3-10.1,13.8l-0.7,2c0,0-0.9,3.5,0.4,6.8c0,0,2.4,4.4,0.9,5.1c0,0-1.5,2.4,0.7,4.8
	c0,0,2.4,0.7-0.2,2.2c0,0,0,1.8,1.1,1.8c0,0,1.8,0.9-0.7,2.2c0,0,1.5,1,0.7,2.3l9.3,0.3h8.8l3.5-4h4l3.5-4l1.8-4.4l4,0.9l1.3-6.6
	l5.3-0.9c13.2-7.5,19.3-6.2,19.3-6.2c10.1-4.4,11.9-0.4,11.9-0.4c0,5.7,7.5,5.7,7.5,5.7l5.3,2.2l5.7,1.3l6.2-3.5
	c2.6,0,0.9,3.1,0.9,3.1l4,1.3h4.8h4l4,1.3l3.1-9.7L630.3,377.2z"/>
<path class="st1" d="M536.2,576.4c0,0,3.3-5.9,9.2-5.9l3.3-0.3c0,0,7.6-5.9,6.3,2.3c0,0-1.3,2.6,0.3,5.9l-1.6,8.2l1.3,5.6l-2.6,9.9
	l3.3,3.3c0,0,10.9,7.3,2.3,13.5c0,0-10.6-7.9-13.5-16.2c0,0-4-6.6-5.9-8.2c0,0-0.7-4.9-0.3-6.9c0.3-2-0.3,2-0.3,2
	S540.8,582.7,536.2,576.4z"/>
<polygon class="st1" points="573.5,408.1 573.1,411.2 577,415.2 579.2,420.9 587.2,421.8 590.2,418.7 601.7,412.5 601.7,409.5 
	600.8,405.5 595.9,404.6 590.7,405.5 586.7,405.5 580.1,405.5 573.5,406.4 "/>
<path class="st1" d="M616.7,212.4l4,6.3l4,3.6l4.9,1l9.6,6.3c4.9,0.7,9.6,3,9.6,3c0.7,4,7.3,2,7.3,2c3-2,5.6,0.3,5.6,0.3
	c5.6,4.6,6.3-4.9,6.3-4.9c0-4.3,2.3-4.6,2.3-4.6l8.6,0.7l5.3,2l3,2.6c0.3,4.9,5.3,3.6,5.3,3.6c1.3-2.6,6.3-5.3,6.3-5.3
	c3,1.3,7.9-2.6,7.9-2.6c0.7-2.3,5.6-5.3,5.6-5.3c2.3,1,6.6-2.3,6.6-2.3c0.3-2.6,2.3-4.3,2.3-4.3c3-3.6,4.6,0,4.6,0
	c1,1.3,2.3,1.3,2.3,1.3c0-2,3.3-5.3,3.3-5.3c-0.7-2,0.7-4.6,0.7-4.6l3-6.4c0,0,0,0,0,0c-0.6-2.2-2.7-4.6-3.4-5.5c0,0,0,0,0,0
	c-0.1-0.1-0.2-0.2-0.2-0.3c0,0,0,0,0,0c0,0,0,0,0,0c-3-2.3-4.6-5.6-4.6-5.6l-6.6,0.3l-5.6,0.7l-6.9-0.7l-4.3,2l-3.3,2l-4.9-4
	c0-4.3,3-4,3-4c4.6-2.6-2-5.9-2-5.9l3-5.6c1.3-2-4.9-5.3-4.9-5.3c-3.6-1.6-6.3-6.9-6.3-6.9L678,158c-2-2.3-1-6.6-1-6.6
	c-3.3-2.6-0.3-4.6-0.3-4.6l-5.9-2.3l0-0.4l-1-0.3l-3.6-2l-4.9-1.2l-2.9-0.6c-1.6,0.4-3.5,2.1-4.3,7.6c0,0-1.5,3.1-4.4,4.2
	c0,0-1.8,0.9,1.3,4.4c0,0-9.2-1.5-14.7,4c0,0-4.8,5.7-8.6,8.6c0,0-2.9,3.5-3.1,7.7c0,0-2.6,5.5-4,7.5c0,0-1.5,4.4-1.8,7.5
	c0,0-1.3,4.2-4,6.2l-1.3,2.9l-2,1.1l-1.5,2l-0.7,1.1l3.5,3.2L616.7,212.4z"/>
<path class="st1" d="M768,214.7c-2.3,0-6.6,2.6-6.6,2.6c-4.6,0-7.9-4.3-7.9-4.3c-4.6,0-5.3-3-5.3-3c0.7-2.6-2-8.2-2-8.2l-2.3,1.3
	l-5.3,1.3l-5.6,0.3l1.3-2.6c0.6-0.8,0.7-1.8,0.4-2.8l-3,6.4c0,0-1.3,2.6-0.7,4.6c0,0-3.3,3.3-3.3,5.3c0,0-1.3,0-2.3-1.3
	c0,0-1.6-3.6-4.6,0c0,0-2,1.6-2.3,4.3c0,0-4.3,3.3-6.6,2.3c0,0-4.9,3-5.6,5.3c0,0-4.9,4-7.9,2.6c0,0-4.9,2.6-6.3,5.3
	c0,0-4.9,1.3-5.3-3.6l-3-2.6l-5.3-2l-8.6-0.7c0,0-2.3,0.3-2.3,4.6c0,0-0.7,9.6-6.3,4.9c0,0-2.6-2.3-5.6-0.3c0,0-6.6,2-7.3-2
	c0,0-4.6-2.3-9.6-3l-9.6-6.3l-4.9-1l-4-3.6l-4-6.3l-4-4.6l-3.5-3.2l-3.9,6l1.8,3.7l-2-0.7c0,0-1.3-0.9-1.8-0.2c0,0-0.4,2-3.3,5.5
	l-0.7,3.3c0,0-4.4,1.3-2.2,4.6c0,0-2,0.4-1.1,3.1c0,0-1.8,0.2-1.8,4.6c0,0-0.7,4.8-7,4c0,0-3.3-1.3-3.3,2.4c0,0,9.7,0,1.5,13
	c0,0-2.4,0.7-1.6,3.9c1.7,1.4,4,3.6,4.6,6l4.8,4.4l1.3,4.8l5.3,7.5l7,5.3v5.7l4.4,8.8l-3.6-7.2c0.9-1.1,2.6-2.3,5.8-0.7
	c0,0,8.4,6.6,15.4,5.7c0,0,14.9,0.4,16.3-4.8c0,0,5.3-7.5,0.4-9.7c0,0,13.6,0.9,15.8-1.8c0,0,12.3-10.1,21.5-8.8
	c0,0,6.6-8.8,14.9-9.2c0,0,2.2-9.7,14.1-8.4c0,0,2.2-4,10.1-3.1c0,0,7.5-7,10.6-0.9c0,0,4,0.9,3.5-4.8c0,0,3.5-2.6,4,1.3
	c0,0,13.2-3.1,13.6,2.2l0.1,0.2l-0.5-1.6l3-4.6l4-1.6v-2.6v-4l2.6-2.6l5.6-4.6l2-3.6c0-3.3,1.3-5.9,1.3-5.9
	C772,215.7,768,214.7,768,214.7z"/>
<path class="st1" d="M740.2,247.9c-0.4-4-4-1.3-4-1.3c0.4,5.7-3.5,4.8-3.5,4.8c-3.1-6.2-10.6,0.9-10.6,0.9
	c-7.9-0.9-10.1,3.1-10.1,3.1c-11.9-1.3-14.1,8.4-14.1,8.4c-8.4,0.4-14.9,9.2-14.9,9.2c-9.2-1.3-21.5,8.8-21.5,8.8
	c-2.2,2.6-15.8,1.8-15.8,1.8c4.8,2.2-0.4,9.7-0.4,9.7C644,298.5,629,298,629,298c-7,0.9-15.4-5.7-15.4-5.7c-3.2-1.6-4.9-0.5-5.8,0.7
	l3.6,7.2v7.9l6.2,4l-4.4,5.3l-0.9,6.2l0.9,5.7c0,0-1.8,1.3-1.8,3.5c0,0,2.2,3.1,2.2,5.7c0,0,7-0.4,7,3.1c0,0-2.2,4.1-7.4,4.1
	c0.7,1.2,1.5,2.4,2.5,3.4c0,0,4.4,5.3,2.6,9.2c0,0-1.8,1.3-4,1.3l-0.4,4.8c0,0,4.8,0.9,0,9.2c0,0-0.4,5.3,4.4,7.9l6.2-1.3h4.4
	l1.3-3.1l3.5,4.4h4.4l2.6,1.8l6.2,0.9c6.6,2.2,3.5,4.4,3.5,4.4c0,2.2-2.2,4.8-2.2,4.8l0.4,4.8c3.1,1.3,2.6,7,2.6,7
	c0,7,8.4,6.2,8.4,6.2c7.5-1.3,14.9,0.9,14.9,0.9l0,0.8c3.2-0.7,6.5-0.7,9.6,0.6l4.9,4.5l3.2-1l3-1.6l2.3-3.3
	c-4.9-3.3-0.3-4.9-0.3-4.9c3-2,2-4.3,2-4.3l0.7-2h8.9l4-1.3c4.9-2.6,3-5.6,3-5.6l1.3-4l-1.3-2.3c1.3-3.3,5.3-1,5.3-1
	c1.6-2.3,9.2-5.9,9.2-5.9c1.6-2,1.3-7.6,1.3-7.6c-0.3-5.3,2.6-8.9,2.6-8.9c4-4.9-2-6.3-2-6.3c0.3-3.3-1.3-6.9-1.3-6.9
	c-6.9-4-0.3-7.9-0.3-7.9c1.3-1,0.7-5.3,0.7-5.3l3-3.6l1.3-8.9l1.6-3.6l-0.7-4.6l3.3-2.6l-0.7-11.5c0-3-1.6-3.6-1.6-3.6
	c0-3,2-5.3,2-5.3c0.3-2-0.3-4.3-0.3-4.3l2.6,1.3l0.3-5.3l5.3-3.3l2.3-3.3l1-4.9l-5.3-3.3l-6.9-6.3l1.6-5.6l4.6-3l3.3-5.3v2.6
	l2.3,3.6l3.3,1.3l1-5.3l-0.9-3l-0.1-0.2C753.4,244.8,740.2,247.9,740.2,247.9z"/>
<path class="st1" d="M613.6,338.5c0-2.6-2.2-5.7-2.2-5.7c0-2.2,1.8-3.5,1.8-3.5l-0.9-5.7l0.9-6.2l4.4-5.3l-6.2-4v-7.9l-3.6-7.2
	l-0.8-1.6v-5.7l-7-5.3l-5.3-7.5l-1.3-4.8l-4.8-4.4c-0.5-2.4-2.8-4.6-4.6-6c0.1,0.4,0.3,0.9,0.5,1.4c0,0-3.7,3.1-7,5.9
	c0,0-2.4,1.8-2.6,3.7c0,0-2.9,2.2-2.9,5.1c0,0,0.9,3.1-1.3,5.9l4,0.2c0,0-7.5,1.8-8.6,7.3c0,0-7.3,0.9-5.9,6.4c0,0-3.5-2-4.4,4.4
	c0,0-1.8,1.1,0,5.1c0,0-0.4,2-2.6,2l0.2,3.1c0,0-2.2,1.1-3.3,3.3c0,0-2.6,3.7-4.6,8.4l-2.9,2.9c0,0,1.1,1.8,2.2,2
	c0,0-2.4,3.7-4.8,4.8c0,0-0.9,2.9,1.5,3.7c0,0-1.3,1.3,0.7,2.2c0,0,8.4,2,12.7,1.5c0,0,3.3-2.4,7.3-1.3c0,0,0.4,0.1,0.9,0.2
	c2-1.7,6.6-4.1,14.6-1.3l13.6,2.6l9.1,1.5l1.4,0.2c0,0,5.3-1.8,9.2,0.9c0,0,0.7,2.9,2.3,5.8c5.1,0,7.4-4.1,7.4-4.1
	C620.7,338,613.6,338.5,613.6,338.5z"/>
<g>
	<path class="st1" d="M267.2,276.3c1,2.9-1.1,3.4-3,4c-0.7,0.2-1.2,0.7-1.8,1c-2,1.3-4.3,2-6.6,1.9c-0.7,0-1.4-1.5-2.1-2.3
		c0.5-0.4,1-1,1.6-1.3c0.6-0.3,1.3-0.3,2-0.5c0.3-1.6-0.5-2.8-1.6-3.7c-1-0.8-2.2-1.5-3.5-1.9c-1.7-0.5-3-1.6-4.1-2.9
		c-1-1.1-2.1-1.5-3.6-1.4c-3.5,0.2-7.1,0.3-10.6,0.7c-0.8,0.1-1.6,0.8-2.4,1.2c-2.8,1.2-5.2,2.7-7.4,5c-2.4,2.6-4.5,5.2-5.9,8.5
		c-0.5,1.1-1.6,1.7-2.5,2.4c-2.1,1.9-3.1-0.1-4.5-0.7c-0.7-0.3-1.4-0.6-2.1-0.6c-1.1,0-1.7-0.5-1.9-1.4c-0.3-1.5-1.4-2-2.6-2.3
		c-1.1-0.3-1.9-0.8-2.1-2.1c-0.4-2.5-2.1-4.2-3.8-5.8c-0.1-0.1-0.3-0.3-0.4-0.4c-0.4-0.6-0.7-1.3-1-1.9c0.9-0.3,1.8-0.6,2.7-0.8
		c0.8-0.1,1.6-0.1,2.4-0.1c0.4,0,0.8,0.1,1.1,0.2c0.5,0.2,1.2,0.9,1.3,0.8c0.6-0.5,1.3-1.1,1.5-1.8c0.5-2.1,0.4-2.2,2.6-2.1
		c1.1,0.1,1.4-0.7,1.4-1.4c0.1-2.2,0.2-4.4,0-6.5c-0.1-1.2-0.8-2.3-1.2-3.4c-0.3-0.9-0.6-1.9-0.6-2.8c0-1.4-0.6-2.2-1.7-2.9
		c-0.6-0.4-1-1-1.6-1.4c-1.3-1-1.2-2.3-0.4-3.3c1-1.4,2.3-2.7,3.7-3.7c1.6-1,3.5-1.5,5.3-2.3c0.7-0.3,1.6-1.3,1.9-1.1
		c0.9,0.5,1.7,1.4,2.2,2.3c2.4,4.2,6.2,7.1,9.5,10.5c0.7,0.7,2,0.8,3.1,1.2c1.6,0.6,3.3,1.1,4.9,1.7c0,0,0.1,0,0.1,0.1
		c1.3,0.3,5.5-1.5,6.2-2.6c0.8-1.2,0.2-2.2-0.4-3.1c-0.4-0.6-0.9-1.2-1.5-2c1.5-0.8,2.8-1.8,4.3-2.4c1.9-0.7,2.2-1.4,1.2-3.1
		c-0.2-0.3-0.2-1.2-0.1-1.3c1.5-0.9,1.1-2.3,1-3.6c-0.1-0.9-0.1-1.4,1-1.6c1.5-0.3,3-0.9,4.5-1.4c1.5-0.6,2-2,1.2-3.5
		c-0.2-0.4-0.5-0.7-0.6-1.1c-0.1-0.4,0-0.9,0.1-1.3c0.5,0.1,1.3-0.1,1.5,0.2c0.9,1.2,1.7,1.3,3.2,0.9c1-0.3,2.3,0.3,3.4,0.8
		c0.5,0.2,0.7,1.2,0.9,1.9c0.3,1.6,0.4,3.3,0.8,5c0.1,0.3,0.6,0.6,1,0.8c1.6,0.9,3.4,1,5.2,0.9c1.6-0.1,1.8,0.3,1,1.7
		c-0.8,1.4-0.6,3.4,0.4,4.6c0.4,0.5,0.6,1.2,0.7,1.8c0.1,0.8,0,1.5,0,2.3c0.1,1.6,0.8,1.9,2.3,1.9c0.7,0,1.6,0.4,2.2,0.9
		c0.2,0.1-0.1,1.4-0.5,1.7c-3,2.7-2.1,6.2-1.6,9.5c0.1,0.5,0.6,1.1,1,1.5c0.6,0.6,1.7,1,1.9,1.7c0.4,1.4-0.1,2.8-1.2,3.9
		c-0.6,0.6-1.1,0.8-1.8,0.2c-0.4-0.3-1.1-0.4-1.7-0.6c-0.1,0.8-0.2,1.6-0.3,2.5c0,0.1,0.3,0.3,0.4,0.4c0.6,0.9,1.5,1.9,0.6,3
		c-0.8,1-1.7,2.5-3.4,1.2C268,276.2,267.7,276.3,267.2,276.3z"/>
	<path class="st1" d="M183.2,253.6c1.1,0.2,2.3,0.2,3.6-0.8c1.3-1,2.5-0.4,3.6,0.8c1.5,1.6,3.3,2.9,4.9,4.4c0.4,0.4,0.8,1.2,0.7,1.7
		c-0.3,1-0.9,2-1.4,3c-0.1,0.3-0.2,0.6-0.3,0.8c-0.5,1.4-0.9,2.7-1.5,4c-0.1,0.2-0.8,0.3-1.2,0.2c-1.3-0.1-2.7-0.5-4-0.4
		c-0.3,0-1,1.1-0.9,1.5c0.4,1.3-0.4,1.7-1.2,2.3c-1.8,1.2-1.7,1.1-3-0.4c-0.3-0.3-1.2-0.4-1.6-0.2c-0.8,0.5-1.5,1.2-2.1,2
		c-1,1.5-2.3,1.6-3.4,0.2c-0.2-0.3-0.5-0.4-0.8-0.6c-0.7-0.4-1.5-0.6-2-1.1c-0.4-0.4-0.7-1.1-0.7-1.7c0-0.3,0.9-0.5,1.2-0.9
		c0.4-0.4,1-0.8,1.1-1.3c0.2-0.9,0-1.8,0.1-2.8c0.1-1.4,0.8-2,2.1-1.6c1.1,0.3,1.5,0,1.6-1.1c0.2-1.7,0.6-3.4,0.9-5.1
		C179.1,254.9,181.1,253.5,183.2,253.6z"/>
</g>
<g>
	<path class="st1" d="M210.1,89c-0.1-0.2-0.1-0.3-0.2-0.5c-1.1-0.1-2.1-0.2-3.2-0.2c-0.6,0-1.3,0.2-1.9,0c-1.1-0.4-2.1-0.2-2.9,0.5
		c-0.6,0.5-1,0.6-1.7,0.1c-1.3-0.9-2.1-0.8-3,0.6c-0.9,1.5-2.3,2.3-3.8,3.1c-1.1,0.5-1,1.1-0.7,1.9c0.1,0.4,0.5,0.8,0.7,1.2
		c0.7,1.1,0.5,1.5-0.8,1.5c-1.3,0-2.1,0.2-1.5,1.8c0.1,0.3-0.3,1-0.7,1.2c-0.2,0.2-0.9,0-1.1-0.2c-0.2-0.3-0.3-0.9-0.2-1.3
		c0.1-0.7,0.5-1.3,0.7-2c0.3-0.9-0.1-1.2-1-1.1c-0.5,0.1-0.9,0.2-1.5,0.3c0-0.3-0.1-0.5-0.1-0.6c0.6-1.6,0.1-2.3-1.6-2.1
		c-0.5,0.1-1,0.5-1.5,0.6c-0.4,0.1-0.8,0.1-1.2,0c-0.1,0-0.3-0.4-0.2-0.6c0.7-1.7,1.5-3.4,2.3-5.1c0.2-0.5,0.8-1.2,0.6-1.4
		c-0.4-0.5-1.1-0.9-1.7-1c-1.6-0.4-3.5-0.2-4.2-2.5c-0.1-0.3-1.3-0.7-1.7-0.5c-1,0.6-2.1,1.2-1.8,2.7c0.1,0.7,0.1,1.4,0,2.1
		c-0.1,0.8,0.1,1.5,1,1.8c0.9,0.4,0.9,1.1,0.6,2c-0.5,1.4-1.9,1.6-2.8,2.4c-0.4,0.4-1,1.1-0.9,1.4c0.3,0.5,0.9,0.8,1.5,1.1
		c0.4,0.2,0.8,0.3,1.2,0.5c-0.3,0.3-0.5,0.8-0.9,1c-0.9,0.5-1.3,1-0.9,2.1c0.5,1.2-0.3,2.8-1.4,3.5c-0.8,0.5-1.5,1.2-2.1,1.8
		c-0.2,0.2-0.3,0.9-0.2,1c1.2,0.9,2.3,2,3.7,2.6c1.2,0.5,2.7,0.3,4.1,0.3c1,0,1.5,0.4,1.8,1.3c0.4,1.5,1.5,1.9,2.8,1.1
		c0.9-0.5,1.8-0.8,2.7-1.2c0.2-0.1,0.6-0.3,0.6-0.4c0-0.3-0.2-0.6-0.4-0.8c-0.2-0.2-0.5-0.3-1.2-0.7c1.6-0.6,2.8-1,4.2-1.6
		c0,0,0.2,0.3,0.5,0.6c0.4,0.5,1,1.4,1.2,1.3c1.4-0.6,3.4-1,3.8-2.1c0.7-1.7,1.9-2.6,3.3-3.5c0.8-0.5,1.4-1.1,0.4-2
		c-0.2-0.2,0-0.7,0-1.1c0.4,0.1,0.8,0.1,1.1,0.3c0.4,0.5,0.6,1.1,0.9,1.6c0.5,0.8,1.2,0.9,1.9,0.1c0.7-0.8,1.3-1.6,1.3-2.9
		c0-1.9,0.3-2.1,2.1-2.3c0.4-0.1,0.9-0.5,1-0.9C207.7,93.4,207.6,90.7,210.1,89z"/>
	<path class="st1" d="M251.5,68.9c0.2,0.3,0.5,0.5,0.5,0.7c-0.1,1.3,0.4,1.2,1.3,0.7c0.6-0.3,1.4-0.7,1.9-0.5c1.2,0.6,2.1,1,2.2-0.9
		c0-0.2,0.5-0.3,0.7-0.5c0.6-0.5,1.2-1,1.8-1.6c0.8-0.8,1.4-1.8,2.2-2.5c1-0.8,1.4-1.6,1-2.9c-0.1-0.4,0.3-1,0.5-1.5
		c0.3,0.4,0.9,0.7,0.9,1.1c0.1,1,0.6,1.3,1.6,1.4c1,0.1,2,0.5,2.9,0.9c1,0.4,1.6,0.2,1.6-0.9c0-0.7,0-1.4,0-2.1c0-1.6-0.5-1.9-2-1.5
		c0-0.5,0.2-1.1,0-1.5c-0.4-0.7-0.9-1.4-1.6-1.9c-0.2-0.2-1,0.4-1.5,0.6c-0.4,0.1-0.9,0.2-1.2,0.1c-0.7-0.4-1.3-0.9-1.9-1.4
		c0.1-0.2,0.1-0.3,0.1-0.5c1.2-2.4,0.3-3.8-2.4-3.8c-0.4,0-0.8,0-1.1,0c-1-0.1-1.6,0.4-1.9,1.3c-0.5,1.4-1.1,2.9-1.6,4.3
		c-0.2,0.5-0.4,1-0.7,1.3c-0.3,0.2-1,0.3-1.3,0.1c-2.2-1.3-1.7-1.4-2.9,0.5c-0.7-0.6-1.4-1.2-2.5-2c0.2-0.7,0.1-2.1,0.8-3
		c0.9-1.2,0.3-2,0-3c-0.3-0.9,0-2.3-1.7-2.3c-0.2,0-0.4-0.6-0.5-0.9c-0.5-1.5-1.3-1.9-2.8-1.4c-0.7,0.2-1.3,0.5-2,0.7
		c-0.8,0.3-1.1,0.6-0.5,1.4c0.5,0.7,0.5,1.3-0.3,1.8c-0.7,0.5-1.4,1.1-2.2,1.5c-1.3,0.6-1.7,1.3-1,2.7c0.1,0.2,0.1,0.5,0,0.7
		c0,0.8-0.2,1.6-0.1,2.4c0.1,0.5,0.5,1,0.8,1.5c0.4-0.4,1-0.8,1.3-1.3c0.3-0.4,0.2-1.3,0.6-1.5c1-0.6,1.3-1.5,1.7-2.5
		c0.3-0.8,0.8-0.9,1.5-0.2c-0.8,1.1-0.8,1.9,0.5,2.5c0.3,0.1,0.5,0.9,0.4,1.3c-0.3,1.3-1.2,2.4-0.2,3.9c0.6,0.8,0.9,0.6,1.4,0
		c1.1-1.5,3.7-1.4,4.6,0.3c0.5,0.9,0.6,1.9-0.4,2.6c-0.4,0.3-0.7,0.7-0.9,1.1c-0.5,0.9-1,1.7-1.5,2.6c-0.2,0.4-0.6,0.9-0.4,1.2
		c0.7,1.5,1.5,2.9,2.4,4.7C250.1,71.5,250.8,70.3,251.5,68.9z"/>
	<path class="st1" d="M223.9,62.5c0.1-0.4,0.1-0.8,0.3-1.1c0.9-1.7,0.4-2.7-1.4-3c-0.6-0.1-1.3-0.7-1.6-1.2c-1.1-1.7-1.3-1.8-3-0.9
		c-0.3,0.1-0.7,0.1-1,0.2c-0.4,0.2-0.8,0.4-1.1,0.8c-1.1,1.4-2.1,2.9-3.2,4.3c-0.2,0.3-0.7,0.3-1.1,0.4c-0.6,0.1-1.2,0-1.8,0
		c0.1,0.6,0.1,1.2,0.2,2c-0.1,0-0.5,0.3-0.8,0.2c-1.3-0.6-2.2,0.3-2.7,1c-0.8,1.1-1.7,1.2-2.9,0.9c-1.1-0.3-1.4,0.2-1.3,1.1
		c0.1,1.3,0.2,2.6,0.3,4c1.2,0.5,1.6,1.2,0.7,1.6c-1.5,0.7-0.8,1.5-0.6,2.4c0.1,0.4-0.2,1.2-0.3,1.2c-1.5,0-1.4,1.1-1.3,2
		c0.3,1.4,0.7,2.8,1.3,4.1c0.2,0.4,1.1,0.6,1.7,0.8c0.7,0.3,1.4,0.5,2.1,0.8c0.4,0.1,0.7,0.3,1.1,0.4c0.1-0.4,0.5-0.8,0.4-1.1
		c-0.2-0.8-0.5-1.7-0.8-2.5c-1.2-2.9-0.3-5.9-0.2-8.9c0-1.2,1-1.7,2.2-1.3c0.2,0.1,0.6,0.1,0.8,0c1-0.5,2-1,3.2-1.6
		c0.1,0.5,0.2,0.8,0.3,1.2c0.1,0.4,0.4,0.8,0.5,1.2c0.3-0.2,0.7-0.4,1-0.6c0.7-0.4,1.4-0.8,2.1-1.1c1.2-0.4,2.1-0.9,2.1-2.4
		c0-1.5,1.1-2.1,2.4-1.2c0.8,0.6,1.5,1.6,2.4,2.1c1,0.6,1,1.1,0.7,2.1c-0.1,0.4,0.4,0.9,0.6,1.4c0.3-0.3,0.9-0.5,1-0.9
		c0.2-0.8,0-1.7,0.1-2.5c0-0.5,0.3-1.3,0.5-1.3c1.2-0.2,1.2-1,1.2-1.9c0-0.9,0.1-1.7,0-2.6c-0.1-0.4-0.5-0.9-0.9-1.2
		C225.7,60.7,225.1,62,223.9,62.5z"/>
	<path class="st1" d="M222.4,140.9c1.4,1.3,1.4,1.3,2.7-0.1c0.2-0.2,0.4-0.4,0.5-0.7c1.3-1.4,2.1-3.4,4.4-3.4c0.2,0,0.5-0.7,0.4-1
		c-0.2-1.3,0.2-2.2,1.2-3c0.4-0.4,0.7-1.2,0.7-1.7c0-0.5-0.6-1.2-1-1.3c-1.2-0.2-2.7-0.4-3.4,0.8c-0.7,1.2-1.7,1.2-2.8,1.2
		c-0.6,0-1.3-0.1-1.9,0c-0.4,0.1-0.8,0.3-1,0.6c-0.8,1.4-1.4,2.8-2.3,4.1c-0.4,0.6-1.2,0.9-1.9,1.2c-0.6,0.2-1.1,0.2-0.9,1
		c0.3,2-0.3,3.3-2,4.2c0,0.1,0,0.3,0.1,0.4c0.5,0.7,1.4,1.3,1.5,2c0.1,0.7-0.8,1.5-1.1,2.3c-0.2,0.5-0.3,1.1-0.2,1.5
		c0.1,0.3,0.8,0.4,1.2,0.4c1.5,0,2.8-2.3,2-3.7c-0.2-0.4-0.5-0.9-0.6-1.1C219.7,143.3,221,142.2,222.4,140.9z"/>
	<path class="st1" d="M215.1,125.5c-1-0.1-1.6-0.2-2.2-0.3c-0.5-0.1-1-0.2-1.5-0.1c-2.3,0.1-4.6,0.4-6.9,0.4
		c-1.9-0.1-4.4,0.5-4.7,1.7c-0.3,1.1-0.9,1.7-1.6,2.4c-0.3,0.2-0.3,0.8-0.4,1.2c0.4-0.1,0.9-0.1,1.2-0.4c0.7-0.5,1.3-1.1,2.2-1.9
		c0.6,1.5,1.1,2.8,1.7,4c0.1,0.2,0.5,0.5,0.8,0.5c1.4-0.1,2,0.6,2.3,1.8c0.2,1,1.1,1.1,1.5,0.6c0.7-0.8,2.9-0.7,1.9-2.7
		c-0.1-0.1,0.4-0.6,0.7-0.8c1.3-1,2.5-2.3,3.9-2.9C216,128,214.8,126.6,215.1,125.5z"/>
	<path class="st1" d="M224.7,130.2c1.3-2.4,1.3-2.8-0.3-3.7C223,127.7,222.5,129.2,224.7,130.2z"/>
	<path class="st1" d="M210.1,89c-2.5,1.7-2.5,4.4-3,6.9c-0.1,0.4-0.6,0.8-1,0.9c-1.7,0.3-2.1,0.5-2.1,2.3c0,1.2-0.6,2.1-1.3,2.9
		c-0.6,0.8-1.3,0.7-1.9-0.1c-0.3-0.5-0.5-1.1-0.9-1.6c-0.2-0.2-0.7-0.2-1.1-0.3c0,0.4-0.2,0.9,0,1.1c0.9,1,0.3,1.5-0.4,2
		c-1.3,0.9-2.5,1.8-3.3,3.5c-0.4,1.1-2.4,1.5-3.8,2.1c-0.2,0.1-0.8-0.9-1.2-1.3c-0.2-0.3-0.5-0.6-0.5-0.6c-1.4,0.5-2.7,1-4.2,1.6
		c0.7,0.4,1,0.5,1.2,0.7c0.2,0.2,0.4,0.6,0.4,0.8c0,0.1-0.4,0.3-0.6,0.4c-0.9,0.4-1.9,0.7-2.7,1.2c-1.4,0.8-2.4,0.5-2.8-1.1
		c-0.3-0.9-0.8-1.3-1.8-1.3c-1.4,0-2.9,0.1-4.1-0.3c-1.4-0.5-2.5-1.6-3.7-2.6c-0.1-0.1,0-0.8,0.2-1c0.7-0.7,1.4-1.3,2.1-1.8
		c1.1-0.7,1.9-2.3,1.4-3.5c-0.4-1,0-1.6,0.9-2.1c0.4-0.2,0.6-0.7,0.9-1c-0.4-0.2-0.8-0.3-1.2-0.5c-0.5-0.3-1.2-0.6-1.5-1.1
		c-0.1-0.2,0.5-1,0.9-1.4c0.9-0.8,2.3-1,2.8-2.4c0.4-0.9,0.4-1.6-0.6-2c-0.9-0.4-1-1-1-1.8c0-0.7,0.1-1.4,0-2.1
		c-0.3-1.5,0.8-2.2,1.8-2.7c0.4-0.2,1.6,0.2,1.7,0.5c0.6,2.2,2.5,2,4.2,2.5c0.6,0.2,1.3,0.5,1.7,1c0.1,0.2-0.4,0.9-0.6,1.4
		c-0.8,1.7-1.6,3.4-2.3,5.1c-0.1,0.1,0.1,0.6,0.2,0.6c0.4,0.1,0.8,0.1,1.2,0c0.5-0.2,1-0.6,1.5-0.6c1.7-0.2,2.2,0.5,1.6,2.1
		c0,0.1,0,0.3,0.1,0.6c0.5-0.1,1-0.2,1.5-0.3c0.9-0.2,1.3,0.1,1,1.1c-0.2,0.7-0.5,1.3-0.7,2c-0.1,0.4,0,1,0.2,1.3
		c0.2,0.2,0.9,0.4,1.1,0.2c0.3-0.3,0.8-0.9,0.7-1.2c-0.5-1.6,0.2-1.8,1.5-1.8c1.3,0,1.5-0.4,0.8-1.5c-0.2-0.4-0.6-0.8-0.7-1.2
		c-0.2-0.8-0.3-1.4,0.7-1.9c1.4-0.7,2.8-1.6,3.8-3.1c0.9-1.4,1.7-1.5,3-0.6c0.7,0.5,1.1,0.4,1.7-0.1c0.8-0.7,1.8-0.8,2.9-0.5
		c0.6,0.2,1.3,0,1.9,0c1.1,0.1,2.1,0.1,3.2,0.2C210,88.7,210,88.8,210.1,89z"/>
	<path class="st1" d="M251.5,68.9c-0.7,1.3-1.3,2.6-2.1,4.1c-0.9-1.7-1.7-3.2-2.4-4.7c-0.1-0.3,0.2-0.8,0.4-1.2
		c0.5-0.9,1-1.8,1.5-2.6c0.2-0.4,0.6-0.8,0.9-1.1c1-0.8,1-1.7,0.4-2.6c-1-1.7-3.5-1.8-4.6-0.3c-0.4,0.6-0.8,0.8-1.4,0
		c-1-1.4-0.1-2.6,0.2-3.9c0.1-0.4-0.1-1.2-0.4-1.3c-1.4-0.6-1.3-1.4-0.5-2.5c-0.6-0.8-1.2-0.6-1.5,0.2c-0.4,1-0.7,1.9-1.7,2.5
		c-0.4,0.2-0.3,1.1-0.6,1.5c-0.3,0.5-0.9,0.8-1.3,1.3c-0.3-0.5-0.7-1-0.8-1.5c-0.1-0.8,0.1-1.6,0.1-2.4c0-0.2,0.1-0.5,0-0.7
		c-0.6-1.3-0.3-2,1-2.7c0.8-0.4,1.5-1,2.2-1.5c0.7-0.5,0.8-1.2,0.3-1.8c-0.6-0.8-0.3-1.2,0.5-1.4c0.7-0.2,1.3-0.5,2-0.7
		c1.5-0.5,2.3-0.1,2.8,1.4c0.1,0.3,0.4,0.9,0.5,0.9c1.7-0.1,1.4,1.4,1.7,2.3c0.3,1,0.9,1.8,0,3c-0.7,0.9-0.6,2.3-0.8,3
		c1,0.9,1.8,1.4,2.5,2c1.2-2,0.7-1.8,2.9-0.5c0.3,0.2,1,0.1,1.3-0.1c0.4-0.3,0.5-0.9,0.7-1.3c0.6-1.4,1.1-2.8,1.6-4.3
		c0.3-0.9,0.9-1.4,1.9-1.3c0.4,0,0.8,0,1.1,0c2.7,0,3.5,1.3,2.4,3.8c-0.1,0.1-0.1,0.3-0.1,0.5c0.6,0.5,1.2,1,1.9,1.4
		c0.3,0.2,0.8,0.1,1.2-0.1c0.5-0.2,1.3-0.8,1.5-0.6c0.6,0.5,1.2,1.2,1.6,1.9c0.2,0.4,0,1,0,1.5c1.5-0.4,2-0.1,2,1.5
		c0,0.7,0,1.4,0,2.1c-0.1,1.1-0.6,1.3-1.6,0.9c-0.9-0.4-1.9-0.8-2.9-0.9c-1-0.1-1.5-0.4-1.6-1.4c0-0.4-0.6-0.8-0.9-1.1
		c-0.2,0.5-0.7,1.1-0.5,1.5c0.4,1.3,0,2.1-1,2.9c-0.9,0.7-1.5,1.7-2.2,2.5c-0.6,0.6-1.2,1.1-1.8,1.6c-0.2,0.2-0.7,0.3-0.7,0.5
		c-0.2,1.9-1,1.5-2.2,0.9c-0.5-0.2-1.3,0.2-1.9,0.5c-0.9,0.5-1.4,0.6-1.3-0.7C251.9,69.4,251.6,69.2,251.5,68.9z"/>
	<path class="st1" d="M223.9,62.5c1.2-0.5,1.8-1.7,3.2-0.8c0.4,0.3,0.8,0.7,0.9,1.2c0.1,0.8,0,1.7,0,2.6c0,0.9,0.1,1.7-1.2,1.9
		c-0.2,0-0.4,0.8-0.5,1.3c-0.1,0.8,0.1,1.7-0.1,2.5c-0.1,0.3-0.6,0.6-1,0.9c-0.2-0.5-0.8-1-0.6-1.4c0.3-1,0.3-1.5-0.7-2.1
		c-0.9-0.5-1.5-1.5-2.4-2.1c-1.2-0.9-2.4-0.3-2.4,1.2c0,1.5-0.9,2-2.1,2.4c-0.7,0.2-1.4,0.7-2.1,1.1c-0.3,0.2-0.7,0.4-1,0.6
		c-0.2-0.4-0.4-0.8-0.5-1.2c-0.1-0.4-0.2-0.8-0.3-1.2c-1.2,0.6-2.2,1.1-3.2,1.6c-0.2,0.1-0.5,0.1-0.8,0c-1.2-0.3-2.2,0.1-2.2,1.3
		c-0.1,3-1,5.9,0.2,8.9c0.3,0.8,0.6,1.6,0.8,2.5c0.1,0.3-0.3,0.8-0.4,1.1c-0.4-0.1-0.7-0.3-1.1-0.4c-0.7-0.3-1.4-0.5-2.1-0.8
		c-0.6-0.2-1.4-0.4-1.7-0.8c-0.6-1.3-1-2.7-1.3-4.1c-0.2-0.9-0.3-2,1.3-2c0.1,0,0.4-0.8,0.3-1.2c-0.3-0.9-0.9-1.8,0.6-2.4
		c0.9-0.4,0.6-1.1-0.7-1.6c-0.1-1.4-0.2-2.7-0.3-4c-0.1-1,0.3-1.5,1.3-1.1c1.1,0.3,2,0.2,2.9-0.9c0.5-0.7,1.4-1.6,2.7-1
		c0.2,0.1,0.6-0.2,0.8-0.2c-0.1-0.8-0.2-1.4-0.2-2c0.6,0,1.2,0,1.8,0c0.4,0,0.9-0.1,1.1-0.4c1.1-1.4,2.1-2.9,3.2-4.3
		c0.3-0.3,0.7-0.6,1.1-0.8c0.3-0.1,0.7-0.1,1-0.2c1.8-0.9,2-0.8,3,0.9c0.3,0.5,1,1.1,1.6,1.2c1.8,0.2,2.4,1.3,1.4,3
		C224,61.7,224,62.1,223.9,62.5z"/>
	<path class="st1" d="M222.4,140.9c-1.4,1.2-2.7,2.4-4.2,3.7c0.1,0.2,0.4,0.7,0.6,1.1c0.7,1.3-0.5,3.7-2,3.7c-0.4,0-1.1-0.1-1.2-0.4
		c-0.2-0.4,0-1,0.2-1.5c0.3-0.8,1.1-1.5,1.1-2.3c-0.1-0.7-1-1.3-1.5-2c-0.1-0.1-0.1-0.3-0.1-0.4c1.7-0.9,2.3-2.2,2-4.2
		c-0.1-0.9,0.3-0.8,0.9-1c0.7-0.2,1.5-0.6,1.9-1.2c0.9-1.3,1.5-2.8,2.3-4.1c0.2-0.3,0.6-0.6,1-0.6c0.6-0.1,1.2,0,1.9,0
		c1.1,0,2,0.1,2.8-1.2c0.7-1.2,2.2-1,3.4-0.8c0.4,0.1,1,0.8,1,1.3c0,0.6-0.2,1.4-0.7,1.7c-1,0.8-1.4,1.7-1.2,3c0.1,0.3-0.3,1-0.4,1
		c-2.3,0-3.1,2-4.4,3.4c-0.2,0.2-0.4,0.4-0.5,0.7C223.9,142.3,223.9,142.3,222.4,140.9z"/>
	<path class="st1" d="M215.1,125.5c-0.3,1.1,0.9,2.5-1.2,3.3c-1.5,0.6-2.6,1.9-3.9,2.9c-0.3,0.2-0.7,0.7-0.7,0.8
		c0.9,2-1.3,1.8-1.9,2.7c-0.4,0.5-1.3,0.4-1.5-0.6c-0.3-1.2-0.9-1.9-2.3-1.8c-0.3,0-0.7-0.2-0.8-0.5c-0.6-1.2-1-2.4-1.7-4
		c-0.9,0.8-1.5,1.4-2.2,1.9c-0.3,0.2-0.8,0.2-1.2,0.4c0.1-0.4,0.1-0.9,0.4-1.2c0.7-0.7,1.3-1.3,1.6-2.4c0.3-1.2,2.8-1.8,4.7-1.7
		c2.3,0.1,4.6-0.2,6.9-0.4c0.5,0,1,0.1,1.5,0.1C213.5,125.2,214.1,125.3,215.1,125.5z"/>
	<path class="st1" d="M224.7,130.2c-2.3-1.1-1.7-2.5-0.3-3.7C226,127.4,226.1,127.8,224.7,130.2z"/>
</g>
<g>
	<path class="st1" d="M293.1,494.6c-0.3-0.5-0.7-1.5-1.4-2.1c-4-3.7-7.4-7.8-8.2-13.6c-0.3-2-3-3.5-5.1-3c-3,0.7-5.5-0.3-8-1.5
		c-3.7-1.8-4.2-1.7-7.1,0.9c-0.5,0.4-1.9,0.7-2.2,0.4c-2.1-2.5-4.9-3.3-8-3.7c-1.8-0.2-3.7-1-5.3-1.8c-5.1-2.5-10.6-0.2-12.2,5.3
		c-0.2,0.7-1,1.7-1.5,1.7c-3,0-3.7,2.2-4,4.3c-0.3,3.4-2.5,4.2-5.2,4.8c-2,0.5-3.8,1.2-4.6,3.4c-0.7,1.9-1.5,3.8-2.1,5.7
		c-0.2,0.6,0.2,1.7,0.6,2c2.5,1.6,5.1,3.1,7.7,4.4c0.7,0.3,1.7,0.3,2.5,0c3.4-1,6.7-0.5,9.9,0.5c0.7,0.2,1.8,1.4,1.6,1.9
		c-0.2,1-1.1,2-1.9,2.7c-0.4,0.4-1.3,0.2-2,0.2c-3.2-0.3-6.4-0.7-9.6-1c-0.6-0.1-1.3-0.1-1.8,0.1c-2.3,0.9-4-0.3-5.5-1.8
		c-0.9-1-1.7-2.2-2.4-3.4c-1.6-2.5-3.3-3.1-6.1-0.5c-0.9,0.9-1.6,2-2.2,3.2c-1.1,2.5-0.6,3.5,1.9,4.6c0.8,0.4,1.6,1,2.3,1.6
		c2.4,1.7,4.6,4.2,7.2,4.9c3.9,1.1,7.2,2.7,10.3,5.1c1.9,1.5,3.9,3.6,6.7,1.2c0.6-0.5,1.8-0.4,2.8-0.4c2.4,0.1,4.8,0.4,7.2,0.5
		c2,0,3.2-0.8,3.3-3.1c0.1-1.5,0.6-3.2,1.5-4.3c2.4-2.7,4.8-5.6,7.8-7.5c2.7-1.7,4.8-3.7,6.7-6.2c0.6-0.7,2.1-1.4,2.8-1.1
		c2.1,1,3.5,0.1,5-0.9c1.4-0.9,2.8-1.2,4.2,0.2c1,1,2.4,1.7,3.3,2.8c1.8,2.1,3.8,1.4,5.6,0.3C290.3,500,292.8,498.4,293.1,494.6z"/>
	<path class="st1" d="M185.9,487.9c0.2,0.2,0.3,0.3,0.5,0.5c-0.9,0.8-1.7,2.3-2.6,2.3c-3.3,0-4.9,2.3-6.9,4.2
		c-1.3,1.2-1.2,2.7-0.3,4.3c0.8,1.5,1.7,3.1,3.7,2.7c1.8-0.4,3.6-1.1,5.2-2.1c3.2-1.9,6.4-2.8,10.3-2.8c2.3,0,4.9-1.6,6.7-3.2
		c0.7-0.6,0.1-3.1-0.3-4.7c-0.7-3.1-1.3-6,0.7-8.9c1.3-1.9,1.9-4.1,0.8-6.6c-1.2-2.7,0.6-5,3.7-4.9c3.4,0.2,6-0.9,8.4-3.2
		c1.5-1.4,2.1-3.1,1.2-4.9c-0.7-1.5-4-2-5.7-1c-1.7,1-9.3,0.6-10.8-0.6c-3.8-3-7.3-2.3-9.6,1.9c-2.1,3.9-2.5,8-1.3,12.3
		c0.5,1.8,1.2,3.6,1.5,5.5c0.4,2.7-0.2,3.2-2.9,2.9c-1.9-0.2-2.9,0.5-2.7,2.4C185.7,485.3,185.8,486.6,185.9,487.9z"/>
	<path class="st1" d="M248.5,458.6c-0.1-2-0.9-4.2-0.2-5.9c1.2-2.9-0.4-4.2-2-5.7c-1-0.9-2.1-1.8-3.4-2.4c-2.4-1-4.7-2.3-7.6-0.6
		c-2.1,1.2-4.4,1.9-7,1c-0.6-0.2-1.7,0-2.2,0.4c-2.5,1.9-5.4,2.1-8.4,2.1c-0.4,0-1-0.2-1.3,0.1c-1.2,0.9-2.7,1.8-3.4,3.1
		c-0.4,0.7,0.4,2.5,1.2,3.2c3.7,3.3,8.4,4.3,13.1,5.3c1.7,0.3,2.5,1,3,2.7c0.5,1.9,1.3,3.8,2.3,5.4c0.4,0.7,2.6,1.2,2.9,0.9
		c2.6-3,6.2-3.6,9.6-4.8C247.3,462.5,248.7,461,248.5,458.6z"/>
	<path class="st1" d="M185.9,565.7c2,1.3,3.9,2.3,5.4,3.6c1.6,1.4,3,1.7,4.6,0.5c3-2.2,6.1-4.3,8.9-6.7c1.3-1.1,2.1-2.5,0.7-4.3
		c-0.4-0.5-0.5-1.3-0.4-2c0.2-2.5-0.9-4-3.3-4.8c-1.1-0.4-2.5-1.2-2.9-2.2c-2-4.8-4-6.1-9.1-4.9c-1.1,0.3-2.2,1.4-2.7,2.4
		c-0.3,0.5,0.4,2,1,2.6c2.9,2.7,3.4,8.6,0.8,11.8C188,563.1,187,564.4,185.9,565.7z"/>
	<path class="st1" d="M180.6,616.5c2.6,0.2,5.9-3.1,6.5-5.7c0.5-2.1,1.2-4.1,1.7-6.2c0.1-0.6,0.2-1.4-0.1-1.8c-2-2.4-6-3-9-2
		c-3.2,1-6.5,1.5-9.9,2c-2.1,0.3-3.3,1.9-2.4,3.9c0.9,1.9,1.8,3.7,2.8,5.5c1.1,1.7,2.4,3.2,3.6,4.9c2,3,3.5-0.3,5.2-0.4
		C179.7,616.6,180.4,616.5,180.6,616.5z"/>
	<path class="st1" d="M202,524.6c-2.1,1.4-3.7,2.3-5,3.6c-1,0.9-1.8,2.3-2,3.6c-0.1,0.9,1,2.4,1.9,2.7c2.8,0.9,6,1.5,8.4-0.5
		c2.7-2.1,5.7-2.6,8.9-2.9c2.4-0.2,4.9-2.5,5-4.9c0.1-1-0.5-2.6-1.3-3c-2-1-4.3-2.1-6.3-1.9c-2.6,0.2-4.1-0.9-5.7-2.2
		c-0.9-0.8-1.8-1.6-2.9-2.2c-2-1.1-4.4,0.2-4.6,2.5C198.4,521.4,198.8,523.3,202,524.6z"/>
	<path class="st1" d="M241.6,429.5c-0.2-0.1-0.3-0.3-0.5-0.4c-0.3-1.2-0.3-2.6-0.9-3.4c-1-1.2-2.5-2.6-3.9-2.8
		c-0.9-0.1-2.1,1.7-3.1,2.8c-0.5,0.5-0.7,1.4-1.3,1.9c-2.4,1.7-2.2,4-1.5,6.5c0.9,3.1,4.9,4.6,7,2.3
		C239.1,434.3,240.2,431.8,241.6,429.5z"/>
	<path class="st1" d="M265.2,591c-0.1-0.2-0.1-0.5-0.2-0.7c-1.7,0.6-3.4,1.3-5.2,1.9c-0.6,0.2-1.5,0.4-1.8,0.1
		c-3-2.7-6.2-0.5-9.3-0.3c-0.3,0-1,2-0.7,2.2c1.5,1.4,3.2,2.5,4.8,3.8c1.2,1,2.5,1.9,3.3,3.1c0.9,1.4,1.9,2.6,3.4,1.7
		c0.7-0.4,1.2-2.4,0.9-3.3c-0.8-2.4,0.2-4,1.8-5.5C263.3,593,264.2,592,265.2,591z"/>
	<path class="st1" d="M224.4,598.1c-0.3,2.9,2.8,5.9,4.4,4.6c1.4-1.1,2.1-3.1,3-4.8c-1.2-0.3-2.5-0.6-3.7-0.9
		c-0.5-0.1-1-0.1-1.5-0.2C224.9,596.3,224.5,597.2,224.4,598.1z"/>
	<path class="st1" d="M293.1,494.6c-0.3,3.9-2.8,5.4-5.3,6.9c-1.8,1-3.8,1.7-5.6-0.3c-0.9-1.1-2.3-1.8-3.3-2.8
		c-1.4-1.4-2.8-1.2-4.2-0.2c-1.6,1-3,1.9-5,0.9c-0.6-0.3-2.2,0.4-2.8,1.1c-1.9,2.5-4,4.5-6.7,6.2c-3,1.9-5.4,4.8-7.8,7.5
		c-0.9,1.1-1.4,2.8-1.5,4.3c-0.2,2.3-1.3,3.1-3.3,3.1c-2.4-0.1-4.8-0.4-7.2-0.5c-0.9,0-2.2-0.1-2.8,0.4c-2.8,2.4-4.8,0.3-6.7-1.2
		c-3.1-2.4-6.4-4-10.3-5.1c-2.7-0.8-4.8-3.2-7.2-4.9c-0.8-0.5-1.5-1.2-2.3-1.6c-2.6-1.1-3.1-2-1.9-4.6c0.5-1.2,1.2-2.4,2.2-3.2
		c2.9-2.6,4.6-2,6.1,0.5c0.7,1.2,1.4,2.4,2.4,3.4c1.5,1.5,3.2,2.7,5.5,1.8c0.5-0.2,1.2-0.2,1.8-0.1c3.2,0.3,6.4,0.7,9.6,1
		c0.7,0.1,1.6,0.2,2-0.2c0.8-0.7,1.6-1.7,1.9-2.7c0.1-0.5-0.9-1.7-1.6-1.9c-3.2-1-6.5-1.5-9.9-0.5c-0.8,0.2-1.8,0.3-2.5,0
		c-2.6-1.4-5.2-2.8-7.7-4.4c-0.5-0.3-0.8-1.4-0.6-2c0.6-1.9,1.4-3.8,2.1-5.7c0.8-2.2,2.6-2.9,4.6-3.4c2.7-0.6,4.8-1.4,5.2-4.8
		c0.2-2,1-4.3,4-4.3c0.5,0,1.3-1,1.5-1.7c1.6-5.4,7.2-7.8,12.2-5.3c1.7,0.8,3.5,1.6,5.3,1.8c3.2,0.4,5.9,1.2,8,3.7
		c0.3,0.3,1.7,0.1,2.2-0.4c2.9-2.7,3.4-2.7,7.1-0.9c2.5,1.2,5,2.3,8,1.5c2.1-0.5,4.8,1,5.1,3c0.9,5.7,4.2,9.8,8.2,13.6
		C292.4,493.1,292.8,494.1,293.1,494.6z"/>
	<path class="st1" d="M185.9,487.9c-0.1-1.3-0.3-2.6-0.4-3.9c-0.2-2,0.8-2.6,2.7-2.4c2.7,0.3,3.3-0.2,2.9-2.9
		c-0.3-1.9-1-3.7-1.5-5.5c-1.3-4.3-0.8-8.4,1.3-12.3c2.3-4.2,5.9-4.9,9.6-1.9c1.5,1.2,9.1,1.6,10.8,0.6c1.6-0.9,4.9-0.5,5.7,1
		c0.9,1.8,0.2,3.4-1.2,4.9c-2.3,2.3-5,3.4-8.4,3.2c-3.1-0.1-4.9,2.2-3.7,4.9c1.1,2.5,0.5,4.7-0.8,6.6c-2,2.9-1.5,5.8-0.7,8.9
		c0.4,1.6,1,4.1,0.3,4.7c-1.9,1.6-4.5,3.2-6.7,3.2c-3.8,0-7.1,0.8-10.3,2.8c-1.6,1-3.4,1.7-5.2,2.1c-2,0.4-2.8-1.1-3.7-2.7
		c-0.9-1.6-1-3.1,0.3-4.3c2-1.8,3.7-4.2,6.9-4.2c0.9,0,1.7-1.5,2.6-2.3C186.3,488.2,186.1,488,185.9,487.9z"/>
	<path class="st1" d="M248.5,458.6c0.1,2.4-1.2,3.9-3.3,4.7c-3.4,1.3-7,1.9-9.6,4.8c-0.3,0.3-2.4-0.2-2.9-0.9
		c-1.1-1.6-1.8-3.5-2.3-5.4c-0.4-1.7-1.3-2.4-3-2.7c-4.7-0.9-9.4-2-13.1-5.3c-0.8-0.7-1.6-2.5-1.2-3.2c0.7-1.3,2.1-2.1,3.4-3.1
		c0.3-0.2,0.8-0.1,1.3-0.1c3,0,5.9-0.1,8.4-2.1c0.5-0.4,1.6-0.6,2.2-0.4c2.5,0.9,4.9,0.2,7-1c2.8-1.7,5.2-0.4,7.6,0.6
		c1.2,0.5,2.4,1.5,3.4,2.4c1.7,1.5,3.3,2.8,2,5.7C247.6,454.4,248.4,456.6,248.5,458.6z"/>
	<path class="st1" d="M185.9,565.7c1.1-1.4,2.1-2.6,3.1-3.9c2.6-3.2,2.1-9.1-0.8-11.8c-0.6-0.6-1.3-2-1-2.6c0.5-1,1.6-2.1,2.7-2.4
		c5.1-1.2,7,0,9.1,4.9c0.4,1,1.8,1.8,2.9,2.2c2.4,0.8,3.5,2.2,3.3,4.8c-0.1,0.6,0.1,1.5,0.4,2c1.4,1.8,0.6,3.2-0.7,4.3
		c-2.9,2.3-5.9,4.5-8.9,6.7c-1.6,1.2-3.1,0.9-4.6-0.5C189.8,568,187.9,567.1,185.9,565.7z"/>
	<path class="st1" d="M180.6,616.5c-0.2,0-0.9,0.1-1.6,0.1c-1.7,0.1-3.2,3.4-5.2,0.4c-1.1-1.7-2.5-3.2-3.6-4.9
		c-1.1-1.7-2-3.6-2.8-5.5c-0.9-2,0.3-3.6,2.4-3.9c3.3-0.5,6.7-1,9.9-2c3-0.9,7.1-0.4,9,2c0.3,0.4,0.2,1.2,0.1,1.8
		c-0.5,2.1-1.2,4.1-1.7,6.2C186.6,613.4,183.2,616.6,180.6,616.5z"/>
	<path class="st1" d="M202,524.6c-3.2-1.3-3.6-3.2-3.5-5.3c0.2-2.3,2.6-3.6,4.6-2.5c1,0.6,1.9,1.4,2.9,2.2c1.7,1.4,3.2,2.5,5.7,2.2
		c2.1-0.2,4.4,0.9,6.3,1.9c0.8,0.4,1.3,2,1.3,3c-0.1,2.4-2.6,4.6-5,4.9c-3.2,0.3-6.2,0.8-8.9,2.9c-2.5,1.9-5.6,1.3-8.4,0.5
		c-0.9-0.3-2-1.8-1.9-2.7c0.1-1.3,1-2.6,2-3.6C198.3,526.9,199.9,526,202,524.6z"/>
	<path class="st1" d="M241.6,429.5c-1.4,2.3-2.5,4.9-4.3,6.8c-2.1,2.3-6.1,0.8-7-2.3c-0.7-2.5-1-4.7,1.5-6.5
		c0.6-0.4,0.8-1.3,1.3-1.9c1-1,2.2-2.9,3.1-2.8c1.4,0.2,2.9,1.5,3.9,2.8c0.7,0.8,0.7,2.2,0.9,3.4
		C241.3,429.2,241.5,429.3,241.6,429.5z"/>
	<path class="st1" d="M265.2,591c-1,1-1.9,2-2.9,3c-1.6,1.5-2.6,3.1-1.8,5.5c0.3,1-0.2,2.9-0.9,3.3c-1.5,0.9-2.5-0.4-3.4-1.7
		c-0.8-1.2-2.1-2.2-3.3-3.1c-1.6-1.3-3.3-2.4-4.8-3.8c-0.3-0.3,0.4-2.2,0.7-2.2c3.1-0.2,6.3-2.4,9.3,0.3c0.3,0.3,1.2,0.1,1.8-0.1
		c1.7-0.6,3.5-1.2,5.2-1.9C265.1,590.5,265.1,590.8,265.2,591z"/>
	<path class="st1" d="M224.4,598.1c0.1-0.8,0.5-1.8,2.2-1.3c0.5,0.1,1,0.1,1.5,0.2c1.2,0.3,2.5,0.6,3.7,0.9c-1,1.6-1.7,3.6-3,4.8
		C227.2,603.9,224.1,601,224.4,598.1z"/>
</g>
</svg>
