<?xml version="1.0" encoding="utf-8"?>
<!-- Generator: Adobe Illustrator 28.1.0, SVG Export Plug-In . SVG Version: 6.00 Build 0)  -->
<svg version="1.1" id="圖層_2" xmlns="http://www.w3.org/2000/svg" xmlns:xlink="http://www.w3.org/1999/xlink" x="0px" y="0px"
	 viewBox="0 0 1710.2 502.3" style="enable-background:new 0 0 1710.2 502.3;" xml:space="preserve">
<style type="text/css">
	.st0{fill:none;stroke:#90D8ED;stroke-width:9;}
	.st1{fill:#333333;}
	.st2{fill:none;stroke:#91D5EC;stroke-width:5;stroke-linecap:round;stroke-dasharray:6,10;}
	.st3{fill:url(#SVGID_1_);}
	.st4{fill:#5492ED;}
	.st5{fill:url(#SVGID_00000103946284934971035650000003627131637498644871_);}
	.st6{fill:url(#SVGID_00000111909020890719619150000004820739121044893358_);}
	.st7{fill:url(#SVGID_00000065790851736376389080000008624218202363839156_);}
	.st8{fill:url(#SVGID_00000014600548565968607710000002428304766096096673_);}
	.st9{fill:#FFFFFF;}
</style>
<g>
	<path class="st0" d="M1545.8,402.1c-716.7,0-1526.6-38.8-1526.6-146.2c0-67.9,361.2-120.4,664.4-127.9"/>
	<g>
		<g>
			<path class="st1" d="M3.7,167.5c2-2,3.9-4,5.7-5.8c1.8-1.9,3.5-3.7,4.9-5.4c1.5-1.8,2.6-3.5,3.5-5.1s1.3-3.2,1.3-4.8
				c0-0.7-0.1-1.3-0.4-1.8c-0.2-0.5-0.6-1-1-1.4s-0.9-0.7-1.5-0.9s-1.2-0.3-2-0.3s-1.4,0.1-2,0.3s-1.1,0.5-1.4,0.8s-0.7,0.7-0.9,1.2
				c-0.2,0.4-0.3,0.8-0.3,1.3c0,1,0.2,1.9,0.5,2.7c0.4,0.8,0.8,1.5,1.4,2.1l-4.3,3.9c-0.9-0.4-1.7-1.2-2.4-2.3
				c-0.6-1.1-1.1-2.2-1.5-3.3c-0.3-1.2-0.5-2.2-0.5-2.9c0-1.8,0.5-3.4,1.4-5c1-1.6,2.4-2.9,4.3-3.9s4.2-1.5,6.9-1.5
				c2.2,0,4.1,0.5,5.8,1.5c1.6,1,2.9,2.3,3.8,3.9c0.9,1.6,1.4,3.3,1.4,5.1c0,1.4-0.2,2.8-0.7,4.2c-0.4,1.3-1.1,2.7-1.9,4
				c-0.8,1.3-1.6,2.6-2.6,3.8s-2,2.5-3.1,3.8l-3.2-0.9h11.8v6.7L3.7,167.5L3.7,167.5z M44.2,167.5c-1.8,0-3.6-0.3-5.2-1
				c-1.6-0.6-3-1.6-4.3-2.9c-1.2-1.3-2.2-3-2.9-5s-1.1-4.4-1.1-7.2c0-3.1,0.3-5.6,1-7.7c0.7-2.1,1.6-3.7,2.8-5
				c1.2-1.2,2.6-2.1,4.3-2.6c1.6-0.5,3.4-0.8,5.3-0.8c1.8,0,3.5,0.3,5.1,1c1.6,0.6,3.1,1.6,4.3,3c1.2,1.3,2.2,3,2.9,5
				c0.7,2,1.1,4.4,1.1,7.2s-0.4,5.3-1.1,7.3s-1.7,3.7-2.9,5c-1.2,1.3-2.7,2.2-4.3,2.8C47.7,167.2,46,167.5,44.2,167.5z M44.1,160.8
				c1.6,0,2.8-0.4,3.7-1.2c0.9-0.9,1.5-2,1.9-3.5s0.6-3.1,0.6-4.9c0-1.8-0.2-3.3-0.6-4.7s-1-2.5-1.9-3.3s-2.1-1.2-3.7-1.2
				s-2.8,0.4-3.7,1.2s-1.5,2-1.9,3.4s-0.5,3-0.5,4.8s0.2,3.4,0.5,4.8c0.4,1.4,1,2.6,1.9,3.5C41.3,160.4,42.5,160.8,44.1,160.8z
				 M61.8,167.5c2-2,3.9-4,5.7-5.8c1.8-1.9,3.5-3.7,4.9-5.4c1.5-1.8,2.6-3.5,3.5-5.1c0.9-1.6,1.3-3.2,1.3-4.8c0-0.7-0.1-1.3-0.4-1.8
				c-0.2-0.5-0.6-1-1-1.4c-0.4-0.4-0.9-0.7-1.5-0.9c-0.6-0.2-1.2-0.3-2-0.3s-1.4,0.1-2,0.3c-0.6,0.2-1.1,0.5-1.4,0.8
				c-0.4,0.4-0.7,0.7-0.9,1.2c-0.2,0.4-0.3,0.8-0.3,1.3c0,1,0.2,1.9,0.5,2.7c0.4,0.8,0.8,1.5,1.4,2.1l-4.3,3.9
				c-0.9-0.4-1.7-1.2-2.4-2.3c-0.6-1.1-1.1-2.2-1.5-3.3c-0.3-1.2-0.5-2.2-0.5-2.9c0-1.8,0.5-3.4,1.4-5c1-1.6,2.4-2.9,4.3-3.9
				c1.9-1,4.2-1.5,6.9-1.5c2.2,0,4.1,0.5,5.8,1.5c1.6,1,2.9,2.3,3.8,3.9c0.9,1.6,1.4,3.3,1.4,5.1c0,1.4-0.2,2.8-0.7,4.2
				s-1.1,2.7-1.9,4s-1.6,2.6-2.6,3.8s-2,2.5-3.1,3.8l-3.2-0.9h11.8v6.7L61.8,167.5L61.8,167.5z M109.1,135.6l-7.2,13.9l-3.8-2.1
				c0.3-0.1,0.7-0.2,1-0.3c0.4-0.1,0.7-0.1,1.1-0.1c1.1,0,2.2,0.1,3.4,0.4c1.1,0.3,2.1,0.8,3,1.5s1.7,1.7,2.2,3
				c0.6,1.3,0.9,2.9,0.9,4.9c0,2.3-0.5,4.3-1.6,6c-1.1,1.6-2.4,2.9-4.2,3.7c-1.7,0.9-3.6,1.3-5.6,1.3c-1.6,0-3.2-0.3-4.9-1
				c-1.7-0.7-3.1-1.6-4.1-2.6l3.6-5.8c0.5,0.6,1.2,1.2,2.2,1.8s2,0.9,3.1,0.9c0.7,0,1.4-0.2,2.1-0.5s1.2-0.9,1.7-1.6
				s0.7-1.6,0.7-2.6c0-1.4-0.4-2.5-1.2-3.4c-0.8-0.8-1.9-1.2-3.3-1.2c-1,0-1.7,0-2.2,0.1s-1,0.2-1.4,0.3l-0.1-0.2l5.6-10.5l2,0.8
				h-10v-6.7L109.1,135.6L109.1,135.6z"/>
			<path class="st2" d="M57.1,178.5V213"/>
			
				<linearGradient id="SVGID_1_" gradientUnits="userSpaceOnUse" x1="56.6" y1="-429.975" x2="56.6" y2="-450.975" gradientTransform="matrix(1 0 0 -1 0 -222.51)">
				<stop  offset="0" style="stop-color:#70AFE3"/>
				<stop  offset="1" style="stop-color:#6088DC"/>
			</linearGradient>
			<circle class="st3" cx="56.6" cy="218" r="10.5"/>
		</g>
		<g>
			<path class="st4" d="M0.1,1.8h4.1c5.4,0,8,3.3,8,8.7s-2.6,8.8-8,8.8H0L0.1,1.8L0.1,1.8z M4.1,18.1c4.6,0,6.6-3,6.6-7.6
				C10.7,6,8.7,3,4.1,3H1.6v15.1H4.1z"/>
			<path class="st4" d="M15,13c0-4.2,2.7-6.7,5.6-6.7c3.1,0,4.9,2.2,4.9,6c0,0.4,0,0.7-0.1,1h-9.1c0.1,3.1,1.9,5.3,4.7,5.3
				c1.4,0,2.4-0.4,3.4-1.1l0.5,1c-1,0.6-2.2,1.2-4.1,1.2C17.7,19.7,15,17.2,15,13z M24.3,12.1c0-3.1-1.4-4.7-3.6-4.7
				c-2.1,0-4,1.7-4.2,4.7H24.3z"/>
			<path class="st4" d="M29.2,3.9c0-2.5,1.1-3.9,3.3-3.9c0.6,0,1.3,0.2,1.9,0.4l-0.3,1.1c-0.5-0.2-1-0.4-1.5-0.4c-1.4,0-2,1-2,2.8
				v2.6h2.9v1.2h-2.9v11.6h-1.4V7.7h-1.8v-1l1.8-0.2V3.9z M38.5,2.4c0,0.6-0.6,1.1-1.2,1.1c-0.6,0-1.2-0.5-1.2-1.1
				c0-0.7,0.5-1.2,1.2-1.2C38,1.3,38.5,1.7,38.5,2.4z M36.6,6.5H38v12.8h-1.4V6.5z"/>
			<path class="st4" d="M42.8,6.5h1.1l0.2,1.9l0,0c1.3-1.3,2.6-2.3,4.4-2.3c2.7,0,3.9,1.7,3.9,4.9v8.2H51v-8c0-2.7-0.8-3.9-2.8-3.9
				c-1.5,0-2.5,0.8-4,2.3v9.6h-1.4C42.8,19.2,42.8,6.5,42.8,6.5z"/>
			<path class="st4" d="M56,13c0-4.2,2.7-6.7,5.6-6.7c3.1,0,4.9,2.2,4.9,6c0,0.4,0,0.7-0.1,1h-9.1c0.1,3.1,1.9,5.3,4.7,5.3
				c1.4,0,2.4-0.4,3.4-1.1l0.5,1c-1,0.6-2.2,1.2-4.1,1.2C58.6,19.7,56,17.2,56,13z M65.2,12.1c0-3.1-1.4-4.7-3.6-4.7
				c-2.1,0-4,1.7-4.2,4.7H65.2z"/>
			<path class="st4" d="M74.4,16.1c0-2.8,2.5-4.2,8.2-4.8c0-1.9-0.5-3.9-2.9-3.9c-1.7,0-3.1,0.8-4,1.5l-0.6-1c1-0.7,2.8-1.7,4.8-1.7
				c3,0,4.1,2.2,4.1,5v8.1h-1.2l-0.1-1.6l0,0c-1.3,1.1-2.8,1.9-4.5,1.9C76,19.7,74.4,18.5,74.4,16.1z M82.5,16.5v-4.2
				c-5,0.6-6.8,1.8-6.8,3.7c0,1.8,1.2,2.4,2.6,2.4C79.7,18.4,81,17.8,82.5,16.5z"/>
			<path class="st4" d="M88.4,6.5h1.2l0.2,1.9l0,0c1.3-1.3,2.6-2.3,4.4-2.3c2.7,0,3.9,1.7,3.9,4.9v8.2h-1.4v-8
				c0-2.7-0.8-3.9-2.8-3.9c-1.5,0-2.5,0.8-4,2.3v9.6h-1.4L88.4,6.5L88.4,6.5z"/>
			<path class="st4" d="M101.6,13c0-4.1,2.6-6.7,5.7-6.7c1.5,0,2.6,0.6,3.8,1.6l-0.2-2.4V0.3h1.4v19.1h-1.2l-0.2-1.6l0,0
				c-1,1-2.4,1.9-4.1,1.9C103.6,19.7,101.6,17.3,101.6,13z M110.9,16.4V9c-1.3-1.2-2.4-1.6-3.6-1.6c-2.4,0-4.3,2.4-4.3,5.5
				c0,3.3,1.5,5.5,4.1,5.5C108.5,18.4,109.7,17.7,110.9,16.4z"/>
			<path class="st4" d="M122.6,1.8h1.9l3.6,10.1l1.4,3.8h0.1c0.5-1.3,0.9-2.6,1.3-3.8l3.6-10.1h1.9v17.5H135v-11
				c0-1.4,0.1-3.4,0.2-4.8h-0.1l-1.4,3.9l-3.6,10.1h-1.2l-3.7-10.1l-1.3-4h-0.1c0.1,1.5,0.2,3.4,0.2,4.8v11.1h-1.3L122.6,1.8
				L122.6,1.8z"/>
			<path class="st4" d="M140.3,13c0-4.2,2.7-6.7,5.6-6.7c3.1,0,4.9,2.2,4.9,6c0,0.4,0,0.7-0.1,1h-9.1c0.1,3.1,1.9,5.3,4.7,5.3
				c1.4,0,2.4-0.4,3.4-1.1l0.5,1c-1,0.6-2.2,1.2-4.1,1.2C143,19.7,140.3,17.2,140.3,13z M149.6,12.1c0-3.1-1.4-4.7-3.6-4.7
				c-2.1,0-4,1.7-4.2,4.7H149.6z"/>
			<path class="st4" d="M153,16.1c0-2.8,2.5-4.2,8.2-4.8c0-1.9-0.5-3.9-2.9-3.9c-1.7,0-3.1,0.8-4,1.5l-0.6-1c1-0.7,2.8-1.7,4.8-1.7
				c3,0,4.1,2.2,4.1,5v8.1h-1.2l-0.1-1.6l0,0c-1.3,1.1-2.8,1.9-4.5,1.9C154.6,19.7,153,18.5,153,16.1z M161.1,16.5v-4.2
				c-5,0.6-6.8,1.8-6.8,3.7c0,1.8,1.2,2.4,2.6,2.4S159.6,17.8,161.1,16.5z"/>
			<path class="st4" d="M165.4,17.9l0.7-1c1.1,0.9,2.3,1.6,4,1.6c1.9,0,2.9-1.1,2.9-2.4c0-1.5-1.6-2.2-3.1-2.7c-1.9-0.7-4-1.5-4-3.7
				c0-1.9,1.5-3.5,4.2-3.5c1.4,0,2.8,0.6,3.7,1.4l-0.7,1c-0.9-0.6-1.8-1.2-3-1.2c-1.9,0-2.8,1.1-2.8,2.2c0,1.4,1.5,1.9,3,2.5
				c2,0.7,4.1,1.4,4.1,3.9c0,2-1.6,3.6-4.4,3.6C168.3,19.7,166.6,18.9,165.4,17.9z"/>
			<path class="st4" d="M177.6,14.7V6.5h1.4v8c0,2.6,0.8,3.8,2.8,3.8c1.5,0,2.5-0.8,4-2.5V6.5h1.4v12.8H186l-0.1-2.1h-0.1
				c-1.2,1.4-2.5,2.4-4.3,2.4C178.8,19.7,177.6,18,177.6,14.7z"/>
			<path class="st4" d="M192,6.5h1.2l0.2,2.4l0,0c0.9-1.6,2.1-2.7,3.6-2.7c0.5,0,0.9,0.1,1.3,0.3L198,7.7c-0.4-0.2-0.7-0.2-1.2-0.2
				c-1.1,0-2.5,0.8-3.4,3.2v8.6H192L192,6.5L192,6.5z"/>
			<path class="st4" d="M199.3,13c0-4.2,2.7-6.7,5.6-6.7c3.1,0,4.9,2.2,4.9,6c0,0.4,0,0.7-0.1,1h-9.1c0.1,3.1,1.9,5.3,4.7,5.3
				c1.4,0,2.4-0.4,3.4-1.1l0.5,1c-1,0.6-2.2,1.2-4.1,1.2C201.9,19.7,199.3,17.2,199.3,13z M208.6,12.1c0-3.1-1.4-4.7-3.6-4.7
				c-2.1,0-4,1.7-4.2,4.7H208.6z"/>
		</g>
		<g>
			<path d="M8.5,44.1c0.9,0,1.6,0.7,1.6,1.6c0,0.9-0.7,1.6-1.6,1.6s-1.6-0.7-1.6-1.6C7,44.8,7.7,44.1,8.5,44.1z"/>
			<path d="M40.5,54.9H32v0.9h-1.9V45.7c-0.4,0.4-0.9,0.7-1.3,1.1c-0.2-0.4-0.6-1-1-1.5v7.8h-3.7v1.7h-1.7v-6.5
				c-0.3,0.5-0.6,1-0.9,1.4c-0.2-0.4-0.7-1.4-1.1-1.9c1.5-2.1,2.5-5.3,3-8.8h-2.5v-1.8h7V39h-2.8c-0.3,1.6-0.6,3.1-1,4.6h3.6v1.3
				c1.9-1.3,3.4-3.1,4.6-5.4h-2.2v2.1h-1.7v-3.8h4.7c0.2-0.7,0.5-1.5,0.7-2.2l1.9,0.4c-0.2,0.6-0.4,1.2-0.6,1.8h5v3.7h-1.8v-2h-3.9
				c-0.5,1.1-1.1,2.1-1.7,3h2.4c-0.3-0.6-0.5-1.2-0.8-1.7l1.7-0.7c0.4,0.8,0.9,1.7,1.1,2.4h2.8v1.7h-3.1v1.9h2.9v1.5h-2.9v2h2.9v1.6
				h-2.9v2h3.7C40.5,53.2,40.5,54.9,40.5,54.9z M25.9,45.3h-2v6h2V45.3z M34.8,44.2h-2.9v1.9h2.9V44.2z M34.8,47.7h-2.9v2h2.9V47.7z
				 M32,53.2h2.9v-2H32V53.2z"/>
			<path d="M53.6,53.2c1,0.2,2,0.2,3.1,0.2c1,0,4.6,0,5.9,0c-0.3,0.5-0.7,1.5-0.7,2.1h-5.3c-4.3,0-7.5-0.7-9.5-4.2
				c-0.7,1.9-1.8,3.4-3.1,4.6c-0.3-0.4-1.2-1.1-1.6-1.4c2.4-1.8,3.5-4.9,4-8.8l2.1,0.2c-0.1,1-0.3,1.9-0.5,2.8
				c0.8,2.1,2,3.2,3.6,3.9v-8.4h-5.1v-1.9h12.4v1.9h-5.2v3.2h6.2v1.9h-6.3V53.2z M45.4,43h-2v-5h8.3c-0.2-0.6-0.6-1.4-0.9-2l2-0.6
				c0.5,0.8,1,1.8,1.2,2.6h7.7v5h-2.1v-3.1H45.4V43z"/>
			<path d="M67.8,53.1v1.7h-1.7v-7.4c-0.3,0.5-0.7,1-1,1.5c-0.1-0.5-0.5-1.7-0.8-2.3c1.5-2,2.4-4.9,3-8h-2.6v-1.8h7.4v1.7h-2.9
				c-0.3,1.7-0.8,3.3-1.3,4.9h3.7v9.7C71.6,53.1,67.8,53.1,67.8,53.1z M70,45.2h-2.2v6.1H70V45.2z M76.2,50.3
				c-0.4-0.8-1.1-2.2-1.8-3.3c0,2.7-0.4,6.4-2,8.8c-0.3-0.3-1.1-0.8-1.6-1c1.6-2.4,1.7-5.9,1.7-8.3v-4.3h11.7v1.7h-9.9v2.6v0.1
				l1.1-0.6c0.7,1.1,1.6,2.6,2,3.5L76.2,50.3z M83.8,40.8H73v-4.6h1.8v2.9h2.6v-3.6h1.8v3.6h2.6v-2.9h1.9v4.6H83.8z M80.2,44.6
				c0,1.2-0.1,2.4-0.3,3.4c0.8,2.7,2.4,5,4.6,6.1c-0.4,0.4-0.9,1-1.2,1.5c-1.7-1-3.1-2.8-4-4.8c-0.7,2.1-1.9,3.8-4.2,4.9
				c-0.2-0.5-0.7-1.1-1.1-1.5c3.7-1.8,4.2-5.1,4.4-9.6H80.2z M80.7,49.3c0.7-0.9,1.7-2.4,2.2-3.4l1.6,1.1c-0.9,1.1-1.8,2.4-2.6,3.2
				L80.7,49.3z"/>
			<path d="M97.7,53.3c1.1,0.2,2.3,0.3,3.6,0.3c0.8,0,4.3,0,5.4,0c-0.3,0.5-0.6,1.4-0.7,2h-4.7c-4.5,0-7.9-0.8-10.1-4.4
				c-0.7,1.8-1.7,3.5-3.2,4.6c-0.4-0.4-1-1.1-1.5-1.4c2.5-1.9,3.5-5.6,3.8-8.6l2.1,0.3c-0.1,0.9-0.3,1.8-0.6,2.7
				c0.8,2,2.1,3.3,3.7,4v-8.4h-6.4v-7.6h15.1v7.6h-6.6v3.1h7.3v1.9h-7.3L97.7,53.3L97.7,53.3z M91.3,42.3h10.9v-3.7H91.3V42.3z"/>
			<path d="M116.6,52.5c-2.8,0.7-5.8,1.5-8,2.1l-0.4-1.9l1.1-0.2v-7.2h1.6v6.8l1.3-0.3v-8.4h-2.8v-7h6.7v7h-2.2v2.8h2.3v1.7h-2.3
				v3.5l2.4-0.6L116.6,52.5z M111.1,41.7h3.2v-3.6h-3.2V41.7z M125.2,41.1v12.4c0,1-0.2,1.6-0.8,1.9c-0.6,0.3-1.6,0.4-3.1,0.4
				c0-0.5-0.3-1.4-0.6-2c1,0,1.9,0,2.2,0s0.4-0.1,0.4-0.4V41.1h-1.5v3.4c0,3.8-0.6,8.1-4.8,11.3c-0.3-0.4-1-1-1.4-1.3
				c4-2.9,4.5-6.8,4.5-10V41h-3.3v-2h5.3c-0.2-0.9-0.7-2.1-1.3-3.1l1.9-0.5c0.6,1,1.2,2.4,1.4,3.2l-1.1,0.3h5.5v2h-3.3V41.1z
				 M119.4,43.8c-0.4,2.6-1.2,5.1-2.3,6.7c-0.3-0.3-1.1-0.8-1.5-0.9c1-1.5,1.7-3.8,2-6.1L119.4,43.8z M126.8,43.3
				c1,2,1.8,4.6,2.1,6.4l-1.8,0.7c-0.2-1.8-1-4.4-2-6.4L126.8,43.3z"/>
			<path d="M150,39c0,0,0,0.7,0,1c-0.3,9.9-0.6,13.3-1.5,14.4c-0.6,0.7-1.1,0.9-1.9,1c-0.8,0.1-2.1,0.1-3.3,0c0-0.6-0.3-1.4-0.7-2
				c1.4,0.1,2.7,0.1,3.2,0.1c0.4,0,0.7-0.1,0.9-0.4c0.7-0.7,1-4,1.3-12.3h-5.1c-0.6,1.4-1.3,2.7-2,3.7c-0.3-0.3-1.1-0.9-1.6-1.1
				v10.1h-6v1.7h-1.9V39.1h2.5c0.3-1.1,0.6-2.5,0.8-3.6l2.2,0.4c-0.4,1.1-0.8,2.3-1.1,3.2h3.5v4.2c1.5-1.9,2.6-4.8,3.3-7.7l2,0.5
				c-0.3,1-0.6,2-0.9,3h6.3V39z M133.3,40.9v4.2h4.1v-4.2H133.3z M137.4,51.7v-4.9h-4.1v4.9H137.4z M144.7,50
				c-0.6-1.3-2-3.5-3.2-5.1l1.6-0.9c1.2,1.5,2.7,3.6,3.3,4.9L144.7,50z"/>
			<path d="M159,51.5h4.2v1.6H159v2.7h-1.7v-2.7h-4.6v-1.6h4.6v-0.9h-3.6v-6.1h3.6v-0.9H153v-1.5h4.3v-1.3h1.3
				c-0.5-0.5-1.1-1.1-1.6-1.5l0.8-0.7h-1.6c-0.7,1.1-1.5,2.1-2.3,2.8c-0.3-0.4-1-1-1.4-1.4c1.3-1.1,2.5-2.9,3.2-4.7l1.8,0.5
				c-0.2,0.4-0.3,0.7-0.5,1.1h5.3v1.6h-3.7c0.7,0.6,1.5,1.2,1.9,1.7l-1.3,1.2c-0.1-0.1-0.1-0.2-0.2-0.3v0.7h4.1v1.5H159v1.2h3.5v6.1
				H159V51.5z M155.3,46.9h1.9v-1.2h-1.9V46.9z M157.3,49.3v-1.2h-1.9v1.2H157.3z M159,45.7v1.2h1.8v-1.2H159z M160.8,48.1H159v1.2
				h1.8V48.1z M165.4,38.6c-0.6,1.1-1.3,2-2,2.7c-0.3-0.3-1.1-0.9-1.5-1.2c1.3-1.1,2.3-2.9,2.9-4.8l1.9,0.5
				c-0.1,0.4-0.3,0.8-0.4,1.2h6.3v1.6h-4.3c0.7,0.5,1.4,1.2,1.8,1.7l-1.4,1.2c-0.5-0.6-1.4-1.5-2.2-2.1l1-0.8
				C167.5,38.6,165.4,38.6,165.4,38.6z M169.9,53.4c0.8,0,0.9-0.5,1-2.8c0.4,0.3,1.3,0.7,1.8,0.8c-0.2,2.9-0.8,3.9-2.7,3.9h-3.4
				c-2.1,0-2.8-0.6-2.8-2.9V41.7h7.3v6.4c0,0.9-0.2,1.5-0.8,1.8c-0.7,0.3-1.7,0.4-3.1,0.4c-0.1-0.5-0.4-1.4-0.7-1.9c1,0,2,0,2.3,0
				s0.4-0.1,0.4-0.4v-4.5h-3.5v8.9c0,0.9,0.2,1,1.1,1H169.9z"/>
			<path d="M181.3,51.3h-4.8v2h-1.4v-16h6.2V51.3z M176.5,39v4.4h1.1V39H176.5z M176.5,49.6h1.1v-4.5h-1.1V49.6z M179.9,39h-1.1v4.4
				h1.1V39z M179.9,49.6v-4.5h-1.1v4.5H179.9z M192.7,48.8v1.3h1.8v1.4h-1.8v2.7c0,0.8-0.1,1.2-0.6,1.4s-1.3,0.2-2.4,0.2
				c-0.1-0.4-0.3-1-0.5-1.4c0.7,0,1.3,0,1.6,0c0.2,0,0.3-0.1,0.3-0.3v-2.6h-3.7v-1.4h3.7v-1.3h-9.3v-1.3h13v1.3H192.7z M192,44.4
				c0.2-0.5,0.4-1.1,0.5-1.7h-10.7v-1.3H193l0.3-0.1l1.2,0.3c-0.3,1.1-0.7,2.4-1.1,3.2L192,44.4z M187,38.2h-5v-1.3h5v-1.4h1.9v1.4
				h5.3v1.3h-5.3v1h4.5v1.3h-10.5v-1.3h4.1V38.2z M186.8,54h-3.1v1h-1.5v-5.4h4.6V54z M186.9,45.6v-1h-3.4v-1.1h8.4v1.1h-3.3v1h4.5
				v1.1h-10.8v-1.1H186.9z M183.7,50.9v1.8h1.6v-1.8H183.7z M188.8,51.5c0.6,0.6,1.2,1.4,1.5,2l-1.3,0.8c-0.3-0.6-0.9-1.5-1.5-2.1
				L188.8,51.5z"/>
			<path d="M8.5,70.5c0.9,0,1.6,0.7,1.6,1.6s-0.7,1.6-1.6,1.6S6.9,73,6.9,72.1C7,71.2,7.7,70.5,8.5,70.5z"/>
			<path d="M30.1,67.3H21v-1.6h4.1c-0.3-0.8-1-2.1-1.6-3l1.6-0.8c0.6,0.9,1.3,2.1,1.6,2.9l-1.6,0.9h5C30.1,65.7,30.1,67.3,30.1,67.3
				z M21.9,70.2v-1.6h7.2v1.6H21.9z M29.1,73.1h-7.2v-1.6h7.2V73.1z M29.2,80.9h-5.3v1h-1.8v-7.4h7.1V80.9z M23.8,76.1v3.1h3.6v-3.1
				H23.8z M40.5,71.4h-4.3v10.8h-2.1V71.4H30v-2h4.1v-7h2.1v7h4.3V71.4z"/>
			<path d="M62.5,65h-3.4c0.5,0.5,1,1.1,1.2,1.5L59,67.1h1.1v8.3h-2.6v1.7h4.8v1.4h-4.8v3.6h-2.1v-3.6H50c-0.6,1.4-2,2.7-5.2,3.7
				c-0.3-0.4-0.8-1.1-1.3-1.5c2.4-0.6,3.5-1.4,4.1-2.2h-4.8v-1.7h5.4v-0.1v-1.5h-2.8v-8.3h3.2c-0.2-0.4-0.5-1.1-0.8-1.5l1.5-0.5h-3
				c-0.8,1.2-1.7,2.2-2.6,3c-0.3-0.4-0.9-1.2-1.3-1.6c1.4-1.1,2.7-2.8,3.4-4.6l1.9,0.6c-0.2,0.4-0.3,0.7-0.5,1h5.6v1.5h-3.3
				c0.3,0.5,0.7,1.1,0.9,1.5L48.9,67h4.6c-0.5-0.3-1.1-0.7-1.6-0.9c1.3-1,2.5-2.6,3.1-4.3l2,0.5c-0.2,0.4-0.3,0.8-0.5,1.1h6V65z
				 M58,68.3H47.5v1H58V68.3z M58,70.5H47.5v1.1H58V70.5z M58,72.8H47.5v1.1H58V72.8z M55.4,75.2h-5.1v1.6v0.1h5.1V75.2z M58.5,67
				c-0.3-0.5-0.7-1.1-1.2-1.5l1.1-0.5h-2.9c-0.5,0.8-1.1,1.5-1.7,2H58.5z"/>
			<path d="M68.6,72.1c-0.9-0.6-2.7-1.7-4-2.4l1.1-1.5c1.3,0.6,3.1,1.6,4,2.2L68.6,72.1z M64.9,80.5c1.2-1.6,2.9-4.5,4.1-7l1.5,1.4
				c-1.1,2.3-2.6,4.9-3.9,7L64.9,80.5z M69.6,66.2c-0.9-0.6-2.7-1.7-4-2.4l1.1-1.5c1.3,0.6,3.1,1.6,4.1,2.2L69.6,66.2z M78.7,70.3
				v3.3h4.5v8.5h-1.9v-0.8H74v0.9h-1.9v-8.6h4.6v-3.3h-6.1v-2h6.1v-3.1c-1.5,0.2-3.1,0.4-4.6,0.5c-0.1-0.5-0.4-1.3-0.6-1.7
				c3.8-0.4,8-1.1,10.5-2l1.6,1.6c-1.4,0.5-3.1,0.9-5,1.3v3.5h5.8v2h-5.7V70.3z M81.3,75.4H74v4h7.3V75.4z"/>
			<path d="M106.2,67c0,0,0,0.7,0,0.9c-0.2,9.1-0.4,12.2-1.1,13.2c-0.4,0.7-0.9,0.8-1.6,0.9s-1.7,0.1-2.7,0c0-0.6-0.3-1.4-0.6-1.9
				c1,0.1,1.9,0.1,2.3,0.1c0.4,0,0.6-0.1,0.8-0.4c0.5-0.6,0.7-3.4,0.9-11h-2.6c-0.3,5.9-1.3,10.5-5.1,13.4c-0.3-0.5-1-1.2-1.5-1.5
				c0.1-0.1,0.3-0.2,0.4-0.3c-3.2,0.4-6.3,0.7-8.7,0.9l-0.3-1.7c1.3-0.1,2.9-0.2,4.6-0.4v-1.7h-4V76h4v-1.1h-3.9v-6.6H91v-1.1h-4.5
				v-1.5H91v-1.2c-1.3,0.1-2.7,0.2-3.9,0.2c-0.1-0.4-0.3-1.1-0.5-1.5c3.3-0.2,7.2-0.6,9.4-1.1l1,1.5c-1.2,0.2-2.6,0.5-4.1,0.6v1.4
				h4.4v1.3h2.3c0-1.5,0-3.1,0-4.7h2c0,1.6,0,3.2,0,4.7L106.2,67L106.2,67z M88.8,71.1h2.3v-1.3h-2.3V71.1z M91.1,73.7v-1.3h-2.3
				v1.3H91.1z M92.9,79.1c1.4-0.1,2.8-0.3,4.2-0.4c1.8-2.5,2.4-5.8,2.5-9.8h-2.3v-1.6h-4.4v1.1H97V75h-4.1v1.1H97v1.5h-4.1V79.1z
				 M95.3,71.1v-1.3h-2.4v1.3H95.3z M92.9,72.3v1.3h2.4v-1.3H92.9z"/>
			<path d="M128,65.4c0,0,0,0.7,0,1c-0.3,9.9-0.6,13.3-1.5,14.4c-0.6,0.7-1.1,0.9-1.9,1c-0.8,0.1-2.1,0.1-3.3,0c0-0.6-0.3-1.4-0.7-2
				c1.4,0.1,2.7,0.1,3.2,0.1c0.4,0,0.7-0.1,0.9-0.4c0.7-0.7,1-4,1.3-12.3h-5.1c-0.6,1.4-1.3,2.7-2,3.7c-0.3-0.3-1.1-0.9-1.6-1.1
				v10.1h-6v1.7h-1.9V65.5h2.5c0.3-1.1,0.6-2.5,0.8-3.6l2.2,0.4c-0.4,1.1-0.8,2.3-1.1,3.2h3.5v4.2c1.5-1.9,2.6-4.8,3.3-7.7l2,0.5
				c-0.3,1-0.6,2-0.9,3L128,65.4L128,65.4z M111.3,67.3v4.2h4.1v-4.2H111.3z M115.4,78.1v-4.9h-4.1v4.9H115.4z M122.7,76.4
				c-0.6-1.3-2-3.5-3.2-5.1l1.6-0.9c1.2,1.5,2.7,3.6,3.3,4.9L122.7,76.4z"/>
			<path d="M133.8,79.5v1.7h-1.7v-7.4c-0.3,0.5-0.7,1-1,1.5c-0.1-0.5-0.5-1.7-0.8-2.3c1.5-2,2.4-4.9,3-8h-2.6v-1.8h7.4V65h-2.9
				c-0.3,1.7-0.8,3.3-1.3,4.9h3.7v9.6H133.8z M136,71.6h-2.2v6.1h2.2V71.6z M142.2,76.7c-0.4-0.8-1.1-2.2-1.8-3.3
				c0,2.7-0.4,6.4-2,8.8c-0.3-0.3-1.1-0.8-1.6-1c1.6-2.4,1.7-5.9,1.7-8.3v-4.4h11.7v1.7h-9.9v2.6v0.1l1.1-0.6c0.7,1.1,1.6,2.6,2,3.5
				L142.2,76.7z M149.8,67.2H139v-4.6h1.8v2.9h2.6v-3.6h1.8v3.6h2.6v-2.9h1.9L149.8,67.2L149.8,67.2z M146.2,71
				c0,1.2-0.1,2.4-0.3,3.4c0.8,2.7,2.4,5,4.6,6.1c-0.4,0.4-0.9,1-1.2,1.5c-1.7-1-3.1-2.8-4-4.8c-0.7,2.1-1.9,3.8-4.2,4.9
				c-0.2-0.5-0.7-1.1-1.1-1.5c3.7-1.8,4.2-5.1,4.4-9.6H146.2z M146.7,75.7c0.7-0.9,1.7-2.4,2.2-3.4l1.6,1.1
				c-0.9,1.1-1.8,2.4-2.6,3.2L146.7,75.7z"/>
			<path d="M163.7,79.7c1.1,0.2,2.3,0.3,3.6,0.3c0.8,0,4.3,0,5.4,0c-0.3,0.5-0.6,1.4-0.7,2h-4.7c-4.5,0-7.9-0.8-10.1-4.4
				c-0.7,1.8-1.7,3.5-3.2,4.6c-0.4-0.4-1-1.1-1.5-1.4c2.5-1.9,3.5-5.6,3.8-8.6l2.1,0.3c-0.1,0.9-0.3,1.8-0.6,2.7
				c0.8,2,2.1,3.3,3.7,4v-8.4h-6.4v-7.6h15.1v7.6h-6.6v3.1h7.3v1.9h-7.3L163.7,79.7L163.7,79.7z M157.3,68.7h10.9V65h-10.9V68.7z"/>
			<path d="M182.6,78.9c-2.8,0.7-5.8,1.5-8,2.1l-0.4-1.9l1.1-0.2v-7.2h1.6v6.8l1.3-0.3v-8.4h-2.8v-7h6.7v7h-2.2v2.8h2.3v1.7h-2.3
				v3.5l2.4-0.6L182.6,78.9z M177.1,68.1h3.2v-3.6h-3.2V68.1z M191.2,67.5V80c0,1-0.2,1.6-0.8,1.9s-1.6,0.4-3.1,0.4
				c0-0.5-0.3-1.4-0.6-2c1,0,1.9,0,2.2,0s0.4-0.1,0.4-0.4V67.5h-1.5V71c0,3.8-0.6,8.1-4.8,11.3c-0.3-0.4-1-1-1.4-1.3
				c4-2.9,4.5-6.8,4.5-10v-3.5h-3.3v-2h5.3c-0.2-0.9-0.7-2.1-1.3-3.1l1.9-0.5c0.6,1,1.2,2.4,1.4,3.2l-1.1,0.3h5.5v2L191.2,67.5
				L191.2,67.5z M185.4,70.2c-0.4,2.6-1.2,5.1-2.3,6.7c-0.3-0.3-1.1-0.8-1.5-0.9c1-1.5,1.7-3.8,2-6.1L185.4,70.2z M192.8,69.7
				c1,2,1.8,4.6,2.1,6.4l-1.8,0.7c-0.2-1.8-1-4.4-2-6.4L192.8,69.7z"/>
			<path d="M8.5,96.9c0.9,0,1.6,0.7,1.6,1.6s-0.7,1.6-1.6,1.6s-1.6-0.7-1.6-1.6C7,97.6,7.7,96.9,8.5,96.9z"/>
			<path d="M25,95.9v12.6h-2V95.9h-2.6V94H23v-5.6h2V94h2.4v1.9H25z M33,99.8c0,0,0,0.5,0,0.7c-0.2,5-0.3,6.8-0.8,7.4
				c-0.3,0.4-0.6,0.6-1.1,0.6c-0.4,0.1-1,0.1-1.7,0c0-0.5-0.2-1.2-0.4-1.6c0.6,0.1,1,0.1,1.3,0.1c0.2,0,0.4,0,0.5-0.2
				c0.3-0.4,0.4-1.7,0.5-5.4h-1.4c-0.4,3.1-1.2,5.5-3.1,7.3c-0.2-0.4-0.7-1-1.1-1.3c1.6-1.4,2.2-3.4,2.5-6h-1.9v-1.6h2
				c0-0.7,0.1-1.4,0.1-2.2h1.7c0,0.7,0,1.5-0.1,2.2H33z M33.8,92.3c-0.8,2.4-2.3,4.1-5.4,5.2c-0.2-0.4-0.7-1.1-1-1.4
				c2.5-0.9,3.8-2.1,4.5-3.8h-3.6v-1.7h4c0.1-0.7,0.2-1.5,0.3-2.3h1.9c0,0.8-0.1,1.6-0.3,2.3h5.3c0,0,0,0.5-0.1,0.7
				c-0.3,3.2-0.6,4.6-1.1,5.1c-0.4,0.4-0.8,0.6-1.4,0.6c-0.5,0-1.4,0.1-2.4,0c0-0.5-0.2-1.3-0.5-1.7c1,0.2,1.9,0.2,2.2,0.2
				s0.5,0,0.7-0.2c0.3-0.3,0.5-1.1,0.7-3H33.8z M40.4,99.8c0,0,0,0.5,0,0.7c-0.1,4.9-0.3,6.7-0.7,7.3c-0.3,0.4-0.7,0.6-1.2,0.6
				c-0.4,0.1-1.1,0.1-1.8,0c0-0.5-0.2-1.2-0.4-1.7c0.6,0.1,1.1,0.1,1.4,0.1c0.3,0,0.4,0,0.6-0.2c0.3-0.4,0.4-1.7,0.5-5.4h-1.6
				c-0.4,3.1-1.3,5.5-3.3,7.2c-0.2-0.4-0.7-1-1.1-1.3c1.7-1.4,2.3-3.3,2.6-5.9h-1.8v-1.6h1.9c0-0.7,0.1-1.5,0.1-2.2h1.8
				c0,0.8,0,1.5-0.1,2.2h3.1V99.8z"/>
			<path d="M52.5,104.1c-3.5,0.8-7.1,1.7-9.8,2.3l-0.4-2.1c0.5-0.1,1-0.2,1.6-0.3V89.4h7.3v13.1l1.1-0.2L52.5,104.1z M45.7,91.2V94
				h3.6v-2.8H45.7z M49.3,95.8h-3.6v2.8h3.6V95.8z M45.7,103.7c1.1-0.2,2.3-0.5,3.6-0.7v-2.6h-3.6V103.7z M62,93.2c0,0,0,0.7,0,1
				c-0.2,9.1-0.4,12.3-1.1,13.2c-0.5,0.7-0.9,0.9-1.7,1c-0.7,0.1-1.8,0.1-3,0c0-0.6-0.3-1.4-0.6-2c1.1,0.1,2.2,0.1,2.7,0.1
				c0.4,0,0.6,0,0.8-0.3c0.5-0.6,0.7-3.5,0.9-11h-2.9c-0.4,5.7-1.5,10.6-5.9,13.5c-0.3-0.5-0.9-1.2-1.4-1.6c4-2.5,5-6.8,5.3-11.9
				h-3.2v-1.9h3.3c0-1.5,0-3.2,0-4.8h2c0,1.6,0,3.3,0,4.8L62,93.2L62,93.2z"/>
			<path d="M68.6,98.5c-0.9-0.6-2.7-1.7-4-2.4l1.1-1.5c1.3,0.6,3.1,1.6,4,2.2L68.6,98.5z M64.9,106.9c1.2-1.6,2.9-4.5,4.1-7l1.5,1.4
				c-1.1,2.3-2.6,4.9-3.9,7L64.9,106.9z M69.6,92.6c-0.9-0.6-2.7-1.7-4-2.4l1.1-1.5c1.3,0.6,3.1,1.6,4.1,2.2L69.6,92.6z M78.7,96.7
				v3.3h4.5v8.5h-1.9v-0.8H74v0.9h-1.9V100h4.6v-3.3h-6.1v-2h6.1v-3.1c-1.5,0.2-3.1,0.4-4.6,0.5c-0.1-0.5-0.4-1.3-0.6-1.7
				c3.8-0.4,8-1.1,10.5-2l1.6,1.6c-1.4,0.5-3.1,0.9-5,1.3v3.5h5.8v2h-5.7V96.7z M81.3,101.8H74v4h7.3V101.8z"/>
			<path d="M106.2,93.4c0,0,0,0.7,0,0.9c-0.2,9.1-0.4,12.2-1.1,13.2c-0.4,0.7-0.9,0.8-1.6,0.9s-1.7,0.1-2.7,0c0-0.6-0.3-1.4-0.6-1.9
				c1,0.1,1.9,0.1,2.3,0.1c0.4,0,0.6-0.1,0.8-0.4c0.5-0.6,0.7-3.4,0.9-11h-2.6c-0.3,5.9-1.3,10.5-5.1,13.4c-0.3-0.5-1-1.2-1.5-1.5
				c0.1-0.1,0.3-0.2,0.4-0.3c-3.2,0.4-6.3,0.7-8.7,0.9l-0.3-1.7c1.3-0.1,2.9-0.2,4.6-0.4v-1.7h-4v-1.4h4v-1.1h-3.9v-6.6H91v-1.1
				h-4.5v-1.5H91V91c-1.3,0.1-2.7,0.2-3.9,0.2c-0.1-0.4-0.3-1.1-0.5-1.5c3.3-0.2,7.2-0.6,9.4-1.1l1,1.5c-1.2,0.2-2.6,0.5-4.1,0.6
				v1.4h4.4v1.3h2.3c0-1.5,0-3.1,0-4.7h2c0,1.6,0,3.2,0,4.7C101.6,93.4,106.2,93.4,106.2,93.4z M88.8,97.5h2.3v-1.3h-2.3V97.5z
				 M91.1,100.1v-1.3h-2.3v1.3H91.1z M92.9,105.5c1.4-0.1,2.8-0.3,4.2-0.4c1.8-2.5,2.4-5.8,2.5-9.8h-2.3v-1.7h-4.4v1.1H97v6.6h-4.1
				v1.1H97v1.5h-4.1V105.5z M95.3,97.5v-1.3h-2.4v1.3H95.3z M92.9,98.7v1.3h2.4v-1.3H92.9z"/>
			<path d="M114.1,99c-0.3,1.9-0.9,3.9-1.6,5.5c0.4,0.2,0.8,0.6,1.5,1c1.5,0.9,3.5,1.1,6.1,1.1c2.7,0,6.4-0.2,8.8-0.5
				c-0.2,0.5-0.6,1.6-0.6,2.1c-1.7,0.1-5.7,0.2-8.3,0.2c-2.9,0-4.8-0.2-6.4-1.2c-0.9-0.5-1.7-1.3-2.2-1.3s-1.3,1.4-1.8,2.8l-1.4-1.9
				c0.8-1.1,1.6-2,2.4-2.4c0.5-1.2,1-2.8,1.3-4.2h-2.8c0.6-1.3,1.3-3.1,1.8-4.8h-2.3v-1.8h4.9c-0.5,1.6-1.1,3.4-1.7,4.9h0.8l0.3-0.1
				L114.1,99z M110.9,92.7c-0.2-1-0.8-2.5-1.1-3.7l1.8-0.5c0.4,1.1,0.9,2.6,1.2,3.5L110.9,92.7z M116.1,93.2h-1.8v-4.1H128v4.1h-2
				v-2.6h-9.9v1.8h4v-1h2v1h3.8v1.5h-3.8V95h4.7v6.3h-4.7v1.1h5.9v1.5h-5.9v1.7h-2v-1.7h-5.8v-1.5h5.8v-1.1h-4.7V95h4.7v-1.1h-4.2
				v-0.7H116.1z M117.3,97.5h2.9v-1.2h-2.9V97.5z M120.2,100v-1.2h-2.9v1.2H120.2z M122.2,96.3v1.2h2.9v-1.2H122.2z M125.1,98.8
				h-2.9v1.2h2.9V98.8z"/>
			<path d="M146.3,88.4c-0.1,1.3-0.2,2.5-0.6,3.5c1.5,0.7,3.4,1.8,4.4,2.4l-1,1.1h0.7v4h-2v-2.5h-14.4v2.5h-2v-4h0.2
				c-0.2-0.4-0.6-1-0.9-1.3c3.8-0.9,4.4-2.4,4.6-5.7h1.8c-0.1,1.4-0.2,2.6-0.6,3.5c1.1,0.6,2.5,1.5,3.3,2l-1.3,1.3
				c-0.6-0.5-1.8-1.3-2.8-1.9c-0.7,0.9-1.8,1.6-3.5,2.1h8.8c-0.2-0.5-0.6-1.1-1-1.5c3.8-0.8,4.3-2.4,4.5-5.5H146.3z M132.8,91.9
				c-0.4-0.6-1.1-1.5-1.7-2.2l1.2-0.9c0.6,0.7,1.3,1.5,1.7,2L132.8,91.9z M139.9,103.3h8.5v5.2h-2v-0.6h-11.3v0.6h-1.9v-5.3h4.9
				c0.2-0.3,0.3-0.7,0.5-1.1h-3.9v-4.2h11.8v4.2h-6L139.9,103.3z M146.4,104.8h-11.3v1.7h11.3V104.8z M136.6,100.9h7.9v-1.5h-7.9
				V100.9z M140.4,90c-0.7,0.8-1.4,1.7-1.9,2.2l-1.2-0.5c0.5-0.6,1.1-1.6,1.5-2.3L140.4,90z M142.1,91.8c-0.4-0.5-1.1-1.5-1.7-2.2
				l1.2-0.9c0.6,0.7,1.4,1.5,1.8,2L142.1,91.8z M148.5,95.4c-0.9-0.6-2.3-1.5-3.6-2.1c-0.8,0.9-2,1.6-3.9,2.1H148.5z M150.1,90
				c-0.7,0.8-1.5,1.7-2.1,2.3l-1.2-0.6c0.5-0.6,1.2-1.7,1.6-2.3L150.1,90z"/>
			<path d="M172.2,92.4h-12.9c0.4,0.7,1,1.7,1.3,2.3l-1.6,0.6h5.3c0.5-0.9,1.1-2.1,1.4-2.9l2,0.4c-0.5,0.8-1,1.7-1.5,2.5h4.9v11.2
				c0,1-0.2,1.4-0.9,1.7s-1.8,0.3-3.7,0.3c-0.1-0.5-0.4-1.1-0.6-1.6c1.3,0,2.5,0,2.8,0c0.4,0,0.5-0.1,0.5-0.4V97h-4v1.1
				c0,0.5,0,0.7,0.4,0.7h1.6c0.3,0,0.9,0,1.3-0.1c0,0.5,0.1,1,0.1,1.4c-0.3,0.1-0.9,0.1-1.3,0.1h-2c-1.5,0-1.8-0.7-1.8-2.1v-1h-2.1
				c-0.3,2.2-1.3,3.4-4.3,4c-0.2-0.4-0.5-1.1-0.9-1.4v8.9h-1.9V95.3h4.7c-0.3-0.7-0.8-1.7-1.2-2.4l1.5-0.5h-6.4v-1.7h8.9
				c-0.2-0.6-0.5-1.3-0.7-1.9l2-0.5c0.3,0.7,0.7,1.7,0.9,2.4h8.2L172.2,92.4L172.2,92.4z M156,99.6c2.4-0.4,3.2-1.2,3.5-2.6H156
				V99.6z M160.1,105.8v1h-1.7v-6.1h8.2v5.1H160.1z M160.1,102.2v2.2h4.8v-2.2H160.1z"/>
			<path d="M194.5,94.5V96h-3.8l-0.2,1.8h-12.6l0.2-1.8h-3.5v-1.5h3.7l0.2-1.8h12.4l-0.2,1.8H194.5z M187.7,105.6
				c2.2,0.6,4.5,1.3,6,1.8l-1.4,1.3c-1.5-0.6-4.1-1.5-6.6-2.1l0.9-0.9h-4.5l1.3,0.9c-1.8,1-4.8,1.8-7.3,2.2c-0.2-0.4-0.7-1-1.1-1.4
				c2.1-0.3,4.8-1,6.3-1.7h-3.8v-7h14v7h-3.8V105.6z M177.2,93.9h-1.8v-3.6h8.2c-0.2-0.5-0.6-1.1-0.8-1.5l1.8-0.5
				c0.5,0.6,0.9,1.4,1.2,2h8v3.6h-1.9v-2h-14.6L177.2,93.9L177.2,93.9z M179.6,100.6h10v-0.8h-10V100.6z M179.6,102.5h10v-0.9h-10
				V102.5z M179.6,104.5h10v-0.9h-10V104.5z M179.9,96.7h3.6c0-0.3,0.1-0.6,0.1-0.9H180L179.9,96.7z M180.3,93.9l-0.1,0.8h3.6
				l0.1-0.8H180.3z M188.7,96.7l0.1-0.9h-3.5c0,0.3-0.1,0.6-0.1,0.9H188.7z M189,93.9h-3.5l-0.1,0.8h3.5L189,93.9z"/>
			<path d="M204.7,96.5c0,0,0,0.6,0,0.8c-0.1,7.1-0.2,9.6-0.8,10.4c-0.4,0.5-0.7,0.7-1.3,0.8c-0.6,0.1-1.4,0.1-2.3,0.1
				c0-0.6-0.2-1.3-0.5-1.8c0.8,0.1,1.5,0.1,1.8,0.1s0.5,0,0.7-0.3c0.3-0.4,0.5-2.5,0.6-8.2h-2.2c-0.3,4.1-1,7.7-2.8,10.2
				c-0.3-0.5-1-1.1-1.5-1.4c2.2-3,2.4-8.2,2.5-13.4h-2.3v-1.9h8.7v1.9h-4.5c0,0.9,0,1.8-0.1,2.8L204.7,96.5L204.7,96.5z M201.4,88.4
				c0.4,0.9,0.9,2.1,1.1,2.9l-1.9,0.6c-0.2-0.8-0.6-2-1.1-3L201.4,88.4z M213.8,106.8c0.9,0,1.1-0.4,1.2-2.4
				c0.4,0.3,1.2,0.6,1.7,0.7c-0.2,2.7-0.8,3.4-2.8,3.4h-4.2c-2.4,0-3-0.6-3-2.8v-4.9l-1.1,0.5l-0.7-1.7l1.9-0.9v-3.1
				c-0.2,0.3-0.4,0.6-0.7,0.8c-0.3-0.4-1.1-1.1-1.6-1.5c1.5-1.6,2.6-4.1,3.2-6.8l2,0.4c-0.2,0.9-0.5,1.7-0.7,2.6h7.4v1.8h-8.2
				c-0.4,0.9-0.8,1.7-1.3,2.4h1.7v2.5l1.7-0.8v-3.3h1.7v2.5l2-1l0.4-0.3l1.4,0.4l-0.1,0.3c0,2.4-0.2,5.6-0.5,7.5l-1.5-0.3
				c0.1-1.4,0.2-3.6,0.2-5.6l-1.9,0.9v6.4h-1.7v-5.6l-1.7,0.8v5.7c0,0.9,0.2,1,1.3,1h3.9V106.8z"/>
			<path d="M238.3,91.9h-2.6v13.9c0,1.3-0.3,2-1.3,2.3c-0.9,0.4-2.5,0.4-4.7,0.4c-0.1-0.6-0.5-1.6-0.9-2.2c1.7,0.1,3.5,0.1,4,0.1
				s0.6-0.2,0.6-0.6V91.9h-14.8v-2h19.5v2H238.3z M222.9,103.1v1.7h-2v-10h9.1v8.3H222.9z M222.9,96.8v4.4h5.1v-4.4H222.9z"/>
			<path d="M247.3,99.6l-2.2,0.7v5.8c0,1-0.2,1.6-0.8,1.9c-0.6,0.3-1.5,0.4-2.9,0.4c-0.1-0.5-0.3-1.4-0.6-1.9c0.9,0,1.7,0,2,0
				s0.4-0.1,0.4-0.4v-5.2l-2.6,0.8l-0.5-2c0.8-0.2,1.9-0.5,3-0.9v-4.3h-2.7v-1.9h2.7v-4.2h1.9v4.2h2.1v1.9H245v3.8l1.9-0.6
				L247.3,99.6z M260.6,91.1V93h-5.5v2.2h4.5v1.9h-11v-1.9h4.5V93h-5.6v-1.9h5.6v-2.6h2v2.6H260.6z M257.9,99.3h2.6v1.9h-2.6v5.1
				c0,1.1-0.2,1.7-0.9,2c-0.7,0.3-1.8,0.3-3.4,0.3c-0.1-0.6-0.4-1.4-0.6-1.9c1.1,0,2.3,0,2.6,0c0.3,0,0.4-0.1,0.4-0.4v-5.1h-8.2
				v-1.9h8.2v-1.7h1.9V99.3z M250.8,101.6c0.8,1.2,1.9,2.7,2.5,3.7l-1.7,1c-0.5-1-1.5-2.7-2.4-3.9L250.8,101.6z"/>
			<path d="M265,102.8c-0.2,2-0.6,4.2-1.1,5.6c-0.4-0.2-1.1-0.4-1.5-0.5c0.5-1.4,0.8-3.5,1-5.4L265,102.8z M268.5,101.9
				c0-0.4-0.1-0.7-0.2-1.2c-4.1,0.6-4.8,0.8-5.2,1c-0.1-0.4-0.4-1.2-0.6-1.7c0.5-0.1,0.9-0.7,1.6-1.5c0.3-0.4,0.9-1.2,1.5-2.3
				c-1.9,0.2-2.4,0.4-2.7,0.5c-0.1-0.4-0.4-1.2-0.6-1.7c0.4-0.1,0.7-0.5,1.1-1.2c0.4-0.6,1.8-3.1,2.5-5.5l1.7,0.7
				c-0.8,2-1.8,4-2.9,5.7l1.8-0.2c0.5-0.9,1-2,1.5-3l1.6,0.9c-1.2,2.5-2.8,5-4.4,7l2.7-0.4c-0.2-0.7-0.4-1.3-0.6-1.9l1.4-0.4
				c0.5,1.5,1,3.5,1.2,4.6L268.5,101.9z M266.9,102.5c0.3,1.6,0.5,3.7,0.6,5l-1.5,0.3c0-1.4-0.2-3.5-0.5-5.1L266.9,102.5z
				 M268.8,101.9c0.4,1.3,0.9,2.9,1.1,4l-1.4,0.4c-0.2-1.1-0.6-2.8-1.1-4.1L268.8,101.9z M278.3,105.4c1.6,0.6,3.2,1.2,4.3,1.7
				l-0.8,1.5c-1.2-0.6-3-1.4-4.7-2l0.7-1.1h-3.6l1.2,1.1c-1.7,0.8-3.8,1.6-5.3,2.2c-0.2-0.4-0.5-1-0.8-1.4c1.3-0.4,3.2-1.2,4.5-1.8
				h-3.2v-6.5h10.9v6.5h-3.2V105.4z M275.1,90.8h-5.4v-1.3h5.4v-1.1h2v1.1h5.1v1.4h-5.1v1h4.4v1.3h-10.9v-1.3h4.6v-1.1H275.1z
				 M269.8,93.9h12.4v4.2h-12.4V93.9z M271.5,96.8h2.1v-1.6h-2.1V96.8z M272.3,100.9h7.2v-0.8h-7.2V100.9z M272.3,102.5h7.2v-0.8
				h-7.2V102.5z M272.3,104.3h7.2v-0.9h-7.2V104.3z M277,96.8v-1.6h-1.9v1.6H277z M280.4,95.2h-1.8v1.6h1.8V95.2z"/>
			<path d="M304.5,94.5V96h-3.8l-0.2,1.8h-12.6l0.2-1.8h-3.5v-1.5h3.7l0.2-1.8h12.4l-0.2,1.8H304.5z M297.7,105.6
				c2.2,0.6,4.5,1.3,6,1.8l-1.4,1.3c-1.5-0.6-4.1-1.5-6.6-2.1l0.9-0.9h-4.5l1.3,0.9c-1.8,1-4.8,1.8-7.3,2.2c-0.2-0.4-0.7-1-1.1-1.4
				c2.1-0.3,4.8-1,6.3-1.7h-3.8v-7h14v7h-3.8V105.6z M287.2,93.9h-1.8v-3.6h8.2c-0.2-0.5-0.6-1.1-0.8-1.5l1.8-0.5
				c0.5,0.6,0.9,1.4,1.2,2h8v3.6h-1.9v-2h-14.6v2H287.2z M289.6,100.6h10v-0.8h-10V100.6z M289.6,102.5h10v-0.9h-10V102.5z
				 M289.6,104.5h10v-0.9h-10V104.5z M289.9,96.7h3.6c0-0.3,0.1-0.6,0.1-0.9H290L289.9,96.7z M290.3,93.9l-0.1,0.8h3.6l0.1-0.8
				H290.3z M298.7,96.7l0.1-0.9h-3.5c0,0.3-0.1,0.6-0.1,0.9H298.7z M299,93.9h-3.5l-0.1,0.8h3.5L299,93.9z"/>
			<path d="M314.6,105.2c-2.8,0.7-5.7,1.4-7.9,1.9l-0.4-1.9c0.3-0.1,0.6-0.1,1-0.2v-7.1h1.6v6.8l1.1-0.3v-8.3h-2.7v-7h6.6v7h-2v2.8
				h2.5v1.8h-2.5v3.3l2.6-0.6L314.6,105.2z M309.1,94.5h3.1V91h-3.1V94.5z M325.2,102.7c-0.9,1.1-2,2-3.3,2.9
				c0.8,0.7,1.7,1.1,2.6,1.1c0.5,0,0.7-0.6,0.9-2c0.4,0.4,1.1,0.8,1.5,1c-0.4,2.2-1.2,3-2.2,2.9c-1.8-0.1-3.3-0.9-4.6-2.1
				c-1.8,0.9-3.7,1.6-5.7,2.1c-0.2-0.4-0.7-1.3-1-1.7c1.9-0.4,3.9-1,5.6-1.8c-0.5-0.8-1-1.8-1.3-2.8l-3.3,0.2l-0.1-1.7l2.9-0.2
				c-0.3-1-0.5-2-0.6-3c-0.4,0.1-0.8,0.2-1.3,0.3c-0.2-0.4-0.7-1.2-1-1.6c1.7-0.3,3.4-0.8,4.9-1.4c-0.4-0.6-0.8-1.4-1.1-2.1
				l-3.5,0.3l-0.1-1.6l3.1-0.2c-0.3-0.9-0.5-2-0.7-3h1.9c0.2,1,0.4,2,0.7,2.9l3.9-0.3c-0.7-0.5-2-1.3-3-1.7l1.3-1
				c1.1,0.4,2.4,1.1,3.1,1.6l-1.1,1l2.6-0.2l0.1,1.6l-6.2,0.5c0.3,0.6,0.6,1.1,0.9,1.5c0.9-0.5,1.8-1,2.4-1.6l1.6,0.6
				c-0.8,0.8-1.8,1.5-2.9,2.2c0.7,0.6,1.5,0.9,2.4,0.9c0.4,0,0.6-0.5,0.8-1.7c0.4,0.4,1,0.8,1.5,1c-0.5,2-1.1,2.7-2.1,2.7
				c-1.8-0.1-3.2-0.8-4.4-2c-1.1,0.5-2.3,0.9-3.5,1.3h1.7c0.1,1.1,0.4,2,0.6,3l3.7-0.3c-0.7-0.6-2-1.4-3-1.8l1.3-0.9
				c1.1,0.4,2.4,1.2,3.1,1.7l-1.2,1l3.6-0.2l0.1,1.6l-6.9,0.5c0.3,0.7,0.7,1.5,1.1,2c1.1-0.6,2-1.4,2.7-2.3L325.2,102.7z"/>
		</g>
	</g>
	<g>
		<g>
			<path class="st1" d="M224.6,296.3c2-2,3.9-4,5.7-5.8c1.8-1.9,3.5-3.7,4.9-5.4c1.5-1.8,2.6-3.5,3.5-5.1s1.3-3.2,1.3-4.8
				c0-0.7-0.1-1.3-0.4-1.8c-0.2-0.5-0.6-1-1-1.4s-0.9-0.7-1.5-0.9c-0.6-0.2-1.2-0.3-2-0.3c-0.7,0-1.4,0.1-2,0.3
				c-0.6,0.2-1.1,0.5-1.4,0.8s-0.7,0.7-0.9,1.2c-0.2,0.4-0.3,0.8-0.3,1.3c0,1,0.2,1.9,0.5,2.7c0.4,0.8,0.8,1.5,1.4,2.1l-4.3,3.9
				c-0.9-0.4-1.7-1.2-2.4-2.3c-0.6-1.1-1.1-2.2-1.5-3.3c-0.3-1.2-0.5-2.2-0.5-2.9c0-1.8,0.5-3.4,1.4-5c1-1.6,2.4-2.9,4.3-3.9
				s4.2-1.5,6.9-1.5c2.2,0,4.1,0.5,5.8,1.5c1.6,1,2.9,2.3,3.8,3.9c0.9,1.6,1.4,3.3,1.4,5.1c0,1.4-0.2,2.8-0.7,4.2s-1.1,2.7-1.9,4
				c-0.8,1.3-1.6,2.6-2.6,3.8c-1,1.2-2,2.5-3.1,3.8l-3.2-0.9h11.8v6.7L224.6,296.3L224.6,296.3z M265.1,296.3c-1.8,0-3.6-0.3-5.2-1
				c-1.6-0.6-3-1.6-4.3-2.9c-1.2-1.3-2.2-3-2.9-5s-1.1-4.4-1.1-7.2c0-3.1,0.3-5.6,1-7.7s1.6-3.7,2.8-5c1.2-1.2,2.6-2.1,4.3-2.6
				c1.6-0.5,3.4-0.8,5.3-0.8c1.8,0,3.5,0.3,5.1,1c1.6,0.6,3.1,1.6,4.3,3c1.2,1.3,2.2,3,2.9,5c0.7,2,1.1,4.4,1.1,7.2
				c0,2.8-0.4,5.3-1.1,7.3c-0.7,2-1.7,3.7-2.9,5c-1.2,1.3-2.7,2.2-4.3,2.8C268.6,296,266.9,296.3,265.1,296.3z M265,289.7
				c1.6,0,2.8-0.4,3.7-1.2c0.9-0.9,1.5-2,1.9-3.5s0.6-3.1,0.6-4.9s-0.2-3.3-0.6-4.7c-0.4-1.4-1-2.5-1.9-3.3s-2.1-1.2-3.7-1.2
				s-2.8,0.4-3.7,1.2c-0.9,0.8-1.5,2-1.9,3.4s-0.5,3-0.5,4.8s0.2,3.4,0.5,4.8c0.4,1.4,1,2.6,1.9,3.5
				C262.2,289.2,263.4,289.7,265,289.7z M302,264.5l-7.2,13.8l-3.8-2.1c0.3-0.1,0.7-0.2,1-0.3c0.4-0.1,0.7-0.1,1.1-0.1
				c1.1,0,2.2,0.1,3.4,0.4c1.1,0.3,2.1,0.8,3,1.5s1.7,1.7,2.2,3c0.6,1.3,0.9,2.9,0.9,4.9c0,2.3-0.5,4.3-1.6,6
				c-1.1,1.6-2.4,2.9-4.2,3.7c-1.8,0.8-3.6,1.3-5.6,1.3c-1.6,0-3.2-0.3-4.9-1c-1.7-0.7-3.1-1.6-4.1-2.6l3.6-5.8
				c0.5,0.6,1.2,1.2,2.2,1.8c1,0.6,2,0.9,3.1,0.9c0.7,0,1.4-0.2,2.1-0.5s1.2-0.9,1.7-1.6s0.7-1.6,0.7-2.6c0-1.4-0.4-2.5-1.2-3.4
				c-0.8-0.8-1.9-1.2-3.3-1.2c-1,0-1.7,0-2.2,0.1s-1,0.2-1.4,0.3l-0.1-0.2l5.6-10.5l2,0.8h-10v-6.7h17V264.5z M320.5,296.3
				c-1.8,0-3.6-0.3-5.2-1c-1.6-0.6-3-1.6-4.3-2.9c-1.2-1.3-2.2-3-2.9-5c-0.7-2-1.1-4.4-1.1-7.2c0-3.1,0.3-5.6,1-7.7
				c0.7-2.1,1.6-3.7,2.8-5c1.2-1.2,2.6-2.1,4.3-2.6c1.6-0.5,3.4-0.8,5.3-0.8c1.8,0,3.5,0.3,5.1,1c1.6,0.6,3.1,1.6,4.3,3
				c1.2,1.3,2.2,3,2.9,5c0.7,2,1.1,4.4,1.1,7.2c0,2.8-0.4,5.3-1.1,7.3c-0.7,2-1.7,3.7-2.9,5c-1.2,1.3-2.7,2.2-4.3,2.8
				C324,296,322.3,296.3,320.5,296.3z M320.5,289.7c1.6,0,2.8-0.4,3.7-1.2c0.9-0.9,1.5-2,1.9-3.5s0.6-3.1,0.6-4.9s-0.2-3.3-0.6-4.7
				c-0.4-1.4-1-2.5-1.9-3.3s-2.1-1.2-3.7-1.2s-2.8,0.4-3.7,1.2c-0.9,0.8-1.5,2-1.9,3.4s-0.5,3-0.5,4.8s0.2,3.4,0.5,4.8
				c0.3,1.4,1,2.6,1.9,3.5C317.7,289.2,318.9,289.7,320.5,289.7z"/>
			<path class="st2" d="M279,343.3v-35"/>
			
				<linearGradient id="SVGID_00000120544721288472191060000008399636322187279279_" gradientUnits="userSpaceOnUse" x1="278.5001" y1="-556.81" x2="278.5001" y2="-577.81" gradientTransform="matrix(1 0 0 -1 0 -222.51)">
				<stop  offset="0" style="stop-color:#70AFE3"/>
				<stop  offset="1" style="stop-color:#6088DC"/>
			</linearGradient>
			<circle style="fill:url(#SVGID_00000120544721288472191060000008399636322187279279_);" cx="278.5" cy="344.8" r="10.5"/>
		</g>
		<g>
			<path class="st4" d="M251.2,394.8l-4.7-7.9h-3.6v7.9h-1.3v-17.5h5.1c3.5,0,5.8,1.3,5.8,4.7c0,2.8-1.7,4.4-4.4,4.8l4.7,8H251.2z
				 M243,385.7h3.3c3,0,4.7-1.2,4.7-3.7s-1.7-3.5-4.7-3.5H243V385.7z"/>
			<path class="st4" d="M254.7,388.4c0-4.2,2.7-6.7,5.6-6.7c3.1,0,4.9,2.2,4.9,6c0,0.4,0,0.7-0.1,1H256c0.1,3.1,1.9,5.3,4.7,5.3
				c1.4,0,2.4-0.4,3.4-1.1l0.5,1c-1,0.6-2.2,1.2-4.1,1.2C257.4,395.1,254.7,392.6,254.7,388.4z M264,387.5c0-3.1-1.4-4.7-3.6-4.7
				c-2.1,0-4,1.7-4.2,4.7H264z"/>
			<path class="st4" d="M267.6,388.4c0-4.1,2.6-6.7,5.7-6.7c1.5,0,2.6,0.6,3.8,1.6L277,381v-5.2h1.4v19.1h-1.2l-0.2-1.6l0,0
				c-1,1-2.4,1.9-4.1,1.9C269.7,395.1,267.6,392.7,267.6,388.4z M277,391.8v-7.4c-1.3-1.2-2.4-1.6-3.6-1.6c-2.4,0-4.3,2.4-4.3,5.5
				c0,3.3,1.5,5.5,4.1,5.5C274.5,393.8,275.7,393.1,277,391.8z"/>
			<path class="st4" d="M283,390.1v-8.2h1.4v8c0,2.6,0.8,3.8,2.8,3.8c1.5,0,2.5-0.8,4-2.5v-9.4h1.4v12.8h-1.2l-0.1-2.1h-0.1
				c-1.2,1.4-2.5,2.4-4.3,2.4C284.2,395.1,283,393.4,283,390.1z"/>
			<path class="st4" d="M296.3,388.4c0-4.3,2.8-6.7,5.9-6.7c1.7,0,2.9,0.8,3.7,1.6l-0.8,1c-0.8-0.7-1.7-1.3-2.9-1.3
				c-2.5,0-4.5,2.3-4.5,5.5s1.8,5.5,4.5,5.5c1.3,0,2.5-0.6,3.3-1.4l0.7,1c-1.1,1-2.5,1.7-4.1,1.7
				C298.8,395.1,296.3,392.6,296.3,388.4z"/>
			<path class="st4" d="M307.8,388.4c0-4.2,2.7-6.7,5.6-6.7c3.1,0,4.9,2.2,4.9,6c0,0.4,0,0.7-0.1,1h-9.1c0.1,3.1,1.9,5.3,4.7,5.3
				c1.4,0,2.4-0.4,3.4-1.1l0.5,1c-1,0.6-2.2,1.2-4.1,1.2C310.4,395.1,307.8,392.6,307.8,388.4z M317.1,387.5c0-3.1-1.4-4.7-3.6-4.7
				c-2.1,0-4,1.7-4.2,4.7H317.1z"/>
		</g>
		<g>
			<path d="M197.5,421.3c-0.5,2.1-1.3,4.2-2.1,5.9c0.4,0.2,0.8,0.5,1.3,0.9c1.5,0.9,3.5,1.1,6.1,1.1c2.7,0,6.4-0.2,8.8-0.5
				c-0.2,0.6-0.6,1.6-0.6,2.1c-1.7,0.1-5.7,0.2-8.3,0.2c-2.9,0-4.7-0.2-6.3-1.2c-0.9-0.5-1.7-1.3-2.1-1.3c-0.5,0-1.2,1.4-1.8,2.8
				l-1.4-1.9c0.9-1.2,1.8-2.1,2.6-2.5c0.6-1.1,1.2-2.7,1.5-4.1h-3c0.6-1.3,1.2-3,1.8-4.7h-2.6v-1.8h5.1c-0.5,1.5-1.2,3.3-1.7,4.8
				h1.6l0.3-0.1L197.5,421.3z M193.9,415.4c-0.3-0.9-0.8-2.5-1.2-3.6l1.9-0.5c0.4,1.1,0.9,2.5,1.2,3.5L193.9,415.4z M198.9,427.4
				v-14.1h3.6c0.3-0.7,0.5-1.6,0.6-2.3l2.4,0.4c-0.3,0.7-0.6,1.4-0.8,1.9h4.6v5.9H201v1.7h9.1v6.5H201H198.9z M200.9,414.9v2.5h6.4
				v-2.5H200.9z M200.9,422.5v3.1h7.1v-3.1H200.9z"/>
			<path d="M224.5,416.3c-0.3,0.9-0.7,1.8-1.2,2.7v12.1h-1.6v-9.2c-0.4,0.5-0.7,1.1-1.1,1.5c-0.1-0.2-0.3-0.5-0.5-0.7v0.7h-1.9v3.5
				l2.2-0.6l0.2,1.7c-2.5,0.7-5.1,1.3-7.1,1.8l-0.4-1.8l0.9-0.2v-7.3h1.5v7l1-0.2v-8.6h-2.4v-6.9h5.8v3.8c1.2-1.3,2.3-3.1,2.8-4.6
				l1.7,0.5c-0.8,2-2.2,4.2-3.6,5.6c-0.2-0.3-0.6-0.7-0.9-1.1v2.7h-1.8v2.9h1.8c1.3-1.7,2.4-4,3-5.9L224.5,416.3z M215.7,417h2.6
				v-3.4h-2.6V417z M230.1,429.1c0.3,0,0.6,0.1,0.9,0.1c0.4,0,2,0,2.6,0c-0.2,0.4-0.5,1.3-0.5,1.8h-2.3c-2,0-3.6-0.6-4.6-3
				c-0.3,1.3-0.8,2.5-1.5,3.3c-0.3-0.3-0.9-0.8-1.2-1c1.6-2.2,1.8-6.2,1.8-8.9h1.7c0,1-0.1,2.1-0.2,3.3c0.4,1.8,0.9,2.9,1.5,3.6
				v-8.7h1.8v3.5h2.9v1.7h-2.9V429.1z M227.9,417.8c-0.2-0.4-0.5-1-0.9-1.6c-0.4,1.4-1,2.6-1.8,3.6c-0.2-0.3-0.9-0.9-1.3-1.2
				c1.4-1.8,2-4.5,2.3-7.6l1.7,0.2c-0.1,1.1-0.3,2.2-0.5,3.2c0.5,0.6,1.2,1.4,1.4,1.6L227.9,417.8z M232.6,419.5
				c-0.4-0.8-1-1.8-1.7-2.9c-0.4,1.1-1,2-1.7,2.8c-0.2-0.3-0.9-0.9-1.2-1.2c1.5-1.6,2.2-4.2,2.4-7.2l1.7,0.1
				c-0.1,1.3-0.3,2.5-0.6,3.5c0.9,1.2,1.8,2.6,2.3,3.5L232.6,419.5z"/>
			<path d="M255.2,428.2v2.1h-19.6v-2.1h6.4v-11h-5.8v-2h4.7c-0.4-1-1.1-2.4-1.9-3.4l1.8-0.7c0.9,1.1,1.7,2.6,2.1,3.6l-1.1,0.5h6.4
				l-0.4-0.2c0.7-1.1,1.7-2.8,2.1-4l2.3,0.6c-0.7,1.2-1.5,2.5-2.2,3.5h4.7v2h-5.9v11h6.4V428.2z M238.9,419c1,2.2,1.8,5,2.1,6.8
				l-2,0.5c-0.2-1.9-1-4.7-1.9-6.8L238.9,419z M244,428.2h2.6v-11H244V428.2z M249.4,425.8c0.8-1.8,1.8-4.8,2.2-7l2.2,0.5
				c-0.8,2.4-1.8,5.2-2.6,7L249.4,425.8z"/>
			<path d="M260.8,420.7c-0.7-0.7-2.3-1.6-3.6-2.2l1.1-1.5c1.3,0.5,2.8,1.3,3.6,2L260.8,420.7z M262.1,423.5
				c-0.8,2.4-1.8,5.1-2.8,7.3l-1.8-1.1c0.9-1.8,2.1-4.7,3-7.3L262.1,423.5z M261.8,414.9c-0.7-0.7-2.3-1.7-3.6-2.3l1.2-1.5
				c1.3,0.5,2.8,1.4,3.6,2.1L261.8,414.9z M277,418.2c-0.7,2.9-1.6,5.4-2.9,7.5c0.4,1.9,0.9,3,1.5,3.1c0.4,0,0.6-1.1,0.8-3.3
				c0.3,0.4,1.1,0.9,1.5,1.1c-0.5,3.7-1.4,4.6-2.2,4.6c-1.3,0-2.2-1.3-2.9-3.4c-1,1.3-2.2,2.4-3.6,3.3c-0.3-0.4-1-1-1.4-1.3
				c1.8-1.1,3.2-2.5,4.4-4.2c-0.5-2.5-0.8-5.7-1-9.4H265v4.1c0,3.2-0.3,7.9-2.3,10.9c-0.3-0.3-1.1-0.9-1.5-1.1c1.8-2.8,2-6.9,2-9.8
				v-5.9h8c0-1-0.1-2.1-0.1-3.1h1.9c0,1.1,0,2.1,0.1,3.1h3.1c-0.6-0.7-1.8-1.6-2.8-2.3l1.1-1c1,0.6,2.3,1.5,2.9,2.2l-1.1,1.1h1v1.8
				h-4.2c0.2,2.5,0.4,4.8,0.6,6.7c0.7-1.5,1.2-3.1,1.6-5L277,418.2z M270.7,419.2h-5v-1.5h5V419.2z M267.1,426.7v1.3h-1.4v-7.2h5v6
				L267.1,426.7L267.1,426.7z M267.1,422.3v2.9h2.1v-2.9H267.1z"/>
			<path d="M296.7,423.1c-3,4.9-8.9,7.1-16.6,8c-0.2-0.6-0.6-1.5-1-2c7.4-0.7,13-2.6,15.7-7L296.7,423.1z M285.3,414.9
				c-1.1,2.7-2.6,5.6-4,7.4c-0.4-0.3-1.3-0.8-1.8-1c1.5-1.7,2.9-4.4,3.8-7L285.3,414.9z M290.1,411v13.5h-2V411H290.1z M295.2,414.3
				c1.5,2.2,3.2,5,4.1,6.8l-1.8,1c-0.8-1.8-2.6-4.8-4-7L295.2,414.3z"/>
			<path d="M304.6,428.5v1.7h-1.7v-7.4c-0.3,0.5-0.7,1-1,1.5c-0.1-0.5-0.5-1.7-0.8-2.3c1.5-2,2.4-4.9,3-8h-2.6v-1.8h7.4v1.8H306
				c-0.3,1.7-0.8,3.3-1.3,4.9h3.7v9.7h-3.8V428.5z M306.8,420.6h-2.2v6.1h2.2V420.6z M313,425.7c-0.4-0.8-1.1-2.2-1.8-3.3
				c0,2.7-0.4,6.4-2,8.8c-0.3-0.3-1.1-0.8-1.6-1c1.6-2.4,1.7-5.9,1.7-8.3v-4.3H321v1.7h-9.9v2.6v0.1l1.1-0.6c0.7,1.1,1.6,2.6,2,3.5
				L313,425.7z M320.6,416.2h-10.8v-4.6h1.8v2.9h2.6v-3.6h1.8v3.6h2.6v-2.9h1.9L320.6,416.2L320.6,416.2z M317,420.1
				c0,1.2-0.1,2.4-0.3,3.4c0.8,2.7,2.4,5,4.6,6.1c-0.4,0.4-0.9,1-1.2,1.5c-1.7-1-3.1-2.8-4-4.8c-0.7,2.1-1.9,3.8-4.2,4.9
				c-0.2-0.5-0.7-1.1-1.1-1.5c3.7-1.8,4.2-5.1,4.4-9.6H317z M317.6,424.7c0.7-0.9,1.7-2.4,2.2-3.4l1.6,1.1c-0.9,1.1-1.8,2.4-2.6,3.2
				L317.6,424.7z"/>
			<path d="M330,422.1c-0.7,0.2-1.5,0.5-2.3,0.7v6.1c0,1-0.2,1.6-0.8,1.9s-1.5,0.4-2.9,0.4c0-0.5-0.3-1.4-0.6-1.9c0.9,0,1.7,0,1.9,0
				c0.3,0,0.4-0.1,0.4-0.4v-5.6c-0.9,0.3-1.7,0.5-2.4,0.7l-0.5-2c0.8-0.2,1.8-0.5,2.9-0.8V417h-2.6v-1.7h2.6v-4.2h1.9v4.2h2.2v1.9
				h-2.2v3.6l2-0.6L330,422.1z M333.7,411h1.8v9.2c0,4.4-0.5,8.3-4.4,11c-0.3-0.4-1-1.1-1.5-1.4c1.8-1.2,2.8-2.7,3.4-4.4
				c-1.1,0.4-2.2,0.8-3.1,1.2l-0.8-1.8c1.2-0.3,2.7-0.8,4.4-1.3c0.1-0.8,0.2-1.7,0.2-2.5h-3.3v-1.8h3.3v-2.7h-3.4v-1.8h3.4V411
				L333.7,411z M343.5,425.8h-4v5.3h-1.9v-20.2h1.9v3.7h3.7v1.8h-3.7v2.7h3.4v1.8h-3.4v2.9h4V425.8z"/>
			<path d="M363.9,416.9c-0.5,3.4-1.4,6.2-2.7,8.5c1.1,1.7,2.6,3.1,4.5,4c-0.4,0.4-1.1,1.2-1.4,1.8c-1.8-0.9-3.2-2.2-4.3-3.9
				c-1.3,1.6-2.9,2.9-5,4c-0.2-0.5-0.8-1.4-1.2-1.8c2.2-1,3.8-2.4,5-4.1c-0.8-1.6-1.4-3.4-1.9-5.4c-0.4,0.9-0.9,1.6-1.4,2.3
				c-0.3-0.4-0.9-1.1-1.4-1.5c-0.1,6.3-0.3,8.6-0.8,9.4c-0.4,0.5-0.7,0.7-1.4,0.8c-0.5,0.1-1.5,0.1-2.4,0c-0.1-0.5-0.3-1.3-0.5-1.9
				c0.8,0.1,1.5,0.1,1.9,0.1c0.3,0,0.5-0.1,0.6-0.3c0.4-0.5,0.5-2.5,0.6-8.1h-2.5c0,3.6-0.4,7.3-3.3,10.4c-0.4-0.4-1-1-1.5-1.3
				c2.5-2.8,2.9-6.1,2.9-9.1v-4.5h-2.4v-1.9h9.6v1.9h-5.3v2.6h4.5c0,0,0,0.6,0,0.9v0.7c1.7-2.2,2.8-5.8,3.5-9.5l2.1,0.3
				c-0.2,1.3-0.5,2.5-0.8,3.7h6.6v1.9H363.9z M349.9,414.4c-0.2-0.8-0.7-2.1-1.1-3l1.8-0.5c0.4,0.9,0.9,2.1,1.1,2.9L349.9,414.4z
				 M358.2,417.1c0.4,2.3,1,4.4,1.9,6.2c0.9-1.8,1.4-3.9,1.8-6.4h-3.6L358.2,417.1z"/>
		</g>
	</g>
	<g>
		<g>
			<path class="st1" d="M670.7,339.5c2-2,3.9-4,5.7-5.8c1.8-1.9,3.5-3.7,4.9-5.4c1.5-1.8,2.6-3.5,3.5-5.1c0.9-1.6,1.3-3.2,1.3-4.8
				c0-0.7-0.1-1.3-0.4-1.8c-0.2-0.5-0.6-1-1-1.4c-0.4-0.4-0.9-0.7-1.5-0.9c-0.6-0.2-1.2-0.3-2-0.3s-1.4,0.1-2,0.3
				c-0.6,0.2-1.1,0.5-1.4,0.8s-0.7,0.7-0.9,1.2c-0.2,0.4-0.3,0.8-0.3,1.3c0,1,0.2,1.9,0.5,2.7c0.4,0.8,0.8,1.5,1.4,2.1l-4.3,3.9
				c-0.9-0.4-1.7-1.2-2.4-2.3c-0.6-1.1-1.1-2.2-1.5-3.3c-0.3-1.2-0.5-2.2-0.5-2.9c0-1.8,0.5-3.4,1.4-5c1-1.6,2.4-2.9,4.3-3.9
				c1.9-1,4.2-1.5,6.9-1.5c2.2,0,4.1,0.5,5.8,1.5c1.6,1,2.9,2.3,3.8,3.9c0.9,1.6,1.4,3.3,1.4,5.1c0,1.4-0.2,2.8-0.7,4.2
				c-0.4,1.3-1.1,2.7-1.9,4s-1.6,2.6-2.6,3.8c-1,1.2-2,2.5-3.1,3.8l-3.2-0.9h11.8v6.7L670.7,339.5L670.7,339.5z M711.1,339.5
				c-1.8,0-3.6-0.3-5.2-1c-1.6-0.6-3-1.6-4.3-2.9c-1.2-1.3-2.2-3-2.9-5c-0.7-2-1.1-4.4-1.1-7.2c0-3.1,0.3-5.6,1-7.7s1.6-3.7,2.8-5
				c1.2-1.2,2.6-2.1,4.3-2.6c1.6-0.5,3.4-0.8,5.3-0.8c1.8,0,3.5,0.3,5.1,1c1.6,0.6,3.1,1.6,4.3,3c1.2,1.3,2.2,3,2.9,5
				c0.7,2,1.1,4.4,1.1,7.2c0,2.8-0.4,5.3-1.1,7.3s-1.7,3.7-2.9,5c-1.2,1.3-2.7,2.2-4.3,2.8C714.7,339.2,712.9,339.5,711.1,339.5z
				 M711.1,332.9c1.6,0,2.8-0.4,3.7-1.2c0.9-0.9,1.5-2,1.9-3.5c0.4-1.5,0.6-3.1,0.6-4.9s-0.2-3.3-0.6-4.7c-0.4-1.4-1-2.5-1.9-3.3
				c-0.9-0.8-2.1-1.2-3.7-1.2c-1.6,0-2.8,0.4-3.7,1.2c-0.9,0.8-1.5,2-1.9,3.4c-0.4,1.4-0.5,3-0.5,4.8s0.2,3.4,0.5,4.8s1,2.6,1.9,3.5
				C708.3,332.5,709.5,332.9,711.1,332.9z M748.1,307.6l-7.2,13.8l-3.8-2.1c0.3-0.1,0.7-0.2,1-0.3c0.4-0.1,0.7-0.1,1.1-0.1
				c1.1,0,2.2,0.1,3.4,0.4c1.1,0.3,2.1,0.8,3,1.5c0.9,0.7,1.7,1.7,2.2,3c0.6,1.3,0.9,2.9,0.9,4.9c0,2.3-0.5,4.3-1.6,6
				c-1.1,1.6-2.4,2.9-4.2,3.7c-1.8,0.8-3.6,1.3-5.6,1.3c-1.6,0-3.2-0.3-4.9-1s-3.1-1.6-4.1-2.6l3.6-5.8c0.5,0.6,1.2,1.2,2.2,1.8
				s2,0.9,3.1,0.9c0.7,0,1.4-0.2,2.1-0.5c0.7-0.4,1.2-0.9,1.7-1.6s0.7-1.6,0.7-2.6c0-1.4-0.4-2.5-1.2-3.4c-0.8-0.8-1.9-1.2-3.3-1.2
				c-1,0-1.7,0-2.2,0.1s-1,0.2-1.4,0.3l-0.1-0.2l5.6-10.5l2,0.8h-10v-6.7h17L748.1,307.6L748.1,307.6z M763.1,339.9
				c-1.9,0-3.7-0.4-5.5-1.1s-3.2-1.6-4.2-2.5l3.6-5.6c0.6,0.7,1.4,1.3,2.4,1.8c1.1,0.4,2.1,0.7,3.1,0.7c0.7,0,1.4-0.2,2.1-0.5
				c0.6-0.3,1.2-0.8,1.5-1.4c0.4-0.6,0.6-1.4,0.6-2.4s-0.2-1.9-0.6-2.7c-0.4-0.8-1-1.4-1.7-1.8s-1.6-0.7-2.6-0.7s-1.9,0.1-2.8,0.4
				c-0.9,0.3-2,0.7-3.2,1.3l0,0v-17.9h15.9v6.7h-9.9v5.1l-0.8-1.4c0.4-0.1,0.9-0.1,1.3-0.1c0.4,0,0.8,0,1.2,0c2.2,0,4.1,0.5,5.7,1.5
				c1.6,1,2.8,2.3,3.6,3.9s1.2,3.4,1.2,5.3c0,2.1-0.5,4-1.4,5.7c-1,1.7-2.3,3-3.9,4C767,339.4,765.1,339.9,763.1,339.9z"/>
			<path class="st2" d="M723.1,386.5v-35"/>
			
				<linearGradient id="SVGID_00000050647478741853854310000017470984084640628120_" gradientUnits="userSpaceOnUse" x1="722.6334" y1="-596.005" x2="722.6334" y2="-617.005" gradientTransform="matrix(1 0 0 -1 0 -222.51)">
				<stop  offset="0" style="stop-color:#70AFE3"/>
				<stop  offset="1" style="stop-color:#6088DC"/>
			</linearGradient>
			<circle style="fill:url(#SVGID_00000050647478741853854310000017470984084640628120_);" cx="722.6" cy="384" r="10.5"/>
		</g>
		<g>
			<path class="st4" d="M693.6,433.4l-4.7-7.9h-3.6v7.9h-1.4v-17.5h5.1c3.5,0,5.8,1.3,5.8,4.7c0,2.8-1.7,4.4-4.4,4.8l4.7,8H693.6z
				 M685.3,424.2h3.3c3,0,4.7-1.2,4.7-3.7s-1.7-3.5-4.7-3.5h-3.3V424.2z"/>
			<path class="st4" d="M697,427c0-4.2,2.7-6.7,5.6-6.7c3.1,0,4.9,2.2,4.9,6c0,0.4,0,0.7-0.1,1h-9.1c0.1,3.1,1.9,5.3,4.7,5.3
				c1.4,0,2.4-0.4,3.4-1.1l0.5,1c-1,0.6-2.2,1.2-4.1,1.2C699.7,433.6,697,431.1,697,427z M706.3,426c0-3.1-1.4-4.7-3.6-4.7
				c-2.1,0-4,1.7-4.2,4.7H706.3z"/>
			<path class="st4" d="M711,420.5h1.2l0.2,1.6l0,0c1.2-1,2.7-1.9,4.3-1.9c3.4,0,5.1,2.6,5.1,6.5c0,4.4-2.6,6.9-5.6,6.9
				c-1.2,0-2.5-0.6-3.8-1.6v2.4v4.6H711L711,420.5L711,420.5z M720.3,426.8c0-3.1-1.1-5.3-3.9-5.3c-1.2,0-2.5,0.7-4,2v7.4
				c1.4,1.2,2.7,1.6,3.6,1.6C718.5,432.4,720.3,430.1,720.3,426.8z"/>
			<path class="st4" d="M725.5,431.5v-17.2h1.4v17.3c0,0.6,0.2,0.9,0.6,0.9c0.1,0,0.2,0,0.5,0l0.2,1.1c-0.2,0.1-0.5,0.1-0.9,0.1
				C726.1,433.6,725.5,432.9,725.5,431.5z"/>
			<path class="st4" d="M731,430c0-2.8,2.5-4.2,8.2-4.8c0-1.9-0.5-3.9-2.9-3.9c-1.7,0-3.1,0.8-4,1.5l-0.6-1c1-0.7,2.8-1.7,4.8-1.7
				c3,0,4.1,2.2,4.1,5v8.1h-1.2l-0.1-1.6l0,0c-1.3,1.1-2.8,1.9-4.5,1.9C732.7,433.6,731,432.5,731,430z M739.2,430.5v-4.2
				c-5,0.6-6.8,1.8-6.8,3.7c0,1.8,1.2,2.4,2.6,2.4C736.4,432.4,737.7,431.8,739.2,430.5z"/>
			<path class="st4" d="M744,427c0-4.3,2.8-6.7,5.9-6.7c1.7,0,2.9,0.8,3.7,1.6l-0.8,1c-0.8-0.7-1.7-1.3-2.9-1.3
				c-2.5,0-4.5,2.3-4.5,5.5c0,3.3,1.8,5.5,4.5,5.5c1.3,0,2.5-0.6,3.3-1.4l0.7,1c-1.1,1-2.5,1.7-4.1,1.7
				C746.5,433.6,744,431.1,744,427z"/>
			<path class="st4" d="M755.5,427c0-4.2,2.7-6.7,5.6-6.7c3.1,0,4.9,2.2,4.9,6c0,0.4,0,0.7-0.1,1h-9.1c0.1,3.1,1.9,5.3,4.7,5.3
				c1.4,0,2.4-0.4,3.4-1.1l0.5,1c-1,0.6-2.2,1.2-4.1,1.2C758.1,433.6,755.5,431.1,755.5,427z M764.8,426c0-3.1-1.4-4.7-3.6-4.7
				c-2.1,0-4,1.7-4.2,4.7H764.8z"/>
		</g>
		<g>
			<path d="M664.8,463.4h2.6v1.6h-2.6v3c0,0.9-0.2,1.4-0.9,1.6c-0.7,0.3-1.7,0.3-3.2,0.3c-0.1-0.5-0.4-1.2-0.6-1.7c1,0,2,0,2.4,0
				c0.3,0,0.4-0.1,0.4-0.4v-2.9h-4.1c0.8,0.7,1.6,1.7,2,2.4l-1.5,1c-0.4-0.8-1.2-1.9-2-2.7l1.3-0.7h-2.4v1.2h-3.6v3.7h-1.8V466h-3.7
				v-1.8h3.7v-1.5h-2.9V455h2.9v-1.4h-3.4v-1.8h3.4v-2.2h1.8v2.2h3.3v1.8h-3.3v1.4h3.1v7.7h-3.1v1.5h3.5v-0.9h6.7v-1h1.9
				L664.8,463.4L664.8,463.4z M649.3,458.1h1.7v-1.7h-1.7V458.1z M649.3,461.2h1.7v-1.7h-1.7V461.2z M654.2,456.5h-1.7v1.7h1.7
				V456.5z M654.2,459.5h-1.7v1.7h1.7V459.5z M656.1,460.8c1.3,0,2.9,0,4.6-0.1v-1.3h-3.9v-5.8h3.9v-1h-4.4v-1.5h4.4v-1.5h1.8v1.5
				h4.6v1.5h-4.6v1h4.1v5.8h-1.2c0.8,0.8,1.7,1.9,2.1,2.6l-1.5,0.8c-0.1-0.3-0.3-0.5-0.5-0.9c-3.4,0.1-6.8,0.2-9.2,0.2L656.1,460.8z
				 M658.5,456h2.3v-1.1h-2.3V456z M660.7,458.2v-1.1h-2.3v1.1H660.7z M662.5,454.9v1.1h2.4v-1.1H662.5z M664.9,457h-2.4v1.1h2.4
				V457z M662.5,460.6h1.9c-0.2-0.3-0.5-0.6-0.7-0.8l0.7-0.4h-1.9V460.6z"/>
			<path d="M688.2,467.2c0,1.2-0.3,1.8-1.1,2.2c-0.9,0.3-2.2,0.4-4.2,0.4c-0.1-0.6-0.4-1.5-0.7-2.1c1.5,0.1,3,0.1,3.4,0
				c0.4,0,0.6-0.1,0.6-0.5v-12h-13.7v14.5h-2v-16.5h6c0.5-1.2,1-2.6,1.3-3.8l2.6,0.4c-0.5,1.1-1.1,2.3-1.6,3.3h9.5L688.2,467.2
				L688.2,467.2z M676.8,465.1v1.5h-1.9v-8.9h8.5v7.3h-6.6V465.1z M676.8,459.6v3.7h4.8v-3.7H676.8z"/>
			<path d="M711.4,464.5h-2.6v2.8c0,1.1-0.3,1.7-1.1,2s-2,0.4-3.9,0.4c-0.1-0.6-0.4-1.4-0.7-1.9c1.3,0,2.8,0,3.1,0
				c0.4,0,0.6-0.1,0.6-0.5v-2.8h-11.1v5.2h-2v-5.2h-2.5v-1.9h2.5v-8.1h6.5v-1.8H692v-1.9h18.5v1.9h-8.4v1.8h6.6v8.1h2.6v1.9H711.4z
				 M695.7,456.4v2.2h4.4v-2.2H695.7z M695.7,462.6h4.4v-2.3h-4.4V462.6z M702.2,456.4v2.2h4.6v-2.2H702.2z M706.8,462.6v-2.3h-4.6
				v2.3H706.8z"/>
			<path d="M733.1,467v2h-19.5v-2h8.7v-5.1H716v-2h6.3v-4.4h-4.9c-0.7,1.3-1.4,2.5-2.2,3.4c-0.4-0.4-1.3-0.9-1.9-1.2
				c1.8-1.9,3.2-4.9,4-8l2.1,0.5c-0.3,1.1-0.7,2.2-1.1,3.3h4v-4.1h2.1v4.1h7.7v2h-7.7v4.4h6.8v2h-6.8v5.1L733.1,467L733.1,467z"/>
			<path d="M744.5,467.6c0,0.9-0.2,1.4-0.8,1.7c-0.6,0.3-1.6,0.3-3,0.3c-0.1-0.5-0.4-1.2-0.6-1.6c0.9,0,1.8,0,2.1,0s0.4-0.1,0.4-0.4
				v-2.9c-1.3,0.9-2.6,1.7-3.8,2.4l-0.6-1.5c-0.2,1.5-0.7,3-1.6,4.1c-0.3-0.4-1-1.1-1.4-1.4c1.2-1.7,1.3-4,1.3-5.9v-5.2h7.9
				L744.5,467.6L744.5,467.6z M743.2,451.1c1,1.5,2.2,3.6,2.8,4.9l-1.8,0.7c-0.1-0.4-0.4-0.9-0.6-1.4c-5.8,0.5-6.6,0.7-7.2,0.9
				c-0.1-0.4-0.4-1.4-0.6-1.9c0.4-0.1,0.7-0.4,1.2-0.9c0.4-0.5,1.8-2.2,2.7-3.9l2.1,0.6c-0.9,1.4-1.9,2.7-2.9,3.9l3.9-0.3
				c-0.4-0.7-0.8-1.4-1.2-2L743.2,451.1z M738.5,462.5c0,0.9,0,1.8-0.2,2.8c1.1-0.5,2.7-1.3,4.3-2.1v-0.8l-1,1
				c-0.7-0.6-2.1-1.7-3.1-2.4l1.1-1c1,0.6,2.3,1.5,3,2.1V459h-4.1V462.5L738.5,462.5z M749.2,459c-2.2,0-2.8-0.8-2.8-2.9v-6.6h2v2.8
				h5.7v1.8h-5.7v2c0,0.8,0.2,1.1,0.9,1.1h3.7c0.6,0,1.4,0,1.9-0.1c0,0.5,0.1,1.3,0.2,1.7c-0.4,0.1-1.3,0.2-2,0.2H749.2z
				 M752.6,467.8c0.8,0,1-0.4,1.1-2.6c0.4,0.3,1.2,0.7,1.8,0.7c-0.2,2.9-0.8,3.7-2.7,3.7h-3.6c-2.3,0-2.9-0.6-2.9-2.6v-7.2h2v2.4
				h5.9v1.8h-5.9v2.9c0,0.7,0.2,0.9,1.1,0.9L752.6,467.8L752.6,467.8z"/>
			<path d="M760.7,459.4c-0.8-0.6-2.4-1.6-3.6-2.3l1.2-1.5c1.1,0.6,2.8,1.5,3.7,2.1L760.7,459.4z M762.3,462.5c-0.9,2.3-2,4.9-3,7
				l-1.8-1.1c0.9-1.7,2.2-4.5,3.2-7L762.3,462.5z M761.7,453.6c-0.8-0.6-2.4-1.7-3.6-2.4l1.2-1.4c1.1,0.6,2.8,1.6,3.7,2.2
				L761.7,453.6z M765.6,456.6c0,3.8-0.4,9.4-3,13c-0.4-0.3-1.2-0.9-1.7-1.1c2.5-3.4,2.7-8.4,2.7-11.9v-6h13.5v1.8h-11.5V456.6z
				 M769.1,464c-0.7,1.6-1.8,3.4-2.7,4.5c-0.4-0.3-1.2-0.7-1.6-1c0.9-1,1.9-2.6,2.5-4L769.1,464z M772.4,462.5v5.3
				c0,0.9-0.2,1.4-0.8,1.7c-0.6,0.3-1.6,0.3-3,0.3c-0.1-0.5-0.3-1.3-0.5-1.8c0.9,0,1.8,0,2.1,0s0.4-0.1,0.4-0.3v-5.2h-3.7v-7.7h3.1
				c0.2-0.7,0.5-1.5,0.6-2.1l2.3,0.4c-0.3,0.6-0.6,1.1-0.9,1.7h4.5v7.7H772.4z M768.5,457.9h5.9v-1.6h-5.9V457.9z M768.5,460.9h5.9
				v-1.6h-5.9V460.9z M775.2,463.2c0.8,1.3,1.8,3.1,2.3,4.2l-1.9,0.8c-0.5-1.1-1.4-2.9-2.2-4.3L775.2,463.2z"/>
			<path d="M785.6,456h3.5v1.9h-3.5v0.5c0.9,0.9,3,3.4,3.5,4l-1.2,1.7c-0.4-0.8-1.5-2.2-2.3-3.4v9h-2V461c-1,2.3-2.2,4.6-3.5,6
				c-0.2-0.6-0.7-1.4-1.1-1.9c1.6-1.6,3.2-4.4,4.1-7h-3.6v-1.9h4.1v-3.3c-1.1,0.2-2.3,0.3-3.4,0.5c-0.1-0.4-0.4-1.1-0.6-1.6
				c2.9-0.4,6.2-1.1,8.2-1.8l1.4,1.6c-1,0.4-2.2,0.7-3.5,1v3.5H785.6z M798.2,451.5v17h-2.1v-1.6h-4.3v1.8h-2v-17.1L798.2,451.5
				L798.2,451.5z M796.1,465v-11.4h-4.3V465H796.1z"/>
			<path d="M667,479.5h-2.6v13.9c0,1.3-0.3,2-1.3,2.3c-0.9,0.4-2.5,0.4-4.7,0.4c-0.1-0.6-0.5-1.6-0.9-2.2c1.7,0.1,3.5,0.1,4,0.1
				s0.6-0.2,0.6-0.6v-13.9h-14.8v-2h19.5v2H667z M651.6,490.6v1.7h-2v-10h9.1v8.3H651.6z M651.6,484.4v4.4h5.1v-4.4H651.6z"/>
			<path d="M689.1,493.9v1.7h-19.6v-1.7h8.7v-1.6h-7v-1.6h7v-1.3h-6.4v-6.8h6.4v-1.1h-8.6v-1.6h8.6v-1.3c-2.2,0.1-4.4,0.2-6.5,0.2
				c0-0.5-0.3-1.2-0.4-1.6c5.1-0.1,11.1-0.5,14.7-1.1l1,1.6c-1.9,0.3-4.2,0.6-6.7,0.7v1.5h8.8v1.6h-8.8v1.1h6.7v6.8h-6.7v1.3h7.5
				v1.6h-7.5v1.6L689.1,493.9L689.1,493.9z M673.8,485.4h4.4V484h-4.4V485.4z M678.1,488v-1.3h-4.3v1.3H678.1z M680.2,484v1.4h4.6
				V484H680.2z M684.8,486.6h-4.6v1.3h4.6V486.6z"/>
			<path d="M710.2,489.1c-0.8,1.6-2,2.9-3.5,3.9c1.4,0.6,3,1.1,4.8,1.3c-0.4,0.4-0.9,1.2-1.2,1.7c-2-0.4-3.9-1-5.5-1.9
				c-1.9,0.9-4,1.6-6.2,2c-0.2-0.5-0.6-1.3-1-1.7c1.9-0.3,3.7-0.7,5.3-1.5c-0.7-0.5-1.3-1-1.8-1.6c-0.6,0.5-1.2,0.9-1.8,1.2
				c-0.3-0.4-1-1.1-1.5-1.4c0.7-0.4,1.4-0.8,2.1-1.3c-0.4-0.5-0.7-1.1-1.1-1.7l1.7-0.5c0.2,0.4,0.4,0.7,0.7,1.1c0.5-0.5,1-1,1.3-1.6
				h-2.6v-5c-0.2,0.2-0.3,0.4-0.5,0.5c-0.4-0.3-1.1-0.9-1.7-1.2c-0.5,1.2-1.2,2.4-1.9,3.6v0.1c0.2,0.1,0.4,0.4,0.6,0.6
				c0.5-0.6,1.1-1.5,1.5-2l1.3,1.2c-0.7,0.6-1.3,1.3-1.8,1.8c0.6,0.6,1.1,1.2,1.3,1.4l-1.2,1.6c-0.3-0.6-0.9-1.5-1.6-2.3v8.5H694
				v-8.2c-0.7,0.9-1.5,1.7-2.2,2.4c-0.2-0.6-0.7-1.6-1-2c1.9-1.5,3.9-4.1,5.1-6.7h-4.6v-1.8h3.5c-0.3-0.8-0.9-2-1.5-2.9l1.6-0.8
				c0.6,0.9,1.3,2.1,1.6,2.9l-1.6,0.8h2l0.4-0.1l1.1,0.8c-0.1,0.4-0.3,0.7-0.4,1c1.4-1.4,2.6-3.5,3.4-5.5l2,0.5
				c-0.2,0.5-0.4,1.1-0.7,1.6h8.4v1.7h-9.3c-0.2,0.4-0.5,0.8-0.7,1.2h8.8v6.4h-5.1c-0.2,0.4-0.5,0.8-0.8,1.1h4.6l0.4-0.1
				L710.2,489.1z M701.8,483.5h5.9v-1.2h-5.9V483.5z M701.8,486h5.9v-1.2h-5.9V486z M702.4,490.4c0.7,0.7,1.5,1.3,2.4,1.8
				c1-0.6,1.8-1.3,2.5-2.1h-4.7L702.4,490.4z"/>
			<path d="M718.8,486.5c-0.3,1.9-0.9,3.9-1.6,5.5c0.4,0.2,0.8,0.6,1.5,1c1.5,0.9,3.5,1.1,6.1,1.1c2.7,0,6.4-0.2,8.8-0.5
				c-0.2,0.5-0.6,1.6-0.6,2.1c-1.7,0.1-5.7,0.2-8.3,0.2c-2.9,0-4.8-0.2-6.4-1.2c-0.9-0.5-1.7-1.3-2.2-1.3s-1.3,1.4-1.8,2.8l-1.4-1.9
				c0.8-1.1,1.6-2,2.4-2.4c0.5-1.2,1-2.8,1.3-4.2h-2.8c0.6-1.3,1.3-3.1,1.8-4.8h-2.3v-1.8h4.9c-0.5,1.6-1.1,3.4-1.7,4.9h0.8l0.3-0.1
				L718.8,486.5z M715.6,480.2c-0.2-1-0.8-2.5-1.1-3.7l1.8-0.5c0.4,1.1,0.9,2.6,1.2,3.5L715.6,480.2z M720.8,480.8H719v-4.1h13.7
				v4.1h-2v-2.5h-9.9v1.8h4v-1h2v1h3.8v1.5h-3.8v1.1h4.7v6.3h-4.7v1.1h5.9v1.5h-5.9v1.7h-2v-1.7H719V490h5.8v-1.1h-4.7v-6.3h4.7
				v-1.1h-4V480.8z M722,485h2.9v-1.2H722V485z M724.9,487.5v-1.2H722v1.2H724.9z M726.9,483.9v1.2h2.9v-1.2H726.9z M729.8,486.4
				h-2.9v1.2h2.9V486.4z"/>
			<path d="M753.8,493.5c0,1.2-0.3,1.8-1.1,2.1c-0.8,0.3-2.1,0.4-4.1,0.4c-0.1-0.5-0.4-1.5-0.7-2c1.4,0.1,2.9,0,3.3,0
				c0.4,0,0.6-0.1,0.6-0.5v-3.9h-5.3v6.3h-2v-6.3h-5.1c-0.4,2.4-1.1,4.9-2.8,6.7c-0.3-0.4-1.1-1.1-1.6-1.3c2.4-2.7,2.6-6.6,2.6-9.7
				v-7.8h16.2V493.5z M744.4,487.6v-3.3h-4.8v0.9c0,0.7,0,1.6-0.1,2.4H744.4z M739.6,479.4v3.1h4.8v-3.1H739.6z M751.8,479.4h-5.3
				v3.1h5.3V479.4z M751.8,487.6v-3.3h-5.3v3.3H751.8z"/>
			<path d="M765.4,488.6c-0.5-0.8-1.4-2.1-2.2-3.1v10.7h-2.1v-9.7c-0.9,2.3-2,4.5-3.1,5.8c-0.2-0.6-0.7-1.5-1.1-2
				c1.6-1.8,3.1-5,3.9-7.8h-3.3v-2h3.5v-4.6h2.1v4.6h2.9v2h-2.9v0.6c0.9,0.8,3,3.2,3.5,3.8L765.4,488.6z M777.3,482.5h-2.2v11
				c0,1.3-0.3,1.9-1.1,2.2c-0.8,0.4-2.1,0.4-4,0.4c-0.1-0.6-0.4-1.5-0.7-2.1c1.3,0,2.7,0,3.1,0c0.4,0,0.5-0.1,0.5-0.5v-8.1
				c-1.7,2.9-4,5.7-6.3,7.4c-0.4-0.5-1-1.3-1.5-1.6c2.7-1.8,5.5-5.3,7.1-8.6h-5.6v-2h6.2v-4.6h2.2v4.6h2.2L777.3,482.5L777.3,482.5z
				"/>
			<path d="M782.6,486.8c-0.4,2.5-1.4,5.5-2.6,7.1c-0.2-0.7-0.6-1.7-1-2.4c0.9-1.2,1.8-3.5,2.1-5.3L782.6,486.8z M785.5,486.2
				c0.5,0.6,2,3.5,2.4,4.2l-1.4,1.6c-0.4-1.1-1.3-3.3-1.8-4.5v8.6h-1.9v-11h-3.4v-1.9h3.4V476h1.9v7.3h3.4v1.9h-3.4v1.8L785.5,486.2
				z M780.5,482.6c-0.1-1.3-0.6-3.4-1.1-5l1.5-0.4c0.6,1.6,1.1,3.6,1.2,4.9L780.5,482.6z M788.2,477.6c-0.6,1.7-1.2,3.7-1.8,5
				l-1.3-0.4c0.5-1.3,1.1-3.5,1.3-5L788.2,477.6z M796.8,490v6.1h-2v-5.7l-6.5,1.2l-0.3-1.9l6.8-1.2V476h1.9v12.2l2.4-0.4l0.3,1.9
				L796.8,490z M792,486.9c-0.7-0.8-2.3-1.9-3.6-2.6l1-1.5c1.3,0.7,2.9,1.7,3.7,2.5L792,486.9z M792.9,481.5c-0.7-0.9-2.2-2-3.4-2.8
				l1-1.4c1.2,0.7,2.8,1.8,3.5,2.7L792.9,481.5z"/>
		</g>
	</g>
	<g>
		<g>
			<path class="st1" d="M1111.1,351.7c2-2,3.9-4,5.7-5.8c1.8-1.9,3.5-3.7,4.9-5.4c1.5-1.8,2.6-3.5,3.5-5.1s1.3-3.2,1.3-4.8
				c0-0.7-0.1-1.3-0.4-1.8c-0.2-0.5-0.6-1-1-1.4s-0.9-0.7-1.5-0.9c-0.6-0.2-1.2-0.3-2-0.3c-0.7,0-1.4,0.1-2,0.3
				c-0.6,0.2-1.1,0.5-1.4,0.8c-0.4,0.4-0.7,0.7-0.9,1.2c-0.2,0.4-0.3,0.8-0.3,1.3c0,1,0.2,1.9,0.5,2.7c0.4,0.8,0.8,1.5,1.4,2.1
				l-4.3,3.9c-0.9-0.4-1.7-1.2-2.4-2.3c-0.6-1.1-1.1-2.2-1.5-3.3c-0.3-1.2-0.5-2.2-0.5-2.9c0-1.8,0.5-3.4,1.4-5
				c1-1.6,2.4-2.9,4.3-3.9c1.9-1,4.2-1.5,6.9-1.5c2.2,0,4.1,0.5,5.8,1.5c1.6,1,2.9,2.3,3.8,3.9c0.9,1.6,1.4,3.3,1.4,5.1
				c0,1.4-0.2,2.8-0.7,4.2s-1.1,2.7-1.9,4s-1.6,2.6-2.6,3.8c-1,1.2-2,2.5-3.1,3.8l-3.2-0.9h11.8v6.7L1111.1,351.7L1111.1,351.7z
				 M1151.5,351.8c-1.8,0-3.6-0.3-5.2-1c-1.6-0.6-3-1.6-4.3-2.9c-1.2-1.3-2.2-3-2.9-5c-0.7-2-1.1-4.4-1.1-7.2c0-3.1,0.3-5.6,1-7.7
				c0.7-2.1,1.6-3.7,2.8-5c1.2-1.2,2.6-2.1,4.3-2.6c1.6-0.5,3.4-0.8,5.3-0.8c1.8,0,3.5,0.3,5.1,1c1.6,0.6,3.1,1.6,4.3,3
				c1.2,1.3,2.2,3,2.9,5c0.7,2,1.1,4.4,1.1,7.2c0,2.8-0.4,5.3-1.1,7.3c-0.7,2-1.7,3.7-2.9,5c-1.2,1.3-2.7,2.2-4.3,2.8
				C1155.1,351.5,1153.4,351.8,1151.5,351.8z M1151.5,345.1c1.6,0,2.8-0.4,3.7-1.2c0.9-0.9,1.5-2,1.9-3.5s0.6-3.1,0.6-4.9
				s-0.2-3.3-0.6-4.7c-0.4-1.4-1-2.5-1.9-3.3s-2.1-1.2-3.7-1.2s-2.8,0.4-3.7,1.2c-0.9,0.8-1.5,2-1.9,3.4s-0.5,3-0.5,4.8
				s0.2,3.4,0.5,4.8c0.3,1.4,1,2.6,1.9,3.5C1148.7,344.7,1149.9,345.1,1151.5,345.1z M1167.1,344.8L1167.1,344.8l20.3-25.2l0,0v20
				h3.8v5.3h-3.8v7h-7v-7L1167.1,344.8L1167.1,344.8z M1180.8,334.8l-3.7,4.9l-0.7-0.3h4v-5L1180.8,334.8z M1208.2,351.8
				c-1.8,0-3.6-0.3-5.2-1c-1.6-0.6-3-1.6-4.3-2.9c-1.2-1.3-2.2-3-2.9-5c-0.7-2-1.1-4.4-1.1-7.2c0-3.1,0.3-5.6,1-7.7
				c0.7-2.1,1.6-3.7,2.8-5c1.2-1.2,2.6-2.1,4.3-2.6c1.6-0.5,3.4-0.8,5.3-0.8c1.8,0,3.5,0.3,5.1,1c1.6,0.6,3.1,1.6,4.3,3
				c1.2,1.3,2.2,3,2.9,5c0.7,2,1.1,4.4,1.1,7.2c0,2.8-0.4,5.3-1.1,7.3s-1.7,3.7-2.9,5c-1.2,1.3-2.7,2.2-4.3,2.8
				C1211.8,351.5,1210,351.8,1208.2,351.8z M1208.2,345.1c1.6,0,2.8-0.4,3.7-1.2c0.9-0.9,1.5-2,1.9-3.5s0.6-3.1,0.6-4.9
				s-0.2-3.3-0.6-4.7c-0.4-1.4-1-2.5-1.9-3.3s-2.1-1.2-3.7-1.2c-1.6,0-2.8,0.4-3.7,1.2c-0.9,0.8-1.5,2-1.9,3.4s-0.5,3-0.5,4.8
				s0.2,3.4,0.5,4.8c0.3,1.4,1,2.6,1.9,3.5C1205.4,344.7,1206.6,345.1,1208.2,345.1z"/>
			<path class="st2" d="M1166.5,400.7v-35"/>
			
				<linearGradient id="SVGID_00000044872109769539692620000004929076380131889076_" gradientUnits="userSpaceOnUse" x1="1166.0167" y1="-610.255" x2="1166.0167" y2="-631.255" gradientTransform="matrix(1 0 0 -1 0 -222.51)">
				<stop  offset="0" style="stop-color:#70AFE3"/>
				<stop  offset="1" style="stop-color:#6088DC"/>
			</linearGradient>
			<circle style="fill:url(#SVGID_00000044872109769539692620000004929076380131889076_);" cx="1166" cy="398.2" r="10.5"/>
		</g>
		<g>
			<path class="st4" d="M1135,447.4l-4.7-7.9h-3.6v7.9h-1.4v-17.5h5.1c3.5,0,5.8,1.3,5.8,4.7c0,2.8-1.7,4.4-4.4,4.8l4.7,8H1135z
				 M1126.8,438.3h3.3c3,0,4.7-1.2,4.7-3.7s-1.7-3.5-4.7-3.5h-3.3V438.3z"/>
			<path class="st4" d="M1138.5,441c0-4.2,2.7-6.7,5.6-6.7c3.1,0,4.9,2.2,4.9,6c0,0.4,0,0.7-0.1,1h-9.1c0.1,3.1,1.9,5.3,4.7,5.3
				c1.4,0,2.4-0.4,3.4-1.1l0.5,1c-1,0.6-2.2,1.2-4.1,1.2C1141.1,447.7,1138.5,445.2,1138.5,441z M1147.7,440.2
				c0-3.1-1.4-4.7-3.6-4.7c-2.1,0-4,1.7-4.2,4.7H1147.7z"/>
			<path class="st4" d="M1152.4,434.6h1.2l0.2,1.9l0,0c1.2-1.3,2.6-2.3,4-2.3c2,0,3.1,1,3.5,2.6c1.4-1.6,2.8-2.6,4.3-2.6
				c2.6,0,3.8,1.7,3.8,4.9v8.2h-1.4v-8c0-2.7-0.9-3.9-2.8-3.9c-1.2,0-2.3,0.8-3.7,2.3v9.6h-1.4v-8c0-2.7-0.9-3.9-2.8-3.9
				c-1.1,0-2.4,0.8-3.7,2.3v9.6h-1.4v-12.7H1152.4z"/>
			<path class="st4" d="M1173.1,441c0-4.3,2.7-6.7,5.8-6.7s5.8,2.5,5.8,6.7s-2.7,6.7-5.8,6.7S1173.1,445.3,1173.1,441z M1183.2,441
				c0-3.3-1.8-5.5-4.3-5.5s-4.3,2.3-4.3,5.5s1.8,5.5,4.3,5.5S1183.2,444.3,1183.2,441z"/>
			<path class="st4" d="M1186.3,434.6h1.5l2.8,7.8c0.4,1.2,0.8,2.5,1.3,3.7h0.1c0.4-1.2,0.9-2.4,1.3-3.7l2.8-7.8h1.4l-4.7,12.8h-1.8
				L1186.3,434.6z"/>
			<path class="st4" d="M1199.1,441c0-4.2,2.7-6.7,5.6-6.7c3.1,0,4.9,2.2,4.9,6c0,0.4,0,0.7-0.1,1h-9.1c0.1,3.1,1.9,5.3,4.7,5.3
				c1.4,0,2.4-0.4,3.4-1.1l0.5,1c-1,0.6-2.2,1.2-4.1,1.2C1201.7,447.7,1199.1,445.2,1199.1,441z M1208.3,440.2
				c0-3.1-1.4-4.7-3.6-4.7c-2.1,0-4,1.7-4.2,4.7H1208.3z"/>
		</g>
		<g>
			<path d="M1115.5,473.8c-0.9-0.6-2.7-1.7-4-2.4l1.1-1.5c1.3,0.6,3.1,1.6,4.1,2.2L1115.5,473.8z M1117.9,476.6
				c-1.1,2.3-2.6,4.9-3.9,7l-1.8-1.4c1.2-1.7,2.9-4.5,4.2-7L1117.9,476.6z M1116.6,468c-0.9-0.7-2.7-1.8-3.9-2.6l1.2-1.5
				c1.3,0.7,3.1,1.7,4,2.4L1116.6,468z M1130.5,481.5c0,1-0.2,1.6-0.9,1.9c-0.7,0.3-1.8,0.3-3.5,0.3c-0.1-0.5-0.4-1.4-0.6-1.9
				c1.1,0,2.3,0,2.6,0c0.3,0,0.4-0.1,0.4-0.4v-3.6c-2.4,0.6-5,1.3-6.9,1.7l-0.6-1.7c1.9-0.4,4.8-1,7.5-1.7v-4.5h-7.7v4.5
				c0,2.4-0.2,5.7-1.4,7.8c-0.3-0.4-1.2-0.9-1.6-1.2c1.1-1.9,1.1-4.5,1.1-6.7v-6.3h4.8v-6.2h2.1v6.2h4.7L1130.5,481.5L1130.5,481.5z
				 M1120.4,469.2c-0.3-1.1-1.2-2.8-2.1-4.1l1.7-0.8c0.9,1.2,1.8,2.9,2.2,4L1120.4,469.2z M1122.2,472.9c1.8,0.4,4.1,1.1,5.3,1.8
				l-0.9,1.4c-1.2-0.7-3.5-1.5-5.3-1.9L1122.2,472.9z M1131.3,465c-0.7,1.5-1.6,3.1-2.3,4.1l-1.8-0.7c0.7-1.1,1.7-2.9,2.2-4.2
				L1131.3,465z"/>
			<path d="M1140.8,465.2c-0.6,1.8-1.4,4-2.1,5.7c1.5,1.8,1.8,3.3,1.8,4.7c0,1.3-0.3,2.2-0.9,2.7c-0.3,0.2-0.7,0.4-1.2,0.4
				c-0.4,0-1,0-1.5,0c0-0.5-0.2-1.3-0.4-1.8c0.4,0.1,0.8,0.1,1.2,0c0.3,0,0.5-0.1,0.6-0.2c0.3-0.2,0.4-0.7,0.4-1.4
				c0-1.1-0.3-2.6-1.8-4.2c0.6-1.4,1.1-3.3,1.5-4.7h-2.3v17.4h-1.8v-19.3h4.8l0.3-0.1L1140.8,465.2z M1144.7,477.7
				c-0.8,1.8-2.1,3.6-3.2,4.8c-0.4-0.3-1.1-0.8-1.5-1.1c1.1-1.1,2.2-2.7,2.9-4.2L1144.7,477.7z M1148.4,476.3v5.4
				c0,1-0.2,1.5-0.9,1.8c-0.7,0.3-1.7,0.4-3.2,0.4c-0.1-0.5-0.4-1.3-0.7-1.9c1.1,0,2.1,0,2.4,0c0.3,0,0.4-0.1,0.4-0.4v-5.3h-5.5
				v-1.9h5.5v-2.3h-3.6v-1.5c-0.4,0.3-0.8,0.6-1.3,0.8c-0.3-0.5-0.9-1.1-1.4-1.5c2.7-1.4,5.4-3.8,6.8-6.4l1.7,0.7
				c-0.2,0.3-0.3,0.6-0.5,0.9c1.9,2.2,4,3.6,5.9,4.6c-0.5,0.4-1.1,1.1-1.4,1.6c-0.4-0.3-0.8-0.5-1.3-0.8v1.7h-3.1v2.3h5.2v1.9h-5
				V476.3z M1151.4,470.3c-1.4-1-2.7-2.2-4.2-3.9c-1.2,1.5-2.5,2.8-4,3.9H1151.4z M1150.9,477.1c1.2,1.3,2.4,3.2,3.1,4.4l-1.6,0.9
				c-0.6-1.3-1.9-3.2-3-4.6L1150.9,477.1z"/>
			<path d="M1158.9,481.2v1.7h-1.7v-7.4c-0.3,0.5-0.7,1-1,1.5c-0.1-0.5-0.5-1.7-0.8-2.3c1.5-2,2.4-4.9,3-8h-2.6v-1.8h7.4v1.8h-2.9
				c-0.3,1.7-0.8,3.3-1.3,4.9h3.7v9.7h-3.8V481.2z M1161.1,473.3h-2.2v6.1h2.2V473.3z M1167.3,478.4c-0.4-0.8-1.1-2.2-1.8-3.3
				c0,2.7-0.4,6.4-2,8.8c-0.3-0.3-1.1-0.8-1.6-1c1.6-2.4,1.7-5.9,1.7-8.3v-4.3h11.7v1.7h-9.9v2.6v0.1l1.1-0.6c0.7,1.1,1.6,2.6,2,3.5
				L1167.3,478.4z M1174.9,468.9h-10.8v-4.6h1.8v2.9h2.6v-3.6h1.8v3.6h2.6v-2.9h1.9v4.6H1174.9z M1171.3,472.7
				c0,1.2-0.1,2.4-0.3,3.4c0.8,2.7,2.4,5,4.6,6.1c-0.4,0.4-0.9,1-1.2,1.5c-1.7-1-3.1-2.8-4-4.8c-0.7,2.1-1.9,3.8-4.2,4.9
				c-0.2-0.5-0.7-1.1-1.1-1.5c3.7-1.8,4.2-5.1,4.4-9.6H1171.3z M1171.8,477.4c0.7-0.9,1.7-2.4,2.2-3.4l1.6,1.1
				c-0.9,1.1-1.8,2.4-2.6,3.2L1171.8,477.4z"/>
			<path d="M1184.3,474.7c-0.7,0.2-1.5,0.5-2.3,0.7v6.1c0,1-0.2,1.6-0.8,1.9s-1.5,0.4-2.9,0.4c0-0.5-0.3-1.4-0.5-1.9
				c0.9,0,1.7,0,1.9,0c0.3,0,0.4-0.1,0.4-0.4v-5.6c-0.9,0.3-1.7,0.5-2.4,0.7l-0.5-2c0.8-0.2,1.8-0.5,2.9-0.8v-4.2h-2.6v-1.9h2.6
				v-4.2h1.9v4.2h2.2v1.9h-2.2v3.6l2-0.6L1184.3,474.7z M1188,463.6h1.8v9.2c0,4.4-0.5,8.3-4.4,11c-0.3-0.4-1-1.1-1.5-1.4
				c1.8-1.2,2.8-2.7,3.4-4.4c-1.1,0.4-2.2,0.8-3.1,1.2l-0.8-1.8c1.2-0.3,2.7-0.8,4.4-1.3c0.1-0.8,0.2-1.7,0.2-2.5h-3.3v-1.8h3.3
				v-2.7h-3.4v-1.8h3.4V463.6L1188,463.6z M1197.8,478.5h-4v5.3h-1.9v-20.2h1.9v3.7h3.7v1.8h-3.7v2.7h3.4v1.8h-3.4v2.9h4V478.5z"/>
			<path d="M1218.2,469.6c-0.5,3.4-1.4,6.2-2.7,8.5c1.1,1.7,2.6,3.1,4.5,4c-0.4,0.4-1.1,1.2-1.4,1.8c-1.8-0.9-3.2-2.2-4.3-3.9
				c-1.3,1.6-2.9,2.9-5,4c-0.2-0.5-0.8-1.4-1.2-1.8c2.2-1,3.8-2.4,5-4.1c-0.8-1.6-1.4-3.4-1.9-5.4c-0.4,0.9-0.9,1.6-1.4,2.3
				c-0.3-0.4-0.9-1.1-1.4-1.5c-0.1,6.3-0.3,8.6-0.8,9.4c-0.4,0.5-0.7,0.7-1.4,0.8c-0.5,0.1-1.5,0.1-2.4,0c-0.1-0.5-0.3-1.3-0.5-1.9
				c0.8,0.1,1.5,0.1,1.9,0.1c0.3,0,0.5-0.1,0.6-0.3c0.4-0.5,0.5-2.5,0.6-8.1h-2.4c0,3.6-0.4,7.3-3.3,10.4c-0.4-0.4-1-1-1.5-1.3
				c2.5-2.8,2.9-6.1,2.9-9.1v-4.4h-2.4v-1.9h9.6v1.9h-5.3v2.6h4.5c0,0,0,0.6,0,0.9v0.7c1.7-2.2,2.8-5.8,3.5-9.5l2.1,0.3
				c-0.2,1.3-0.5,2.5-0.8,3.7h6.6v1.9h-1.7V469.6z M1204.2,467.1c-0.2-0.8-0.7-2.1-1.1-3l1.8-0.5c0.4,0.9,0.9,2.1,1.1,2.9
				L1204.2,467.1z M1212.5,469.7c0.4,2.3,1,4.4,1.9,6.2c0.9-1.8,1.4-3.9,1.8-6.4h-3.6L1212.5,469.7z"/>
		</g>
	</g>
	<g>
		
			<linearGradient id="SVGID_00000137111178357123021820000016797208977069298050_" gradientUnits="userSpaceOnUse" x1="1610.6998" y1="-525.81" x2="1610.6998" y2="-724.81" gradientTransform="matrix(1 0 0 -1 0 -222.51)">
			<stop  offset="0" style="stop-color:#70AFE3"/>
			<stop  offset="1" style="stop-color:#6088DC"/>
		</linearGradient>
		<circle style="fill:url(#SVGID_00000137111178357123021820000016797208977069298050_);" cx="1610.7" cy="402.8" r="99.5"/>
		<circle class="st9" cx="1610.7" cy="402.8" r="88.5"/>
		<path class="st1" d="M1557.7,291.3c2-2,3.9-4,5.7-5.8c1.8-1.9,3.5-3.7,4.9-5.4c1.5-1.8,2.6-3.5,3.5-5.1s1.3-3.2,1.3-4.8
			c0-0.7-0.1-1.3-0.4-1.8c-0.2-0.5-0.6-1-1-1.4s-0.9-0.7-1.5-0.9c-0.6-0.2-1.2-0.3-2-0.3c-0.7,0-1.4,0.1-2,0.3
			c-0.6,0.2-1.1,0.5-1.4,0.8s-0.7,0.7-0.9,1.2c-0.2,0.4-0.3,0.8-0.3,1.3c0,1,0.2,1.9,0.5,2.7c0.4,0.8,0.8,1.5,1.4,2.1l-4.3,3.9
			c-0.9-0.4-1.7-1.2-2.4-2.3c-0.6-1.1-1.1-2.2-1.5-3.3c-0.3-1.2-0.5-2.2-0.5-2.9c0-1.8,0.5-3.4,1.4-5c1-1.6,2.4-2.9,4.3-3.9
			s4.2-1.5,6.9-1.5c2.2,0,4.1,0.5,5.8,1.5c1.6,1,2.9,2.3,3.8,3.9s1.4,3.3,1.4,5.1c0,1.4-0.2,2.8-0.7,4.2s-1.1,2.7-1.9,4
			c-0.8,1.3-1.6,2.6-2.6,3.8c-1,1.2-2,2.5-3.1,3.8l-3.2-0.9h11.8v6.7L1557.7,291.3L1557.7,291.3z M1598.1,291.4
			c-1.8,0-3.6-0.3-5.2-1c-1.6-0.6-3-1.6-4.3-2.9c-1.2-1.3-2.2-3-2.9-5c-0.7-2-1.1-4.4-1.1-7.2c0-3.1,0.3-5.6,1-7.7
			c0.7-2.1,1.6-3.7,2.8-5c1.2-1.2,2.6-2.1,4.3-2.6c1.6-0.5,3.4-0.8,5.3-0.8c1.8,0,3.5,0.3,5.1,1c1.6,0.6,3.1,1.6,4.3,3
			c1.2,1.3,2.2,3,2.9,5c0.7,2,1.1,4.4,1.1,7.2c0,2.8-0.4,5.3-1.1,7.3s-1.7,3.7-2.9,5c-1.2,1.3-2.7,2.2-4.3,2.8
			C1601.7,291.1,1599.9,291.4,1598.1,291.4z M1598.1,284.7c1.6,0,2.8-0.4,3.7-1.2c0.9-0.9,1.5-2,1.9-3.5s0.6-3.1,0.6-4.9
			s-0.2-3.3-0.6-4.7c-0.4-1.4-1-2.5-1.9-3.3s-2.1-1.2-3.7-1.2c-1.6,0-2.8,0.4-3.7,1.2c-0.9,0.8-1.5,2-1.9,3.4s-0.5,3-0.5,4.8
			s0.2,3.4,0.5,4.8c0.3,1.4,1,2.6,1.9,3.5C1595.3,284.3,1596.5,284.7,1598.1,284.7z M1624.8,291.7c-1.9,0-3.7-0.4-5.5-1.1
			c-1.8-0.7-3.2-1.6-4.2-2.5l3.6-5.6c0.6,0.7,1.4,1.3,2.4,1.8c1.1,0.4,2.1,0.7,3.1,0.7c0.7,0,1.4-0.2,2.1-0.5s1.1-0.8,1.5-1.4
			s0.6-1.4,0.6-2.4s-0.2-1.9-0.6-2.7c-0.4-0.8-1-1.4-1.7-1.8c-0.7-0.4-1.6-0.7-2.6-0.7s-1.9,0.1-2.8,0.4c-0.9,0.3-2,0.7-3.2,1.3l0,0
			v-17.9h15.9v6.7h-9.9v5.1l-0.8-1.4c0.5-0.1,0.9-0.1,1.3-0.1c0.4,0,0.8,0,1.2,0c2.2,0,4.1,0.5,5.7,1.5s2.8,2.3,3.6,3.9
			c0.8,1.6,1.2,3.4,1.2,5.3c0,2.1-0.5,4-1.4,5.7c-1,1.7-2.3,3-3.9,4C1628.6,291.2,1626.8,291.7,1624.8,291.7z M1653.1,291.4
			c-1.8,0-3.6-0.3-5.2-1c-1.6-0.6-3-1.6-4.3-2.9c-1.2-1.3-2.2-3-2.9-5c-0.7-2-1.1-4.4-1.1-7.2c0-3.1,0.3-5.6,1-7.7
			c0.7-2.1,1.6-3.7,2.8-5c1.2-1.2,2.6-2.1,4.3-2.6c1.6-0.5,3.4-0.8,5.3-0.8c1.8,0,3.5,0.3,5.1,1c1.6,0.6,3.1,1.6,4.3,3
			c1.2,1.3,2.2,3,2.9,5c0.7,2,1,4.4,1,7.2c0,2.8-0.3,5.3-1,7.3s-1.7,3.7-2.9,5c-1.2,1.3-2.7,2.2-4.3,2.8
			C1656.6,291.1,1654.9,291.4,1653.1,291.4z M1653,284.7c1.6,0,2.8-0.4,3.8-1.2c0.9-0.9,1.5-2,1.9-3.5s0.6-3.1,0.6-4.9
			s-0.2-3.3-0.6-4.7c-0.3-1.4-1-2.5-1.9-3.3s-2.2-1.2-3.8-1.2c-1.6,0-2.8,0.4-3.7,1.2c-0.9,0.8-1.5,2-1.9,3.4s-0.5,3-0.5,4.8
			s0.2,3.4,0.5,4.8c0.4,1.4,1,2.6,1.9,3.5C1650.2,284.3,1651.5,284.7,1653,284.7z"/>
		<g>
			<path class="st4" d="M1561.6,369.5h1.5l7.2,12l1.9,3.5h0.1c-0.1-1.7-0.2-3.5-0.2-5.2v-10.4h1.4v17.5h-1.5l-7.1-12l-2-3.5h-0.1
				c0.1,1.7,0.2,3.3,0.2,5.1V387h-1.4L1561.6,369.5L1561.6,369.5z"/>
			<path class="st4" d="M1578.6,369.5h9.7v1.2h-8.2v6.4h6.9v1.2h-6.9v7.4h8.5v1.2h-9.9L1578.6,369.5L1578.6,369.5z"/>
			<path class="st4" d="M1596,370.7h-5.5v-1.2h12.5v1.2h-5.5V387h-1.5V370.7z"/>
			<path class="st4" d="M1603.5,386.1l9.9-15.4h-9v-1.2h10.8v0.8l-9.9,15.4h10v1.2h-11.8V386.1z"/>
			<path class="st4" d="M1619.1,369.5h9.7v1.2h-8.2v6.4h6.9v1.2h-6.9v7.4h8.5v1.2h-9.9L1619.1,369.5L1619.1,369.5z"/>
			<path class="st4" d="M1642.5,387l-4.7-7.9h-3.6v7.9h-1.4v-17.5h5.1c3.5,0,5.8,1.3,5.8,4.7c0,2.8-1.7,4.4-4.4,4.8l4.7,8H1642.5z
				 M1634.3,377.9h3.3c3,0,4.7-1.2,4.7-3.7s-1.7-3.5-4.7-3.5h-3.3V377.9z"/>
			<path class="st4" d="M1646.3,378.1c0-5.5,3-9,7.2-9c4.3,0,7.3,3.5,7.3,9c0,5.6-3,9.1-7.3,9.1
				C1649.4,387.3,1646.3,383.7,1646.3,378.1z M1659.4,378.1c0-4.8-2.3-7.7-5.8-7.7s-5.7,3-5.7,7.7c0,4.8,2.3,7.8,5.7,7.8
				C1657.1,386,1659.4,382.9,1659.4,378.1z"/>
		</g>
		<g>
			<path d="M1564.6,409.3v1.5h-3.8l-0.2,1.8H1548l0.2-1.8h-3.5v-1.5h3.7l0.2-1.8h12.4l-0.2,1.8H1564.6z M1557.9,420.4
				c2.2,0.6,4.5,1.3,6,1.8l-1.4,1.3c-1.5-0.6-4.1-1.5-6.6-2.1l0.9-0.9h-4.5l1.3,0.9c-1.8,1-4.8,1.8-7.3,2.2c-0.2-0.4-0.7-1-1.1-1.4
				c2.1-0.3,4.8-1,6.3-1.7h-3.8v-7h14v7L1557.9,420.4L1557.9,420.4z M1547.4,408.7h-1.8v-3.6h8.2c-0.2-0.5-0.6-1.1-0.8-1.5l1.8-0.5
				c0.5,0.6,0.9,1.4,1.2,2h8v3.6h-1.9v-2h-14.6L1547.4,408.7L1547.4,408.7z M1549.7,415.4h10v-0.8h-10V415.4z M1549.7,417.3h10v-0.9
				h-10V417.3z M1549.7,419.3h10v-0.9h-10V419.3z M1550,411.5h3.6c0-0.3,0.1-0.6,0.1-0.9h-3.6L1550,411.5z M1550.4,408.7l-0.1,0.8
				h3.6l0.1-0.8H1550.4z M1558.9,411.5l0.1-0.9h-3.5c0,0.3-0.1,0.6-0.1,0.9H1558.9z M1559.1,408.7h-3.5l-0.1,0.8h3.5L1559.1,408.7z"
				/>
			<path d="M1574.7,417.8c-2.8,0.8-5.7,1.7-7.9,2.3l-0.5-2c0.9-0.2,2.1-0.5,3.3-0.8v-4.9h-2.6v-1.9h2.6v-4.3h-2.9v-1.9h7.5v1.9h-2.7
				v4.3h2.5v1.9h-2.5v4.4l2.8-0.8L1574.7,417.8z M1584.8,421.5c0.5,0,0.6-0.3,0.6-2.6c0.4,0.3,1.2,0.6,1.7,0.8
				c-0.2,2.8-0.7,3.5-2.1,3.5h-1.9c-1.8,0-2.2-0.6-2.2-2.4v-4.6h-1.8c-0.4,3.5-1.5,6-6,7.3c-0.2-0.5-0.7-1.3-1.1-1.7
				c3.9-1,4.8-2.9,5.1-5.7h-1.8v-12h10.4v12.1h-2.9v4.6c0,0.6,0.1,0.7,0.5,0.7L1584.8,421.5L1584.8,421.5z M1577.2,407.6h6.5v-1.8
				h-6.5V407.6z M1577.2,411h6.5v-1.8h-6.5V411z M1577.2,414.5h6.5v-1.8h-6.5V414.5z"/>
			<path d="M1592.1,413.3c-0.8-0.8-2.5-1.8-3.8-2.4l1-1.5c1.3,0.5,3,1.4,3.8,2.2L1592.1,413.3z M1588.8,421.8
				c1.1-1.6,2.6-4.4,3.8-6.8l1.4,1.4c-1.1,2.2-2.4,4.8-3.6,6.8L1588.8,421.8z M1593.2,407.5c-0.8-0.8-2.4-1.9-3.7-2.5l1-1.5
				c1.3,0.6,3,1.6,3.8,2.4L1593.2,407.5z M1608.7,415h-1.7v3.3h-5.1v2.7c0,1.1-0.2,1.6-0.9,1.9c-0.7,0.3-1.8,0.3-3.5,0.3
				c-0.1-0.5-0.3-1.3-0.6-1.8c1.2,0,2.3,0,2.7,0s0.5-0.1,0.5-0.4v-2.7h-4.9v-1.6h4.9V415h-6v-1.8h6v-1.6h-4.7V410h1.1
				c-0.2-0.8-0.7-1.8-1.2-2.7l1.4-0.6c0.6,0.8,1.1,1.9,1.3,2.6l-1.4,0.6h10.4v3.3h1.7V415z M1607.2,404.7c-3.2,0.9-8,1.5-12.1,1.7
				c-0.1-0.5-0.3-1.2-0.5-1.6c4-0.3,8.6-0.9,11.2-1.6L1607.2,404.7z M1600.6,409.7c-0.1-0.8-0.6-2-1.1-3l1.5-0.5
				c0.5,0.9,1,2.1,1.2,2.9L1600.6,409.7z M1601.9,413.2h3.3v-1.6h-3.3V413.2z M1605.3,415h-3.3v1.7h3.3V415z M1603.6,409.1
				c0.6-0.9,1.3-2.3,1.7-3.3l1.9,0.6c-0.6,1.2-1.4,2.5-1.9,3.3L1603.6,409.1z"/>
			<path d="M1622.4,412c-0.2,0.1-0.3,0.2-0.4,0.4c2,1,5.7,2,8.9,2.5c-0.4,0.4-0.9,1.2-1.2,1.7c-1.5-0.3-3-0.7-4.5-1.2v0.8h-9.1v-0.8
				c-1.4,0.5-2.7,0.9-4,1.3c-0.4-0.4-1.1-1.1-1.6-1.4c3.6-0.8,7.4-2.2,9.8-3.9h-0.7V408h-6.5v2.6h-1.8v-3.9h8.3v-1h-7v-1.5h16v1.5
				h-7v1h8.4v3.9h-1.9V408h-6.5v3.4h-0.6L1622.4,412z M1613.1,411.2c1.3-0.2,3-0.6,4.9-1c-1-0.4-2.8-0.8-4.1-1.1l0.6-1.1
				c1.4,0.2,3.2,0.7,4.2,1l-0.5,1.1l0.6-0.1l0.1,1.2c-1.8,0.5-3.7,1-5.2,1.5L1613.1,411.2z M1626,416.8l1.3,0.8
				c-1,1.4-2.7,2.6-4.3,3.6c0.7,0.3,1.3,0.6,1.8,0.8l-0.9,1.4c-1.7-0.9-5.1-2.3-7.6-3.2l0.9-1.3c1.1,0.4,2.5,0.9,3.8,1.4
				c1-0.5,2.2-1.3,3.1-2h-10.8v-1.5h12.4L1626,416.8z M1624,414.8c-1.3-0.5-2.5-1.1-3.4-1.6c-1,0.6-2.2,1.1-3.4,1.6H1624z
				 M1622.9,409.9h0.2l-0.5-0.8c1.2-0.2,3.1-0.8,4.2-1.1l0.8,1.1c-1.1,0.4-2.7,0.7-3.9,1c1.6,0.4,3.5,0.9,4.6,1.3l-0.5,1.3
				c-1.2-0.5-3.6-1.2-5.4-1.6L1622.9,409.9z"/>
			<path d="M1650.2,404.5v18.8h-2.2v-1.5h-10.9v1.5h-2.1v-18.8H1650.2z M1637.1,406.5v3.1h10.9v-3.1H1637.1z M1637.1,411.5v3.2h10.9
				v-3.2H1637.1z M1648,419.8v-3.1h-10.9v3.1H1648z"/>
			<path d="M1661.1,415.6c-0.3-0.7-0.8-1.8-1.4-2.8v10.6h-1.9v-10.2c-0.7,2.3-1.6,4.5-2.5,5.9c-0.2-0.6-0.7-1.5-1-2
				c1.3-1.7,2.6-5,3.2-7.7h-2.7v-1.9h2.9v-4.1h1.9v4.1h2.3v1.9h-2.3v1.1c0.6,0.8,2.2,3.3,2.6,3.9L1661.1,415.6z M1665.9,418.8
				c-0.8,1.5-2,3.1-3.1,4c-0.4-0.3-1.1-0.8-1.5-1.1c1.1-0.9,2.2-2.2,2.9-3.5L1665.9,418.8z M1665.8,405.8h-3.8v-1.7h12.3v1.7h-3.9
				v1.2h3.5v5.2h-11.5V407h3.3L1665.8,405.8L1665.8,405.8z M1669.1,417.7v5.7h-1.8v-5.7h-5.1v-1.6h12.4v1.6H1669.1z M1663.5,414.8
				v-1.6h9.6v1.6H1663.5z M1664.2,410.7h1.6v-2.2h-1.6V410.7z M1668.9,405.8h-1.6v1.2h1.6V405.8z M1667.3,410.7h1.6v-2.2h-1.6V410.7
				z M1671.8,418.3c1.1,1.1,2.3,2.5,2.9,3.5l-1.6,0.9c-0.5-1-1.7-2.6-2.8-3.6L1671.8,418.3z M1670.4,408.5v2.2h1.8v-2.2H1670.4z"/>
		</g>
	</g>
</g>
</svg>
