<?xml version="1.0" encoding="utf-8"?>
<!-- Generator: Adobe Illustrator 28.1.0, SVG Export Plug-In . SVG Version: 6.00 Build 0)  -->
<svg version="1.1" id="圖層_1" xmlns="http://www.w3.org/2000/svg" xmlns:xlink="http://www.w3.org/1999/xlink" x="0px" y="0px"
	 viewBox="0 0 1088.5 512.8" style="enable-background:new 0 0 1088.5 512.8;" xml:space="preserve">
<style type="text/css">
	.st0{fill:none;stroke:#90D8ED;stroke-width:9;}
	.st1{fill:url(#SVGID_1_);}
	.st2{fill:#FFFFFF;}
	.st3{fill:#333333;}
	.st4{fill:none;stroke:#91D5EC;stroke-width:5;stroke-linecap:round;stroke-dasharray:6,10;}
	.st5{fill:url(#SVGID_00000174564556037869593870000010327307868195330183_);}
	.st6{fill:url(#SVGID_00000023996773785431967500000005078457366728208813_);}
	.st7{fill:url(#SVGID_00000119086280106040062980000017760134809446724013_);}
	.st8{fill:url(#SVGID_00000162313393844624189970000002394131971109897857_);}
	.st9{fill:#5492ED;}
</style>
<path class="st0" d="M980,408.6c-537.1,0-939.7-38.8-939.7-146.2c0-67.9,231.2-122.4,534.4-129.9"/>
<linearGradient id="SVGID_1_" gradientUnits="userSpaceOnUse" x1="989" y1="1045.71" x2="989" y2="1244.71" gradientTransform="matrix(1 0 0 1 0 -735.51)">
	<stop  offset="0" style="stop-color:#70AFE3"/>
	<stop  offset="1" style="stop-color:#6088DC"/>
</linearGradient>
<circle class="st1" cx="989" cy="409.7" r="99.5"/>
<circle class="st2" cx="989" cy="409.7" r="88.5"/>
<path class="st3" d="M24.8,170c2-2,3.9-4,5.7-5.8c1.8-1.9,3.5-3.7,4.9-5.4c1.5-1.8,2.6-3.5,3.5-5.1s1.3-3.2,1.3-4.8
	c0-0.7-0.1-1.3-0.4-1.8c-0.2-0.5-0.6-1-1-1.4s-0.9-0.7-1.5-0.9s-1.2-0.3-2-0.3s-1.4,0.1-2,0.3s-1.1,0.5-1.4,0.8s-0.7,0.7-0.9,1.2
	c-0.2,0.4-0.3,0.8-0.3,1.3c0,1,0.2,1.9,0.5,2.7c0.4,0.8,0.8,1.5,1.4,2.1l-4.3,3.9c-0.9-0.4-1.7-1.2-2.4-2.3
	c-0.6-1.1-1.1-2.2-1.5-3.3c-0.3-1.2-0.5-2.2-0.5-2.9c0-1.8,0.5-3.4,1.4-5c1-1.6,2.4-2.9,4.3-3.9s4.2-1.5,6.9-1.5
	c2.2,0,4.1,0.5,5.8,1.5c1.6,1,2.9,2.3,3.8,3.9c0.9,1.6,1.4,3.3,1.4,5.1c0,1.4-0.2,2.8-0.7,4.2c-0.4,1.3-1.1,2.7-1.9,4
	c-0.8,1.3-1.6,2.6-2.6,3.8s-2,2.5-3.1,3.8l-3.2-0.9h11.8v6.7L24.8,170L24.8,170z M65.3,170c-1.8,0-3.6-0.3-5.2-1
	c-1.6-0.6-3-1.6-4.3-2.9c-1.2-1.3-2.2-3-2.9-5s-1.1-4.4-1.1-7.2c0-3.1,0.3-5.6,1-7.7c0.7-2.1,1.6-3.7,2.8-5c1.2-1.2,2.6-2.1,4.3-2.6
	c1.6-0.5,3.4-0.8,5.3-0.8c1.8,0,3.5,0.3,5.1,1c1.6,0.6,3.1,1.6,4.3,3c1.2,1.3,2.2,3,2.9,5c0.7,2,1.1,4.4,1.1,7.2s-0.4,5.3-1.1,7.3
	s-1.7,3.7-2.9,5c-1.2,1.3-2.7,2.2-4.3,2.8C68.8,169.7,67.1,170,65.3,170z M65.2,163.3c1.6,0,2.8-0.4,3.7-1.2c0.9-0.9,1.5-2,1.9-3.5
	s0.6-3.1,0.6-4.9c0-1.8-0.2-3.3-0.6-4.7s-1-2.5-1.9-3.3s-2.1-1.2-3.7-1.2s-2.8,0.4-3.7,1.2s-1.5,2-1.9,3.4s-0.5,3-0.5,4.8
	s0.2,3.4,0.5,4.8c0.4,1.4,1,2.6,1.9,3.5C62.4,162.9,63.6,163.3,65.2,163.3z M82.9,170c2-2,3.9-4,5.7-5.8c1.8-1.9,3.5-3.7,4.9-5.4
	c1.5-1.8,2.6-3.5,3.5-5.1s1.3-3.2,1.3-4.8c0-0.7-0.1-1.3-0.4-1.8c-0.2-0.5-0.6-1-1-1.4s-0.9-0.7-1.5-0.9s-1.2-0.3-2-0.3
	s-1.4,0.1-2,0.3s-1.1,0.5-1.4,0.8c-0.4,0.4-0.7,0.7-0.9,1.2c-0.2,0.4-0.3,0.8-0.3,1.3c0,1,0.2,1.9,0.5,2.7c0.4,0.8,0.8,1.5,1.4,2.1
	l-4.3,3.9c-0.9-0.4-1.7-1.2-2.4-2.3c-0.6-1.1-1.1-2.2-1.5-3.3c-0.3-1.2-0.5-2.2-0.5-2.9c0-1.8,0.5-3.4,1.4-5c1-1.6,2.4-2.9,4.3-3.9
	s4.2-1.5,6.9-1.5c2.2,0,4.1,0.5,5.8,1.5c1.6,1,2.9,2.3,3.8,3.9c0.9,1.6,1.4,3.3,1.4,5.1c0,1.4-0.2,2.8-0.7,4.2s-1.1,2.7-1.9,4
	s-1.6,2.6-2.6,3.8s-2,2.5-3.1,3.8l-3.2-0.9h11.8v6.7L82.9,170L82.9,170z M130.2,138.1L123,152l-3.8-2.1c0.3-0.1,0.7-0.2,1-0.3
	c0.4-0.1,0.7-0.1,1.1-0.1c1.1,0,2.2,0.1,3.4,0.4c1.1,0.3,2.1,0.8,3,1.5c0.9,0.7,1.7,1.7,2.2,3c0.6,1.3,0.9,2.9,0.9,4.9
	c0,2.3-0.5,4.3-1.6,6c-1.1,1.6-2.4,2.9-4.2,3.7c-1.7,0.9-3.6,1.3-5.6,1.3c-1.6,0-3.2-0.3-4.9-1c-1.7-0.7-3.1-1.6-4.1-2.6l3.6-5.8
	c0.5,0.6,1.2,1.2,2.2,1.8s2,0.9,3.1,0.9c0.7,0,1.4-0.2,2.1-0.5s1.2-0.9,1.7-1.6s0.7-1.6,0.7-2.6c0-1.4-0.4-2.5-1.2-3.4
	c-0.8-0.8-1.9-1.2-3.3-1.2c-1,0-1.7,0-2.2,0.1s-1,0.2-1.4,0.3l-0.1-0.2l5.6-10.5l2,0.8h-10v-6.7L130.2,138.1L130.2,138.1z"/>
<path class="st3" d="M123,303c2-2,3.9-4,5.7-5.8c1.8-1.9,3.5-3.7,4.9-5.4c1.5-1.8,2.6-3.5,3.5-5.1s1.3-3.2,1.3-4.8
	c0-0.7-0.1-1.3-0.4-1.8c-0.2-0.5-0.6-1-1-1.4s-0.9-0.7-1.5-0.9c-0.6-0.2-1.2-0.3-2-0.3c-0.7,0-1.4,0.1-2,0.3
	c-0.6,0.2-1.1,0.5-1.4,0.8s-0.7,0.7-0.9,1.2c-0.2,0.4-0.3,0.8-0.3,1.3c0,1,0.2,1.9,0.5,2.7c0.4,0.8,0.8,1.5,1.4,2.1l-4.3,3.9
	c-0.9-0.4-1.7-1.2-2.4-2.3c-0.6-1.1-1.1-2.2-1.5-3.3c-0.3-1.2-0.5-2.2-0.5-2.9c0-1.8,0.5-3.4,1.4-5c1-1.6,2.4-2.9,4.3-3.9
	c1.9-1,4.2-1.5,6.9-1.5c2.2,0,4.1,0.5,5.8,1.5c1.6,1,2.9,2.3,3.8,3.9c0.9,1.6,1.4,3.3,1.4,5.1c0,1.4-0.2,2.8-0.7,4.2s-1.1,2.7-1.9,4
	c-0.8,1.3-1.6,2.6-2.6,3.8c-1,1.2-2,2.5-3.1,3.8l-3.2-0.9H146v6.7L123,303L123,303z M163.5,303c-1.8,0-3.6-0.3-5.2-1
	c-1.6-0.6-3-1.6-4.3-2.9c-1.2-1.3-2.2-3-2.9-5s-1.1-4.4-1.1-7.2c0-3.1,0.3-5.6,1-7.7s1.6-3.7,2.8-5c1.2-1.2,2.6-2.1,4.3-2.6
	c1.6-0.5,3.4-0.8,5.3-0.8c1.8,0,3.5,0.3,5.1,1c1.6,0.6,3.1,1.6,4.3,3c1.2,1.3,2.2,3,2.9,5s1.1,4.4,1.1,7.2c0,2.8-0.4,5.3-1.1,7.3
	c-0.7,2-1.7,3.7-2.9,5s-2.7,2.2-4.3,2.8C167,302.7,165.3,303,163.5,303z M163.4,296.4c1.6,0,2.8-0.4,3.7-1.2c0.9-0.9,1.5-2,1.9-3.5
	s0.6-3.1,0.6-4.9s-0.2-3.3-0.6-4.7c-0.4-1.4-1-2.5-1.9-3.3s-2.1-1.2-3.7-1.2c-1.6,0-2.8,0.4-3.7,1.2c-0.9,0.8-1.5,2-1.9,3.4
	s-0.5,3-0.5,4.8s0.2,3.4,0.5,4.8c0.4,1.4,1,2.6,1.9,3.5C160.6,295.9,161.8,296.4,163.4,296.4z M200.4,271.2l-7.2,13.8l-3.8-2.1
	c0.3-0.1,0.7-0.2,1-0.3c0.4-0.1,0.7-0.1,1.1-0.1c1.1,0,2.2,0.1,3.4,0.4c1.1,0.3,2.1,0.8,3,1.5s1.7,1.7,2.2,3
	c0.6,1.3,0.9,2.9,0.9,4.9c0,2.3-0.5,4.3-1.6,6c-1.1,1.6-2.4,2.9-4.2,3.7s-3.6,1.3-5.6,1.3c-1.6,0-3.2-0.3-4.9-1s-3.1-1.6-4.1-2.6
	l3.6-5.8c0.5,0.6,1.2,1.2,2.2,1.8c1,0.6,2,0.9,3.1,0.9c0.7,0,1.4-0.2,2.1-0.5s1.2-0.9,1.7-1.6s0.7-1.6,0.7-2.6
	c0-1.4-0.4-2.5-1.2-3.4c-0.8-0.8-1.9-1.2-3.3-1.2c-1,0-1.7,0-2.2,0.1s-1,0.2-1.4,0.3l-0.1-0.2l5.6-10.5l2,0.8h-10v-6.7h17V271.2z
	 M218.9,303c-1.8,0-3.6-0.3-5.2-1c-1.6-0.6-3-1.6-4.3-2.9c-1.2-1.3-2.2-3-2.9-5s-1.1-4.4-1.1-7.2c0-3.1,0.3-5.6,1-7.7s1.6-3.7,2.8-5
	c1.2-1.2,2.6-2.1,4.3-2.6c1.6-0.5,3.4-0.8,5.3-0.8c1.8,0,3.5,0.3,5.1,1c1.6,0.6,3.1,1.6,4.3,3c1.2,1.3,2.2,3,2.9,5s1.1,4.4,1.1,7.2
	c0,2.8-0.4,5.3-1.1,7.3c-0.7,2-1.7,3.7-2.9,5s-2.7,2.2-4.3,2.8C222.4,302.7,220.7,303,218.9,303z M218.9,296.4
	c1.6,0,2.8-0.4,3.7-1.2c0.9-0.9,1.5-2,1.9-3.5s0.6-3.1,0.6-4.9s-0.2-3.3-0.6-4.7c-0.4-1.4-1-2.5-1.9-3.3s-2.1-1.2-3.7-1.2
	c-1.6,0-2.8,0.4-3.7,1.2c-0.9,0.8-1.5,2-1.9,3.4s-0.5,3-0.5,4.8s0.2,3.4,0.5,4.8s1,2.6,1.9,3.5C216.1,295.9,217.3,296.4,218.9,296.4
	z"/>
<path class="st3" d="M419.9,348.2c2-2,3.9-4,5.7-5.8c1.8-1.9,3.5-3.7,4.9-5.4c1.5-1.8,2.6-3.5,3.5-5.1s1.3-3.2,1.3-4.8
	c0-0.7-0.1-1.3-0.4-1.8c-0.2-0.5-0.6-1-1-1.4s-0.9-0.7-1.5-0.9c-0.6-0.2-1.2-0.3-2-0.3s-1.4,0.1-2,0.3c-0.6,0.2-1.1,0.5-1.4,0.8
	s-0.7,0.7-0.9,1.2c-0.2,0.4-0.3,0.8-0.3,1.3c0,1,0.2,1.9,0.5,2.7c0.4,0.8,0.8,1.5,1.4,2.1l-4.3,3.9c-0.9-0.4-1.7-1.2-2.4-2.3
	c-0.6-1.1-1.1-2.2-1.5-3.3c-0.3-1.2-0.5-2.2-0.5-2.9c0-1.8,0.5-3.4,1.4-5c1-1.6,2.4-2.9,4.3-3.9s4.2-1.5,6.9-1.5
	c2.2,0,4.1,0.5,5.8,1.5c1.6,1,2.9,2.3,3.8,3.9s1.4,3.3,1.4,5.1c0,1.4-0.2,2.8-0.7,4.2c-0.4,1.3-1.1,2.7-1.9,4s-1.6,2.6-2.6,3.8
	c-1,1.2-2,2.5-3.1,3.8l-3.2-0.9h11.8v6.7L419.9,348.2L419.9,348.2z M460.3,348.3c-1.8,0-3.6-0.3-5.2-1c-1.6-0.6-3-1.6-4.3-2.9
	c-1.2-1.3-2.2-3-2.9-5c-0.7-2-1.1-4.4-1.1-7.2c0-3.1,0.3-5.6,1-7.7s1.6-3.7,2.8-5c1.2-1.2,2.6-2.1,4.3-2.6c1.6-0.5,3.4-0.8,5.3-0.8
	c1.8,0,3.5,0.3,5.1,1c1.6,0.6,3.1,1.6,4.3,3c1.2,1.3,2.2,3,2.9,5c0.7,2,1.1,4.4,1.1,7.2c0,2.8-0.4,5.3-1.1,7.3s-1.7,3.7-2.9,5
	c-1.2,1.3-2.7,2.2-4.3,2.8C463.9,348,462.1,348.3,460.3,348.3z M460.3,341.6c1.6,0,2.8-0.4,3.7-1.2c0.9-0.9,1.5-2,1.9-3.5
	s0.6-3.1,0.6-4.9s-0.2-3.3-0.6-4.7c-0.4-1.4-1-2.5-1.9-3.3s-2.1-1.2-3.7-1.2s-2.8,0.4-3.7,1.2c-0.9,0.8-1.5,2-1.9,3.4
	s-0.5,3-0.5,4.8s0.2,3.4,0.5,4.8s1,2.6,1.9,3.5C457.5,341.2,458.7,341.6,460.3,341.6z M497.3,316.4l-7.2,13.8l-3.8-2.1
	c0.3-0.1,0.7-0.2,1-0.3c0.4-0.1,0.7-0.1,1.1-0.1c1.1,0,2.2,0.1,3.4,0.4c1.1,0.3,2.1,0.8,3,1.5s1.7,1.7,2.2,3
	c0.6,1.3,0.9,2.9,0.9,4.9c0,2.3-0.5,4.3-1.6,6c-1.1,1.6-2.4,2.9-4.2,3.7s-3.6,1.3-5.6,1.3c-1.6,0-3.2-0.3-4.9-1
	c-1.7-0.7-3.1-1.6-4.1-2.6l3.6-5.8c0.5,0.6,1.2,1.2,2.2,1.8s2,0.9,3.1,0.9c0.7,0,1.4-0.2,2.1-0.5c0.7-0.4,1.2-0.9,1.7-1.6
	s0.7-1.6,0.7-2.6c0-1.4-0.4-2.5-1.2-3.4c-0.8-0.8-1.9-1.2-3.3-1.2c-1,0-1.7,0-2.2,0.1s-1,0.2-1.4,0.3l-0.1-0.2l5.6-10.5l2,0.8h-10
	v-6.7h17V316.4z M512.3,348.6c-1.9,0-3.7-0.4-5.5-1.1s-3.2-1.6-4.2-2.5l3.6-5.6c0.6,0.7,1.4,1.3,2.4,1.8c1.1,0.4,2.1,0.7,3.1,0.7
	c0.7,0,1.4-0.2,2.1-0.5c0.6-0.3,1.2-0.8,1.5-1.4c0.4-0.6,0.6-1.4,0.6-2.4s-0.2-1.9-0.6-2.7c-0.4-0.8-1-1.4-1.7-1.8s-1.6-0.7-2.6-0.7
	s-1.9,0.1-2.8,0.4s-2,0.7-3.2,1.3l0,0v-17.9h15.9v6.7H511v5.1l-0.8-1.4c0.4-0.1,0.9-0.1,1.3-0.1s0.8,0,1.2,0c2.2,0,4.1,0.5,5.7,1.5
	c1.6,1,2.8,2.3,3.6,3.9s1.2,3.4,1.2,5.3c0,2.1-0.5,4-1.4,5.7c-1,1.7-2.3,3-3.9,4C516.2,348.1,514.3,348.6,512.3,348.6z"/>
<path class="st3" d="M701.1,361.2c2-2,3.9-4,5.7-5.8c1.8-1.9,3.5-3.7,4.9-5.4c1.5-1.8,2.6-3.5,3.5-5.1s1.3-3.2,1.3-4.8
	c0-0.7-0.1-1.3-0.4-1.8c-0.2-0.5-0.6-1-1-1.4s-0.9-0.7-1.5-0.9c-0.6-0.2-1.2-0.3-2-0.3c-0.7,0-1.4,0.1-2,0.3
	c-0.6,0.2-1.1,0.5-1.4,0.8c-0.4,0.4-0.7,0.7-0.9,1.2c-0.2,0.4-0.3,0.8-0.3,1.3c0,1,0.2,1.9,0.5,2.7c0.4,0.8,0.8,1.5,1.4,2.1
	l-4.3,3.9c-0.9-0.4-1.7-1.2-2.4-2.3c-0.6-1.1-1.1-2.2-1.5-3.3c-0.3-1.2-0.5-2.2-0.5-2.9c0-1.8,0.5-3.4,1.4-5c1-1.6,2.4-2.9,4.3-3.9
	c1.9-1,4.2-1.5,6.9-1.5c2.2,0,4.1,0.5,5.8,1.5c1.6,1,2.9,2.3,3.8,3.9c0.9,1.6,1.4,3.3,1.4,5.1c0,1.4-0.2,2.8-0.7,4.2s-1.1,2.7-1.9,4
	c-0.8,1.3-1.6,2.6-2.6,3.8c-1,1.2-2,2.5-3.1,3.8l-3.2-0.9h11.8v6.7L701.1,361.2L701.1,361.2z M741.5,361.3c-1.8,0-3.6-0.3-5.2-1
	c-1.6-0.6-3-1.6-4.3-2.9c-1.2-1.3-2.2-3-2.9-5s-1.1-4.4-1.1-7.2c0-3.1,0.3-5.6,1-7.7s1.6-3.7,2.8-5c1.2-1.2,2.6-2.1,4.3-2.6
	c1.6-0.5,3.4-0.8,5.3-0.8c1.8,0,3.5,0.3,5.1,1c1.6,0.6,3.1,1.6,4.3,3c1.2,1.3,2.2,3,2.9,5s1.1,4.4,1.1,7.2c0,2.8-0.4,5.3-1.1,7.3
	c-0.7,2-1.7,3.7-2.9,5s-2.7,2.2-4.3,2.8C745.1,361,743.4,361.3,741.5,361.3z M741.5,354.6c1.6,0,2.8-0.4,3.7-1.2
	c0.9-0.9,1.5-2,1.9-3.5s0.6-3.1,0.6-4.9s-0.2-3.3-0.6-4.7c-0.4-1.4-1-2.5-1.9-3.3s-2.1-1.2-3.7-1.2c-1.6,0-2.8,0.4-3.7,1.2
	c-0.9,0.8-1.5,2-1.9,3.4s-0.5,3-0.5,4.8s0.2,3.4,0.5,4.8s1,2.6,1.9,3.5C738.7,354.2,739.9,354.6,741.5,354.6z M757.1,354.3
	L757.1,354.3l20.3-25.2l0,0v20h3.8v5.3h-3.8v7h-7v-7L757.1,354.3L757.1,354.3z M770.8,344.3l-3.7,4.9l-0.7-0.3h4v-5L770.8,344.3z
	 M798.2,361.3c-1.8,0-3.6-0.3-5.2-1c-1.6-0.6-3-1.6-4.3-2.9c-1.2-1.3-2.2-3-2.9-5s-1.1-4.4-1.1-7.2c0-3.1,0.3-5.6,1-7.7
	s1.6-3.7,2.8-5c1.2-1.2,2.6-2.1,4.3-2.6c1.6-0.5,3.4-0.8,5.3-0.8c1.8,0,3.5,0.3,5.1,1c1.6,0.6,3.1,1.6,4.3,3c1.2,1.3,2.2,3,2.9,5
	s1.1,4.4,1.1,7.2c0,2.8-0.4,5.3-1.1,7.3c-0.7,2-1.7,3.7-2.9,5s-2.7,2.2-4.3,2.8C801.8,361,800,361.3,798.2,361.3z M798.2,354.6
	c1.6,0,2.8-0.4,3.7-1.2c0.9-0.9,1.5-2,1.9-3.5s0.6-3.1,0.6-4.9s-0.2-3.3-0.6-4.7c-0.4-1.4-1-2.5-1.9-3.3s-2.1-1.2-3.7-1.2
	c-1.6,0-2.8,0.4-3.7,1.2c-0.9,0.8-1.5,2-1.9,3.4s-0.5,3-0.5,4.8s0.2,3.4,0.5,4.8s1,2.6,1.9,3.5C795.4,354.2,796.6,354.6,798.2,354.6
	z"/>
<path class="st3" d="M936,298.2c2-2,3.9-4,5.7-5.8c1.8-1.9,3.5-3.7,4.9-5.4c1.5-1.8,2.6-3.5,3.5-5.1s1.3-3.2,1.3-4.8
	c0-0.7-0.1-1.3-0.4-1.8c-0.2-0.5-0.6-1-1-1.4s-0.9-0.7-1.5-0.9c-0.6-0.2-1.2-0.3-2-0.3c-0.7,0-1.4,0.1-2,0.3
	c-0.6,0.2-1.1,0.5-1.4,0.8s-0.7,0.7-0.9,1.2c-0.2,0.4-0.3,0.8-0.3,1.3c0,1,0.2,1.9,0.5,2.7c0.4,0.8,0.8,1.5,1.4,2.1l-4.3,3.9
	c-0.9-0.4-1.7-1.2-2.4-2.3c-0.6-1.1-1.1-2.2-1.5-3.3c-0.3-1.2-0.5-2.2-0.5-2.9c0-1.8,0.5-3.4,1.4-5c1-1.6,2.4-2.9,4.3-3.9
	c1.9-1,4.2-1.5,6.9-1.5c2.2,0,4.1,0.5,5.8,1.5c1.6,1,2.9,2.3,3.8,3.9c0.9,1.6,1.4,3.3,1.4,5.1c0,1.4-0.2,2.8-0.7,4.2s-1.1,2.7-1.9,4
	c-0.8,1.3-1.6,2.6-2.6,3.8c-1,1.2-2,2.5-3.1,3.8l-3.2-0.9H959v6.7L936,298.2L936,298.2z M976.4,298.3c-1.8,0-3.6-0.3-5.2-1
	c-1.6-0.6-3-1.6-4.3-2.9c-1.2-1.3-2.2-3-2.9-5s-1.1-4.4-1.1-7.2c0-3.1,0.3-5.6,1-7.7s1.6-3.7,2.8-5c1.2-1.2,2.6-2.1,4.3-2.6
	c1.6-0.5,3.4-0.8,5.3-0.8c1.8,0,3.5,0.3,5.1,1c1.6,0.6,3.1,1.6,4.3,3c1.2,1.3,2.2,3,2.9,5s1.1,4.4,1.1,7.2c0,2.8-0.4,5.3-1.1,7.3
	c-0.7,2-1.7,3.7-2.9,5s-2.7,2.2-4.3,2.8C980,298,978.2,298.3,976.4,298.3z M976.4,291.6c1.6,0,2.8-0.4,3.7-1.2
	c0.9-0.9,1.5-2,1.9-3.5s0.6-3.1,0.6-4.9s-0.2-3.3-0.6-4.7c-0.4-1.4-1-2.5-1.9-3.3s-2.1-1.2-3.7-1.2c-1.6,0-2.8,0.4-3.7,1.2
	c-0.9,0.8-1.5,2-1.9,3.4s-0.5,3-0.5,4.8s0.2,3.4,0.5,4.8s1,2.6,1.9,3.5C973.6,291.2,974.8,291.6,976.4,291.6z M1003.1,298.6
	c-1.9,0-3.7-0.4-5.5-1.1s-3.2-1.6-4.2-2.5l3.6-5.6c0.6,0.7,1.4,1.3,2.4,1.8c1.1,0.4,2.1,0.7,3.1,0.7c0.7,0,1.4-0.2,2.1-0.5
	s1.1-0.8,1.5-1.4s0.6-1.4,0.6-2.4s-0.2-1.9-0.6-2.7c-0.4-0.8-1-1.4-1.7-1.8s-1.6-0.7-2.6-0.7s-1.9,0.1-2.8,0.4
	c-0.9,0.3-2,0.7-3.2,1.3l0,0v-17.9h15.9v6.7h-9.9v5.1l-0.8-1.4c0.5-0.1,0.9-0.1,1.3-0.1c0.4,0,0.8,0,1.2,0c2.2,0,4.1,0.5,5.7,1.5
	c1.6,1,2.8,2.3,3.6,3.9s1.2,3.4,1.2,5.3c0,2.1-0.5,4-1.4,5.7c-1,1.7-2.3,3-3.9,4C1006.9,298.1,1005.1,298.6,1003.1,298.6z
	 M1031.4,298.3c-1.8,0-3.6-0.3-5.2-1c-1.6-0.6-3-1.6-4.3-2.9c-1.2-1.3-2.2-3-2.9-5s-1.1-4.4-1.1-7.2c0-3.1,0.3-5.6,1-7.7
	s1.6-3.7,2.8-5c1.2-1.2,2.6-2.1,4.3-2.6c1.6-0.5,3.4-0.8,5.3-0.8c1.8,0,3.5,0.3,5.1,1c1.6,0.6,3.1,1.6,4.3,3c1.2,1.3,2.2,3,2.9,5
	c0.7,2,1,4.4,1,7.2c0,2.8-0.3,5.3-1,7.3s-1.7,3.7-2.9,5c-1.2,1.3-2.7,2.2-4.3,2.8C1034.9,298,1033.2,298.3,1031.4,298.3z
	 M1031.3,291.6c1.6,0,2.8-0.4,3.8-1.2c0.9-0.9,1.5-2,1.9-3.5s0.6-3.1,0.6-4.9s-0.2-3.3-0.6-4.7c-0.3-1.4-1-2.5-1.9-3.3
	s-2.2-1.2-3.8-1.2c-1.6,0-2.8,0.4-3.7,1.2c-0.9,0.8-1.5,2-1.9,3.4s-0.5,3-0.5,4.8s0.2,3.4,0.5,4.8c0.4,1.4,1,2.6,1.9,3.5
	C1028.5,291.2,1029.8,291.6,1031.3,291.6z"/>
<path class="st4" d="M78.2,181v34.5"/>
<path class="st4" d="M177.4,350v-35"/>
<path class="st4" d="M472.3,395.2v-35"/>
<path class="st4" d="M756.5,410.2v-35"/>
<linearGradient id="SVGID_00000167394251504020846180000005768572363379459750_" gradientUnits="userSpaceOnUse" x1="77.7" y1="945.475" x2="77.7" y2="966.475" gradientTransform="matrix(1 0 0 1 0 -735.51)">
	<stop  offset="0" style="stop-color:#70AFE3"/>
	<stop  offset="1" style="stop-color:#6088DC"/>
</linearGradient>
<circle style="fill:url(#SVGID_00000167394251504020846180000005768572363379459750_);" cx="77.7" cy="220.5" r="10.5"/>
<linearGradient id="SVGID_00000098942988161641964710000013046478154557562042_" gradientUnits="userSpaceOnUse" x1="176.9" y1="1076.51" x2="176.9" y2="1097.51" gradientTransform="matrix(1 0 0 1 0 -735.51)">
	<stop  offset="0" style="stop-color:#70AFE3"/>
	<stop  offset="1" style="stop-color:#6088DC"/>
</linearGradient>
<circle style="fill:url(#SVGID_00000098942988161641964710000013046478154557562042_);" cx="176.9" cy="351.5" r="10.5"/>
<linearGradient id="SVGID_00000017500388965217419850000004859391817591485582_" gradientUnits="userSpaceOnUse" x1="471.8" y1="1117.755" x2="471.8" y2="1138.755" gradientTransform="matrix(1 0 0 1 0 -735.51)">
	<stop  offset="0" style="stop-color:#70AFE3"/>
	<stop  offset="1" style="stop-color:#6088DC"/>
</linearGradient>
<circle style="fill:url(#SVGID_00000017500388965217419850000004859391817591485582_);" cx="471.8" cy="392.7" r="10.5"/>
<linearGradient id="SVGID_00000158026549311148456900000008997643749010205335_" gradientUnits="userSpaceOnUse" x1="756" y1="1132.755" x2="756" y2="1153.755" gradientTransform="matrix(1 0 0 1 0 -735.51)">
	<stop  offset="0" style="stop-color:#70AFE3"/>
	<stop  offset="1" style="stop-color:#6088DC"/>
</linearGradient>
<circle style="fill:url(#SVGID_00000158026549311148456900000008997643749010205335_);" cx="756" cy="407.7" r="10.5"/>
<g>
	<path class="st9" d="M21.2,4.3h4.1c5.4,0,8,3.3,8,8.7s-2.6,8.8-8,8.8h-4.2V4.3z M25.2,20.6c4.6,0,6.6-3,6.6-7.6
		c0-4.5-2-7.5-6.6-7.5h-2.5v15.1H25.2z"/>
	<path class="st9" d="M36.1,15.5c0-4.2,2.7-6.7,5.6-6.7c3.1,0,4.9,2.2,4.9,6c0,0.4,0,0.7-0.1,1h-9.1c0.1,3.1,1.9,5.3,4.7,5.3
		c1.4,0,2.4-0.4,3.4-1.1l0.5,1c-1,0.6-2.2,1.2-4.1,1.2C38.8,22.2,36.1,19.7,36.1,15.5z M45.4,14.6c0-3.1-1.4-4.7-3.6-4.7
		c-2.1,0-4,1.7-4.2,4.7H45.4z"/>
	<path class="st9" d="M50.3,6.4c0-2.5,1.1-3.9,3.3-3.9c0.6,0,1.3,0.2,1.9,0.4L55.2,4c-0.5-0.2-1-0.4-1.5-0.4c-1.4,0-2,1-2,2.8V9h2.9
		v1.2h-2.9v11.6h-1.4V10.2h-1.8V9.2L50.3,9V6.4z M59.6,4.9c0,0.6-0.6,1.1-1.2,1.1c-0.6,0-1.2-0.5-1.2-1.1c0-0.7,0.5-1.2,1.2-1.2
		C59.1,3.8,59.6,4.2,59.6,4.9z M57.7,9h1.4v12.8h-1.4V9z"/>
	<path class="st9" d="M63.9,9H65l0.2,1.9h0c1.3-1.3,2.6-2.3,4.4-2.3c2.7,0,3.9,1.7,3.9,4.9v8.2h-1.4v-8c0-2.7-0.8-3.9-2.8-3.9
		c-1.5,0-2.5,0.8-4,2.3v9.6h-1.4V9z"/>
	<path class="st9" d="M77.1,15.5c0-4.2,2.7-6.7,5.6-6.7c3.1,0,4.9,2.2,4.9,6c0,0.4,0,0.7-0.1,1h-9.1c0.1,3.1,1.9,5.3,4.7,5.3
		c1.4,0,2.4-0.4,3.4-1.1l0.5,1c-1,0.6-2.2,1.2-4.1,1.2C79.7,22.2,77.1,19.7,77.1,15.5z M86.3,14.6c0-3.1-1.4-4.7-3.6-4.7
		c-2.1,0-4,1.7-4.2,4.7H86.3z"/>
	<path class="st9" d="M95.5,18.6c0-2.8,2.5-4.2,8.2-4.8c0-1.9-0.5-3.9-2.9-3.9c-1.7,0-3.1,0.8-4,1.5l-0.6-1c1-0.7,2.8-1.7,4.8-1.7
		c3,0,4.1,2.2,4.1,5v8.1h-1.2l-0.1-1.6h0c-1.3,1.1-2.8,1.9-4.5,1.9C97.1,22.2,95.5,21,95.5,18.6z M103.6,19v-4.2
		c-5,0.6-6.8,1.8-6.8,3.7c0,1.8,1.2,2.4,2.6,2.4S102.1,20.3,103.6,19z"/>
	<path class="st9" d="M109.5,9h1.2l0.2,1.9h0c1.3-1.3,2.6-2.3,4.4-2.3c2.7,0,3.9,1.7,3.9,4.9v8.2h-1.4v-8c0-2.7-0.8-3.9-2.8-3.9
		c-1.5,0-2.5,0.8-4,2.3v9.6h-1.4V9z"/>
	<path class="st9" d="M122.7,15.5c0-4.1,2.6-6.7,5.7-6.7c1.5,0,2.6,0.6,3.8,1.6L132,8V2.8h1.4v19.1h-1.2l-0.2-1.6h0
		c-1,1-2.4,1.9-4.1,1.9C124.7,22.2,122.7,19.8,122.7,15.5z M132,18.9v-7.4c-1.3-1.2-2.4-1.6-3.6-1.6c-2.4,0-4.3,2.4-4.3,5.5
		c0,3.3,1.5,5.5,4.1,5.5C129.6,20.9,130.8,20.2,132,18.9z"/>
	<path class="st9" d="M143.7,4.3h1.9l3.6,10.1l1.4,3.8h0.1c0.5-1.3,0.9-2.6,1.3-3.8l3.6-10.1h1.9v17.5h-1.4V10.8
		c0-1.4,0.1-3.4,0.2-4.8h-0.1l-1.4,3.9L151.2,20H150l-3.7-10.1L145,5.9h-0.1c0.1,1.5,0.2,3.4,0.2,4.8v11.1h-1.3V4.3z"/>
	<path class="st9" d="M161.4,15.5c0-4.2,2.7-6.7,5.6-6.7c3.1,0,4.9,2.2,4.9,6c0,0.4,0,0.7-0.1,1h-9.1c0.1,3.1,1.9,5.3,4.7,5.3
		c1.4,0,2.4-0.4,3.4-1.1l0.5,1c-1,0.6-2.2,1.2-4.1,1.2C164.1,22.2,161.4,19.7,161.4,15.5z M170.7,14.6c0-3.1-1.4-4.7-3.6-4.7
		c-2.1,0-4,1.7-4.2,4.7H170.7z"/>
	<path class="st9" d="M174.1,18.6c0-2.8,2.5-4.2,8.2-4.8c0-1.9-0.5-3.9-2.9-3.9c-1.7,0-3.1,0.8-4,1.5l-0.6-1c1-0.7,2.8-1.7,4.8-1.7
		c3,0,4.1,2.2,4.1,5v8.1h-1.2l-0.1-1.6h0c-1.3,1.1-2.8,1.9-4.5,1.9C175.7,22.2,174.1,21,174.1,18.6z M182.2,19v-4.2
		c-5,0.6-6.8,1.8-6.8,3.7c0,1.8,1.2,2.4,2.6,2.4S180.7,20.3,182.2,19z"/>
	<path class="st9" d="M186.5,20.4l0.7-1c1.1,0.9,2.3,1.6,4,1.6c1.9,0,2.9-1.1,2.9-2.4c0-1.5-1.6-2.2-3.1-2.7c-1.9-0.7-4-1.5-4-3.7
		c0-1.9,1.5-3.5,4.2-3.5c1.4,0,2.8,0.6,3.7,1.4l-0.7,1c-0.9-0.6-1.8-1.2-3-1.2c-1.9,0-2.8,1.1-2.8,2.2c0,1.4,1.5,1.9,3,2.5
		c2,0.7,4.1,1.4,4.1,3.9c0,2-1.6,3.6-4.4,3.6C189.4,22.2,187.7,21.4,186.5,20.4z"/>
	<path class="st9" d="M198.7,17.2V9h1.4v8c0,2.6,0.8,3.8,2.8,3.8c1.5,0,2.5-0.8,4-2.5V9h1.4v12.8h-1.2l-0.1-2.1h-0.1
		c-1.2,1.4-2.5,2.4-4.3,2.4C199.9,22.2,198.7,20.5,198.7,17.2z"/>
	<path class="st9" d="M213.1,9h1.2l0.2,2.4h0c0.9-1.6,2.1-2.7,3.6-2.7c0.5,0,0.9,0.1,1.3,0.3l-0.3,1.2c-0.4-0.2-0.7-0.2-1.2-0.2
		c-1.1,0-2.5,0.8-3.4,3.2v8.6h-1.4V9z"/>
	<path class="st9" d="M220.4,15.5c0-4.2,2.7-6.7,5.6-6.7c3.1,0,4.9,2.2,4.9,6c0,0.4,0,0.7-0.1,1h-9.1c0.1,3.1,1.9,5.3,4.7,5.3
		c1.4,0,2.4-0.4,3.4-1.1l0.5,1c-1,0.6-2.2,1.2-4.1,1.2C223,22.2,220.4,19.7,220.4,15.5z M229.7,14.6c0-3.1-1.4-4.7-3.6-4.7
		c-2.1,0-4,1.7-4.2,4.7H229.7z"/>
</g>
<g>
	<path d="M29.6,46.6c0.9,0,1.6,0.7,1.6,1.6c0,0.9-0.7,1.6-1.6,1.6c-0.9,0-1.6-0.7-1.6-1.6C28.1,47.3,28.8,46.6,29.6,46.6z"/>
	<path d="M61.6,57.4h-8.5v0.9h-1.9V48.2c-0.4,0.4-0.9,0.7-1.3,1.1c-0.2-0.4-0.6-1-1-1.5v7.8h-3.7v1.7h-1.7v-6.5
		c-0.3,0.5-0.6,1-0.9,1.4c-0.2-0.4-0.7-1.4-1.1-1.9c1.5-2.1,2.5-5.3,3-8.8h-2.5v-1.8H49v1.8h-2.8c-0.3,1.6-0.6,3.1-1,4.6h3.6v1.3
		c1.9-1.3,3.4-3.1,4.6-5.4h-2.2v2.1h-1.7v-3.8h4.7c0.2-0.7,0.5-1.5,0.7-2.2l1.9,0.4c-0.2,0.6-0.4,1.2-0.6,1.8h5V44h-1.8v-2h-3.9
		c-0.5,1.1-1.1,2.1-1.7,3h2.4c-0.3-0.6-0.5-1.2-0.8-1.7l1.7-0.7c0.4,0.8,0.9,1.7,1.1,2.4H61v1.7h-3.1v1.9h2.9v1.5h-2.9v2h2.9v1.6
		h-2.9v2h3.7V57.4z M47,47.8h-2v6h2V47.8z M55.9,46.7h-2.9v1.9h2.9V46.7z M55.9,50.2h-2.9v2h2.9V50.2z M53.1,55.7h2.9v-2h-2.9V55.7z
		"/>
	<path d="M74.7,55.7c1,0.2,2,0.2,3.1,0.2c1,0,4.6,0,5.9,0c-0.3,0.5-0.7,1.5-0.7,2.1h-5.3c-4.3,0-7.5-0.7-9.5-4.2
		c-0.7,1.9-1.8,3.4-3.1,4.6c-0.3-0.4-1.2-1.1-1.6-1.4c2.4-1.8,3.5-4.9,4-8.8l2.1,0.2c-0.1,1-0.3,1.9-0.5,2.8c0.8,2.1,2,3.2,3.6,3.9
		v-8.4h-5.1v-1.9h12.4v1.9h-5.2v3.2H81v1.9h-6.3V55.7z M66.5,45.5h-2v-5h8.3c-0.2-0.6-0.6-1.4-0.9-2l2-0.6c0.5,0.8,1,1.8,1.2,2.6
		h7.7v5h-2.1v-3.1H66.5V45.5z"/>
	<path d="M88.9,55.6v1.7h-1.7v-7.4c-0.3,0.5-0.7,1-1,1.5c-0.1-0.5-0.5-1.7-0.8-2.3c1.5-2,2.4-4.9,3-8h-2.6v-1.8h7.4V41h-2.9
		c-0.3,1.7-0.8,3.3-1.3,4.9h3.7v9.7H88.9z M91.1,47.7h-2.2v6.1h2.2V47.7z M97.3,52.8c-0.4-0.8-1.1-2.2-1.8-3.3c0,2.7-0.4,6.4-2,8.8
		c-0.3-0.3-1.1-0.8-1.6-1c1.6-2.4,1.7-5.9,1.7-8.3v-4.3h11.7v1.7h-9.9v2.6v0.1l1.1-0.6c0.7,1.1,1.6,2.6,2,3.5L97.3,52.8z
		 M104.9,43.3H94.1v-4.6h1.8v2.9h2.6v-3.6h1.8v3.6h2.6v-2.9h1.9V43.3z M101.3,47.1c0,1.2-0.1,2.4-0.3,3.4c0.8,2.7,2.4,5,4.6,6.1
		c-0.4,0.4-0.9,1-1.2,1.5c-1.7-1-3.1-2.8-4-4.8c-0.7,2.1-1.9,3.8-4.2,4.9c-0.2-0.5-0.7-1.1-1.1-1.5c3.7-1.8,4.2-5.1,4.4-9.6H101.3z
		 M101.8,51.8c0.7-0.9,1.7-2.4,2.2-3.4l1.6,1.1c-0.9,1.1-1.8,2.4-2.6,3.2L101.8,51.8z"/>
	<path d="M118.8,55.8c1.1,0.2,2.3,0.3,3.6,0.3c0.8,0,4.3,0,5.4,0c-0.3,0.5-0.6,1.4-0.7,2h-4.7c-4.5,0-7.9-0.8-10.1-4.4
		c-0.7,1.8-1.7,3.5-3.2,4.6c-0.4-0.4-1-1.1-1.5-1.4c2.5-1.9,3.5-5.6,3.8-8.6l2.1,0.3c-0.1,0.9-0.3,1.8-0.6,2.7c0.8,2,2.1,3.3,3.7,4
		v-8.4h-6.4v-7.6h15.1v7.6h-6.6v3.1h7.3v1.9h-7.3V55.8z M112.4,44.8h10.9v-3.7h-10.9V44.8z"/>
	<path d="M137.7,55c-2.8,0.7-5.8,1.5-8,2.1l-0.4-1.9l1.1-0.2v-7.2h1.6v6.8l1.3-0.3v-8.4h-2.8v-7h6.7v7h-2.2v2.8h2.3v1.7h-2.3v3.5
		l2.4-0.6L137.7,55z M132.2,44.2h3.2v-3.6h-3.2V44.2z M146.3,43.6V56c0,1-0.2,1.6-0.8,1.9c-0.6,0.3-1.6,0.4-3.1,0.4
		c0-0.5-0.3-1.4-0.6-2c1,0,1.9,0,2.2,0c0.3,0,0.4-0.1,0.4-0.4V43.6h-1.5V47c0,3.8-0.6,8.1-4.8,11.3c-0.3-0.4-1-1-1.4-1.3
		c4-2.9,4.5-6.8,4.5-10v-3.5h-3.3v-2h5.3c-0.2-0.9-0.7-2.1-1.3-3.1l1.9-0.5c0.6,1,1.2,2.4,1.4,3.2l-1.1,0.3h5.5v2H146.3z
		 M140.5,46.3c-0.4,2.6-1.2,5.1-2.3,6.7c-0.3-0.3-1.1-0.8-1.5-0.9c1-1.5,1.7-3.8,2-6.1L140.5,46.3z M147.9,45.8c1,2,1.8,4.6,2.1,6.4
		l-1.8,0.7c-0.2-1.8-1-4.4-2-6.4L147.9,45.8z"/>
	<path d="M171.1,41.5c0,0,0,0.7,0,1c-0.3,9.9-0.6,13.3-1.5,14.4c-0.6,0.7-1.1,0.9-1.9,1c-0.8,0.1-2.1,0.1-3.3,0c0-0.6-0.3-1.4-0.7-2
		c1.4,0.1,2.7,0.1,3.2,0.1c0.4,0,0.7-0.1,0.9-0.4c0.7-0.7,1-4,1.3-12.3H164c-0.6,1.4-1.3,2.7-2,3.7c-0.3-0.3-1.1-0.9-1.6-1.1V56h-6
		v1.7h-1.9V41.6h2.5c0.3-1.1,0.6-2.5,0.8-3.6l2.2,0.4c-0.4,1.1-0.8,2.3-1.1,3.2h3.5v4.2c1.5-1.9,2.6-4.8,3.3-7.7l2,0.5
		c-0.3,1-0.6,2-0.9,3H171.1z M154.4,43.4v4.2h4.1v-4.2H154.4z M158.5,54.2v-4.9h-4.1v4.9H158.5z M165.8,52.5c-0.6-1.3-2-3.5-3.2-5.1
		l1.6-0.9c1.2,1.5,2.7,3.6,3.3,4.9L165.8,52.5z"/>
	<path d="M180.1,54h4.2v1.6h-4.2v2.7h-1.7v-2.7h-4.6V54h4.6v-0.9h-3.6V47h3.6v-0.9h-4.3v-1.5h4.3v-1.3h1.3c-0.5-0.5-1.1-1.1-1.6-1.5
		l0.8-0.7h-1.6c-0.7,1.1-1.5,2.1-2.3,2.8c-0.3-0.4-1-1-1.4-1.4c1.3-1.1,2.5-2.9,3.2-4.7l1.8,0.5c-0.2,0.4-0.3,0.7-0.5,1.1h5.3v1.6
		h-3.7c0.7,0.6,1.5,1.2,1.9,1.7l-1.3,1.2c-0.1-0.1-0.1-0.2-0.2-0.3v0.7h4.1v1.5h-4.1V47h3.5v6.1h-3.5V54z M176.4,49.4h1.9v-1.2h-1.9
		V49.4z M178.4,51.8v-1.2h-1.9v1.2H178.4z M180.1,48.2v1.2h1.8v-1.2H180.1z M181.9,50.6h-1.8v1.2h1.8V50.6z M186.5,41.1
		c-0.6,1.1-1.3,2-2,2.7c-0.3-0.3-1.1-0.9-1.5-1.2c1.3-1.1,2.3-2.9,2.9-4.8l1.9,0.5c-0.1,0.4-0.3,0.8-0.4,1.2h6.3v1.6h-4.3
		c0.7,0.5,1.4,1.2,1.8,1.7l-1.4,1.2c-0.5-0.6-1.4-1.5-2.2-2.1l1-0.8H186.5z M191,55.9c0.8,0,0.9-0.5,1-2.8c0.4,0.3,1.3,0.7,1.8,0.8
		c-0.2,2.9-0.8,3.9-2.7,3.9h-3.4c-2.1,0-2.8-0.6-2.8-2.9V44.2h7.3v6.4c0,0.9-0.2,1.5-0.8,1.8c-0.7,0.3-1.7,0.4-3.1,0.4
		c-0.1-0.5-0.4-1.4-0.7-1.9c1,0,2,0,2.3,0c0.3,0,0.4-0.1,0.4-0.4V46h-3.5v8.9c0,0.9,0.2,1,1.1,1H191z"/>
	<path d="M202.4,53.8h-4.8v2h-1.4v-16h6.2V53.8z M197.6,41.5v4.4h1.1v-4.4H197.6z M197.6,52.1h1.1v-4.5h-1.1V52.1z M201,41.5h-1.1
		v4.4h1.1V41.5z M201,52.1v-4.5h-1.1v4.5H201z M213.8,51.3v1.3h1.8V54h-1.8v2.7c0,0.8-0.1,1.2-0.6,1.4c-0.5,0.2-1.3,0.2-2.4,0.2
		c-0.1-0.4-0.3-1-0.5-1.4c0.7,0,1.3,0,1.6,0c0.2,0,0.3-0.1,0.3-0.3V54h-3.7v-1.4h3.7v-1.3h-9.3V50h13v1.3H213.8z M213.1,46.9
		c0.2-0.5,0.4-1.1,0.5-1.7h-10.7v-1.3h11.2l0.3-0.1l1.2,0.3c-0.3,1.1-0.7,2.4-1.1,3.2L213.1,46.9z M208.1,40.7h-5v-1.3h5v-1.4h1.9
		v1.4h5.3v1.3H210v1h4.5V43H204v-1.3h4.1V40.7z M207.9,56.5h-3.1v1h-1.5v-5.4h4.6V56.5z M208,48.1v-1h-3.4V46h8.4v1.1h-3.3v1h4.5
		v1.1h-10.8v-1.1H208z M204.8,53.4v1.8h1.6v-1.8H204.8z M209.9,54c0.6,0.6,1.2,1.4,1.5,2l-1.3,0.8c-0.3-0.6-0.9-1.5-1.5-2.1
		L209.9,54z"/>
	<path d="M29.6,73c0.9,0,1.6,0.7,1.6,1.6c0,0.9-0.7,1.6-1.6,1.6c-0.9,0-1.6-0.7-1.6-1.6C28.1,73.7,28.8,73,29.6,73z"/>
	<path d="M51.2,69.8h-9.1v-1.6h4.1c-0.3-0.8-1-2.1-1.6-3l1.6-0.8c0.6,0.9,1.3,2.1,1.6,2.9l-1.6,0.9h5V69.8z M43,72.7v-1.6h7.2v1.6
		H43z M50.2,75.6H43V74h7.2V75.6z M50.3,83.4h-5.3v1h-1.8v-7.4h7.1V83.4z M44.9,78.6v3.1h3.6v-3.1H44.9z M61.6,73.9h-4.3v10.8h-2.1
		V73.9h-4.1v-2h4.1v-7h2.1v7h4.3V73.9z"/>
	<path d="M83.6,67.5h-3.4c0.5,0.5,1,1.1,1.2,1.5l-1.3,0.6h1.1v8.3h-2.6v1.7h4.8V81h-4.8v3.6h-2.1V81h-5.4c-0.6,1.4-2,2.7-5.2,3.7
		c-0.3-0.4-0.8-1.1-1.3-1.5c2.4-0.6,3.5-1.4,4.1-2.2h-4.8v-1.7h5.4v-0.1v-1.5h-2.8v-8.3h3.2c-0.2-0.4-0.5-1.1-0.8-1.5l1.5-0.5h-3
		c-0.8,1.2-1.7,2.2-2.6,3c-0.3-0.4-0.9-1.2-1.3-1.6c1.4-1.1,2.7-2.8,3.4-4.6l1.9,0.6c-0.2,0.4-0.3,0.7-0.5,1h5.6v1.5h-3.3
		c0.3,0.5,0.7,1.1,0.9,1.5L70,69.5h4.6c-0.5-0.3-1.1-0.7-1.6-0.9c1.3-1,2.5-2.6,3.1-4.3l2,0.5c-0.2,0.4-0.3,0.8-0.5,1.1h6L83.6,67.5
		z M79.1,70.8H68.6v1h10.5V70.8z M79.1,73H68.6v1.1h10.5V73z M79.1,75.3H68.6v1.1h10.5V75.3z M76.5,77.7h-5.1v1.6v0.1h5.1V77.7z
		 M79.6,69.5c-0.3-0.5-0.7-1.1-1.2-1.5l1.1-0.5h-2.9c-0.5,0.8-1.1,1.5-1.7,2H79.6z"/>
	<path d="M89.7,74.6c-0.9-0.6-2.7-1.7-4-2.4l1.1-1.5c1.3,0.6,3.1,1.6,4,2.2L89.7,74.6z M86,83c1.2-1.6,2.9-4.5,4.1-7l1.5,1.4
		c-1.1,2.3-2.6,4.9-3.9,7L86,83z M90.7,68.7c-0.9-0.6-2.7-1.7-4-2.4l1.1-1.5c1.3,0.6,3.1,1.6,4.1,2.2L90.7,68.7z M99.8,72.8v3.3h4.5
		v8.5h-1.9v-0.8h-7.3v0.9h-1.9v-8.6h4.6v-3.3h-6.1v-2h6.1v-3.1c-1.5,0.2-3.1,0.4-4.6,0.5c-0.1-0.5-0.4-1.3-0.6-1.7
		c3.8-0.4,8-1.1,10.5-2l1.6,1.6c-1.4,0.5-3.1,0.9-5,1.3v3.5h5.8v2H99.8z M102.4,77.9h-7.3v4h7.3V77.9z"/>
	<path d="M127.3,69.5c0,0,0,0.7,0,0.9c-0.2,9.1-0.4,12.2-1.1,13.2c-0.4,0.7-0.9,0.8-1.6,0.9c-0.7,0.1-1.7,0.1-2.7,0
		c0-0.6-0.3-1.4-0.6-1.9c1,0.1,1.9,0.1,2.3,0.1c0.4,0,0.6-0.1,0.8-0.4c0.5-0.6,0.7-3.4,0.9-11h-2.6c-0.3,5.9-1.3,10.5-5.1,13.4
		c-0.3-0.5-1-1.2-1.5-1.5c0.1-0.1,0.3-0.2,0.4-0.3c-3.2,0.4-6.3,0.7-8.7,0.9l-0.3-1.7c1.3-0.1,2.9-0.2,4.6-0.4v-1.7h-4v-1.5h4v-1.1
		h-3.9v-6.6h3.9v-1.1h-4.5v-1.5h4.5V67c-1.3,0.1-2.7,0.2-3.9,0.2c-0.1-0.4-0.3-1.1-0.5-1.5c3.3-0.2,7.2-0.6,9.4-1.1l1,1.5
		c-1.2,0.2-2.6,0.5-4.1,0.6v1.4h4.4v1.3h2.3c0-1.5,0-3.1,0-4.7h2c0,1.6,0,3.2,0,4.7H127.3z M109.9,73.6h2.3v-1.3h-2.3V73.6z
		 M112.2,76.2v-1.3h-2.3v1.3H112.2z M114,81.6c1.4-0.1,2.8-0.3,4.2-0.4c1.8-2.5,2.4-5.8,2.5-9.8h-2.3v-1.6H114v1.1h4.1v6.6H114v1.1
		h4.1v1.5H114V81.6z M116.4,73.6v-1.3H114v1.3H116.4z M114,74.8v1.3h2.4v-1.3H114z"/>
	<path d="M149.1,67.9c0,0,0,0.7,0,1c-0.3,9.9-0.6,13.3-1.5,14.4c-0.6,0.7-1.1,0.9-1.9,1c-0.8,0.1-2.1,0.1-3.3,0c0-0.6-0.3-1.4-0.7-2
		c1.4,0.1,2.7,0.1,3.2,0.1c0.4,0,0.7-0.1,0.9-0.4c0.7-0.7,1-4,1.3-12.3H142c-0.6,1.4-1.3,2.7-2,3.7c-0.3-0.3-1.1-0.9-1.6-1.1v10.1
		h-6v1.7h-1.9V68h2.5c0.3-1.1,0.6-2.5,0.8-3.6l2.2,0.4c-0.4,1.1-0.8,2.3-1.1,3.2h3.5v4.2c1.5-1.9,2.6-4.8,3.3-7.7l2,0.5
		c-0.3,1-0.6,2-0.9,3H149.1z M132.4,69.8V74h4.1v-4.2H132.4z M136.5,80.6v-4.9h-4.1v4.9H136.5z M143.8,78.9c-0.6-1.3-2-3.5-3.2-5.1
		l1.6-0.9c1.2,1.5,2.7,3.6,3.3,4.9L143.8,78.9z"/>
	<path d="M154.9,82v1.7h-1.7v-7.4c-0.3,0.5-0.7,1-1,1.5c-0.1-0.5-0.5-1.7-0.8-2.3c1.5-2,2.4-4.9,3-8h-2.6v-1.8h7.4v1.8h-2.9
		c-0.3,1.7-0.8,3.3-1.3,4.9h3.7V82H154.9z M157.1,74.1h-2.2v6.1h2.2V74.1z M163.3,79.2c-0.4-0.8-1.1-2.2-1.8-3.3
		c0,2.7-0.4,6.4-2,8.8c-0.3-0.3-1.1-0.8-1.6-1c1.6-2.4,1.7-5.9,1.7-8.3V71h11.7v1.7h-9.9v2.6v0.1l1.1-0.6c0.7,1.1,1.6,2.6,2,3.5
		L163.3,79.2z M170.9,69.7h-10.8v-4.6h1.8v2.9h2.6v-3.6h1.8v3.6h2.6v-2.9h1.9V69.7z M167.3,73.5c0,1.2-0.1,2.4-0.3,3.4
		c0.8,2.7,2.4,5,4.6,6.1c-0.4,0.4-0.9,1-1.2,1.5c-1.7-1-3.1-2.8-4-4.8c-0.7,2.1-1.9,3.8-4.2,4.9c-0.2-0.5-0.7-1.1-1.1-1.5
		c3.7-1.8,4.2-5.1,4.4-9.6H167.3z M167.8,78.2c0.7-0.9,1.7-2.4,2.2-3.4l1.6,1.1c-0.9,1.1-1.8,2.4-2.6,3.2L167.8,78.2z"/>
	<path d="M184.8,82.2c1.1,0.2,2.3,0.3,3.6,0.3c0.8,0,4.3,0,5.4,0c-0.3,0.5-0.6,1.4-0.7,2h-4.7c-4.5,0-7.9-0.8-10.1-4.4
		c-0.7,1.8-1.7,3.5-3.2,4.6c-0.4-0.4-1-1.1-1.5-1.4c2.5-1.9,3.5-5.6,3.8-8.6l2.1,0.3c-0.1,0.9-0.3,1.8-0.6,2.7c0.8,2,2.1,3.3,3.7,4
		v-8.4h-6.4v-7.6h15.1v7.6h-6.6v3.1h7.3v1.9h-7.3V82.2z M178.4,71.2h10.9v-3.7h-10.9V71.2z"/>
	<path d="M203.7,81.4c-2.8,0.7-5.8,1.5-8,2.1l-0.4-1.9l1.1-0.2v-7.2h1.6V81l1.3-0.3v-8.4h-2.8v-7h6.7v7h-2.2v2.8h2.3v1.7h-2.3v3.5
		l2.4-0.6L203.7,81.4z M198.2,70.6h3.2v-3.6h-3.2V70.6z M212.3,70v12.5c0,1-0.2,1.6-0.8,1.9c-0.6,0.3-1.6,0.4-3.1,0.4
		c0-0.5-0.3-1.4-0.6-2c1,0,1.9,0,2.2,0c0.3,0,0.4-0.1,0.4-0.4V70h-1.5v3.5c0,3.8-0.6,8.1-4.8,11.3c-0.3-0.4-1-1-1.4-1.3
		c4-2.9,4.5-6.8,4.5-10V70h-3.3v-2h5.3c-0.2-0.9-0.7-2.1-1.3-3.1l1.9-0.5c0.6,1,1.2,2.4,1.4,3.2l-1.1,0.3h5.5v2H212.3z M206.5,72.7
		c-0.4,2.6-1.2,5.1-2.3,6.7c-0.3-0.3-1.1-0.8-1.5-0.9c1-1.5,1.7-3.8,2-6.1L206.5,72.7z M213.9,72.2c1,2,1.8,4.6,2.1,6.4l-1.8,0.7
		c-0.2-1.8-1-4.4-2-6.4L213.9,72.2z"/>
	<path d="M29.6,99.4c0.9,0,1.6,0.7,1.6,1.6c0,0.9-0.7,1.6-1.6,1.6c-0.9,0-1.6-0.7-1.6-1.6C28.1,100.1,28.8,99.4,29.6,99.4z"/>
	<path d="M46.1,98.4V111h-2V98.4h-2.6v-1.9h2.6v-5.6h2v5.6h2.4v1.9H46.1z M54.1,102.3c0,0,0,0.5,0,0.7c-0.2,5-0.3,6.8-0.8,7.4
		c-0.3,0.4-0.6,0.6-1.1,0.6c-0.4,0.1-1,0.1-1.7,0c0-0.5-0.2-1.2-0.4-1.6c0.6,0.1,1,0.1,1.3,0.1c0.2,0,0.4,0,0.5-0.2
		c0.3-0.4,0.4-1.7,0.5-5.4H51c-0.4,3.1-1.2,5.5-3.1,7.3c-0.2-0.4-0.7-1-1.1-1.3c1.6-1.4,2.2-3.4,2.5-6h-1.9v-1.6h2
		c0-0.7,0.1-1.4,0.1-2.2h1.7c0,0.7,0,1.5-0.1,2.2H54.1z M54.9,94.8c-0.8,2.4-2.3,4.1-5.4,5.2c-0.2-0.4-0.7-1.1-1-1.4
		c2.5-0.9,3.8-2.1,4.5-3.8h-3.6v-1.7h4c0.1-0.7,0.2-1.5,0.3-2.3h1.9c0,0.8-0.1,1.6-0.3,2.3h5.3c0,0,0,0.5-0.1,0.7
		c-0.3,3.2-0.6,4.6-1.1,5.1c-0.4,0.4-0.8,0.6-1.4,0.6c-0.5,0-1.4,0.1-2.4,0c0-0.5-0.2-1.3-0.5-1.7C56.1,98,57,98,57.3,98
		c0.3,0,0.5,0,0.7-0.2c0.3-0.3,0.5-1.1,0.7-3H54.9z M61.5,102.3c0,0,0,0.5,0,0.7c-0.1,4.9-0.3,6.7-0.7,7.3c-0.3,0.4-0.7,0.6-1.2,0.6
		c-0.4,0.1-1.1,0.1-1.8,0c0-0.5-0.2-1.2-0.4-1.7c0.6,0.1,1.1,0.1,1.4,0.1c0.3,0,0.4,0,0.6-0.2c0.3-0.4,0.4-1.7,0.5-5.4h-1.6
		c-0.4,3.1-1.3,5.5-3.3,7.2c-0.2-0.4-0.7-1-1.1-1.3c1.7-1.4,2.3-3.3,2.6-5.9h-1.8v-1.6h1.9c0-0.7,0.1-1.5,0.1-2.2h1.8
		c0,0.8,0,1.5-0.1,2.2H61.5z"/>
	<path d="M73.6,106.6c-3.5,0.8-7.1,1.7-9.8,2.3l-0.4-2.1c0.5-0.1,1-0.2,1.6-0.3V91.9h7.3V105l1.1-0.2L73.6,106.6z M66.8,93.7v2.8
		h3.6v-2.8H66.8z M70.4,98.3h-3.6v2.8h3.6V98.3z M66.8,106.2c1.1-0.2,2.3-0.5,3.6-0.7v-2.6h-3.6V106.2z M83.1,95.7c0,0,0,0.7,0,1
		c-0.2,9.1-0.4,12.3-1.1,13.2c-0.5,0.7-0.9,0.9-1.7,1c-0.7,0.1-1.8,0.1-3,0c0-0.6-0.3-1.4-0.6-2c1.1,0.1,2.2,0.1,2.7,0.1
		c0.4,0,0.6,0,0.8-0.3c0.5-0.6,0.7-3.5,0.9-11h-2.9c-0.4,5.7-1.5,10.6-5.9,13.5c-0.3-0.5-0.9-1.2-1.4-1.6c4-2.5,5-6.8,5.3-11.9h-3.2
		v-1.9h3.3c0-1.5,0-3.2,0-4.8h2c0,1.6,0,3.3,0,4.8H83.1z"/>
	<path d="M89.7,101c-0.9-0.6-2.7-1.7-4-2.4l1.1-1.5c1.3,0.6,3.1,1.6,4,2.2L89.7,101z M86,109.4c1.2-1.6,2.9-4.5,4.1-7l1.5,1.4
		c-1.1,2.3-2.6,4.9-3.9,7L86,109.4z M90.7,95.1c-0.9-0.6-2.7-1.7-4-2.4l1.1-1.5c1.3,0.6,3.1,1.6,4.1,2.2L90.7,95.1z M99.8,99.2v3.3
		h4.5v8.5h-1.9v-0.8h-7.3v0.9h-1.9v-8.6h4.6v-3.3h-6.1v-2h6.1v-3.1c-1.5,0.2-3.1,0.4-4.6,0.5c-0.1-0.5-0.4-1.3-0.6-1.7
		c3.8-0.4,8-1.1,10.5-2l1.6,1.6c-1.4,0.5-3.1,0.9-5,1.3v3.5h5.8v2H99.8z M102.4,104.3h-7.3v4h7.3V104.3z"/>
	<path d="M127.3,95.9c0,0,0,0.7,0,0.9c-0.2,9.1-0.4,12.2-1.1,13.2c-0.4,0.7-0.9,0.8-1.6,0.9c-0.7,0.1-1.7,0.1-2.7,0
		c0-0.6-0.3-1.4-0.6-1.9c1,0.1,1.9,0.1,2.3,0.1c0.4,0,0.6-0.1,0.8-0.4c0.5-0.6,0.7-3.4,0.9-11h-2.6c-0.3,5.9-1.3,10.5-5.1,13.4
		c-0.3-0.5-1-1.2-1.5-1.5c0.1-0.1,0.3-0.2,0.4-0.3c-3.2,0.4-6.3,0.7-8.7,0.9l-0.3-1.7c1.3-0.1,2.9-0.2,4.6-0.4v-1.7h-4V105h4v-1.1
		h-3.9v-6.6h3.9v-1.1h-4.5v-1.5h4.5v-1.2c-1.3,0.1-2.7,0.2-3.9,0.2c-0.1-0.4-0.3-1.1-0.5-1.5c3.3-0.2,7.2-0.6,9.4-1.1l1,1.5
		c-1.2,0.2-2.6,0.5-4.1,0.6v1.4h4.4v1.3h2.3c0-1.5,0-3.1,0-4.7h2c0,1.6,0,3.2,0,4.7H127.3z M109.9,100h2.3v-1.3h-2.3V100z
		 M112.2,102.6v-1.3h-2.3v1.3H112.2z M114,108c1.4-0.1,2.8-0.3,4.2-0.4c1.8-2.5,2.4-5.8,2.5-9.8h-2.3v-1.7H114v1.1h4.1v6.6H114v1.1
		h4.1v1.5H114V108z M116.4,100v-1.3H114v1.3H116.4z M114,101.2v1.3h2.4v-1.3H114z"/>
	<path d="M135.2,101.5c-0.3,1.9-0.9,3.9-1.6,5.5c0.4,0.2,0.8,0.6,1.5,1c1.5,0.9,3.5,1.1,6.1,1.1c2.7,0,6.4-0.2,8.8-0.5
		c-0.2,0.5-0.6,1.6-0.6,2.1c-1.7,0.1-5.7,0.2-8.3,0.2c-2.9,0-4.8-0.2-6.4-1.2c-0.9-0.5-1.7-1.3-2.2-1.3c-0.5,0-1.3,1.4-1.8,2.8
		l-1.4-1.9c0.8-1.1,1.6-2,2.4-2.4c0.5-1.2,1-2.8,1.3-4.2h-2.8c0.6-1.3,1.3-3.1,1.8-4.8h-2.3v-1.8h4.9c-0.5,1.6-1.1,3.4-1.7,4.9h0.8
		l0.3-0.1L135.2,101.5z M132,95.2c-0.2-1-0.8-2.5-1.1-3.7l1.8-0.5c0.4,1.1,0.9,2.6,1.2,3.5L132,95.2z M137.2,95.7h-1.8v-4.1h13.7
		v4.1h-2v-2.6h-9.9v1.8h4v-1h2v1h3.8v1.5h-3.8v1.1h4.7v6.3h-4.7v1.1h5.9v1.5h-5.9v1.7h-2v-1.7h-5.8v-1.5h5.8v-1.1h-4.7v-6.3h4.7
		v-1.1h-4.2V95.7z M138.4,100h2.9v-1.2h-2.9V100z M141.3,102.5v-1.2h-2.9v1.2H141.3z M143.3,98.8v1.2h2.9v-1.2H143.3z M146.2,101.3
		h-2.9v1.2h2.9V101.3z"/>
	<path d="M167.4,90.9c-0.1,1.3-0.2,2.5-0.6,3.5c1.5,0.7,3.4,1.8,4.4,2.4l-1,1.1h0.7v4h-2v-2.5h-14.4v2.5h-2v-4h0.2
		c-0.2-0.4-0.6-1-0.9-1.3c3.8-0.9,4.4-2.4,4.6-5.7h1.8c-0.1,1.4-0.2,2.6-0.6,3.5c1.1,0.6,2.5,1.5,3.3,2l-1.3,1.3
		c-0.6-0.5-1.8-1.3-2.8-1.9c-0.7,0.9-1.8,1.6-3.5,2.1h8.8c-0.2-0.5-0.6-1.1-1-1.5c3.8-0.8,4.3-2.4,4.5-5.5H167.4z M153.9,94.4
		c-0.4-0.6-1.1-1.5-1.7-2.2l1.2-0.9c0.6,0.7,1.3,1.5,1.7,2L153.9,94.4z M161,105.8h8.5v5.2h-2v-0.6h-11.3v0.6h-1.9v-5.3h4.9
		c0.2-0.3,0.3-0.7,0.5-1.1h-3.9v-4.2h11.8v4.2h-6L161,105.8z M167.5,107.3h-11.3v1.7h11.3V107.3z M157.7,103.4h7.9v-1.5h-7.9V103.4z
		 M161.5,92.5c-0.7,0.8-1.4,1.7-1.9,2.2l-1.2-0.5c0.5-0.6,1.1-1.6,1.5-2.3L161.5,92.5z M163.2,94.3c-0.4-0.5-1.1-1.5-1.7-2.2
		l1.2-0.9c0.6,0.7,1.4,1.5,1.8,2L163.2,94.3z M169.6,97.9c-0.9-0.6-2.3-1.5-3.6-2.1c-0.8,0.9-2,1.6-3.9,2.1H169.6z M171.2,92.5
		c-0.7,0.8-1.5,1.7-2.1,2.3l-1.2-0.6c0.5-0.6,1.2-1.7,1.6-2.3L171.2,92.5z"/>
	<path d="M193.3,94.9h-12.9c0.4,0.7,1,1.7,1.3,2.3l-1.6,0.6h5.3c0.5-0.9,1.1-2.1,1.4-2.9l2,0.4c-0.5,0.8-1,1.7-1.5,2.5h4.9V109
		c0,1-0.2,1.4-0.9,1.7s-1.8,0.3-3.7,0.3c-0.1-0.5-0.4-1.1-0.6-1.6c1.3,0,2.5,0,2.8,0c0.4,0,0.5-0.1,0.5-0.4v-9.5h-4v1.1
		c0,0.5,0,0.7,0.4,0.7h1.6c0.3,0,0.9,0,1.3-0.1c0,0.5,0.1,1,0.1,1.4c-0.3,0.1-0.9,0.1-1.3,0.1h-2c-1.5,0-1.8-0.7-1.8-2.1v-1h-2.1
		c-0.3,2.2-1.3,3.4-4.3,4c-0.2-0.4-0.5-1.1-0.9-1.4v8.9h-1.9V97.8h4.7c-0.3-0.7-0.8-1.7-1.2-2.4l1.5-0.5H174v-1.7h8.9
		c-0.2-0.6-0.5-1.3-0.7-1.9l2-0.5c0.3,0.7,0.7,1.7,0.9,2.4h8.2V94.9z M177.1,102.1c2.4-0.4,3.2-1.2,3.5-2.6h-3.5V102.1z
		 M181.2,108.3v1h-1.7v-6.1h8.2v5.1H181.2z M181.2,104.7v2.2h4.8v-2.2H181.2z"/>
	<path d="M215.6,97v1.5h-3.8l-0.2,1.8H199l0.2-1.8h-3.5V97h3.7l0.2-1.8h12.4l-0.2,1.8H215.6z M208.8,108.1c2.2,0.6,4.5,1.3,6,1.8
		l-1.4,1.3c-1.5-0.6-4.1-1.5-6.6-2.1l0.9-0.9h-4.5l1.3,0.9c-1.8,1-4.8,1.8-7.3,2.2c-0.2-0.4-0.7-1-1.1-1.4c2.1-0.3,4.8-1,6.3-1.7
		h-3.8v-7h14v7H208.8z M198.3,96.4h-1.8v-3.6h8.2c-0.2-0.5-0.6-1.1-0.8-1.5l1.8-0.5c0.5,0.6,0.9,1.4,1.2,2h8v3.6h-1.9v-2h-14.6V96.4
		z M200.7,103.1h10v-0.8h-10V103.1z M200.7,105h10v-0.9h-10V105z M200.7,107h10v-0.9h-10V107z M201,99.2h3.6c0-0.3,0.1-0.6,0.1-0.9
		h-3.6L201,99.2z M201.4,96.4l-0.1,0.8h3.6l0.1-0.8H201.4z M209.8,99.2l0.1-0.9h-3.5c0,0.3-0.1,0.6-0.1,0.9H209.8z M210.1,96.4h-3.5
		l-0.1,0.8h3.5L210.1,96.4z"/>
	<path d="M225.8,99c0,0,0,0.6,0,0.8c-0.1,7.1-0.2,9.6-0.8,10.4c-0.4,0.5-0.7,0.7-1.3,0.8c-0.6,0.1-1.4,0.1-2.3,0.1
		c0-0.6-0.2-1.3-0.5-1.8c0.8,0.1,1.5,0.1,1.8,0.1c0.3,0,0.5,0,0.7-0.3c0.3-0.4,0.5-2.5,0.6-8.2h-2.2c-0.3,4.1-1,7.7-2.8,10.2
		c-0.3-0.5-1-1.1-1.5-1.4c2.2-3,2.4-8.2,2.5-13.4h-2.3v-1.9h8.7v1.9h-4.5c0,0.9,0,1.8-0.1,2.8H225.8z M222.5,90.9
		c0.4,0.9,0.9,2.1,1.1,2.9l-1.9,0.6c-0.2-0.8-0.6-2-1.1-3L222.5,90.9z M234.9,109.3c0.9,0,1.1-0.4,1.2-2.4c0.4,0.3,1.2,0.6,1.7,0.7
		c-0.2,2.7-0.8,3.4-2.8,3.4h-4.2c-2.4,0-3-0.6-3-2.8v-4.9l-1.1,0.5l-0.7-1.7l1.9-0.9v-3.1c-0.2,0.3-0.4,0.6-0.7,0.8
		c-0.3-0.4-1.1-1.1-1.6-1.5c1.5-1.6,2.6-4.1,3.2-6.8l2,0.4c-0.2,0.9-0.5,1.7-0.7,2.6h7.4v1.8h-8.2c-0.4,0.9-0.8,1.7-1.3,2.4h1.7v2.5
		l1.7-0.8v-3.3h1.7v2.5l2-1l0.4-0.3l1.4,0.4l-0.1,0.3c0,2.4-0.2,5.6-0.5,7.5l-1.5-0.3c0.1-1.4,0.2-3.6,0.2-5.6l-1.9,0.9v6.4h-1.7
		v-5.6l-1.7,0.8v5.7c0,0.9,0.2,1,1.3,1H234.9z"/>
	<path d="M259.4,94.4h-2.6v13.9c0,1.3-0.3,2-1.3,2.3c-0.9,0.4-2.5,0.4-4.7,0.4c-0.1-0.6-0.5-1.6-0.9-2.2c1.7,0.1,3.5,0.1,4,0.1
		c0.5,0,0.6-0.2,0.6-0.6V94.4h-14.8v-2h19.5V94.4z M244,105.6v1.7h-2v-10h9.1v8.3H244z M244,99.3v4.4h5.1v-4.4H244z"/>
	<path d="M268.4,102.1l-2.2,0.7v5.8c0,1-0.2,1.6-0.8,1.9c-0.6,0.3-1.5,0.4-2.9,0.4c-0.1-0.5-0.3-1.4-0.6-1.9c0.9,0,1.7,0,2,0
		c0.3,0,0.4-0.1,0.4-0.4v-5.2l-2.6,0.8l-0.5-2c0.8-0.2,1.9-0.5,3-0.9v-4.3h-2.7v-1.9h2.7v-4.2h1.9v4.2h2.1v1.9h-2.1v3.8l1.9-0.6
		L268.4,102.1z M281.7,93.6v1.9h-5.5v2.2h4.5v1.9h-11v-1.9h4.5v-2.2h-5.6v-1.9h5.6V91h2v2.6H281.7z M279,101.8h2.6v1.9H279v5.1
		c0,1.1-0.2,1.7-0.9,2c-0.7,0.3-1.8,0.3-3.4,0.3c-0.1-0.6-0.4-1.4-0.6-1.9c1.1,0,2.3,0,2.6,0c0.3,0,0.4-0.1,0.4-0.4v-5.1h-8.2v-1.9
		h8.2v-1.7h1.9V101.8z M271.9,104.1c0.8,1.2,1.9,2.7,2.5,3.7l-1.7,1c-0.5-1-1.5-2.7-2.4-3.9L271.9,104.1z"/>
	<path d="M286.1,105.3c-0.2,2-0.6,4.2-1.1,5.6c-0.4-0.2-1.1-0.4-1.5-0.5c0.5-1.4,0.8-3.5,1-5.4L286.1,105.3z M289.6,104.4
		c0-0.4-0.1-0.7-0.2-1.2c-4.1,0.6-4.8,0.8-5.2,1c-0.1-0.4-0.4-1.2-0.6-1.7c0.5-0.1,0.9-0.7,1.6-1.5c0.3-0.4,0.9-1.2,1.5-2.3
		c-1.9,0.2-2.4,0.4-2.7,0.5c-0.1-0.4-0.4-1.2-0.6-1.7c0.4-0.1,0.7-0.5,1.1-1.2c0.4-0.6,1.8-3.1,2.5-5.5l1.7,0.7
		c-0.8,2-1.8,4-2.9,5.7l1.8-0.2c0.5-0.9,1-2,1.5-3l1.6,0.9c-1.2,2.5-2.8,5-4.4,7l2.7-0.4c-0.2-0.7-0.4-1.3-0.6-1.9l1.4-0.4
		c0.5,1.5,1,3.5,1.2,4.6L289.6,104.4z M288,105c0.3,1.6,0.5,3.7,0.6,5l-1.5,0.3c0-1.4-0.2-3.5-0.5-5.1L288,105z M289.9,104.4
		c0.4,1.3,0.9,2.9,1.1,4l-1.4,0.4c-0.2-1.1-0.6-2.8-1.1-4.1L289.9,104.4z M299.4,107.9c1.6,0.6,3.2,1.2,4.3,1.7l-0.8,1.5
		c-1.2-0.6-3-1.4-4.7-2l0.7-1.1h-3.6l1.2,1.1c-1.7,0.8-3.8,1.6-5.3,2.2c-0.2-0.4-0.5-1-0.8-1.4c1.3-0.4,3.2-1.2,4.5-1.8h-3.2v-6.5
		h10.9v6.5H299.4z M296.2,93.3h-5.4V92h5.4v-1.1h2V92h5.1v1.4h-5.1v1h4.4v1.3h-10.9v-1.3h4.6V93.3z M290.9,96.4h12.4v4.2h-12.4V96.4
		z M292.6,99.3h2.1v-1.6h-2.1V99.3z M293.4,103.4h7.2v-0.8h-7.2V103.4z M293.4,105h7.2v-0.8h-7.2V105z M293.4,106.8h7.2v-0.9h-7.2
		V106.8z M298.1,99.3v-1.6h-1.9v1.6H298.1z M301.5,97.7h-1.8v1.6h1.8V97.7z"/>
	<path d="M325.6,97v1.5h-3.8l-0.2,1.8H309l0.2-1.8h-3.5V97h3.7l0.2-1.8h12.4l-0.2,1.8H325.6z M318.8,108.1c2.2,0.6,4.5,1.3,6,1.8
		l-1.4,1.3c-1.5-0.6-4.1-1.5-6.6-2.1l0.9-0.9h-4.5l1.3,0.9c-1.8,1-4.8,1.8-7.3,2.2c-0.2-0.4-0.7-1-1.1-1.4c2.1-0.3,4.8-1,6.3-1.7
		h-3.8v-7h14v7H318.8z M308.3,96.4h-1.8v-3.6h8.2c-0.2-0.5-0.6-1.1-0.8-1.5l1.8-0.5c0.5,0.6,0.9,1.4,1.2,2h8v3.6h-1.9v-2h-14.6V96.4
		z M310.7,103.1h10v-0.8h-10V103.1z M310.7,105h10v-0.9h-10V105z M310.7,107h10v-0.9h-10V107z M311,99.2h3.6c0-0.3,0.1-0.6,0.1-0.9
		h-3.6L311,99.2z M311.4,96.4l-0.1,0.8h3.6l0.1-0.8H311.4z M319.8,99.2l0.1-0.9h-3.5c0,0.3-0.1,0.6-0.1,0.9H319.8z M320.1,96.4h-3.5
		l-0.1,0.8h3.5L320.1,96.4z"/>
	<path d="M335.7,107.7c-2.8,0.7-5.7,1.4-7.9,1.9l-0.4-1.9c0.3-0.1,0.6-0.1,1-0.2v-7.1h1.6v6.8l1.1-0.3v-8.3h-2.7v-7h6.6v7H333v2.8
		h2.5v1.8H333v3.3l2.6-0.6L335.7,107.7z M330.2,97h3.1v-3.5h-3.1V97z M346.3,105.2c-0.9,1.1-2,2-3.3,2.9c0.8,0.7,1.7,1.1,2.6,1.1
		c0.5,0,0.7-0.6,0.9-2c0.4,0.4,1.1,0.8,1.5,1c-0.4,2.2-1.2,3-2.2,2.9c-1.8-0.1-3.3-0.9-4.6-2.1c-1.8,0.9-3.7,1.6-5.7,2.1
		c-0.2-0.4-0.7-1.3-1-1.7c1.9-0.4,3.9-1,5.6-1.8c-0.5-0.8-1-1.8-1.3-2.8l-3.3,0.2l-0.1-1.7l2.9-0.2c-0.3-1-0.5-2-0.6-3
		c-0.4,0.1-0.8,0.2-1.3,0.3c-0.2-0.4-0.7-1.2-1-1.6c1.7-0.3,3.4-0.8,4.9-1.4c-0.4-0.6-0.8-1.4-1.1-2.1l-3.5,0.3l-0.1-1.6l3.1-0.2
		c-0.3-0.9-0.5-2-0.7-3h1.9c0.2,1,0.4,2,0.7,2.9l3.9-0.3c-0.7-0.5-2-1.3-3-1.7l1.3-1c1.1,0.4,2.4,1.1,3.1,1.6l-1.1,1l2.6-0.2
		l0.1,1.6l-6.2,0.5c0.3,0.6,0.6,1.1,0.9,1.5c0.9-0.5,1.8-1,2.4-1.6l1.6,0.6c-0.8,0.8-1.8,1.5-2.9,2.2c0.7,0.6,1.5,0.9,2.4,0.9
		c0.4,0,0.6-0.5,0.8-1.7c0.4,0.4,1,0.8,1.5,1c-0.5,2-1.1,2.7-2.1,2.7c-1.8-0.1-3.2-0.8-4.4-2c-1.1,0.5-2.3,0.9-3.5,1.3h1.7
		c0.1,1.1,0.4,2,0.6,3l3.7-0.3c-0.7-0.6-2-1.4-3-1.8l1.3-0.9c1.1,0.4,2.4,1.2,3.1,1.7l-1.2,1l3.6-0.2l0.1,1.6l-6.9,0.5
		c0.3,0.7,0.7,1.5,1.1,2c1.1-0.6,2-1.4,2.7-2.3L346.3,105.2z"/>
</g>
<g>
	<path class="st9" d="M149.6,401.5l-4.7-7.9h-3.6v7.9H140V384h5.1c3.5,0,5.8,1.3,5.8,4.7c0,2.8-1.7,4.4-4.4,4.8l4.7,8H149.6z
		 M141.4,392.4h3.3c3,0,4.7-1.2,4.7-3.7c0-2.5-1.7-3.5-4.7-3.5h-3.3V392.4z"/>
	<path class="st9" d="M153.1,395.1c0-4.2,2.7-6.7,5.6-6.7c3.1,0,4.9,2.2,4.9,6c0,0.4,0,0.7-0.1,1h-9.1c0.1,3.1,1.9,5.3,4.7,5.3
		c1.4,0,2.4-0.4,3.4-1.1l0.5,1c-1,0.6-2.2,1.2-4.1,1.2C155.8,401.8,153.1,399.3,153.1,395.1z M162.4,394.2c0-3.1-1.4-4.7-3.6-4.7
		c-2.1,0-4,1.7-4.2,4.7H162.4z"/>
	<path class="st9" d="M166,395.1c0-4.1,2.6-6.7,5.7-6.7c1.5,0,2.6,0.6,3.8,1.6l-0.1-2.3v-5.2h1.4v19.1h-1.2l-0.2-1.6h0
		c-1,1-2.4,1.9-4.1,1.9C168.1,401.8,166,399.4,166,395.1z M175.4,398.5v-7.4c-1.3-1.2-2.4-1.6-3.6-1.6c-2.4,0-4.3,2.4-4.3,5.5
		c0,3.3,1.5,5.5,4.1,5.5C172.9,400.5,174.1,399.8,175.4,398.5z"/>
	<path class="st9" d="M181.4,396.8v-8.2h1.4v8c0,2.6,0.8,3.8,2.8,3.8c1.5,0,2.5-0.8,4-2.5v-9.4h1.4v12.8h-1.2l-0.1-2.1h-0.1
		c-1.2,1.4-2.5,2.4-4.3,2.4C182.6,401.8,181.4,400.1,181.4,396.8z"/>
	<path class="st9" d="M194.7,395.1c0-4.3,2.8-6.7,5.9-6.7c1.7,0,2.9,0.8,3.7,1.6l-0.8,1c-0.8-0.7-1.7-1.3-2.9-1.3
		c-2.5,0-4.5,2.3-4.5,5.5s1.8,5.5,4.5,5.5c1.3,0,2.5-0.6,3.3-1.4l0.7,1c-1.1,1-2.5,1.7-4.1,1.7C197.2,401.8,194.7,399.3,194.7,395.1
		z"/>
	<path class="st9" d="M206.2,395.1c0-4.2,2.7-6.7,5.6-6.7c3.1,0,4.9,2.2,4.9,6c0,0.4,0,0.7-0.1,1h-9.1c0.1,3.1,1.9,5.3,4.7,5.3
		c1.4,0,2.4-0.4,3.4-1.1l0.5,1c-1,0.6-2.2,1.2-4.1,1.2C208.8,401.8,206.2,399.3,206.2,395.1z M215.5,394.2c0-3.1-1.4-4.7-3.6-4.7
		c-2.1,0-4,1.7-4.2,4.7H215.5z"/>
</g>
<g>
	<path d="M95.9,428c-0.5,2.1-1.3,4.2-2.1,5.9c0.4,0.2,0.8,0.5,1.3,0.9c1.5,0.9,3.5,1.1,6.1,1.1c2.7,0,6.4-0.2,8.8-0.5
		c-0.2,0.6-0.6,1.6-0.6,2.1c-1.7,0.1-5.7,0.2-8.3,0.2c-2.9,0-4.7-0.2-6.3-1.2c-0.9-0.5-1.7-1.3-2.1-1.3c-0.5,0-1.2,1.4-1.8,2.8
		l-1.4-1.9c0.9-1.2,1.8-2.1,2.6-2.5c0.6-1.1,1.2-2.7,1.5-4.1h-3c0.6-1.3,1.2-3,1.8-4.7h-2.6v-1.8h5.1c-0.5,1.5-1.2,3.3-1.7,4.8h1.6
		l0.3-0.1L95.9,428z M92.3,422.1c-0.3-0.9-0.8-2.5-1.2-3.6L93,418c0.4,1.1,0.9,2.5,1.2,3.5L92.3,422.1z M97.3,434.1v-14.1h3.6
		c0.3-0.7,0.5-1.6,0.6-2.3l2.4,0.4c-0.3,0.7-0.6,1.4-0.8,1.9h4.6v5.9h-8.3v1.7h9.1v6.5l-9.1,0H97.3z M99.3,421.6v2.5h6.4v-2.5H99.3z
		 M99.3,429.2v3.1h7.1v-3.1H99.3z"/>
	<path d="M122.9,423c-0.3,0.9-0.7,1.8-1.2,2.7v12.1h-1.6v-9.2c-0.4,0.5-0.7,1.1-1.1,1.5c-0.1-0.2-0.3-0.5-0.5-0.7v0.7h-1.9v3.5
		l2.2-0.6l0.2,1.7c-2.5,0.7-5.1,1.3-7.1,1.8l-0.4-1.8l0.9-0.2v-7.3h1.5v7l1-0.2v-8.6h-2.4v-6.9h5.8v3.8c1.2-1.3,2.3-3.1,2.8-4.6
		l1.7,0.5c-0.8,2-2.2,4.2-3.6,5.6c-0.2-0.3-0.6-0.7-0.9-1.1v2.7h-1.8v2.9h1.8c1.3-1.7,2.4-4,3-5.9L122.9,423z M114.1,423.7h2.6v-3.4
		h-2.6V423.7z M128.5,435.8c0.3,0,0.6,0.1,0.9,0.1c0.4,0,2,0,2.6,0c-0.2,0.4-0.5,1.3-0.5,1.8h-2.3c-2,0-3.6-0.6-4.6-3
		c-0.3,1.3-0.8,2.5-1.5,3.3c-0.3-0.3-0.9-0.8-1.2-1c1.6-2.2,1.8-6.2,1.8-8.9l1.7,0c0,1-0.1,2.1-0.2,3.3c0.4,1.8,0.9,2.9,1.5,3.6
		v-8.7h1.8v3.5h2.9v1.7h-2.9V435.8z M126.3,424.5c-0.2-0.4-0.5-1-0.9-1.6c-0.4,1.4-1,2.6-1.8,3.6c-0.2-0.3-0.9-0.9-1.3-1.2
		c1.4-1.8,2-4.5,2.3-7.6l1.7,0.2c-0.1,1.1-0.3,2.2-0.5,3.2c0.5,0.6,1.2,1.4,1.4,1.6L126.3,424.5z M131,426.2c-0.4-0.8-1-1.8-1.7-2.9
		c-0.4,1.1-1,2-1.7,2.8c-0.2-0.3-0.9-0.9-1.2-1.2c1.5-1.6,2.2-4.2,2.4-7.2l1.7,0.1c-0.1,1.3-0.3,2.5-0.6,3.5
		c0.9,1.2,1.8,2.6,2.3,3.5L131,426.2z"/>
	<path d="M153.6,434.9v2.1H134v-2.1h6.4v-11h-5.8v-2h4.7c-0.4-1-1.1-2.4-1.9-3.4l1.8-0.7c0.9,1.1,1.7,2.6,2.1,3.6l-1.1,0.5h6.4
		l-0.4-0.2c0.7-1.1,1.7-2.8,2.1-4l2.3,0.6c-0.7,1.2-1.5,2.5-2.2,3.5h4.7v2h-5.9v11H153.6z M137.3,425.7c1,2.2,1.8,5,2.1,6.8l-2,0.5
		c-0.2-1.9-1-4.7-1.9-6.8L137.3,425.7z M142.4,434.9h2.6v-11h-2.6V434.9z M147.8,432.5c0.8-1.8,1.8-4.8,2.2-7l2.2,0.5
		c-0.8,2.4-1.8,5.2-2.6,7L147.8,432.5z"/>
	<path d="M159.2,427.4c-0.7-0.7-2.3-1.6-3.6-2.2l1.1-1.5c1.3,0.5,2.8,1.3,3.6,2L159.2,427.4z M160.5,430.2c-0.8,2.4-1.8,5.1-2.8,7.3
		l-1.8-1.1c0.9-1.8,2.1-4.7,3-7.3L160.5,430.2z M160.2,421.6c-0.7-0.7-2.3-1.7-3.6-2.3l1.2-1.5c1.3,0.5,2.8,1.4,3.6,2.1L160.2,421.6
		z M175.4,424.9c-0.7,2.9-1.6,5.4-2.9,7.5c0.4,1.9,0.9,3,1.5,3.1c0.4,0,0.6-1.1,0.8-3.3c0.3,0.4,1.1,0.9,1.5,1.1
		c-0.5,3.7-1.4,4.6-2.2,4.6c-1.3,0-2.2-1.3-2.9-3.4c-1,1.3-2.2,2.4-3.6,3.3c-0.3-0.4-1-1-1.4-1.3c1.8-1.1,3.2-2.5,4.4-4.2
		c-0.5-2.5-0.8-5.7-1-9.4h-6.2v4.1c0,3.2-0.3,7.9-2.3,10.9c-0.3-0.3-1.1-0.9-1.5-1.1c1.8-2.8,2-6.9,2-9.8v-5.9h8
		c0-1-0.1-2.1-0.1-3.1h1.9c0,1.1,0,2.1,0.1,3.1h3.1c-0.6-0.7-1.8-1.6-2.8-2.3l1.1-1c1,0.6,2.3,1.5,2.9,2.2l-1.1,1.1h1v1.8h-4.2
		c0.2,2.5,0.4,4.8,0.6,6.7c0.7-1.5,1.2-3.1,1.6-5L175.4,424.9z M169.1,425.9h-5v-1.5h5V425.9z M165.5,433.4v1.3h-1.4v-7.2h5v6H165.5
		z M165.5,429v2.9h2.1V429H165.5z"/>
	<path d="M195.1,429.8c-3,4.9-8.9,7.1-16.6,8c-0.2-0.6-0.6-1.5-1-2c7.4-0.7,13-2.6,15.7-7L195.1,429.8z M183.7,421.6
		c-1.1,2.7-2.6,5.6-4,7.4c-0.4-0.3-1.3-0.8-1.8-1c1.5-1.7,2.9-4.4,3.8-7L183.7,421.6z M188.5,417.7v13.5h-2v-13.5H188.5z M193.6,421
		c1.5,2.2,3.2,5,4.1,6.8l-1.8,1c-0.8-1.8-2.6-4.8-4-7L193.6,421z"/>
	<path d="M203,435.2v1.7h-1.7v-7.4c-0.3,0.5-0.7,1-1,1.5c-0.1-0.5-0.5-1.7-0.8-2.3c1.5-2,2.4-4.9,3-8h-2.6v-1.8h7.4v1.8h-2.9
		c-0.3,1.7-0.8,3.3-1.3,4.9h3.7v9.7H203z M205.2,427.3H203v6.1h2.2V427.3z M211.4,432.4c-0.4-0.8-1.1-2.2-1.8-3.3
		c0,2.7-0.4,6.4-2,8.8c-0.3-0.3-1.1-0.8-1.6-1c1.6-2.4,1.7-5.9,1.7-8.3v-4.3h11.7v1.7h-9.9v2.6v0.1l1.1-0.6c0.7,1.1,1.6,2.6,2,3.5
		L211.4,432.4z M219,422.9h-10.8v-4.6h1.8v2.9h2.6v-3.6h1.8v3.6h2.6v-2.9h1.9V422.9z M215.4,426.8c0,1.2-0.1,2.4-0.3,3.4
		c0.8,2.7,2.4,5,4.6,6.1c-0.4,0.4-0.9,1-1.2,1.5c-1.7-1-3.1-2.8-4-4.8c-0.7,2.1-1.9,3.8-4.2,4.9c-0.2-0.5-0.7-1.1-1.1-1.5
		c3.7-1.8,4.2-5.1,4.4-9.6H215.4z M216,431.4c0.7-0.9,1.7-2.4,2.2-3.4l1.6,1.1c-0.9,1.1-1.8,2.4-2.6,3.2L216,431.4z"/>
	<path d="M228.4,428.8c-0.7,0.2-1.5,0.5-2.3,0.7v6.1c0,1-0.2,1.6-0.8,1.9c-0.6,0.3-1.5,0.4-2.9,0.4c0-0.5-0.3-1.4-0.6-1.9
		c0.9,0,1.7,0,1.9,0c0.3,0,0.4-0.1,0.4-0.4v-5.6c-0.9,0.3-1.7,0.5-2.4,0.7l-0.5-2c0.8-0.2,1.8-0.5,2.9-0.8v-4.2h-2.6V422h2.6v-4.2
		h1.9v4.2h2.2v1.9h-2.2v3.6l2-0.6L228.4,428.8z M232.1,417.7h1.8v9.2c0,4.4-0.5,8.3-4.4,11c-0.3-0.4-1-1.1-1.5-1.4
		c1.8-1.2,2.8-2.7,3.4-4.4c-1.1,0.4-2.2,0.8-3.1,1.2l-0.8-1.8c1.2-0.3,2.7-0.8,4.4-1.3c0.1-0.8,0.2-1.7,0.2-2.5h-3.3v-1.8h3.3v-2.7
		h-3.4v-1.8h3.4V417.7z M241.9,432.5h-4v5.3h-1.9v-20.2h1.9v3.7h3.7v1.8h-3.7v2.7h3.4v1.8h-3.4v2.9h4V432.5z"/>
	<path d="M262.3,423.6c-0.5,3.4-1.4,6.2-2.7,8.5c1.1,1.7,2.6,3.1,4.5,4c-0.4,0.4-1.1,1.2-1.4,1.8c-1.8-0.9-3.2-2.2-4.3-3.9
		c-1.3,1.6-2.9,2.9-5,4c-0.2-0.5-0.8-1.4-1.2-1.8c2.2-1,3.8-2.4,5-4.1c-0.8-1.6-1.4-3.4-1.9-5.4c-0.4,0.9-0.9,1.6-1.4,2.3
		c-0.3-0.4-0.9-1.1-1.4-1.5c-0.1,6.3-0.3,8.6-0.8,9.4c-0.4,0.5-0.7,0.7-1.4,0.8c-0.5,0.1-1.5,0.1-2.4,0c-0.1-0.5-0.3-1.3-0.5-1.9
		c0.8,0.1,1.5,0.1,1.9,0.1c0.3,0,0.5-0.1,0.6-0.3c0.4-0.5,0.5-2.5,0.6-8.1h-2.5c0,3.6-0.4,7.3-3.3,10.4c-0.4-0.4-1-1-1.5-1.3
		c2.5-2.8,2.9-6.1,2.9-9.1V423h-2.4v-1.9h9.6v1.9h-5.3v2.6h4.5c0,0,0,0.6,0,0.9l0,0.7c1.7-2.2,2.8-5.8,3.5-9.5l2.1,0.3
		c-0.2,1.3-0.5,2.5-0.8,3.7h6.6v1.9H262.3z M248.3,421.1c-0.2-0.8-0.7-2.1-1.1-3l1.8-0.5c0.4,0.9,0.9,2.1,1.1,2.9L248.3,421.1z
		 M256.6,423.8c0.4,2.3,1,4.4,1.9,6.2c0.9-1.8,1.4-3.9,1.8-6.4h-3.6L256.6,423.8z"/>
</g>
<g>
	<path class="st9" d="M442.8,442.1l-4.7-7.9h-3.6v7.9h-1.4v-17.5h5.1c3.5,0,5.8,1.3,5.8,4.7c0,2.8-1.7,4.4-4.4,4.8l4.7,8H442.8z
		 M434.5,433h3.3c3,0,4.7-1.2,4.7-3.7c0-2.5-1.7-3.5-4.7-3.5h-3.3V433z"/>
	<path class="st9" d="M446.2,435.7c0-4.2,2.7-6.7,5.6-6.7c3.1,0,4.9,2.2,4.9,6c0,0.4,0,0.7-0.1,1h-9.1c0.1,3.1,1.9,5.3,4.7,5.3
		c1.4,0,2.4-0.4,3.4-1.1l0.5,1c-1,0.6-2.2,1.2-4.1,1.2C448.9,442.4,446.2,439.9,446.2,435.7z M455.5,434.8c0-3.1-1.4-4.7-3.6-4.7
		c-2.1,0-4,1.7-4.2,4.7H455.5z"/>
	<path class="st9" d="M460.2,429.3h1.2l0.2,1.6h0c1.2-1,2.7-1.9,4.3-1.9c3.4,0,5.1,2.6,5.1,6.5c0,4.4-2.6,6.9-5.6,6.9
		c-1.2,0-2.5-0.6-3.8-1.6l0,2.4v4.6h-1.4V429.3z M469.5,435.5c0-3.1-1.1-5.3-3.9-5.3c-1.2,0-2.5,0.7-4,2v7.4
		c1.4,1.2,2.7,1.6,3.6,1.6C467.7,441.1,469.5,438.9,469.5,435.5z"/>
	<path class="st9" d="M474.7,440.2V423h1.4v17.3c0,0.6,0.2,0.9,0.6,0.9c0.1,0,0.2,0,0.5,0l0.2,1.1c-0.2,0.1-0.5,0.1-0.9,0.1
		C475.3,442.4,474.7,441.6,474.7,440.2z"/>
	<path class="st9" d="M480.2,438.8c0-2.8,2.5-4.2,8.2-4.8c0-1.9-0.5-3.9-2.9-3.9c-1.7,0-3.1,0.8-4,1.5l-0.6-1c1-0.7,2.8-1.7,4.8-1.7
		c3,0,4.1,2.2,4.1,5v8.1h-1.2l-0.1-1.6h0c-1.3,1.1-2.8,1.9-4.5,1.9C481.9,442.4,480.2,441.2,480.2,438.8z M488.4,439.2V435
		c-5,0.6-6.8,1.8-6.8,3.7c0,1.8,1.2,2.4,2.6,2.4S486.9,440.5,488.4,439.2z"/>
	<path class="st9" d="M493.2,435.7c0-4.3,2.8-6.7,5.9-6.7c1.7,0,2.9,0.8,3.7,1.6l-0.8,1c-0.8-0.7-1.7-1.3-2.9-1.3
		c-2.5,0-4.5,2.3-4.5,5.5c0,3.3,1.8,5.5,4.5,5.5c1.3,0,2.5-0.6,3.3-1.4l0.7,1c-1.1,1-2.5,1.7-4.1,1.7
		C495.7,442.4,493.2,439.9,493.2,435.7z"/>
	<path class="st9" d="M504.7,435.7c0-4.2,2.7-6.7,5.6-6.7c3.1,0,4.9,2.2,4.9,6c0,0.4,0,0.7-0.1,1h-9.1c0.1,3.1,1.9,5.3,4.7,5.3
		c1.4,0,2.4-0.4,3.4-1.1l0.5,1c-1,0.6-2.2,1.2-4.1,1.2C507.3,442.4,504.7,439.9,504.7,435.7z M514,434.8c0-3.1-1.4-4.7-3.6-4.7
		c-2.1,0-4,1.7-4.2,4.7H514z"/>
</g>
<g>
	<path d="M414,472.1h2.6v1.6H414v3c0,0.9-0.2,1.4-0.9,1.6c-0.7,0.3-1.7,0.3-3.2,0.3c-0.1-0.5-0.4-1.2-0.6-1.7c1,0,2,0,2.4,0
		c0.3,0,0.4-0.1,0.4-0.4v-2.9H408c0.8,0.7,1.6,1.7,2,2.4l-1.5,1c-0.4-0.8-1.2-1.9-2-2.7l1.3-0.7h-2.4v1.2h-3.6v3.7H400v-3.7h-3.7
		V473h3.7v-1.5h-2.9v-7.7h2.9v-1.4h-3.4v-1.8h3.4v-2.2h1.8v2.2h3.3v1.8h-3.3v1.4h3.1v7.7h-3.1v1.5h3.5v-0.9h6.7v-1h1.9V472.1z
		 M398.5,466.9h1.7v-1.7h-1.7V466.9z M398.5,470h1.7v-1.7h-1.7V470z M403.4,465.2h-1.7v1.7h1.7V465.2z M403.4,468.3h-1.7v1.7h1.7
		V468.3z M405.3,469.5c1.3,0,2.9,0,4.6-0.1v-1.3H406v-5.8h3.9v-1h-4.4v-1.5h4.4v-1.5h1.8v1.5h4.6v1.5h-4.6v1h4.1v5.8h-1.2
		c0.8,0.8,1.7,1.9,2.1,2.6l-1.5,0.8c-0.1-0.3-0.3-0.5-0.5-0.9c-3.4,0.1-6.8,0.2-9.2,0.2L405.3,469.5z M407.7,464.7h2.3v-1.1h-2.3
		V464.7z M409.9,467v-1.1h-2.3v1.1H409.9z M411.7,463.6v1.1h2.4v-1.1H411.7z M414.1,465.8h-2.4v1.1h2.4V465.8z M411.7,469.4l1.9,0
		c-0.2-0.3-0.5-0.6-0.7-0.8l0.7-0.4h-1.9V469.4z"/>
	<path d="M437.4,476c0,1.2-0.3,1.8-1.1,2.2c-0.9,0.3-2.2,0.4-4.2,0.4c-0.1-0.6-0.4-1.5-0.7-2.1c1.5,0.1,3,0.1,3.4,0
		c0.4,0,0.6-0.1,0.6-0.5V464h-13.7v14.5h-2V462h6c0.5-1.2,1-2.6,1.3-3.8l2.6,0.4c-0.5,1.1-1.1,2.3-1.6,3.3h9.5V476z M426,473.9v1.5
		h-1.9v-8.9h8.5v7.3H426z M426,468.4v3.7h4.8v-3.7H426z"/>
	<path d="M460.6,473.3H458v2.8c0,1.1-0.3,1.7-1.1,2c-0.8,0.3-2,0.4-3.9,0.4c-0.1-0.6-0.4-1.4-0.7-1.9c1.3,0,2.8,0,3.1,0
		c0.4,0,0.6-0.1,0.6-0.5v-2.8h-11.1v5.2h-2v-5.2h-2.5v-1.9h2.5v-8.1h6.5v-1.8h-8.2v-1.9h18.5v1.9h-8.4v1.8h6.6v8.1h2.6V473.3z
		 M444.9,465.1v2.2h4.4v-2.2H444.9z M444.9,471.4h4.4v-2.3h-4.4V471.4z M451.4,465.1v2.2h4.6v-2.2H451.4z M456,471.4v-2.3h-4.6v2.3
		H456z"/>
	<path d="M482.3,475.8v2h-19.5v-2h8.7v-5.1h-6.3v-2h6.3v-4.4h-4.9c-0.7,1.3-1.4,2.5-2.2,3.4c-0.4-0.4-1.3-0.9-1.9-1.2
		c1.8-1.9,3.2-4.9,4-8l2.1,0.5c-0.3,1.1-0.7,2.2-1.1,3.3h4v-4.1h2.1v4.1h7.7v2h-7.7v4.4h6.8v2h-6.8v5.1H482.3z"/>
	<path d="M493.7,476.4c0,0.9-0.2,1.4-0.8,1.7c-0.6,0.3-1.6,0.3-3,0.3c-0.1-0.5-0.4-1.2-0.6-1.6c0.9,0,1.8,0,2.1,0
		c0.3,0,0.4-0.1,0.4-0.4v-2.9c-1.3,0.9-2.6,1.7-3.8,2.4l-0.6-1.5c-0.2,1.5-0.7,3-1.6,4.1c-0.3-0.4-1-1.1-1.4-1.4
		c1.2-1.7,1.3-4,1.3-5.9v-5.2h7.9V476.4z M492.4,459.9c1,1.5,2.2,3.6,2.8,4.9l-1.8,0.7c-0.1-0.4-0.4-0.9-0.6-1.4
		c-5.8,0.5-6.6,0.7-7.2,0.9c-0.1-0.4-0.4-1.4-0.6-1.9c0.4-0.1,0.7-0.4,1.2-0.9c0.4-0.5,1.8-2.2,2.7-3.9l2.1,0.6
		c-0.9,1.4-1.9,2.7-2.9,3.9l3.9-0.3c-0.4-0.7-0.8-1.4-1.2-2L492.4,459.9z M487.7,471.3c0,0.9,0,1.8-0.2,2.8c1.1-0.5,2.7-1.3,4.3-2.1
		v-0.8l-1,1c-0.7-0.6-2.1-1.7-3.1-2.4l1.1-1c1,0.6,2.3,1.5,3,2.1v-3.1h-4.1V471.3z M498.4,467.8c-2.2,0-2.8-0.8-2.8-2.9v-6.6h2v2.8
		h5.7v1.8h-5.7v2c0,0.8,0.2,1.1,0.9,1.1h3.7c0.6,0,1.4,0,1.9-0.1c0,0.5,0.1,1.3,0.2,1.7c-0.4,0.1-1.3,0.2-2,0.2H498.4z M501.8,476.5
		c0.8,0,1-0.4,1.1-2.6c0.4,0.3,1.2,0.7,1.8,0.7c-0.2,2.9-0.8,3.7-2.7,3.7h-3.6c-2.3,0-2.9-0.6-2.9-2.6v-7.2h2v2.4h5.9v1.8h-5.9v2.9
		c0,0.7,0.2,0.9,1.1,0.9H501.8z"/>
	<path d="M509.9,468.1c-0.8-0.6-2.4-1.6-3.6-2.3l1.2-1.5c1.1,0.6,2.8,1.5,3.7,2.1L509.9,468.1z M511.5,471.2c-0.9,2.3-2,4.9-3,7
		l-1.8-1.1c0.9-1.7,2.2-4.5,3.2-7L511.5,471.2z M510.9,462.4c-0.8-0.6-2.4-1.7-3.6-2.4l1.2-1.4c1.1,0.6,2.8,1.6,3.7,2.2L510.9,462.4
		z M514.8,465.4c0,3.8-0.4,9.4-3,13c-0.4-0.3-1.2-0.9-1.7-1.1c2.5-3.4,2.7-8.4,2.7-11.9v-6h13.5v1.8h-11.5V465.4z M518.3,472.7
		c-0.7,1.6-1.8,3.4-2.7,4.5c-0.4-0.3-1.2-0.7-1.6-1c0.9-1,1.9-2.6,2.5-4L518.3,472.7z M521.6,471.2v5.3c0,0.9-0.2,1.4-0.8,1.7
		c-0.6,0.3-1.6,0.3-3,0.3c-0.1-0.5-0.3-1.3-0.5-1.8c0.9,0,1.8,0,2.1,0c0.3,0,0.4-0.1,0.4-0.3v-5.2h-3.7v-7.7h3.1
		c0.2-0.7,0.5-1.5,0.6-2.1l2.3,0.4c-0.3,0.6-0.6,1.1-0.9,1.7h4.5v7.7H521.6z M517.7,466.6h5.9V465h-5.9V466.6z M517.7,469.6h5.9V468
		h-5.9V469.6z M524.4,472c0.8,1.3,1.8,3.1,2.3,4.2l-1.9,0.8c-0.5-1.1-1.4-2.9-2.2-4.3L524.4,472z"/>
	<path d="M534.8,464.8h3.5v1.9h-3.5v0.5c0.9,0.9,3,3.4,3.5,4l-1.2,1.7c-0.4-0.8-1.5-2.2-2.3-3.4v9h-2v-8.8c-1,2.3-2.2,4.6-3.5,6
		c-0.2-0.6-0.7-1.4-1.1-1.9c1.6-1.6,3.2-4.4,4.1-7h-3.6v-1.9h4.1v-3.3c-1.1,0.2-2.3,0.3-3.4,0.5c-0.1-0.4-0.4-1.1-0.6-1.6
		c2.9-0.4,6.2-1.1,8.2-1.8l1.4,1.6c-1,0.4-2.2,0.7-3.5,1V464.8z M547.4,460.3v17h-2.1v-1.6H541v1.8h-2v-17.1H547.4z M545.3,473.7
		v-11.4H541v11.4H545.3z"/>
	<path d="M416.2,488.3h-2.6v13.9c0,1.3-0.3,2-1.3,2.3c-0.9,0.4-2.5,0.4-4.7,0.4c-0.1-0.6-0.5-1.6-0.9-2.2c1.7,0.1,3.5,0.1,4,0.1
		c0.5,0,0.6-0.2,0.6-0.6v-13.9h-14.8v-2h19.5V488.3z M400.8,499.4v1.7h-2v-10h9.1v8.3H400.8z M400.8,493.1v4.4h5.1v-4.4H400.8z"/>
	<path d="M438.3,502.6v1.7h-19.6v-1.7h8.7V501h-7v-1.6h7v-1.3H421v-6.8h6.4v-1.1h-8.6v-1.6h8.6v-1.3c-2.2,0.1-4.4,0.2-6.5,0.2
		c0-0.5-0.3-1.2-0.4-1.6c5.1-0.1,11.1-0.5,14.7-1.1l1,1.6c-1.9,0.3-4.2,0.6-6.7,0.7v1.5h8.8v1.6h-8.8v1.1h6.7v6.8h-6.7v1.3h7.5v1.6
		h-7.5v1.6H438.3z M423,494.1h4.4v-1.4H423V494.1z M427.3,496.7v-1.3H423v1.3H427.3z M429.4,492.7v1.4h4.6v-1.4H429.4z M434,495.4
		h-4.6v1.3h4.6V495.4z"/>
	<path d="M459.4,497.9c-0.8,1.6-2,2.9-3.5,3.9c1.4,0.6,3,1.1,4.8,1.3c-0.4,0.4-0.9,1.2-1.2,1.7c-2-0.4-3.9-1-5.5-1.9
		c-1.9,0.9-4,1.6-6.2,2c-0.2-0.5-0.6-1.3-1-1.7c1.9-0.3,3.7-0.7,5.3-1.5c-0.7-0.5-1.3-1-1.8-1.6c-0.6,0.5-1.2,0.9-1.8,1.2
		c-0.3-0.4-1-1.1-1.5-1.4c0.7-0.4,1.4-0.8,2.1-1.3c-0.4-0.5-0.7-1.1-1.1-1.7l1.7-0.5c0.2,0.4,0.4,0.7,0.7,1.1c0.5-0.5,1-1,1.3-1.6
		h-2.6v-5c-0.2,0.2-0.3,0.4-0.5,0.5c-0.4-0.3-1.1-0.9-1.7-1.2c-0.5,1.2-1.2,2.4-1.9,3.6v0.1c0.2,0.1,0.4,0.4,0.6,0.6
		c0.5-0.6,1.1-1.5,1.5-2l1.3,1.2c-0.7,0.6-1.3,1.3-1.8,1.8c0.6,0.6,1.1,1.2,1.3,1.4l-1.2,1.6c-0.3-0.6-0.9-1.5-1.6-2.3v8.5h-1.9
		v-8.2c-0.7,0.9-1.5,1.7-2.2,2.4c-0.2-0.6-0.7-1.6-1-2c1.9-1.5,3.9-4.1,5.1-6.7h-4.6v-1.8h3.5c-0.3-0.8-0.9-2-1.5-2.9l1.6-0.8
		c0.6,0.9,1.3,2.1,1.6,2.9l-1.6,0.8h2l0.4-0.1l1.1,0.8c-0.1,0.4-0.3,0.7-0.4,1c1.4-1.4,2.6-3.5,3.4-5.5l2,0.5
		c-0.2,0.5-0.4,1.1-0.7,1.6h8.4v1.7h-9.3c-0.2,0.4-0.5,0.8-0.7,1.2h8.8v6.4h-5.1c-0.2,0.4-0.5,0.8-0.8,1.1h4.6l0.4-0.1L459.4,497.9z
		 M451,492.2h5.9v-1.2H451V492.2z M451,494.8h5.9v-1.2H451V494.8z M451.6,499.1c0.7,0.7,1.5,1.3,2.4,1.8c1-0.6,1.8-1.3,2.5-2.1h-4.7
		L451.6,499.1z"/>
	<path d="M468,495.3c-0.3,1.9-0.9,3.9-1.6,5.5c0.4,0.2,0.8,0.6,1.5,1c1.5,0.9,3.5,1.1,6.1,1.1c2.7,0,6.4-0.2,8.8-0.5
		c-0.2,0.5-0.6,1.6-0.6,2.1c-1.7,0.1-5.7,0.2-8.3,0.2c-2.9,0-4.8-0.2-6.4-1.2c-0.9-0.5-1.7-1.3-2.2-1.3c-0.5,0-1.3,1.4-1.8,2.8
		l-1.4-1.9c0.8-1.1,1.6-2,2.4-2.4c0.5-1.2,1-2.8,1.3-4.2H463c0.6-1.3,1.3-3.1,1.8-4.8h-2.3v-1.8h4.9c-0.5,1.6-1.1,3.4-1.7,4.9h0.8
		l0.3-0.1L468,495.3z M464.8,489c-0.2-1-0.8-2.5-1.1-3.7l1.8-0.5c0.4,1.1,0.9,2.6,1.2,3.5L464.8,489z M470,489.5h-1.8v-4.1h13.7v4.1
		h-2V487h-9.9v1.8h4v-1h2v1h3.8v1.5h-3.8v1.1h4.7v6.3h-4.7v1.1h5.9v1.5h-5.9v1.7h-2v-1.7h-5.8v-1.5h5.8v-1.1h-4.7v-6.3h4.7v-1.1H470
		V489.5z M471.2,493.8h2.9v-1.2h-2.9V493.8z M474.1,496.3v-1.2h-2.9v1.2H474.1z M476.1,492.6v1.2h2.9v-1.2H476.1z M479,495.1h-2.9
		v1.2h2.9V495.1z"/>
	<path d="M503,502.3c0,1.2-0.3,1.8-1.1,2.1c-0.8,0.3-2.1,0.4-4.1,0.4c-0.1-0.5-0.4-1.5-0.7-2c1.4,0.1,2.9,0,3.3,0
		c0.4,0,0.6-0.1,0.6-0.5v-3.9h-5.3v6.3h-2v-6.3h-5.1c-0.4,2.4-1.1,4.9-2.8,6.7c-0.3-0.4-1.1-1.1-1.6-1.3c2.4-2.7,2.6-6.6,2.6-9.7
		v-7.8H503V502.3z M493.6,496.4v-3.3h-4.8v0.9c0,0.7,0,1.6-0.1,2.4H493.6z M488.8,488.1v3.1h4.8v-3.1H488.8z M501,488.1h-5.3v3.1
		h5.3V488.1z M501,496.4v-3.3h-5.3v3.3H501z"/>
	<path d="M514.6,497.4c-0.5-0.8-1.4-2.1-2.2-3.1v10.7h-2.1v-9.7c-0.9,2.3-2,4.5-3.1,5.8c-0.2-0.6-0.7-1.5-1.1-2
		c1.6-1.8,3.1-5,3.9-7.8h-3.3v-2h3.5v-4.6h2.1v4.6h2.9v2h-2.9v0.6c0.9,0.8,3,3.2,3.5,3.8L514.6,497.4z M526.5,491.2h-2.2v11
		c0,1.3-0.3,1.9-1.1,2.2c-0.8,0.4-2.1,0.4-4,0.4c-0.1-0.6-0.4-1.5-0.7-2.1c1.3,0,2.7,0,3.1,0c0.4,0,0.5-0.1,0.5-0.5v-8.1
		c-1.7,2.9-4,5.7-6.3,7.4c-0.4-0.5-1-1.3-1.5-1.6c2.7-1.8,5.5-5.3,7.1-8.6h-5.6v-2h6.2v-4.6h2.2v4.6h2.2V491.2z"/>
	<path d="M531.8,495.5c-0.4,2.5-1.4,5.5-2.6,7.1c-0.2-0.7-0.6-1.7-1-2.4c0.9-1.2,1.8-3.5,2.1-5.3L531.8,495.5z M534.7,495
		c0.5,0.6,2,3.5,2.4,4.2l-1.4,1.6c-0.4-1.1-1.3-3.3-1.8-4.5v8.6h-1.9v-11h-3.4V492h3.4v-7.3h1.9v7.3h3.4v1.9h-3.4v1.8L534.7,495z
		 M529.7,491.4c-0.1-1.3-0.6-3.4-1.1-5l1.5-0.4c0.6,1.6,1.1,3.6,1.2,4.9L529.7,491.4z M537.4,486.4c-0.6,1.7-1.2,3.7-1.8,5l-1.3-0.4
		c0.5-1.3,1.1-3.5,1.3-5L537.4,486.4z M546,498.8v6.1H544v-5.7l-6.5,1.2l-0.3-1.9l6.8-1.2v-12.5h1.9v12.2l2.4-0.4l0.3,1.9L546,498.8
		z M541.2,495.6c-0.7-0.8-2.3-1.9-3.6-2.6l1-1.5c1.3,0.7,2.9,1.7,3.7,2.5L541.2,495.6z M542.1,490.3c-0.7-0.9-2.2-2-3.4-2.8l1-1.4
		c1.2,0.7,2.8,1.8,3.5,2.7L542.1,490.3z"/>
</g>
<g>
	<path class="st9" d="M725,456.9l-4.7-7.9h-3.6v7.9h-1.4v-17.5h5.1c3.5,0,5.8,1.3,5.8,4.7c0,2.8-1.7,4.4-4.4,4.8l4.7,8H725z
		 M716.8,447.8h3.3c3,0,4.7-1.2,4.7-3.7c0-2.5-1.7-3.5-4.7-3.5h-3.3V447.8z"/>
	<path class="st9" d="M728.5,450.5c0-4.2,2.7-6.7,5.6-6.7c3.1,0,4.9,2.2,4.9,6c0,0.4,0,0.7-0.1,1h-9.1c0.1,3.1,1.9,5.3,4.7,5.3
		c1.4,0,2.4-0.4,3.4-1.1l0.5,1c-1,0.6-2.2,1.2-4.1,1.2C731.1,457.2,728.5,454.7,728.5,450.5z M737.7,449.7c0-3.1-1.4-4.7-3.6-4.7
		c-2.1,0-4,1.7-4.2,4.7H737.7z"/>
	<path class="st9" d="M742.4,444.1h1.2l0.2,1.9h0c1.2-1.3,2.6-2.3,4-2.3c2,0,3.1,1,3.5,2.6c1.4-1.6,2.8-2.6,4.3-2.6
		c2.6,0,3.8,1.7,3.8,4.9v8.2h-1.4v-8c0-2.7-0.9-3.9-2.8-3.9c-1.2,0-2.3,0.8-3.7,2.3v9.6h-1.4v-8c0-2.7-0.9-3.9-2.8-3.9
		c-1.1,0-2.4,0.8-3.7,2.3v9.6h-1.4V444.1z"/>
	<path class="st9" d="M763.1,450.5c0-4.3,2.7-6.7,5.8-6.7s5.8,2.5,5.8,6.7c0,4.2-2.7,6.7-5.8,6.7S763.1,454.8,763.1,450.5z
		 M773.2,450.5c0-3.3-1.8-5.5-4.3-5.5s-4.3,2.3-4.3,5.5s1.8,5.5,4.3,5.5S773.2,453.8,773.2,450.5z"/>
	<path class="st9" d="M776.3,444.1h1.5l2.8,7.8c0.4,1.2,0.8,2.5,1.3,3.7h0.1c0.4-1.2,0.9-2.4,1.3-3.7l2.8-7.8h1.4l-4.7,12.8H781
		L776.3,444.1z"/>
	<path class="st9" d="M789.1,450.5c0-4.2,2.7-6.7,5.6-6.7c3.1,0,4.9,2.2,4.9,6c0,0.4,0,0.7-0.1,1h-9.1c0.1,3.1,1.9,5.3,4.7,5.3
		c1.4,0,2.4-0.4,3.4-1.1l0.5,1c-1,0.6-2.2,1.2-4.1,1.2C791.7,457.2,789.1,454.7,789.1,450.5z M798.3,449.7c0-3.1-1.4-4.7-3.6-4.7
		c-2.1,0-4,1.7-4.2,4.7H798.3z"/>
</g>
<g>
	<path d="M705.5,483.3c-0.9-0.6-2.7-1.7-4-2.4l1.1-1.5c1.3,0.6,3.1,1.6,4.1,2.2L705.5,483.3z M707.9,486.1c-1.1,2.3-2.6,4.9-3.9,7
		l-1.8-1.4c1.2-1.7,2.9-4.5,4.2-7L707.9,486.1z M706.6,477.5c-0.9-0.7-2.7-1.8-3.9-2.6l1.2-1.5c1.3,0.7,3.1,1.7,4,2.4L706.6,477.5z
		 M720.5,491c0,1-0.2,1.6-0.9,1.9c-0.7,0.3-1.8,0.3-3.5,0.3c-0.1-0.5-0.4-1.4-0.6-1.9c1.1,0,2.3,0,2.6,0c0.3,0,0.4-0.1,0.4-0.4v-3.6
		c-2.4,0.6-5,1.3-6.9,1.7l-0.6-1.7c1.9-0.4,4.8-1,7.5-1.7v-4.5h-7.7v4.5c0,2.4-0.2,5.7-1.4,7.8c-0.3-0.4-1.2-0.9-1.6-1.2
		c1.1-1.9,1.1-4.5,1.1-6.7v-6.3h4.8v-6.2h2.1v6.2h4.7V491z M710.4,478.7c-0.3-1.1-1.2-2.8-2.1-4.1l1.7-0.8c0.9,1.2,1.8,2.9,2.2,4
		L710.4,478.7z M712.2,482.4c1.8,0.4,4.1,1.1,5.3,1.8l-0.9,1.4c-1.2-0.7-3.5-1.5-5.3-1.9L712.2,482.4z M721.3,474.5
		c-0.7,1.5-1.6,3.1-2.3,4.1l-1.8-0.7c0.7-1.1,1.7-2.9,2.2-4.2L721.3,474.5z"/>
	<path d="M730.8,474.7c-0.6,1.8-1.4,4-2.1,5.7c1.5,1.8,1.8,3.3,1.8,4.7c0,1.3-0.3,2.2-0.9,2.7c-0.3,0.2-0.7,0.4-1.2,0.4
		c-0.4,0-1,0-1.5,0c0-0.5-0.2-1.3-0.4-1.8c0.4,0.1,0.8,0.1,1.2,0c0.3,0,0.5-0.1,0.6-0.2c0.3-0.2,0.4-0.7,0.4-1.4
		c0-1.1-0.3-2.6-1.8-4.2c0.6-1.4,1.1-3.3,1.5-4.7h-2.3v17.4h-1.8V474h4.8l0.3-0.1L730.8,474.7z M734.7,487.2
		c-0.8,1.8-2.1,3.6-3.2,4.8c-0.4-0.3-1.1-0.8-1.5-1.1c1.1-1.1,2.2-2.7,2.9-4.2L734.7,487.2z M738.4,485.8v5.4c0,1-0.2,1.5-0.9,1.8
		c-0.7,0.3-1.7,0.4-3.2,0.4c-0.1-0.5-0.4-1.3-0.7-1.9c1.1,0,2.1,0,2.4,0c0.3,0,0.4-0.1,0.4-0.4v-5.3h-5.5v-1.9h5.5v-2.3h-3.6v-1.5
		c-0.4,0.3-0.8,0.6-1.3,0.8c-0.3-0.5-0.9-1.1-1.4-1.5c2.7-1.4,5.4-3.8,6.8-6.4l1.7,0.7c-0.2,0.3-0.3,0.6-0.5,0.9
		c1.9,2.2,4,3.6,5.9,4.6c-0.5,0.4-1.1,1.1-1.4,1.6c-0.4-0.3-0.8-0.5-1.3-0.8v1.7h-3.1v2.3h5.2v1.9H738.4z M741.4,479.8
		c-1.4-1-2.7-2.2-4.2-3.9c-1.2,1.5-2.5,2.8-4,3.9H741.4z M740.9,486.6c1.2,1.3,2.4,3.2,3.1,4.4l-1.6,0.9c-0.6-1.3-1.9-3.2-3-4.6
		L740.9,486.6z"/>
	<path d="M748.9,490.7v1.7h-1.7V485c-0.3,0.5-0.7,1-1,1.5c-0.1-0.5-0.5-1.7-0.8-2.3c1.5-2,2.4-4.9,3-8h-2.6v-1.8h7.4v1.8h-2.9
		c-0.3,1.7-0.8,3.3-1.3,4.9h3.7v9.7H748.9z M751.1,482.8h-2.2v6.1h2.2V482.8z M757.3,487.9c-0.4-0.8-1.1-2.2-1.8-3.3
		c0,2.7-0.4,6.4-2,8.8c-0.3-0.3-1.1-0.8-1.6-1c1.6-2.4,1.7-5.9,1.7-8.3v-4.3h11.7v1.7h-9.9v2.6v0.1l1.1-0.6c0.7,1.1,1.6,2.6,2,3.5
		L757.3,487.9z M764.9,478.4h-10.8v-4.6h1.8v2.9h2.6v-3.6h1.8v3.6h2.6v-2.9h1.9V478.4z M761.3,482.2c0,1.2-0.1,2.4-0.3,3.4
		c0.8,2.7,2.4,5,4.6,6.1c-0.4,0.4-0.9,1-1.2,1.5c-1.7-1-3.1-2.8-4-4.8c-0.7,2.1-1.9,3.8-4.2,4.9c-0.2-0.5-0.7-1.1-1.1-1.5
		c3.7-1.8,4.2-5.1,4.4-9.6H761.3z M761.8,486.9c0.7-0.9,1.7-2.4,2.2-3.4l1.6,1.1c-0.9,1.1-1.8,2.4-2.6,3.2L761.8,486.9z"/>
	<path d="M774.3,484.2c-0.7,0.2-1.5,0.5-2.3,0.7v6.1c0,1-0.2,1.6-0.8,1.9c-0.6,0.3-1.5,0.4-2.9,0.4c0-0.5-0.3-1.4-0.5-1.9
		c0.9,0,1.7,0,1.9,0c0.3,0,0.4-0.1,0.4-0.4v-5.6c-0.9,0.3-1.7,0.5-2.4,0.7l-0.5-2c0.8-0.2,1.8-0.5,2.9-0.8v-4.2h-2.6v-1.9h2.6v-4.2
		h1.9v4.2h2.2v1.9h-2.2v3.6l2-0.6L774.3,484.2z M778,473.1h1.8v9.2c0,4.4-0.5,8.3-4.4,11c-0.3-0.4-1-1.1-1.5-1.4
		c1.8-1.2,2.8-2.7,3.4-4.4c-1.1,0.4-2.2,0.8-3.1,1.2l-0.8-1.8c1.2-0.3,2.7-0.8,4.4-1.3c0.1-0.8,0.2-1.7,0.2-2.5h-3.3v-1.8h3.3v-2.7
		h-3.4v-1.8h3.4V473.1z M787.8,488h-4v5.3h-1.9v-20.2h1.9v3.7h3.7v1.8h-3.7v2.7h3.4v1.8h-3.4v2.9h4V488z"/>
	<path d="M808.2,479.1c-0.5,3.4-1.4,6.2-2.7,8.5c1.1,1.7,2.6,3.1,4.5,4c-0.4,0.4-1.1,1.2-1.4,1.8c-1.8-0.9-3.2-2.2-4.3-3.9
		c-1.3,1.6-2.9,2.9-5,4c-0.2-0.5-0.8-1.4-1.2-1.8c2.2-1,3.8-2.4,5-4.1c-0.8-1.6-1.4-3.4-1.9-5.4c-0.4,0.9-0.9,1.6-1.4,2.3
		c-0.3-0.4-0.9-1.1-1.4-1.5c-0.1,6.3-0.3,8.6-0.8,9.4c-0.4,0.5-0.7,0.7-1.4,0.8c-0.5,0.1-1.5,0.1-2.4,0c-0.1-0.5-0.3-1.3-0.5-1.9
		c0.8,0.1,1.5,0.1,1.9,0.1c0.3,0,0.5-0.1,0.6-0.3c0.4-0.5,0.5-2.5,0.6-8.1H794c0,3.6-0.4,7.3-3.3,10.4c-0.4-0.4-1-1-1.5-1.3
		c2.5-2.8,2.9-6.1,2.9-9.1v-4.4h-2.4v-1.9h9.6v1.9H794v2.6h4.5c0,0,0,0.6,0,0.9l0,0.7c1.7-2.2,2.8-5.8,3.5-9.5l2.1,0.3
		c-0.2,1.3-0.5,2.5-0.8,3.7h6.6v1.9H808.2z M794.2,476.6c-0.2-0.8-0.7-2.1-1.1-3l1.8-0.5c0.4,0.9,0.9,2.1,1.1,2.9L794.2,476.6z
		 M802.5,479.2c0.4,2.3,1,4.4,1.9,6.2c0.9-1.8,1.4-3.9,1.8-6.4h-3.6L802.5,479.2z"/>
</g>
<g>
	<path class="st9" d="M939.9,376.4h1.5l7.2,12l1.9,3.5h0.1c-0.1-1.7-0.2-3.5-0.2-5.2v-10.4h1.4v17.5h-1.5l-7.1-12l-2-3.5h-0.1
		c0.1,1.7,0.2,3.3,0.2,5.1v10.5h-1.4V376.4z"/>
	<path class="st9" d="M956.9,376.4h9.7v1.2h-8.2v6.4h6.9v1.2h-6.9v7.4h8.5v1.2h-9.9V376.4z"/>
	<path class="st9" d="M974.3,377.6h-5.5v-1.2h12.5v1.2h-5.5v16.3h-1.5V377.6z"/>
	<path class="st9" d="M981.8,393l9.9-15.4h-9v-1.2h10.8v0.8l-9.9,15.4h10v1.2h-11.8V393z"/>
	<path class="st9" d="M997.4,376.4h9.7v1.2h-8.2v6.4h6.9v1.2h-6.9v7.4h8.5v1.2h-9.9V376.4z"/>
	<path class="st9" d="M1020.8,393.9l-4.7-7.9h-3.6v7.9h-1.4v-17.5h5.1c3.5,0,5.8,1.3,5.8,4.7c0,2.8-1.7,4.4-4.4,4.8l4.7,8H1020.8z
		 M1012.6,384.8h3.3c3,0,4.7-1.2,4.7-3.7c0-2.5-1.7-3.5-4.7-3.5h-3.3V384.8z"/>
	<path class="st9" d="M1024.6,385c0-5.5,3-9,7.2-9c4.3,0,7.3,3.5,7.3,9c0,5.6-3,9.1-7.3,9.1C1027.7,394.2,1024.6,390.6,1024.6,385z
		 M1037.7,385c0-4.8-2.3-7.7-5.8-7.7c-3.5,0-5.7,3-5.7,7.7c0,4.8,2.3,7.8,5.7,7.8C1035.4,392.9,1037.7,389.8,1037.7,385z"/>
</g>
<g>
	<path d="M942.9,416.2v1.5h-3.8l-0.2,1.8h-12.6l0.2-1.8h-3.5v-1.5h3.7l0.2-1.8h12.4l-0.2,1.8H942.9z M936.2,427.3
		c2.2,0.6,4.5,1.3,6,1.8l-1.4,1.3c-1.5-0.6-4.1-1.5-6.6-2.1l0.9-0.9h-4.5l1.3,0.9c-1.8,1-4.8,1.8-7.3,2.2c-0.2-0.4-0.7-1-1.1-1.4
		c2.1-0.3,4.8-1,6.3-1.7H926v-7h14v7H936.2z M925.7,415.6h-1.8v-3.6h8.2c-0.2-0.5-0.6-1.1-0.8-1.5l1.8-0.5c0.5,0.6,0.9,1.4,1.2,2h8
		v3.6h-1.9v-2h-14.6V415.6z M928,422.3h10v-0.8h-10V422.3z M928,424.2h10v-0.9h-10V424.2z M928,426.2h10v-0.9h-10V426.2z
		 M928.3,418.4h3.6c0-0.3,0.1-0.6,0.1-0.9h-3.6L928.3,418.4z M928.7,415.6l-0.1,0.8h3.6l0.1-0.8H928.7z M937.2,418.4l0.1-0.9h-3.5
		c0,0.3-0.1,0.6-0.1,0.9H937.2z M937.4,415.6h-3.5l-0.1,0.8h3.5L937.4,415.6z"/>
	<path d="M953,424.7c-2.8,0.8-5.7,1.7-7.9,2.3l-0.5-2c0.9-0.2,2.1-0.5,3.3-0.8v-4.9h-2.6v-1.9h2.6v-4.3h-2.9v-1.9h7.5v1.9h-2.7v4.3
		h2.5v1.9h-2.5v4.4l2.8-0.8L953,424.7z M963.1,428.4c0.5,0,0.6-0.3,0.6-2.6c0.4,0.3,1.2,0.6,1.7,0.8c-0.2,2.8-0.7,3.5-2.1,3.5h-1.9
		c-1.8,0-2.2-0.6-2.2-2.4v-4.6h-1.8c-0.4,3.5-1.5,6-6,7.3c-0.2-0.5-0.7-1.3-1.1-1.7c3.9-1,4.8-2.9,5.1-5.7h-1.8V411H964v12.1h-2.9
		v4.6c0,0.6,0.1,0.7,0.5,0.7H963.1z M955.5,414.5h6.5v-1.8h-6.5V414.5z M955.5,417.9h6.5v-1.8h-6.5V417.9z M955.5,421.4h6.5v-1.8
		h-6.5V421.4z"/>
	<path d="M970.4,420.2c-0.8-0.8-2.5-1.8-3.8-2.4l1-1.5c1.3,0.5,3,1.4,3.8,2.2L970.4,420.2z M967.1,428.7c1.1-1.6,2.6-4.4,3.8-6.8
		l1.4,1.4c-1.1,2.2-2.4,4.8-3.6,6.8L967.1,428.7z M971.5,414.4c-0.8-0.8-2.4-1.9-3.7-2.5l1-1.5c1.3,0.6,3,1.6,3.8,2.4L971.5,414.4z
		 M987,421.9h-1.7v3.3h-5.1v2.7c0,1.1-0.2,1.6-0.9,1.9c-0.7,0.3-1.8,0.3-3.5,0.3c-0.1-0.5-0.3-1.3-0.6-1.8c1.2,0,2.3,0,2.7,0
		c0.4,0,0.5-0.1,0.5-0.4v-2.7h-4.9v-1.6h4.9v-1.7h-6v-1.8h6v-1.6h-4.7v-1.6h1.1c-0.2-0.8-0.7-1.8-1.2-2.7l1.4-0.6
		c0.6,0.8,1.1,1.9,1.3,2.6l-1.4,0.6h10.4v3.3h1.7V421.9z M985.5,411.6c-3.2,0.9-8,1.5-12.1,1.7c-0.1-0.5-0.3-1.2-0.5-1.6
		c4-0.3,8.6-0.9,11.2-1.6L985.5,411.6z M978.9,416.6c-0.1-0.8-0.6-2-1.1-3l1.5-0.5c0.5,0.9,1,2.1,1.2,2.9L978.9,416.6z M980.2,420.1
		h3.3v-1.6h-3.3V420.1z M983.6,421.9h-3.3v1.7h3.3V421.9z M981.9,416c0.6-0.9,1.3-2.3,1.7-3.3l1.9,0.6c-0.6,1.2-1.4,2.5-1.9,3.3
		L981.9,416z"/>
	<path d="M1000.7,418.9c-0.2,0.1-0.3,0.2-0.4,0.4c2,1,5.7,2,8.9,2.5c-0.4,0.4-0.9,1.2-1.2,1.7c-1.5-0.3-3-0.7-4.5-1.2v0.8h-9.1v-0.8
		c-1.4,0.5-2.7,0.9-4,1.3c-0.4-0.4-1.1-1.1-1.6-1.4c3.6-0.8,7.4-2.2,9.8-3.9h-0.7v-3.4h-6.5v2.6h-1.8v-3.9h8.3v-1h-7v-1.5h16v1.5h-7
		v1h8.4v3.9h-1.9v-2.6h-6.5v3.4h-0.6L1000.7,418.9z M991.4,418.1c1.3-0.2,3-0.6,4.9-1c-1-0.4-2.8-0.8-4.1-1.1l0.6-1.1
		c1.4,0.2,3.2,0.7,4.2,1l-0.5,1.1l0.6-0.1l0.1,1.2c-1.8,0.5-3.7,1-5.2,1.5L991.4,418.1z M1004.3,423.7l1.3,0.8
		c-1,1.4-2.7,2.6-4.3,3.6c0.7,0.3,1.3,0.6,1.8,0.8l-0.9,1.4c-1.7-0.9-5.1-2.3-7.6-3.2l0.9-1.3c1.1,0.4,2.5,0.9,3.8,1.4
		c1-0.5,2.2-1.3,3.1-2h-10.8v-1.5h12.4L1004.3,423.7z M1002.3,421.7c-1.3-0.5-2.5-1.1-3.4-1.6c-1,0.6-2.2,1.1-3.4,1.6H1002.3z
		 M1001.2,416.8l0.2,0l-0.5-0.8c1.2-0.2,3.1-0.8,4.2-1.1l0.8,1.1c-1.1,0.4-2.7,0.7-3.9,1c1.6,0.4,3.5,0.9,4.6,1.3l-0.5,1.3
		c-1.2-0.5-3.6-1.2-5.4-1.6L1001.2,416.8z"/>
	<path d="M1028.5,411.4v18.8h-2.2v-1.5h-10.9v1.5h-2.1v-18.8H1028.5z M1015.4,413.4v3.1h10.9v-3.1H1015.4z M1015.4,418.4v3.2h10.9
		v-3.2H1015.4z M1026.3,426.7v-3.1h-10.9v3.1H1026.3z"/>
	<path d="M1039.4,422.5c-0.3-0.7-0.8-1.8-1.4-2.8v10.6h-1.9v-10.2c-0.7,2.3-1.6,4.5-2.5,5.9c-0.2-0.6-0.7-1.5-1-2
		c1.3-1.7,2.6-5,3.2-7.7h-2.7v-1.9h2.9v-4.1h1.9v4.1h2.3v1.9h-2.3v1.1c0.6,0.8,2.2,3.3,2.6,3.9L1039.4,422.5z M1044.2,425.7
		c-0.8,1.5-2,3.1-3.1,4c-0.4-0.3-1.1-0.8-1.5-1.1c1.1-0.9,2.2-2.2,2.9-3.5L1044.2,425.7z M1044.1,412.7h-3.8V411h12.3v1.7h-3.9v1.2
		h3.5v5.2h-11.5v-5.2h3.3V412.7z M1047.4,424.6v5.7h-1.8v-5.7h-5.1V423h12.4v1.6H1047.4z M1041.8,421.7v-1.6h9.6v1.6H1041.8z
		 M1042.5,417.6h1.6v-2.2h-1.6V417.6z M1047.2,412.7h-1.6v1.2h1.6V412.7z M1045.6,417.6h1.6v-2.2h-1.6V417.6z M1050.1,425.2
		c1.1,1.1,2.3,2.5,2.9,3.5l-1.6,0.9c-0.5-1-1.7-2.6-2.8-3.6L1050.1,425.2z M1048.7,415.4v2.2h1.8v-2.2H1048.7z"/>
</g>
</svg>
