<?xml version="1.0" encoding="utf-8"?>
<!-- Generator: Adobe Illustrator 28.1.0, SVG Export Plug-In . SVG Version: 6.00 Build 0)  -->
<svg version="1.1" id="圖層_1" xmlns="http://www.w3.org/2000/svg" xmlns:xlink="http://www.w3.org/1999/xlink" x="0px" y="0px"
	 viewBox="0 0 79 55.8" style="enable-background:new 0 0 79 55.8;" xml:space="preserve">
<style type="text/css">
	.st0{fill:#FF0000;}
	.st1{fill:#FFFFFF;}
</style>
<path class="st0" d="M77.3,9c-0.9-3.4-2.9-6.3-6.3-7.2C64.8,0.2,39.5,0,39.5,0S14.2,0.2,8,1.8C4.6,2.7,2.6,5.6,1.7,9
	C0.1,15.2,0,27.9,0,27.9s0.1,12.7,1.7,18.9C2.6,50.2,4.6,53.1,8,54c6.2,1.6,31.5,1.8,31.5,1.8S64.8,55.6,71,54
	c3.4-0.9,5.4-3.8,6.3-7.2c1.6-6.2,1.7-18.9,1.7-18.9S78.9,15.2,77.3,9z"/>
<path class="st1" d="M52.3,27.9L31.4,16.3v23.2"/>
</svg>
