
                      <svg xmlns="http://www.w3.org/2000/svg" width="24" height="24" viewBox="0 0 24 24" fill="none">
                        <circle class="i" cx="12" cy="12" r="12" fill="#0B2443" />
                        <path
                          d="M14.1436 3.42857C12.9649 3.42857 12.0005 4.39297 12.0005 5.57167C12.0005 6.75037 12.9649 7.71477 14.1436 7.71477C15.3223 7.71477 16.2867 6.75037 16.2867 5.57167C16.2867 4.39297 15.3223 3.42857 14.1436 3.42857ZM10.929 8.78631C9.15023 8.78631 7.71436 10.2222 7.71436 12.001H9.85745C9.85745 11.4009 10.3289 10.9294 10.929 10.9294C11.5291 10.9294 12.0005 11.4009 12.0005 12.001C12.0005 12.601 9.85745 15.5156 9.85745 17.3587C9.85745 19.2018 11.2933 20.5733 13.0721 20.5733C14.8509 20.5733 16.2867 19.1375 16.2867 17.3587H14.1436C14.1436 17.9588 13.6722 18.4302 13.0721 18.4302C12.472 18.4302 12.0005 17.9588 12.0005 17.3587C12.0005 16.5872 14.1436 13.4154 14.1436 12.001C14.1436 10.265 12.7078 8.78631 10.929 8.78631Z"
                          fill="white"
                        />
                      </svg>